<?xml version="1.0" standalone="no"?><!-- Generator: Gravit.io --><svg xmlns="http://www.w3.org/2000/svg" xmlns:xlink="http://www.w3.org/1999/xlink" style="isolation:isolate" viewBox="21 322.8 200 200" width="200" height="200"><defs><clipPath id="_clipPath_Srt0v94BObKWfsrUiNcWDSmwYYKSjOPp"><rect x="21" y="322.8" width="200" height="200"/></clipPath></defs><g clip-path="url(#_clipPath_Srt0v94BObKWfsrUiNcWDSmwYYKSjOPp)"><clipPath id="_clipPath_5CPxnlKNt92fY9fFRx0G3jw5uFl1MXzW"><rect x="21" y="322.8" width="200" height="200" transform="matrix(1,0,0,1,0,0)" fill="rgb(255,255,255)"/></clipPath><g clip-path="url(#_clipPath_5CPxnlKNt92fY9fFRx0G3jw5uFl1MXzW)"><g><g><g><g><path d=" M 21 422.799 L 21 322.8 L 121 322.8 L 221 322.8 L 221 422.799 L 221 522.799 L 121 522.799 L 21 522.799 L 21 422.799 L 21 422.799 Z " fill="rgb(252,252,252)"/><path d=" M 102.162 520.208 C 107.492 512.446 109.451 509.803 112.232 506.615 C 115.136 503.287 115.545 502.912 119.907 499.563 C 122.441 497.617 125.226 495.46 126.095 494.77 L 127.676 493.514 L 127.274 490.707 C 127.054 489.164 126.815 487.611 126.744 487.256 L 126.614 486.611 L 118.421 486.739 C 109.75 486.876 104.476 486.685 102.066 486.148 C 101.318 485.981 99.787 485.459 98.664 484.987 C 97.542 484.516 94.838 483.67 92.655 483.108 C 83.429 480.729 77.155 478.541 74.371 476.732 C 72.131 475.277 61.121 466.038 45.943 452.879 C 37.525 445.58 30.244 439.193 29.763 438.686 C 29.271 438.166 28.9 437.569 28.915 437.319 C 28.929 437.075 28.934 435.336 28.926 433.454 C 28.902 427.742 29.508 424.808 32.34 416.934 C 35.55 408.011 35.597 407.728 36.417 392.594 C 36.769 386.088 38.202 376.131 39.509 371.098 C 40.727 366.414 41.725 364.417 45.831 358.462 C 50.647 351.476 52.843 349.574 62.61 343.93 C 64.605 342.777 67.463 341.187 68.959 340.396 C 70.456 339.605 71.986 338.72 72.361 338.428 C 73.713 337.374 75.299 336.987 76.328 337.462 C 76.654 337.613 77.72 337.35 81.018 336.307 C 88.86 333.828 91.214 332.969 93.623 331.709 C 97.917 329.464 99.157 329.147 103.54 329.173 C 107.768 329.199 113.154 329.826 119.526 331.034 C 126.884 332.43 128.817 333.267 131.586 336.258 C 133.719 338.562 134.27 339.291 136.188 342.35 C 138.128 345.444 138.445 345.859 141.673 349.537 C 146.102 354.586 147.757 357.044 148.118 359.114 C 148.26 359.93 148.279 359.945 149.155 359.945 C 150.194 359.945 151.034 360.279 152.707 361.354 C 155.222 362.972 156.986 363.371 163.744 363.854 C 171.925 364.438 177.677 365.98 182.313 368.832 C 186.276 371.271 193.699 377.475 197.363 381.412 C 203.084 387.559 209.919 398.149 212.465 404.813 C 213.817 408.352 214.229 410.439 214.357 414.393 C 214.627 422.681 212.75 428.054 205.561 439.573 C 203.225 443.317 201.887 445.258 199.604 448.214 C 197.715 450.66 190.245 459.871 187.002 463.753 C 184.769 466.426 184.291 467.207 183.476 469.523 C 182.08 473.485 180.995 474.437 175.34 476.66 C 172.858 477.636 172.458 477.873 170.157 479.73 C 166.677 482.539 164.631 483.361 159.775 483.898 C 158.715 484.015 153.511 484.191 148.211 484.288 C 138.139 484.474 136.206 484.617 135.42 485.232 C 134.682 485.811 134.127 486.003 132.462 486.253 L 130.918 486.484 L 131.027 488.789 C 131.125 490.84 131.204 491.191 131.745 491.987 L 132.354 492.882 L 134.33 492.765 L 136.306 492.648 L 142.713 495.945 C 146.237 497.757 149.756 499.549 150.534 499.927 C 152.124 500.698 152.407 501.168 151.497 501.525 C 150.914 501.754 150.937 501.769 152.218 501.995 C 154.2 502.346 155.831 503.052 157.869 504.441 C 158.878 505.129 160.154 505.964 160.704 506.297 C 161.253 506.63 164.458 508.996 167.825 511.555 C 171.193 514.114 175.861 517.658 178.2 519.43 C 180.538 521.202 182.451 522.686 182.451 522.726 C 182.451 522.766 180.423 522.799 177.943 522.799 L 173.436 522.799 L 169.523 519.133 C 163.636 513.618 157.978 509.196 150.739 504.454 L 145.897 501.282 L 139.532 498.748 C 136.031 497.354 133.125 496.248 133.076 496.291 C 133.002 496.355 135.404 518.083 135.893 521.772 L 136.029 522.799 L 133.199 522.799 L 130.369 522.799 L 130.228 519.035 C 130.15 516.965 129.963 511.555 129.811 507.012 C 129.659 502.469 129.448 498.752 129.341 498.752 C 129.236 498.752 127.909 499.61 126.394 500.658 C 124.34 502.079 122.768 503.418 120.221 505.914 C 117.164 508.913 116.269 509.976 111.703 516.03 L 106.601 522.796 L 103.492 522.798 L 100.383 522.8 L 102.162 520.21 L 102.162 520.208 Z  M 129.611 483.3 C 132.286 483.125 132.689 483.05 133.369 482.603 C 133.788 482.327 134.621 481.974 135.219 481.818 C 136.674 481.439 141.823 481.166 147.644 481.16 C 153.307 481.154 159.29 480.855 161.437 480.471 C 164.021 480.009 165.207 479.412 167.85 477.245 C 170.177 475.337 170.41 475.202 173.923 473.735 C 178.836 471.684 178.909 471.618 180.157 468.156 C 181.023 465.752 181.88 464.434 185 460.705 C 192.753 451.438 197.942 444.845 200.368 441.177 C 202.703 437.646 207.034 430.18 208.023 427.98 C 211.297 420.699 211.677 412.819 209.08 406.029 C 206.332 398.841 199.004 387.785 193.113 381.939 C 189.309 378.164 182.708 372.859 179.526 371.018 C 176.175 369.08 171.591 367.777 166.426 367.295 C 164.701 367.134 161.779 366.863 159.931 366.693 C 155.529 366.286 153.546 365.745 151.239 364.318 C 150.266 363.716 149.334 363.178 149.169 363.123 C 148.998 363.067 148.05 363.712 146.98 364.612 C 144.813 366.436 144.296 366.571 143.178 365.607 C 142.288 364.84 142.42 364.127 143.669 362.959 C 144.778 361.922 144.923 361.455 144.579 360.028 C 144.038 357.781 143.188 356.539 138.53 351.199 C 135.694 347.948 135.116 347.168 132.021 342.419 C 130.229 339.669 127.642 336.845 126.288 336.161 C 123.182 334.592 110.108 332.365 103.653 332.307 C 100.263 332.276 99.014 332.576 96.057 334.13 C 92.819 335.833 92.084 336.116 84.541 338.561 C 80.71 339.804 77.219 340.941 76.782 341.088 C 76.346 341.235 75.57 341.359 75.059 341.364 C 73.961 341.374 72.13 342.273 65.61 346.003 C 57.97 350.373 55.323 352.232 52.839 354.975 C 51.345 356.626 47.244 362.416 45.72 365.029 C 43.554 368.741 42.222 374.08 40.868 384.481 C 40.175 389.795 40.107 390.622 39.813 397.189 C 39.372 407.01 38.875 409.571 35.727 418.236 C 33.031 425.659 32.682 427.319 32.687 432.714 L 32.691 436.763 L 34.826 438.676 C 43.486 446.438 69.799 469.021 73.304 471.7 L 74.701 472.767 L 75.251 472.293 C 76.001 471.647 77.63 471.382 80.851 471.382 C 84.337 471.382 87.768 471.691 89.556 472.168 C 91.238 472.616 94.771 474.463 94.88 474.951 C 94.999 475.484 94.307 475.384 90.54 474.321 C 84.795 472.7 82.976 472.488 78.83 472.952 C 77.898 473.056 76.686 473.156 76.135 473.174 L 75.135 473.207 L 75.902 473.762 C 77.03 474.578 80.427 476.128 83.018 477.009 C 85.638 477.899 89.345 478.96 94.809 480.383 C 96.929 480.935 99.275 481.68 100.024 482.038 C 101.791 482.884 103.559 483.311 106.119 483.511 C 108.719 483.715 125.602 483.563 129.611 483.3 L 129.611 483.3 Z  M 114.084 480.631 C 109.852 480.311 107.958 479.681 106.142 477.989 C 104.263 476.24 104.253 475.421 106.105 475.162 C 106.893 475.052 106.958 475.084 107.274 475.735 C 107.716 476.647 109.488 477.938 110.954 478.414 C 112.433 478.895 118.117 479.273 121.34 479.105 C 123.011 479.018 124.303 478.802 126.25 478.284 C 129.828 477.332 130.491 477.611 128.681 479.304 C 127.248 480.644 126.488 480.772 120.222 480.733 C 117.345 480.715 114.583 480.669 114.084 480.631 Z  M 144.43 479.116 C 143.317 478.816 141.952 478.122 141.801 477.78 C 141.655 477.452 141.96 476.8 142.409 476.479 C 142.732 476.247 142.886 476.314 143.626 477.004 C 144.605 477.919 145.719 478.158 148.109 477.966 C 149.586 477.847 150.321 477.621 152.066 476.751 C 153.026 476.272 153.208 476.249 155.147 476.363 C 157.625 476.508 159.776 476.148 161.498 475.3 C 162.395 474.859 162.96 474.345 164.033 472.994 C 165.7 470.896 165.888 470.751 166.847 470.831 C 168.525 470.97 167.704 472.332 164.134 475.339 C 161.702 477.388 161.04 477.67 159.046 477.509 C 157.761 477.406 157.236 477.487 154.545 478.203 C 152.87 478.649 150.887 479.1 150.138 479.205 C 148.274 479.466 145.571 479.423 144.43 479.116 L 144.43 479.116 Z  M 134.604 476.462 C 134.396 476.128 134.482 475.972 135.173 475.426 C 135.879 474.869 136.016 474.612 136.199 473.496 C 136.406 472.236 138.3 467.831 139.828 465.056 L 140.566 463.715 L 140.426 461.048 C 140.243 457.562 139.61 454.854 138.58 453.141 C 138.14 452.411 137.78 451.563 137.78 451.259 C 137.78 450.635 138.288 450.168 138.787 450.334 C 139.311 450.507 140.211 451.81 141.088 453.663 C 142.069 455.738 142.286 457.332 142.103 461.118 L 141.97 463.855 L 140.922 465.712 C 139.407 468.397 138.318 471.038 137.925 472.98 C 137.53 474.934 137.171 475.628 136.184 476.344 C 135.337 476.958 134.93 476.988 134.604 476.462 L 134.604 476.462 Z  M 84.152 469.999 C 83.229 469.763 80.316 467.598 79.305 466.396 L 78.483 465.42 L 79.491 466.055 C 80.079 466.424 80.789 466.695 81.192 466.704 C 82.305 466.725 82.751 466.967 83.37 467.882 C 83.937 468.72 83.988 468.745 85.299 468.84 C 86.508 468.928 86.654 468.986 86.723 469.405 C 86.765 469.661 86.663 469.946 86.496 470.037 C 86.116 470.245 85.043 470.227 84.152 469.999 L 84.152 469.999 Z  M 79.54 463.075 C 78.999 462.806 77.519 461.898 76.252 461.057 C 74.985 460.216 72.979 458.975 71.794 458.299 C 69.264 456.857 68.031 455.883 66.698 454.275 C 64.435 451.543 63.828 450.041 64.531 448.909 C 65.009 448.139 65.349 448.495 66.066 450.513 C 66.557 451.897 67.03 452.799 67.593 453.421 C 68.614 454.551 72.587 457.307 76.442 459.559 C 80.566 461.969 81.357 462.539 81.273 463.044 C 81.176 463.63 80.678 463.639 79.54 463.075 L 79.54 463.075 Z  M 68.596 460.401 C 68.048 460.061 66.416 458.895 64.97 457.811 C 63.523 456.726 61.72 455.378 60.963 454.815 C 60.031 454.122 59.377 453.425 58.943 452.664 C 58.316 451.563 58.3 451.454 58.225 447.693 C 58.18 445.438 58.254 443.255 58.405 442.418 C 58.694 440.811 59.698 438.868 60.291 438.769 C 60.763 438.691 60.794 439.342 60.464 442.447 C 59.848 448.243 59.743 450.8 60.091 451.518 C 60.594 452.555 62.2 453.939 66.261 456.834 C 69.941 459.456 70.797 460.234 70.571 460.743 C 70.373 461.188 69.668 461.066 68.596 460.401 Z  M 85.676 453.287 C 84.977 452.864 85.046 452.405 85.92 451.674 C 86.858 450.891 87.109 450.892 87.669 451.685 C 88.238 452.489 88.234 452.532 87.564 453.111 C 86.92 453.666 86.387 453.716 85.676 453.287 L 85.676 453.287 Z  M 102.993 449.182 C 102.46 448.126 102.025 447.655 100.516 446.494 C 96.929 443.736 96.069 442.978 94.961 441.597 C 93.647 439.958 90.006 434.505 88.314 431.643 C 87.222 429.794 86.899 429.443 84.055 427.025 C 82.362 425.585 80.8 424.177 80.582 423.896 C 80.125 423.307 80.06 422.3 80.456 421.959 C 81.182 421.332 81.572 421.646 84.779 425.439 C 85.734 426.568 87.089 427.921 87.79 428.447 C 88.925 429.297 89.249 429.73 90.727 432.37 C 92.523 435.581 94.132 437.587 99.125 442.838 C 102.553 446.443 104.144 448.352 104.33 449.081 C 104.471 449.635 104.159 450.463 103.809 450.463 C 103.716 450.463 103.349 449.887 102.993 449.182 L 102.993 449.182 Z  M 139.374 448.068 C 138.321 446.484 138.417 446.098 140.238 444.588 C 142.58 442.647 143.738 442.374 144.026 443.695 C 144.227 444.619 144.045 444.793 142.88 444.793 C 141.947 444.793 141.836 444.853 141.136 445.722 C 140.475 446.543 140.39 446.793 140.409 447.873 C 140.42 448.545 140.346 449.095 140.243 449.095 C 140.141 449.095 139.75 448.632 139.374 448.068 L 139.374 448.068 Z  M 62.04 445.474 C 61.726 445.148 61.811 443.681 62.396 439.32 C 62.774 436.503 62.816 434.471 62.51 433.777 C 62.392 433.511 61.831 433.017 61.263 432.68 C 60.332 432.128 60.229 431.991 60.229 431.299 C 60.229 430.687 60.349 430.463 60.819 430.198 C 61.562 429.778 61.91 429.945 62.891 431.191 C 64.172 432.818 64.538 434.252 64.533 437.629 C 64.529 440.724 64.092 444.331 63.612 445.239 C 63.295 445.838 62.504 445.956 62.04 445.474 L 62.04 445.474 Z  M 125.851 443.411 C 125.02 442.695 124 442.463 121.567 442.438 C 120.569 442.427 119.294 442.359 118.732 442.286 C 117.434 442.118 117.299 441.64 118.289 440.708 L 118.994 440.044 L 121.414 440.16 C 124.462 440.306 125.813 440.659 127.554 441.765 C 128.598 442.427 128.936 442.76 128.936 443.124 C 128.936 444.17 126.946 444.355 125.851 443.411 Z  M 101.288 440.802 C 101.141 440.65 101.002 440.144 100.977 439.678 C 100.934 438.859 100.956 438.829 101.655 438.77 C 102.932 438.664 104.111 440.235 103.189 440.816 C 102.645 441.159 101.625 441.152 101.288 440.802 L 101.288 440.802 Z  M 125.623 439.448 C 124.92 438.926 124.984 438.534 125.852 438.043 C 126.383 437.744 126.467 437.746 127.112 438.074 C 127.905 438.478 128.017 439.091 127.388 439.582 C 126.821 440.024 126.352 439.989 125.623 439.448 L 125.623 439.448 Z  M 163.83 438.391 C 163.695 438.091 163.636 437.205 163.696 436.387 C 163.787 435.144 164.115 434.206 165.849 430.229 C 166.975 427.648 168.407 424.569 169.033 423.386 C 169.802 421.933 170.292 420.664 170.544 419.476 C 171.159 416.578 173.003 413.608 178.578 406.534 C 181.838 402.398 182.446 401.307 182.608 399.299 C 182.675 398.461 182.874 397.577 183.05 397.335 C 183.758 396.358 184.904 397.127 185.112 398.719 C 185.307 400.214 183.165 404.084 179.845 408.234 C 177.883 410.688 174.507 415.611 173.473 417.529 C 173.064 418.287 172.614 419.518 172.471 420.266 C 172.21 421.631 171.464 423.108 167.236 430.62 L 165.585 433.552 L 165.571 435.736 C 165.559 437.769 165.52 437.954 165.008 438.424 C 164.313 439.062 164.13 439.057 163.83 438.391 L 163.83 438.391 Z  M 39.707 438.146 C 39.63 438.039 40.313 437.259 41.225 436.413 C 42.136 435.567 43.064 434.645 43.287 434.362 C 43.511 434.08 44.684 433.163 45.895 432.325 C 47.107 431.486 48.495 430.341 48.98 429.781 C 49.568 429.102 50.025 428.762 50.352 428.762 C 50.98 428.762 51.386 429.116 51.386 429.663 C 51.386 430.13 50.737 430.63 46.996 433.052 C 45.767 433.848 43.781 435.364 42.584 436.42 C 40.478 438.278 40.005 438.562 39.707 438.146 L 39.707 438.146 Z  M 155.712 432.209 C 155.15 431.425 155.105 430.804 155.599 430.64 C 156.704 430.275 158.642 430.814 158.642 431.487 C 158.642 431.971 157.391 432.868 156.715 432.868 C 156.357 432.868 156.031 432.654 155.712 432.209 Z  M 37.496 429.333 C 36.985 429.076 37.002 428.674 37.571 427.589 C 38.22 426.354 38.955 425.76 41.142 424.702 C 43.111 423.749 43.706 423.259 44.824 421.675 C 45.422 420.828 45.556 420.746 46.346 420.746 C 47.285 420.746 47.757 421.018 47.757 421.558 C 47.757 422.077 44.023 425.368 43.28 425.503 C 42.371 425.668 39.542 427.581 39.114 428.32 C 38.699 429.036 38.247 429.547 38.036 429.538 C 37.957 429.535 37.715 429.443 37.496 429.333 Z  M 175.691 428.904 C 175.271 428.468 175.107 426.723 175.462 426.468 C 176.073 426.032 178.596 427.435 178.596 428.212 C 178.596 428.423 176.832 429.143 176.3 429.149 C 176.097 429.151 175.823 429.041 175.691 428.904 Z  M 112.753 426.954 C 112.347 425.648 112.834 425.048 114.299 425.048 C 115.332 425.048 115.613 425.22 115.995 426.085 C 116.21 426.574 116.166 426.655 115.498 427.007 C 115.081 427.226 114.359 427.393 113.827 427.393 C 113.046 427.393 112.867 427.32 112.753 426.954 L 112.753 426.954 Z  M 86.001 425.863 C 85.492 425.378 85.53 425.055 86.179 424.363 C 86.635 423.877 86.8 423.814 87.141 423.992 C 87.368 424.11 87.704 424.435 87.888 424.714 C 88.198 425.186 88.183 425.258 87.678 425.721 C 87.036 426.311 86.517 426.355 86.001 425.863 Z  M 39.745 421.594 C 39.445 421.335 39.604 420.806 40.104 420.403 C 40.691 419.93 43.396 418.788 43.902 418.8 C 44.268 418.808 42.565 420.242 41.091 421.168 C 40.161 421.752 39.991 421.806 39.745 421.594 Z  M 117.372 421.159 C 116.571 420.969 116.454 419.935 117.183 419.495 C 117.993 419.005 118.672 419.101 119.067 419.759 C 119.835 421.041 119.173 421.588 117.372 421.159 L 117.372 421.159 Z  M 140.066 420.47 C 139.397 419.856 139.59 419.32 140.71 418.68 C 141.693 418.12 142.163 418.198 142.542 418.987 C 142.891 419.714 142.696 420.193 141.884 420.607 C 141.004 421.055 140.676 421.03 140.066 420.47 Z  M 84.809 420.597 C 84.198 420.245 84.062 419.638 84.292 418.286 C 84.559 416.721 84.463 415.748 83.695 412.169 C 83.388 410.737 83.069 408.479 82.987 407.151 L 82.837 404.736 L 81.535 403.582 C 80.129 402.335 78.443 400.286 78.665 400.095 C 78.81 399.97 80.833 401.182 81.315 401.683 C 81.472 401.845 81.702 401.979 81.826 401.979 C 81.95 401.979 81.69 401.598 81.248 401.132 C 79.733 399.537 79.427 398.814 79.554 397.126 C 79.617 396.3 79.622 395.514 79.567 395.38 C 79.394 394.963 79.05 395.112 79.05 395.604 C 79.05 396.103 78.586 396.368 78.031 396.185 C 76.812 395.781 76.687 389.679 77.827 386.178 C 78.116 385.288 78.28 385.096 78.955 384.852 C 79.584 384.626 80.184 383.979 80.184 383.527 C 80.184 383.5 79.584 383.516 78.851 383.562 C 77.099 383.671 74.614 383.297 73.489 382.756 C 72.348 382.207 70.99 380.543 71.365 380.154 C 71.64 379.868 72.648 379.799 73.067 380.036 C 73.206 380.115 73.55 380.576 73.83 381.06 C 74.804 382.737 74.995 382.794 78.663 382.495 C 80.335 382.359 80.484 382.253 80.698 381.046 L 80.822 380.348 L 79.426 380.105 C 78.141 379.881 77.911 379.756 76.55 378.545 C 74.817 377.002 73.568 375.15 74.006 374.773 C 74.584 374.274 75.484 374.836 76.719 376.466 C 77.975 378.123 79.139 379.177 79.578 379.051 C 79.724 379.009 79.896 378.718 79.959 378.404 C 80.064 377.884 79.984 377.798 79.034 377.419 C 77.995 377.004 77.009 376.152 77.009 375.668 C 77.009 375.111 77.55 375.194 78.892 375.955 C 80.272 376.738 80.3 376.745 80.445 376.316 C 80.733 375.461 80.645 375.187 80.014 374.984 C 78.456 374.482 77.352 373.905 76.173 372.977 C 74.299 371.5 74.222 371.248 74.757 368.334 C 75.227 365.772 75.497 364.964 76.083 364.371 C 76.586 363.862 79.662 362.559 81.275 362.173 L 82.623 361.85 L 84.408 362.643 C 85.389 363.079 86.723 363.684 87.372 363.987 C 89.014 364.755 89.243 364.516 88.563 362.749 C 87.602 360.254 86.411 359.749 82.343 360.114 C 80.665 360.265 80.252 360.369 79.991 360.707 C 79.644 361.159 78.596 361.273 78.596 360.859 C 78.596 360.529 79.409 359.886 80.343 359.48 C 80.865 359.252 81.695 359.163 83.309 359.163 C 84.542 359.163 85.618 359.105 85.701 359.034 C 85.783 358.963 85.52 358.721 85.115 358.497 L 84.379 358.091 L 85.137 358.027 C 86.068 357.948 87.306 358.638 88.554 359.93 C 89.745 361.164 90.16 361.932 90.166 362.917 C 90.17 363.379 90.275 364.145 90.402 364.617 C 90.603 365.37 90.575 365.528 90.177 365.894 C 89.746 366.289 89.739 366.367 90.054 367.38 C 90.555 369 91.079 371.743 91.116 372.951 C 91.141 373.78 91.035 374.159 90.655 374.603 C 90.127 375.219 89.996 375.977 90.418 375.977 C 91.082 375.977 92.169 374.564 92.887 372.767 C 93.705 370.721 94.248 370.087 94.879 370.44 C 95.554 370.817 95.269 371.766 93.907 373.678 C 91.115 377.594 88.754 379.954 85.569 382.011 C 84.871 382.462 84.492 382.854 84.492 383.125 C 84.492 383.39 83.95 383.975 83.018 384.716 C 81.722 385.748 81.544 385.975 81.544 386.602 C 81.544 386.995 81.609 387.316 81.688 387.316 C 82.118 387.316 86.285 385.065 88.556 383.607 C 90 382.679 92.582 381.105 94.294 380.109 C 96.006 379.113 97.613 378.048 97.864 377.744 C 98.197 377.341 98.345 376.796 98.405 375.752 C 98.483 374.411 98.525 374.31 99.03 374.247 C 99.784 374.153 100.091 373.894 100.721 372.821 C 101.498 371.499 102.633 370.64 102.633 371.373 C 102.633 371.53 101.867 372.991 100.932 374.621 C 99.013 377.964 98.816 378.782 99.846 379.12 C 100.311 379.273 100.69 379.246 101.405 379.011 C 102.701 378.584 103.18 378.091 103.01 377.358 C 102.905 376.907 103.007 376.637 103.454 376.18 C 104.103 375.514 104.563 375.443 105.303 375.89 C 106.171 376.414 105.948 377.059 104.458 378.344 C 102.389 380.129 100.723 380.541 99.417 379.593 C 99.046 379.325 98.512 379.105 98.229 379.105 C 97.355 379.105 94.05 381.101 88.687 384.87 C 87.44 385.746 85.619 386.979 84.641 387.611 C 83.007 388.666 82.904 388.773 83.372 388.922 C 83.696 389.025 84.319 388.976 85.073 388.787 C 86.798 388.354 87.407 388.418 88.79 389.178 C 89.47 389.552 90.148 389.857 90.296 389.857 C 90.444 389.857 90.727 389.508 90.925 389.081 C 91.185 388.523 91.538 388.194 92.188 387.908 C 93.488 387.337 93.752 387.418 92.959 388.146 C 91.614 389.382 91.784 390.09 93.382 389.905 C 94.188 389.812 94.298 389.842 94.174 390.12 C 94.053 390.392 94.195 390.444 95.061 390.444 C 96.134 390.444 96.784 390.056 97.681 388.88 L 98.054 388.391 L 98.926 389.107 C 100.429 390.34 102.175 390.449 102.182 389.31 C 102.188 388.462 102.685 387.804 103.32 387.804 C 103.867 387.804 103.878 387.834 103.804 389.116 C 103.731 390.366 103.754 390.434 104.279 390.547 C 104.581 390.612 105.177 390.589 105.602 390.495 C 106.354 390.327 106.376 390.295 106.442 389.214 C 106.495 388.343 106.614 388.044 106.998 387.812 C 107.654 387.415 107.84 387.698 107.845 389.1 C 107.848 390.311 108.163 390.711 109.026 390.605 C 109.461 390.552 109.568 390.396 109.662 389.677 C 109.725 389.202 109.878 388.789 110.002 388.761 C 110.127 388.733 110.539 389.078 110.917 389.528 C 111.934 390.736 112.742 390.728 117.134 389.463 C 120.112 388.605 120.938 388.448 122.956 388.349 C 125.829 388.209 125.943 388.011 123.948 386.632 C 122.579 385.685 122.299 385.248 122.928 385.04 C 123.596 384.819 124.479 385.201 125.787 386.277 C 127.013 387.286 127.176 387.359 127.932 387.254 C 128.768 387.137 129.39 386.818 129.39 386.508 C 129.39 386.413 128.625 386.009 127.689 385.609 C 125.907 384.849 125.65 384.512 126.404 383.925 C 127.086 383.392 127.863 383.543 129.264 384.481 C 130.696 385.439 131.438 385.57 132.576 385.063 C 133.412 384.69 133.427 384.426 132.621 384.27 C 130.553 383.868 130.297 383.773 130.297 383.412 C 130.297 383.028 131.162 382.332 131.886 382.134 C 132.116 382.071 132.682 382.156 133.143 382.322 C 134.169 382.691 134.152 382.691 134.152 382.324 C 134.152 381.772 134.815 381.798 136.328 382.408 C 137.162 382.745 138.198 383.013 138.656 383.011 C 139.527 383.006 141.408 382.371 141.408 382.081 C 141.408 381.814 140.496 381.177 139.254 380.576 C 138.63 380.275 137.942 379.895 137.723 379.731 C 136.896 379.114 137.413 378.372 138.969 377.941 C 139.725 377.732 139.949 377.758 141.01 378.179 C 142.246 378.669 143.676 379.594 143.676 379.904 C 143.676 380.174 142.338 380.113 141.087 379.786 C 140.474 379.626 139.93 379.531 139.879 379.576 C 139.827 379.62 140.277 379.905 140.877 380.208 C 142.376 380.966 144.043 380.97 145.513 380.22 C 146.087 379.927 146.74 379.513 146.964 379.3 C 147.36 378.923 147.349 378.905 146.551 378.618 C 146.1 378.455 145.32 378.323 144.817 378.323 C 143.784 378.323 143.612 378.017 144.484 377.731 C 145.403 377.43 146.002 377.504 146.899 378.029 C 147.914 378.624 148.638 378.648 149.427 378.113 C 150.379 377.468 150.416 377.499 147.701 376.666 C 146.511 376.301 146.3 375.859 147.221 375.659 C 147.639 375.569 148.186 375.685 149.04 376.046 C 150.8 376.791 151.479 376.729 153.212 375.67 C 154.016 375.179 154.822 374.704 155.003 374.614 C 155.45 374.392 154.995 373.919 153.895 373.46 C 153.156 373.152 152.441 373.135 145.603 373.269 C 138.988 373.399 137.725 373.476 134.719 373.934 C 131.733 374.389 130.52 374.465 124.797 374.552 C 121.211 374.607 117.923 374.594 117.491 374.524 C 117.059 374.454 116.407 374.18 116.042 373.916 C 115.677 373.652 115.302 373.435 115.209 373.435 C 115.116 373.435 115.106 374.055 115.188 374.813 C 115.378 376.576 115.163 376.954 113.97 376.954 C 113.48 376.954 112.718 376.806 112.277 376.625 C 111.526 376.316 111.426 376.316 110.675 376.625 C 110.234 376.806 109.787 376.954 109.68 376.954 C 109.443 376.954 108.755 375.738 108.755 375.318 C 108.755 374.929 110.066 373.63 110.46 373.63 C 110.623 373.63 111.071 374.07 111.455 374.608 C 112.157 375.591 112.703 375.818 113.245 375.351 C 113.78 374.89 113.429 371.996 112.796 371.65 C 112.632 371.56 112.083 371.485 111.578 371.483 C 110.593 371.48 110.116 371.215 110.116 370.672 C 110.116 370.247 110.788 370.058 112.258 370.071 C 113.893 370.086 114.48 370.34 115.911 371.654 C 117.798 373.386 118.272 373.536 121.794 373.513 C 125.257 373.49 130.598 372.997 133.673 372.418 C 135.364 372.099 136.911 371.987 140.57 371.919 L 145.288 371.831 L 145.219 371.125 C 145.155 370.476 145.07 370.4 144.159 370.174 C 143.615 370.038 141.087 369.776 138.543 369.59 L 133.917 369.252 L 133.552 369.702 C 133.35 369.95 132.845 370.275 132.429 370.425 C 130.938 370.963 122.012 370.653 120.116 369.999 C 118.783 369.539 118.277 368.352 119.414 368.352 C 119.65 368.352 120.69 368.613 121.725 368.932 C 123.983 369.629 125.915 369.912 128.412 369.914 C 130.289 369.916 131.679 369.645 131.298 369.351 C 130.825 368.987 128.995 368.702 128.524 368.92 C 127.61 369.341 125.554 369.009 124.337 368.244 C 123.857 367.942 123.886 367.934 124.992 368.057 C 125.814 368.148 126.395 368.097 126.996 367.88 C 128.019 367.512 127.954 367.081 126.875 367.081 C 126.124 367.081 126.102 367.059 126.102 366.299 C 126.102 365.608 126.035 365.511 125.528 365.459 C 125.055 365.412 124.916 365.512 124.735 366.031 C 124.56 366.53 124.212 366.8 123.05 367.337 L 121.586 368.013 L 120.955 367.361 C 120.235 366.618 119.128 364.434 118.622 362.759 C 118.195 361.344 118.18 359.549 118.591 358.703 C 119.037 357.782 120.216 356.691 121.428 356.077 C 122.368 355.6 122.693 355.546 124.628 355.547 C 127.179 355.548 128.359 355.848 128.817 356.612 C 129.287 357.395 129.613 359.375 129.615 361.453 C 129.617 363.059 129.671 363.297 130.119 363.657 L 130.621 364.061 L 130.186 364.757 C 129.946 365.141 129.498 365.625 129.189 365.835 C 128.679 366.181 128.661 366.243 128.985 366.523 C 129.309 366.802 129.484 366.757 130.91 366.027 C 131.772 365.586 132.65 365.224 132.861 365.224 C 133.573 365.224 133.252 365.879 132.081 366.812 L 130.917 367.739 L 132.138 368.037 C 134.957 368.723 138.611 368.923 139.47 368.438 C 140.214 368.018 144.216 367.775 150.479 367.771 C 157.481 367.767 158.554 367.95 161.717 369.689 C 162.348 370.036 163.266 370.366 163.758 370.424 C 165.5 370.627 165.744 370.73 167.09 371.832 C 170.061 374.264 171.615 376.96 171.927 380.223 C 172.084 381.864 172.08 381.877 170.148 386.286 C 168.817 389.322 168.166 389.796 168.166 387.727 C 168.166 386.793 168.328 386.319 169.1 384.993 C 169.793 383.804 170.125 382.911 170.384 381.541 C 170.709 379.827 170.706 379.603 170.341 378.47 C 169.905 377.118 168.196 374.765 166.411 373.055 L 165.299 371.992 L 164.377 372.631 C 163.479 373.253 161.766 374.984 160.68 376.368 C 159.42 377.972 154.29 383.992 154.094 384.096 C 153.976 384.159 153.88 384.461 153.88 384.766 C 153.88 385.204 153.74 385.364 153.221 385.52 C 152.859 385.629 152.501 385.884 152.427 386.087 C 152.352 386.289 152.436 387.348 152.614 388.439 C 152.791 389.53 152.882 390.604 152.815 390.824 C 152.598 391.539 153.134 391.253 154.35 390.004 C 155.982 388.328 157.159 386.726 159.2 383.403 C 161.695 379.34 161.91 379.256 160.447 382.915 C 158.816 386.993 157.348 389.018 153.337 392.724 C 151.872 394.077 151.588 394.451 151.473 395.178 C 151.319 396.144 151.891 398.39 152.404 398.834 C 152.83 399.202 152.955 399.105 155.811 396.211 C 158.803 393.179 159.079 392.813 160.214 390.379 C 161.168 388.332 161.716 387.671 162.668 387.422 C 163.446 387.219 163.531 387.743 162.948 389.131 C 161.475 392.635 158.43 396.689 155.379 399.209 C 154.554 399.89 153.88 400.552 153.88 400.68 C 153.88 400.808 153.439 401.579 152.902 402.393 C 152.363 403.207 151.805 404.129 151.66 404.441 C 151.238 405.352 150.936 407.408 150.934 409.381 C 150.932 410.891 151.017 411.342 151.417 411.955 C 152.007 412.861 151.9 413.155 150.823 413.596 C 149.348 414.199 149.263 414.05 149.409 411.114 C 149.563 408.021 150.058 405.479 150.951 403.2 C 151.313 402.276 151.578 401.493 151.539 401.459 C 151.5 401.426 149.717 401.705 147.577 402.079 C 143.204 402.845 141.475 402.943 141.251 402.439 C 140.945 401.753 142.036 401.416 146.51 400.818 C 149.771 400.382 151.071 400.109 151.283 399.812 C 151.388 399.667 150.204 396.275 149.864 395.747 C 149.776 395.609 146.057 397.738 144.356 398.9 C 141.915 400.569 140.987 400.986 138.509 401.528 C 136.954 401.869 135.171 402.495 132.451 403.658 C 127.538 405.759 125.088 406.371 121.68 406.353 C 118.838 406.338 119.057 406.384 110.343 403.937 C 106.539 402.869 101.641 401.511 99.458 400.919 C 95.662 399.889 94.47 399.439 94.47 399.035 C 94.47 398.933 94.711 398.85 95.005 398.85 C 95.918 398.85 101.777 400.346 108.415 402.273 C 118.513 405.204 119.951 405.36 118.87 403.406 C 118.578 402.878 118.551 402.656 118.752 402.446 C 119.171 402.011 119.62 402.13 119.757 402.711 C 120.093 404.146 120.156 404.211 121.682 404.671 C 122.878 405.032 123.516 405.102 125.082 405.045 C 127.373 404.962 128.205 404.685 133.359 402.293 C 135.741 401.187 137.521 400.503 138.763 400.217 C 140.989 399.703 141.6 399.397 143.211 397.985 C 144.176 397.139 144.759 396.812 145.864 396.495 C 146.932 396.188 147.687 395.775 148.936 394.815 C 151.187 393.085 151.28 392.859 150.924 390.004 C 150.766 388.741 150.593 387.707 150.538 387.707 C 150.483 387.707 149.759 388.239 148.928 388.889 C 147.363 390.113 145.322 391.085 143.841 391.31 C 143.371 391.382 141.766 391.564 140.276 391.714 C 137.495 391.995 136.646 392.219 136.646 392.671 C 136.646 392.813 137.011 393.341 137.457 393.845 C 138.08 394.548 138.298 395.007 138.395 395.824 C 138.503 396.723 138.461 396.907 138.121 397.02 C 137.452 397.241 137.045 396.839 136.495 395.416 C 135.309 392.35 134.884 392.011 132.811 392.475 C 131.634 392.738 130.524 393.265 130.524 393.561 C 130.524 393.658 131.092 394.155 131.786 394.667 C 133.194 395.704 133.698 396.392 133.698 397.277 C 133.698 398.283 133.038 398.002 130.968 396.118 C 129.343 394.638 128.919 394.354 128.332 394.354 C 127.946 394.354 127.518 394.471 127.38 394.615 C 127.089 394.917 127.495 395.288 129.203 396.279 C 130.538 397.054 131.017 397.464 130.853 397.693 C 130.557 398.105 129.663 397.805 127.902 396.702 C 126.875 396.059 125.762 395.443 125.429 395.334 C 124.411 395 122.733 395.111 120.629 395.653 C 117.93 396.347 116.744 396.327 114.8 395.556 C 113.085 394.876 112.875 394.845 112.091 395.152 C 111.216 395.496 110.779 396.373 110.611 398.119 C 110.444 399.849 110.122 400.196 109.323 399.507 C 108.995 399.225 108.946 398.909 109.032 397.632 C 109.129 396.176 109.178 396.059 109.976 395.355 C 110.699 394.716 110.77 394.579 110.48 394.371 C 110.295 394.239 109.86 394.158 109.513 394.193 C 109.003 394.244 108.688 394.533 107.848 395.722 C 106.957 396.984 106.715 397.197 106.112 397.248 C 104.875 397.353 105.049 396.843 106.768 395.325 C 108.267 394.001 108.347 393.888 107.955 393.641 C 107.192 393.161 106.077 393.311 105.355 393.993 L 104.702 394.609 L 99.416 394.493 C 96.508 394.429 93.364 394.285 92.429 394.173 C 91.493 394.06 89.482 393.884 87.96 393.781 C 86.437 393.679 84.957 393.489 84.671 393.36 C 84.386 393.232 83.686 392.755 83.118 392.3 C 82.548 391.846 81.862 391.373 81.593 391.248 C 81.048 390.996 80.977 391.125 80.796 392.692 C 80.721 393.339 80.822 393.593 81.379 394.158 C 82.95 395.757 85.571 397.94 86.306 398.262 C 86.743 398.454 88.368 398.933 89.918 399.328 C 91.467 399.723 92.921 400.132 93.149 400.237 C 93.659 400.473 93.68 400.869 93.199 401.213 C 92.755 401.531 91.159 401.207 87.746 400.105 C 85.334 399.327 83.682 398.501 81.86 397.161 C 81.223 396.692 80.641 396.309 80.567 396.309 C 80.179 396.309 81.176 398.193 82.127 399.259 C 83.233 400.498 83.812 401.821 83.812 403.11 C 83.812 403.616 84.139 404.129 85.248 405.364 C 86.038 406.244 86.758 407.074 86.848 407.208 C 87.194 407.72 86.575 407.415 85.331 406.459 L 84.039 405.466 L 84.039 406.117 C 84.039 406.475 84.306 407.692 84.632 408.821 C 85.069 410.332 85.264 411.632 85.371 413.746 C 85.513 416.577 85.525 416.627 86.175 417.211 C 86.823 417.795 86.829 417.823 86.563 418.85 C 86.157 420.411 85.546 421.021 84.809 420.597 L 84.809 420.597 Z  M 118.62 393.767 C 118.697 393.659 118.693 393.182 118.61 392.707 C 118.46 391.845 118.458 391.843 117.632 391.936 C 115.651 392.158 115.374 392.229 115.243 392.55 C 115.166 392.736 115.046 392.993 114.976 393.122 C 114.716 393.596 118.289 394.228 118.62 393.767 L 118.62 393.767 Z  M 120.992 393.194 C 121.121 392.986 121.227 392.5 121.227 392.114 C 121.227 391.453 121.192 391.42 120.603 391.528 C 120.26 391.59 119.75 391.681 119.47 391.73 C 118.842 391.84 118.829 392.114 119.41 392.936 C 119.918 393.655 120.634 393.771 120.992 393.194 L 120.992 393.194 Z  M 126.263 392.282 C 127.546 392.004 128.724 391.685 128.88 391.574 C 129.278 391.292 129.258 390.175 128.857 390.307 C 128.689 390.363 127.108 390.611 125.343 390.857 C 123.36 391.135 122.134 391.393 122.134 391.533 C 122.134 391.937 123.062 392.79 123.502 392.79 C 123.737 392.79 124.98 392.561 126.263 392.282 L 126.263 392.282 Z  M 80.157 391.202 C 80.175 390.982 79.928 390.85 79.343 390.768 C 78.111 390.596 77.993 390.979 79.002 391.871 L 79.843 392.616 L 79.987 392.068 C 80.066 391.766 80.142 391.377 80.157 391.202 Z  M 133.564 390.366 C 134.485 390.034 134.689 389.781 134.516 389.184 L 134.383 388.729 L 132.737 389.282 C 131.832 389.588 130.901 389.886 130.668 389.947 C 130.323 390.037 130.297 390.11 130.526 390.348 C 130.884 390.72 132.554 390.73 133.564 390.366 Z  M 137.109 389.459 C 137.479 389.139 137.541 388.917 137.418 388.335 C 137.335 387.936 137.232 387.575 137.19 387.534 C 137.077 387.421 135.923 387.869 135.344 388.251 L 134.836 388.586 L 135.284 389.222 C 135.804 389.959 136.434 390.04 137.109 389.459 L 137.109 389.459 Z  M 142.702 389.021 C 143.06 388.713 143.058 388.645 142.677 387.955 C 142.453 387.55 141.916 386.803 141.485 386.296 L 140.7 385.373 L 139.127 386.275 C 138.261 386.771 137.553 387.217 137.553 387.265 C 137.553 387.4 138.478 388.532 139.008 389.045 C 139.429 389.453 139.637 389.495 140.901 389.426 C 141.834 389.376 142.452 389.237 142.702 389.021 L 142.702 389.021 Z  M 145.027 388.199 C 145.94 387.793 146.623 386.974 146.623 386.289 C 146.623 385.964 146.264 385.194 145.813 384.555 C 145.079 383.514 144.946 383.417 144.396 383.527 C 143.796 383.646 141.862 384.522 141.862 384.674 C 141.862 384.92 143.528 387.849 143.834 388.14 C 144.274 388.56 144.224 388.557 145.027 388.199 L 145.027 388.199 Z  M 80.141 387.719 C 80.198 387.572 80.113 387.499 79.943 387.548 C 79.779 387.595 79.6 387.749 79.546 387.89 C 79.489 388.037 79.574 388.11 79.744 388.061 C 79.908 388.014 80.087 387.86 80.141 387.719 Z  M 149.52 385.32 C 149.929 385.106 150.415 384.678 150.601 384.368 C 150.908 383.856 150.898 383.702 150.484 382.688 C 150.234 382.074 149.93 381.486 149.809 381.382 C 149.668 381.26 149.027 381.518 148.007 382.108 L 146.424 383.023 L 146.77 384.045 C 146.96 384.607 147.266 385.27 147.449 385.517 C 147.823 386.021 148.255 385.98 149.52 385.32 L 149.52 385.32 Z  M 82.684 383.049 C 82.217 382.915 81.771 383.198 81.771 383.629 L 81.771 384.06 L 82.351 383.59 C 82.671 383.332 82.82 383.088 82.684 383.049 Z  M 152.597 381.793 C 153.163 380.765 153.879 379.789 154.988 378.533 L 155.58 377.862 L 153.766 378.684 C 152.769 379.135 151.5 379.842 150.948 380.254 L 149.944 381.004 L 150.561 381.912 C 151.394 383.137 151.873 383.109 152.597 381.793 L 152.597 381.793 Z  M 85.223 381.347 C 86.031 380.886 87.44 379.442 87.44 379.075 C 87.44 378.783 86.774 378.896 85.675 379.376 C 85.087 379.632 84.182 379.952 83.664 380.085 C 82.934 380.273 82.696 380.443 82.603 380.84 C 82.537 381.122 82.408 381.521 82.316 381.726 C 82.161 382.072 82.23 382.09 83.256 381.968 C 83.865 381.896 84.75 381.617 85.223 381.347 L 85.223 381.347 Z  M 81.881 378.592 C 82.338 377.65 82.32 377.579 81.657 377.688 C 81.169 377.769 81.091 377.886 81.091 378.541 C 81.091 379.493 81.434 379.516 81.881 378.592 Z  M 85.618 378.717 C 86.008 378.537 86.898 377.7 88.327 376.17 C 88.803 375.659 89.215 374.92 89.4 374.242 C 89.749 372.964 89.799 371.675 89.5 371.675 C 89.386 371.675 88.882 372.418 88.379 373.325 C 87.847 374.287 87.223 375.112 86.886 375.303 C 86.567 375.483 86.306 375.801 86.306 376.01 C 86.306 376.28 85.957 376.522 85.085 376.855 C 84.004 377.267 83.825 377.421 83.518 378.197 C 83.327 378.679 83.218 379.114 83.276 379.164 C 83.408 379.278 85.104 378.955 85.618 378.717 L 85.618 378.717 Z  M 82.295 376.773 C 82.627 376.664 82.908 376.372 83 376.04 C 83.084 375.736 83.204 375.338 83.267 375.156 C 83.382 374.821 82.647 374.021 82.225 374.021 C 82.1 374.021 81.998 374.248 81.998 374.524 C 81.998 374.801 81.845 375.159 81.657 375.32 C 81.288 375.639 81.185 376.954 81.529 376.954 C 81.646 376.954 81.99 376.873 82.295 376.773 L 82.295 376.773 Z  M 156.705 373.226 C 156.633 373.126 156.414 373.044 156.22 373.044 C 155.931 373.044 155.918 373.098 156.145 373.335 C 156.438 373.639 156.932 373.543 156.705 373.226 Z  M 160.92 371.558 L 161.396 371.148 L 160.725 370.57 C 160.357 370.252 159.611 369.877 159.068 369.737 C 158.039 369.471 152.471 369.157 148.523 369.143 L 146.229 369.134 L 146.422 370.027 C 146.529 370.518 146.683 371.014 146.766 371.129 C 146.866 371.268 147.683 371.3 149.207 371.222 C 151.286 371.117 151.625 371.15 152.859 371.58 C 154.098 372.011 154.499 372.05 157.332 372.011 C 160.155 371.973 160.489 371.93 160.92 371.558 L 160.92 371.558 Z  M 85.985 370.992 C 87.117 370.42 87.571 369.527 87.345 368.311 C 87.045 366.689 86.413 366.221 82.935 365.039 C 81.533 364.562 80.917 364.535 80.413 364.929 C 80.208 365.089 79.639 365.339 79.148 365.485 C 77.638 365.934 77.765 367.227 79.401 368.054 C 80.546 368.633 80.864 369.14 80.864 370.393 L 80.864 371.236 L 81.828 371.154 C 82.591 371.088 83.849 371.212 84.926 371.459 C 84.977 371.47 85.454 371.261 85.985 370.992 L 85.985 370.992 Z  M 83.454 370.202 C 83.154 369.584 83.157 369.44 83.481 368.851 C 84.302 367.36 85.072 367.257 85.933 368.523 C 86.327 369.103 86.329 369.172 85.977 369.636 C 85.621 370.104 84.364 370.891 83.97 370.893 C 83.87 370.893 83.638 370.582 83.454 370.202 L 83.454 370.202 Z  M 123.196 362.907 C 123.468 362.784 124.02 362.682 124.421 362.682 C 125.103 362.682 125.128 362.659 124.793 362.34 C 123.902 361.492 123.919 360.614 124.838 360 C 125.355 359.655 125.515 359.693 125.798 360.228 C 126.366 361.305 127.407 360.838 127.194 359.602 C 126.895 357.863 126.081 357.62 123.69 358.554 C 122.896 358.864 122.066 359.17 121.845 359.234 C 121.624 359.298 121.377 359.498 121.297 359.679 C 120.984 360.383 122.171 363.832 122.554 363.327 C 122.634 363.22 122.923 363.031 123.196 362.907 L 123.196 362.907 Z  M 127.214 362.368 C 127.33 362.108 127.245 362.076 126.728 362.186 C 125.77 362.39 125.56 362.682 126.373 362.682 C 126.808 362.682 127.127 362.563 127.214 362.368 L 127.214 362.368 Z  M 57.984 418.283 C 57.421 417.667 57.443 417.468 58.438 414.138 C 59.926 409.157 60.945 409.154 60.473 414.132 C 60.086 418.203 59.223 419.642 57.984 418.283 L 57.984 418.283 Z  M 165.011 414.805 C 164.566 414.343 165.419 412.869 166.317 412.548 C 167.276 412.205 167.657 412.38 167.846 413.247 C 168.095 414.392 167.608 414.965 166.324 415.037 C 165.62 415.077 165.202 415.004 165.011 414.805 Z  M 206.756 414.589 C 206.288 414.077 205.659 412.067 205.416 410.313 C 205.288 409.391 205.299 409.368 205.764 409.583 C 206.028 409.705 206.553 410.192 206.931 410.666 C 208.529 412.668 208.364 416.352 206.756 414.589 Z  M 55.864 413.5 C 55.548 413.339 55.467 413.029 55.468 411.988 C 55.471 409.67 56.109 408.49 57.671 407.916 C 58.072 407.769 58.455 407.648 58.521 407.648 C 58.824 407.648 58.582 408.495 57.943 409.673 C 57.497 410.496 57.19 411.436 57.093 412.282 C 56.934 413.668 56.682 413.916 55.864 413.5 Z  M 101.726 412.72 C 97.515 411.227 95.413 410.213 93.78 408.884 C 92.107 407.523 91.614 406.961 91.94 406.787 C 92.047 406.73 94.164 407.704 96.646 408.95 C 102.896 412.09 103.716 412.362 104.548 411.57 C 105.037 411.104 107.018 410.854 107.905 411.147 C 108.674 411.401 108.73 412.023 108.018 412.419 C 107.517 412.697 105.788 413.07 104.22 413.238 C 103.675 413.297 102.893 413.134 101.726 412.72 L 101.726 412.72 Z  M 49.215 411.332 C 48.404 409.78 47.572 409.044 45.037 407.631 C 43.664 406.866 42.542 406.154 42.542 406.047 C 42.542 405.796 43.932 405.997 46.397 406.606 C 49.568 407.389 50.452 407.923 50.802 409.264 C 50.92 409.719 50.85 409.835 50.362 409.995 C 49.815 410.174 49.79 410.241 49.933 411.165 C 50.118 412.373 49.798 412.447 49.215 411.332 L 49.215 411.332 Z  M 165.711 407.391 C 165.114 406.844 165.086 406.44 165.614 406.039 C 166.346 405.486 166.989 405.443 167.829 405.89 C 168.815 406.416 168.822 406.713 167.861 407.345 C 166.921 407.963 166.347 407.975 165.711 407.391 L 165.711 407.391 Z  M 49.633 405.884 C 49.355 405.787 48.614 405.359 47.988 404.932 C 47.106 404.331 46.179 403.973 43.901 403.354 C 41.425 402.681 40.955 402.491 40.955 402.165 C 40.955 401.566 42.364 401.053 43.231 401.335 C 43.6 401.455 43.902 401.511 43.902 401.459 C 43.902 401.408 43.443 400.879 42.881 400.284 C 42.319 399.689 41.792 398.972 41.71 398.689 C 41.539 398.104 41.996 395.528 42.32 395.249 C 42.647 394.967 42.752 395.147 43.426 397.154 C 44.143 399.288 45.116 400.804 46.746 402.33 C 47.832 403.347 47.962 403.409 49.354 403.568 C 50.494 403.699 50.931 403.847 51.327 404.235 C 51.995 404.89 52.225 405.682 51.813 405.906 C 51.415 406.124 50.291 406.112 49.633 405.884 L 49.633 405.884 Z  M 74.628 404.559 C 71.439 403.037 68.652 400.997 68.04 399.735 C 67.484 398.587 67.631 397.057 68.518 394.77 C 69.689 391.748 70.766 389.915 71.638 389.457 C 72.625 388.938 72.927 388.976 72.927 389.622 C 72.927 390.318 71.385 394.253 70.459 395.918 C 69.388 397.846 69.55 399.065 71.036 400.239 C 71.391 400.519 72.727 401.381 74.007 402.155 C 76.58 403.712 77.237 404.341 76.781 404.814 C 76.381 405.23 75.92 405.175 74.628 404.559 L 74.628 404.559 Z  M 158.27 400.12 C 158.12 399.783 158.491 399.254 159.582 398.248 C 160.404 397.491 162.379 396.716 162.725 397.014 C 163.016 397.265 162.109 398.761 161.114 399.67 C 160.423 400.302 160.156 400.414 159.35 400.414 C 158.713 400.414 158.357 400.317 158.27 400.12 L 158.27 400.12 Z  M 114.924 388.739 C 114.662 388.548 113.56 386.939 112.474 385.165 C 110.78 382.396 110.502 381.807 110.509 381.009 C 110.517 380.08 110.891 379.402 111.281 379.61 C 111.57 379.764 112.933 382.136 113.744 383.895 C 114.118 384.705 114.786 385.991 115.23 386.751 C 116.014 388.094 116.159 388.873 115.649 389.018 C 115.512 389.056 115.186 388.931 114.924 388.739 L 114.924 388.739 Z  M 116.837 384.237 C 116.546 383.346 116.483 382.698 116.663 382.457 C 116.803 382.269 116.966 382.463 117.229 383.127 C 117.432 383.641 117.599 384.178 117.599 384.32 C 117.599 384.703 116.967 384.634 116.837 384.237 Z  M 48.352 383.5 C 47.521 382.784 48.096 382.13 51.272 380.178 C 53.836 378.602 55.18 378.036 55.618 378.35 C 56.044 378.655 55.855 379.682 55.307 380.033 C 55.098 380.168 54.615 380.282 54.233 380.289 C 52.745 380.312 52.061 380.705 50.845 382.233 C 49.621 383.771 49.021 384.076 48.352 383.5 Z  M 104.423 381.022 C 104.369 380.45 104.504 379.574 104.693 379.269 C 105.023 378.737 106.427 378.084 106.94 378.225 C 107.641 378.416 108.177 379.441 107.875 380.011 C 107.557 380.613 106.998 380.6 106.673 379.984 C 106.305 379.289 105.886 379.378 105.362 380.264 C 104.868 381.1 104.461 381.428 104.423 381.022 L 104.423 381.022 Z  M 112.27 378.591 C 109.908 377.954 110.136 377.639 113.109 377.431 C 115.236 377.282 116.238 377.403 116.238 377.807 C 116.238 378.659 114.094 379.083 112.27 378.591 Z  M 105.864 373.696 C 105.308 373.503 105.565 372.891 106.295 372.672 C 107.138 372.419 107.848 372.393 107.848 372.616 C 107.848 372.842 106.619 373.829 106.362 373.811 C 106.244 373.802 106.02 373.751 105.864 373.696 Z  M 66.458 371.92 C 67.03 369.943 69.667 368.534 71.893 369.016 C 72.622 369.173 72.67 369.844 72.004 370.574 C 71.604 371.012 71.359 371.089 70.357 371.089 C 69.388 371.089 68.972 371.21 68.002 371.773 C 66.558 372.611 66.249 372.641 66.458 371.92 Z  M 105.21 366.807 C 102.6 365.743 101.228 364.143 101.941 362.994 C 102.207 362.564 102.133 362.428 100.957 361.199 C 98.978 359.13 99.382 359.054 101.896 361.02 C 103.395 362.193 103.515 362.43 102.975 363.141 C 102.657 363.559 102.682 363.623 103.371 364.182 C 103.776 364.51 104.668 365.129 105.354 365.558 C 106.998 366.585 107.266 366.866 106.873 367.147 C 106.647 367.308 106.232 367.223 105.21 366.807 L 105.21 366.807 Z  M 62.043 365.316 C 62.043 365.151 62.196 364.7 62.383 364.314 C 62.995 363.053 62.776 361.963 61.22 358.518 C 60.793 357.572 60.502 356.715 60.575 356.614 C 60.768 356.345 62.329 357.086 63.37 357.941 C 64.537 358.899 64.824 359.851 64.727 362.44 C 64.652 364.457 64.645 364.48 63.91 365.045 C 63.109 365.662 62.043 365.816 62.043 365.316 Z  M 115.562 363.762 C 115.102 363.284 115.35 358.866 115.891 357.911 C 116.55 356.748 117.81 355.713 118.846 355.485 C 121.425 354.917 121.945 355.029 120.341 355.806 C 119.22 356.349 118.113 357.431 117.545 358.538 C 117.197 359.216 117.109 359.81 117.127 361.343 C 117.139 362.412 117.043 363.459 116.913 363.669 C 116.632 364.121 115.953 364.168 115.562 363.762 L 115.562 363.762 Z  M 111.791 362.774 C 111.489 362.377 111.445 362.021 111.569 360.966 C 112.234 355.298 115.074 352.304 121.102 350.914 C 122.03 350.7 122.188 350.715 122.755 351.079 C 123.427 351.51 123.703 352.284 123.267 352.517 C 123.12 352.595 122.39 352.527 121.645 352.365 C 120.565 352.13 120.114 352.116 119.42 352.296 C 118.15 352.624 116.395 354.089 115.093 355.909 C 113.562 358.05 113.203 359.162 113.406 361.139 C 113.52 362.254 113.487 362.771 113.286 362.98 C 112.865 363.417 112.211 363.327 111.791 362.774 L 111.791 362.774 Z  M 70.948 360.619 C 70.489 359.789 70.621 359.541 72.003 358.626 C 73.046 357.936 74.463 357.758 74.944 358.258 C 75.148 358.471 74.946 358.692 73.954 359.338 C 73.268 359.784 72.55 360.411 72.358 360.732 C 71.894 361.505 71.417 361.467 70.948 360.619 Z  M 131.448 360.417 C 130.495 359.725 130.54 359.143 131.601 358.426 C 132.069 358.11 132.689 357.744 132.979 357.613 C 133.483 357.385 133.494 357.394 133.234 357.829 C 133.084 358.079 132.71 358.574 132.403 358.929 C 131.869 359.545 131.834 360.141 132.33 360.141 C 132.458 360.141 132.968 359.826 133.462 359.441 C 134.118 358.93 134.486 358.775 134.823 358.868 C 135.077 358.937 135.286 359.06 135.286 359.14 C 135.286 359.539 133.019 360.923 132.366 360.923 C 132.245 360.923 131.832 360.695 131.448 360.417 Z  M 93.036 356.029 C 92.685 355.939 91.864 355.512 91.214 355.079 C 90.563 354.646 89.422 354.05 88.678 353.754 C 87.431 353.258 87.036 353.208 83.579 353.101 C 81.518 353.037 79.705 352.917 79.55 352.835 C 79.055 352.57 79.466 352.366 80.92 352.155 C 84.173 351.683 85.453 351.678 88.514 352.124 C 91.159 352.51 91.702 352.532 93.453 352.332 C 96 352.039 97.17 351.646 100.479 349.972 C 103.309 348.54 103.988 348.292 104.56 348.481 C 105.217 348.699 104.888 349.202 103.52 350.07 C 100.744 351.832 98.759 352.764 96.44 353.397 C 95.169 353.743 94.157 354.105 94.19 354.2 C 94.309 354.536 95.502 354.671 96.51 354.463 C 97.487 354.261 100.995 352.75 103.88 351.289 C 104.723 350.861 106.449 349.552 108.42 347.843 C 110.168 346.327 111.75 345.089 111.934 345.09 C 112.119 345.092 112.423 345.177 112.609 345.279 C 112.906 345.44 112.895 345.55 112.519 346.153 C 111.905 347.134 105.334 352.639 103.33 353.85 C 101.5 354.955 100.408 355.303 97.431 355.725 C 94.384 356.157 93.721 356.203 93.036 356.029 L 93.036 356.029 Z  M 76.547 351.628 C 75.852 350.905 78.58 348.72 80.928 348.12 C 82.38 347.748 83.669 347.749 88.843 348.129 C 93.728 348.488 94.643 348.415 95.743 347.583 C 96.43 347.062 96.629 347.004 97.15 347.166 C 97.917 347.406 97.88 348.098 97.063 348.802 L 96.495 349.291 L 89.601 349.234 C 81.739 349.169 82.093 349.113 79.617 350.828 C 77.965 351.972 77.096 352.199 76.547 351.628 L 76.547 351.628 Z  M 132.559 349.216 C 131.085 348.418 130.014 347.314 130.198 346.782 C 130.407 346.175 130.95 345.478 131.212 345.478 C 131.336 345.478 131.783 345.945 132.206 346.516 C 132.63 347.087 133.341 347.768 133.788 348.031 C 134.782 348.616 134.893 348.836 134.462 349.366 C 134.026 349.903 133.793 349.884 132.559 349.216 L 132.559 349.216 Z  M 100.729 348.102 C 100.443 347.457 100.621 347.067 101.569 346.275 C 102.611 345.404 107.855 342.042 108.684 341.713 C 109.322 341.46 109.889 341.651 109.889 342.118 C 109.889 342.56 109.462 342.897 107.961 343.638 C 107.338 343.946 105.688 345.146 104.296 346.304 C 101.819 348.364 101.025 348.765 100.729 348.102 L 100.729 348.102 Z " fill="rgb(65,109,247)"/><path d=" M 100.592 522.728 C 100.592 522.683 102.498 519.887 104.827 516.515 C 107.952 511.992 109.913 509.41 112.304 506.67 C 115.365 503.161 115.76 502.793 119.443 500.023 C 121.588 498.41 124.353 496.254 125.588 495.233 L 127.834 493.376 L 127.304 489.985 L 126.774 486.595 L 115.554 486.564 C 102.826 486.529 102.613 486.509 98.891 484.97 C 97.769 484.507 94.921 483.629 92.564 483.021 C 84.791 481.015 81.598 480.014 77.975 478.444 C 74.886 477.106 73.729 476.317 68.052 471.671 C 62.084 466.786 37.807 445.868 32.661 441.176 L 29.015 437.852 L 29.054 433.356 C 29.108 426.934 29.474 425.159 32.474 416.762 C 35.408 408.551 35.751 406.691 36.3 396.016 C 36.898 384.388 38.662 373.095 40.772 367.375 C 41.595 365.144 43.367 362.096 46.252 357.948 C 50.541 351.78 53.17 349.502 61.816 344.459 C 63.75 343.332 66.811 341.633 68.619 340.684 C 70.427 339.734 72.213 338.714 72.587 338.415 C 73.721 337.512 74.871 337.193 76.004 337.466 C 76.934 337.691 77.117 337.648 81.882 336.108 C 89.943 333.503 91.182 333.042 93.964 331.616 C 98.125 329.484 98.726 329.347 103.88 329.362 C 108.539 329.375 111.606 329.695 118.166 330.848 C 124.13 331.897 127.575 332.942 129.362 334.244 C 130.695 335.216 133.831 338.794 135.067 340.755 C 137.73 344.978 138.747 346.338 142.154 350.226 C 145.836 354.428 147.423 356.79 147.979 358.896 L 148.243 359.899 L 149.364 360.027 C 150.202 360.123 150.943 360.424 152.297 361.219 C 155.63 363.175 156.148 363.302 163.131 363.858 C 168.815 364.311 170.587 364.572 173.948 365.451 C 179.666 366.945 183.894 369.424 190.738 375.292 C 195.926 379.741 198.802 382.812 202.457 387.804 C 211.352 399.956 214.829 408.449 214.34 416.837 C 213.905 424.292 211.782 429.647 205.073 440.199 C 201.296 446.141 198.868 449.299 188.586 461.645 C 185.14 465.783 184.233 467.13 183.609 469.037 C 182.276 473.108 181.234 474.112 176.192 476.19 C 172.893 477.55 172.539 477.75 170.523 479.406 C 167.138 482.187 165.348 483.011 161.405 483.605 C 159.135 483.947 151.334 484.278 145.263 484.289 C 138.94 484.302 136.344 484.53 135.389 485.158 C 134.423 485.793 133.66 486.038 132.13 486.204 L 130.896 486.337 L 130.955 488.682 C 131.008 490.804 131.071 491.118 131.619 491.978 L 132.225 492.928 L 134.239 492.821 L 136.254 492.713 L 141.836 495.558 C 144.905 497.123 147.927 498.693 148.551 499.046 C 149.175 499.4 150.144 499.886 150.705 500.127 C 152.056 500.705 152.183 500.916 151.479 501.411 L 150.895 501.823 L 152.217 502.047 C 154.046 502.357 155.974 503.203 157.848 504.518 C 158.721 505.13 159.895 505.906 160.456 506.242 C 161.184 506.679 179.729 520.573 182.327 522.628 C 182.45 522.726 180.604 522.798 178.018 522.798 L 173.494 522.796 L 169.433 518.966 C 164.2 514.031 157.296 508.639 150.833 504.439 L 145.898 501.231 L 139.514 498.65 C 133.488 496.213 133.128 496.094 133.062 496.51 C 133 496.901 135.545 520.225 135.85 522.065 L 135.971 522.798 L 133.264 522.798 L 130.556 522.798 L 130.435 521.771 C 130.368 521.207 130.207 517.05 130.077 512.534 C 129.788 502.463 129.603 498.555 129.416 498.555 C 129.337 498.555 127.931 499.501 126.29 500.657 C 124.142 502.171 122.41 503.635 120.101 505.891 C 117.268 508.659 116.295 509.819 111.739 515.862 L 106.583 522.7 L 103.588 522.755 C 101.94 522.786 100.592 522.773 100.592 522.728 Z  M 130.713 483.323 C 132.347 483.188 132.943 483.057 133.324 482.748 C 134.737 481.604 136.69 481.4 148.551 481.159 C 163.156 480.861 163.846 480.72 168.205 477.125 C 170.279 475.415 170.604 475.23 174.125 473.748 C 178.705 471.822 178.966 471.597 180.05 468.644 C 181.108 465.766 181.933 464.482 185.346 460.407 C 196.524 447.061 201.118 440.801 205.555 432.868 C 209.463 425.88 210.863 421.318 210.864 415.566 C 210.866 410.035 209.605 405.93 205.823 399.144 C 202.712 393.563 198.187 387.219 194.495 383.262 C 191.998 380.585 187.846 376.886 184.492 374.351 C 179.596 370.65 177.489 369.551 173.041 368.379 C 169.987 367.574 167.702 367.242 162.723 366.879 C 155.695 366.366 153.739 365.888 150.753 363.953 C 148.992 362.812 148.671 362.855 147.07 364.45 C 145.564 365.948 144.789 366.323 143.871 365.995 C 142.41 365.473 142.38 364.323 143.789 362.899 C 144.953 361.723 145.061 361.137 144.444 359.346 C 143.786 357.435 142.612 355.746 139.361 352.034 C 135.644 347.79 134.854 346.755 132.476 343.018 C 130.599 340.068 128.123 337.22 126.619 336.281 C 124.964 335.248 120.194 334.152 112.656 333.073 C 105.599 332.063 101.421 331.961 99.042 332.74 C 98.397 332.952 96.772 333.69 95.432 334.38 C 92.63 335.825 91.654 336.186 83.925 338.641 C 80.807 339.631 77.891 340.601 77.446 340.796 C 77 340.991 76.001 341.212 75.226 341.287 C 73.983 341.409 73.456 341.618 70.777 343.05 C 59.623 349.014 54.446 352.601 51.463 356.432 C 50.336 357.879 46.432 363.615 45.54 365.133 C 42.847 369.717 40.391 382.491 39.827 394.843 C 39.266 407.106 38.866 409.341 35.623 418.309 C 32.997 425.57 32.449 428.327 32.622 433.406 L 32.737 436.779 L 35.201 439.076 C 38.584 442.23 64.757 464.807 70.264 469.323 L 74.744 472.996 L 75.208 472.487 C 75.99 471.63 76.921 471.521 82.592 471.624 C 87.064 471.705 87.984 471.775 89.254 472.131 C 90.833 472.574 93.116 473.663 94.305 474.541 L 95.036 475.08 L 94.403 475.088 C 94.054 475.093 92.014 474.62 89.868 474.039 C 84.98 472.715 83.268 472.48 80.411 472.744 C 79.226 472.853 77.547 473.001 76.681 473.073 L 75.106 473.204 L 76.086 473.954 C 78.326 475.668 84.379 477.729 96.397 480.868 C 97.893 481.258 99.492 481.798 99.95 482.067 C 100.961 482.662 103.093 483.253 105.107 483.497 C 106.896 483.714 127.678 483.573 130.713 483.323 L 130.713 483.323 Z  M 114.878 480.642 C 112.511 480.479 110.179 480.121 108.998 479.741 C 107.564 479.28 105.357 477.51 104.945 476.491 C 104.73 475.959 104.759 475.848 105.191 475.588 C 106.056 475.065 106.879 475.207 107.332 475.957 C 107.875 476.854 109.754 478.154 111.038 478.522 C 113.107 479.114 120.196 479.396 123.268 479.007 C 124.078 478.905 125.683 478.557 126.834 478.234 C 129.709 477.427 130.205 477.625 128.892 479.055 C 127.55 480.516 126.837 480.663 121 480.69 C 118.194 480.702 115.439 480.681 114.878 480.642 L 114.878 480.642 Z  M 145.309 479.179 C 143.452 478.912 141.862 478.112 141.862 477.442 C 141.862 477.261 142.071 476.948 142.328 476.748 C 142.786 476.391 142.806 476.396 143.55 477.096 C 144.447 477.941 145.184 478.097 147.805 478 C 149.155 477.95 149.941 477.814 150.592 477.52 C 151.091 477.294 151.843 476.952 152.264 476.761 C 152.875 476.482 153.632 476.406 156.006 476.384 C 158.532 476.36 159.18 476.288 160.289 475.906 C 162.045 475.303 162.709 474.782 164.34 472.729 C 165.704 471.012 166.331 470.596 167.15 470.867 C 167.776 471.075 167.777 471.573 167.153 472.349 C 166.132 473.62 163.243 476.194 162.118 476.837 C 161.135 477.398 160.914 477.442 159.067 477.442 C 157.373 477.442 156.652 477.558 154.226 478.223 C 152.658 478.652 150.485 479.091 149.396 479.198 C 147.162 479.419 146.976 479.418 145.309 479.179 L 145.309 479.179 Z  M 134.605 476.327 C 134.605 476.144 134.921 475.714 135.307 475.37 C 135.852 474.886 136.078 474.436 136.315 473.365 C 136.655 471.828 138.542 467.522 139.797 465.419 C 140.611 464.057 140.614 464.039 140.58 461.704 C 140.53 458.269 139.823 455.069 138.683 453.128 C 137.704 451.46 137.604 451.028 138.109 450.666 C 138.749 450.208 139.229 450.552 140.164 452.138 C 141.843 454.985 141.975 455.548 141.975 459.847 L 141.975 463.659 L 140.921 465.516 C 139.273 468.42 138.266 470.827 137.875 472.797 C 137.453 474.917 137.053 475.741 136.186 476.273 C 135.401 476.755 134.605 476.783 134.605 476.327 Z  M 84.554 470.019 C 84.152 469.936 83.577 469.73 83.275 469.56 C 82.415 469.073 79.997 467.093 79.444 466.42 L 78.942 465.81 L 79.588 466.246 C 79.943 466.486 80.719 466.737 81.313 466.805 C 82.65 466.958 82.704 466.99 83.355 468.001 C 83.877 468.813 83.902 468.824 85.263 468.88 C 86.417 468.929 86.655 469 86.725 469.316 C 86.816 469.728 86.203 470.221 85.639 470.189 C 85.445 470.178 84.957 470.101 84.554 470.019 L 84.554 470.019 Z  M 79.151 462.754 C 78.534 462.418 77.198 461.59 76.181 460.914 C 75.165 460.239 73.236 459.052 71.896 458.277 C 68.881 456.533 67.831 455.637 66.106 453.341 C 64.432 451.112 64.138 450.362 64.515 449.277 C 64.67 448.83 64.907 448.516 65.057 448.559 C 65.204 448.602 65.542 449.289 65.808 450.087 C 66.075 450.885 66.451 451.863 66.645 452.259 C 67.395 453.796 70.433 456.088 76.329 459.564 C 79.898 461.669 81.318 462.674 81.318 463.096 C 81.318 463.554 80.331 463.398 79.151 462.754 Z  M 69.406 460.738 C 68.747 460.499 67.238 459.448 63.632 456.719 C 58.419 452.773 58.377 452.707 58.237 448.312 C 58.101 444.039 58.426 441.543 59.324 439.97 C 60.034 438.727 60.685 438.344 60.68 439.173 C 60.678 439.414 60.533 441.064 60.358 442.838 C 59.727 449.208 59.686 450.923 60.14 451.763 C 60.664 452.73 62.668 454.45 65.671 456.512 C 68.24 458.276 70.118 459.753 70.445 460.266 C 70.775 460.783 70.222 461.034 69.406 460.738 Z  M 85.523 453.015 C 85.141 452.65 85.145 452.609 85.618 452.037 C 86.408 451.08 86.871 450.959 87.424 451.565 C 88.003 452.2 88.02 452.65 87.479 453.072 C 86.921 453.507 86.012 453.48 85.523 453.015 Z  M 102.921 448.916 C 102.292 447.762 101.887 447.35 100.045 445.991 C 96.983 443.733 95.914 442.755 94.571 440.981 C 93.308 439.313 89.972 434.244 88.33 431.499 C 87.48 430.077 86.841 429.399 83.887 426.791 C 81.959 425.088 80.373 423.52 80.29 423.237 C 79.973 422.147 80.781 421.427 81.609 422.061 C 81.857 422.252 83.051 423.557 84.262 424.962 C 85.473 426.366 86.996 427.902 87.645 428.375 C 88.682 429.129 89.045 429.617 90.611 432.37 C 92.534 435.752 93.439 436.868 99.653 443.52 C 103.712 447.866 104.26 448.587 104.173 449.47 C 104.136 449.838 104.005 450.166 103.88 450.199 C 103.755 450.232 103.324 449.655 102.921 448.916 L 102.921 448.916 Z  M 139.877 448.655 C 139.347 448.082 138.914 447.112 138.914 446.5 C 138.914 445.987 139.136 445.641 139.915 444.939 C 141.236 443.752 142.602 442.987 143.261 443.067 C 143.707 443.121 143.8 443.262 143.859 443.973 L 143.93 444.816 L 143.11 444.683 C 142.434 444.573 142.19 444.631 141.721 445.011 C 140.64 445.886 140.214 446.703 140.244 447.839 C 140.274 448.961 140.237 449.043 139.877 448.655 L 139.877 448.655 Z  M 62.178 445.4 C 61.814 445.054 61.811 444.845 62.14 442.126 C 62.333 440.529 62.6 438.308 62.732 437.192 C 63.073 434.321 62.731 433.249 61.257 432.564 C 60.349 432.143 60.05 431.527 60.372 430.739 C 60.542 430.321 60.723 430.229 61.366 430.229 C 62.071 430.229 62.224 430.332 62.857 431.245 C 64.184 433.161 64.425 434.17 64.412 437.755 C 64.394 442.427 63.756 445.771 62.884 445.771 C 62.709 445.771 62.392 445.604 62.178 445.4 Z  M 126.107 443.429 C 125.236 442.645 124.555 442.495 121.177 442.339 C 119.452 442.259 118.135 442.106 117.901 441.959 C 117.532 441.727 117.532 441.684 117.898 441.203 C 118.731 440.106 119.175 440.008 122.097 440.27 C 125.109 440.541 126.438 440.972 128.013 442.188 C 129.12 443.043 129.153 443.485 128.134 443.819 C 127.196 444.126 126.796 444.05 126.107 443.429 L 126.107 443.429 Z  M 101.266 440.577 C 101.145 440.302 101.045 439.774 101.045 439.404 C 101.045 438.815 101.116 438.733 101.623 438.733 C 102.889 438.733 103.872 440.416 102.874 440.877 C 102.111 441.229 101.504 441.116 101.266 440.577 L 101.266 440.577 Z  M 125.819 439.517 C 124.932 439.051 124.916 438.935 125.652 438.339 C 126.121 437.959 126.328 437.91 126.819 438.061 C 127.805 438.364 127.991 438.828 127.359 439.408 C 126.709 440.005 126.742 440.002 125.819 439.517 Z  M 164.008 438.602 C 163.925 438.531 163.857 437.737 163.857 436.839 C 163.857 435.603 163.991 434.887 164.407 433.89 C 166.584 428.684 168.106 425.295 169.084 423.48 C 169.899 421.97 170.318 420.88 170.56 419.641 C 171.004 417.374 173.057 413.749 176.061 409.926 C 182.13 402.205 182.382 401.8 182.689 399.285 C 182.803 398.347 182.898 397.517 182.901 397.44 C 182.903 397.363 183.117 397.202 183.377 397.082 C 184.009 396.791 184.638 397.278 184.959 398.306 C 185.146 398.904 185.117 399.308 184.825 400.181 C 184.315 401.709 182.436 404.762 180.479 407.241 C 178.235 410.084 175.349 414.198 173.95 416.55 C 173.106 417.968 172.67 418.998 172.379 420.265 C 172.071 421.6 171.582 422.716 170.326 424.95 C 169.419 426.563 167.924 429.246 167.004 430.912 L 165.331 433.943 L 165.398 435.842 C 165.452 437.354 165.389 437.842 165.089 438.237 C 164.72 438.723 164.309 438.862 164.008 438.602 Z  M 39.821 438.091 C 39.821 437.953 40.388 437.359 41.08 436.771 C 41.773 436.183 42.614 435.327 42.951 434.867 C 43.292 434.4 44.575 433.338 45.854 432.463 C 47.141 431.583 48.533 430.43 49.029 429.833 C 49.514 429.249 50.074 428.769 50.273 428.766 C 50.659 428.762 51.386 429.351 51.386 429.668 C 51.386 429.968 50.104 430.932 47.644 432.483 C 46.397 433.27 44.234 434.91 42.838 436.127 C 40.393 438.259 39.821 438.632 39.821 438.091 Z  M 155.946 432.363 C 154.897 431.212 155.102 430.664 156.579 430.664 C 157.574 430.664 158.642 431.146 158.642 431.595 C 158.642 431.893 157.138 432.868 156.678 432.868 C 156.529 432.868 156.2 432.641 155.946 432.363 L 155.946 432.363 Z  M 37.262 429.095 C 37.2 428.955 37.283 428.506 37.447 428.095 C 38.007 426.691 38.811 425.976 41.122 424.83 C 42.921 423.938 43.47 423.554 44.051 422.777 C 45.312 421.095 45.865 420.684 46.685 420.826 C 48.218 421.09 48.072 421.518 45.688 423.749 C 44.71 424.664 43.916 425.232 43.514 425.302 C 42.393 425.498 39.43 427.549 38.898 428.498 C 38.539 429.137 38.289 429.349 37.897 429.349 C 37.61 429.349 37.324 429.234 37.262 429.095 L 37.262 429.095 Z  M 175.652 428.672 C 175.525 428.385 175.422 427.76 175.422 427.283 C 175.422 426.619 175.507 426.416 175.784 426.416 C 176.411 426.416 177.709 427.042 178.071 427.519 C 178.651 428.282 178.225 428.687 176.436 429.074 C 175.982 429.172 175.84 429.099 175.652 428.672 L 175.652 428.672 Z  M 113.007 427.282 C 112.913 427.2 112.837 426.75 112.837 426.281 C 112.837 425.546 112.917 425.403 113.418 425.238 C 114.396 424.918 115.043 425.017 115.541 425.563 C 116.132 426.21 116.141 426.734 115.567 426.998 C 114.97 427.274 113.219 427.468 113.007 427.282 Z  M 86.048 425.845 L 85.512 425.468 L 85.959 424.746 C 86.527 423.829 86.947 423.693 87.475 424.255 C 88.016 424.831 88.005 425.342 87.44 425.83 C 86.878 426.314 86.719 426.316 86.048 425.845 L 86.048 425.845 Z  M 39.711 421.337 C 39.351 420.836 41.05 419.736 43.342 418.985 L 44.016 418.765 L 43.336 419.389 C 42.356 420.289 40.512 421.529 40.154 421.529 C 39.986 421.529 39.786 421.443 39.711 421.337 Z  M 116.964 420.903 C 116.524 420.524 116.648 420.022 117.289 419.588 C 118.158 418.999 118.68 419.073 119.109 419.849 C 119.637 420.804 119.406 421.137 118.218 421.137 C 117.678 421.137 117.113 421.032 116.964 420.903 L 116.964 420.903 Z  M 140.043 420.351 C 139.508 419.891 139.674 419.464 140.644 418.807 C 141.393 418.298 142.003 418.288 142.307 418.779 C 143.158 420.149 141.302 421.437 140.043 420.351 Z  M 58.241 418.488 C 57.517 418.051 57.581 417.088 58.536 414.048 C 59.298 411.622 59.887 410.385 60.278 410.385 C 60.532 410.385 60.489 414.333 60.218 415.954 C 59.989 417.323 59.41 418.62 58.978 418.733 C 58.851 418.767 58.519 418.657 58.241 418.488 L 58.241 418.488 Z  M 165.388 414.942 C 164.505 414.743 165.375 412.852 166.457 412.618 C 167.456 412.401 167.712 412.624 167.712 413.707 C 167.712 414.588 167.649 414.716 167.13 414.886 C 166.531 415.083 166.077 415.097 165.388 414.942 Z  M 206.726 414.46 C 206.13 413.615 205.141 409.603 205.528 409.603 C 205.772 409.603 206.758 410.509 207.267 411.201 C 207.702 411.794 208.121 413.97 207.927 414.636 C 207.746 415.258 207.236 415.184 206.726 414.46 L 206.726 414.46 Z  M 55.689 413.214 C 55.326 412.838 55.54 410.299 56.018 409.314 C 56.353 408.621 57.529 407.845 58.245 407.844 C 58.775 407.843 58.763 407.9 57.851 409.703 C 57.252 410.886 57.059 411.537 57.057 412.389 C 57.055 413.441 57.02 413.513 56.515 413.513 C 56.219 413.513 55.847 413.379 55.689 413.214 Z  M 102.746 412.948 C 99.88 412.05 95.8 410.301 94.576 409.446 C 93.168 408.462 91.814 407.135 92.029 406.95 C 92.206 406.797 93.034 407.177 97.482 409.455 C 101.51 411.519 103.266 412.216 103.929 412.014 C 104.151 411.946 104.549 411.723 104.813 411.519 C 105.206 411.216 105.577 411.159 106.854 411.206 C 108.28 411.26 108.421 411.303 108.488 411.709 C 108.573 412.227 107.733 412.598 105.982 412.816 C 105.393 412.889 104.852 413.032 104.779 413.133 C 104.587 413.401 104.029 413.35 102.746 412.948 L 102.746 412.948 Z  M 49.438 411.509 C 48.292 409.549 47.881 409.172 45.32 407.728 C 43.917 406.937 42.769 406.212 42.769 406.116 C 42.769 405.758 47.788 406.863 49.398 407.576 C 50.57 408.095 51.142 409.737 50.223 409.944 C 49.787 410.042 49.754 410.15 49.867 411.098 C 49.936 411.674 49.951 412.145 49.901 412.145 C 49.851 412.145 49.643 411.859 49.438 411.509 Z  M 165.816 407.328 C 165.086 406.699 165.064 406.394 165.721 405.997 C 166.447 405.559 167.364 405.622 168.089 406.159 C 168.641 406.569 168.679 406.665 168.402 406.954 C 168.071 407.297 166.977 407.843 166.62 407.843 C 166.507 407.843 166.144 407.611 165.816 407.328 L 165.816 407.328 Z  M 85.237 406.322 C 84.158 405.48 83.434 404.324 83.987 404.324 C 84.212 404.324 85.32 405.436 86.277 406.621 C 86.995 407.511 86.623 407.403 85.237 406.322 Z  M 117.599 405.889 C 116.663 405.675 113.857 404.887 111.363 404.137 C 108.868 403.388 104.43 402.146 101.499 401.378 C 95.821 399.89 94.178 399.322 94.717 399.035 C 94.89 398.942 95.288 398.916 95.601 398.977 C 97.407 399.329 101.821 400.5 108.487 402.396 C 113.886 403.932 116.481 404.577 117.582 404.656 C 118.53 404.725 119.177 404.691 119.266 404.567 C 119.345 404.457 119.233 403.957 119.018 403.457 C 118.682 402.674 118.672 402.522 118.952 402.373 C 119.419 402.125 119.562 402.263 119.72 403.114 C 119.796 403.529 120.039 404.003 120.26 404.168 C 121.507 405.107 125.522 405.466 127.575 404.823 C 128.136 404.647 130.437 403.679 132.688 402.671 C 136.565 400.936 137.708 400.522 140.011 400.018 C 140.738 399.859 141.454 399.434 142.752 398.387 C 144.096 397.303 144.839 396.867 145.925 396.525 C 146.829 396.241 147.879 395.688 148.821 394.999 C 150.343 393.886 150.375 393.896 149.773 395.284 C 149.667 395.529 148.706 396.212 147.621 396.816 C 146.544 397.415 144.898 398.429 143.963 399.069 C 141.807 400.547 141.021 400.887 138.543 401.413 C 136.513 401.845 135.436 402.241 131.318 404.072 C 127.899 405.593 125.581 406.133 122.134 406.212 C 119.852 406.264 118.968 406.201 117.599 405.889 L 117.599 405.889 Z  M 50.084 405.893 C 49.679 405.811 48.791 405.372 48.109 404.919 C 47.162 404.289 46.186 403.902 43.969 403.281 C 40.828 402.4 40.542 402.167 41.812 401.528 C 42.452 401.205 42.649 401.187 43.236 401.397 C 43.611 401.53 43.97 401.595 44.034 401.539 C 44.099 401.483 43.723 401.011 43.2 400.49 C 41.591 398.887 41.448 398.283 42.13 395.967 C 42.264 395.51 42.45 395.136 42.544 395.136 C 42.637 395.136 42.992 396.011 43.332 397.079 C 43.813 398.592 44.237 399.405 45.243 400.745 C 46.937 403.003 47.618 403.487 49.336 403.655 C 50.777 403.795 51.382 404.162 51.821 405.161 C 52.036 405.652 52.003 405.723 51.481 405.894 C 51.163 405.998 50.884 406.075 50.861 406.064 C 50.838 406.053 50.488 405.976 50.084 405.893 Z  M 74.336 404.334 C 72.649 403.532 70.173 401.917 69.185 400.974 C 67.154 399.036 67.211 397.693 69.545 392.529 C 70.455 390.515 71 389.828 72.066 389.35 C 72.864 388.992 72.927 389.001 72.927 389.475 C 72.927 390.138 71.111 394.78 70.485 395.718 C 70.163 396.2 69.827 396.936 69.739 397.354 C 69.394 398.977 70.187 399.952 73.424 401.89 C 75.76 403.288 76.782 404.1 76.782 404.558 C 76.782 405.095 75.735 404.999 74.336 404.334 L 74.336 404.334 Z  M 81.827 403.762 C 80.764 402.873 78.823 400.68 78.823 400.37 C 78.823 399.769 82.36 402.419 82.683 403.262 C 83.156 404.497 82.89 404.653 81.827 403.762 L 81.827 403.762 Z  M 141.311 402.588 C 140.85 401.945 142.149 401.508 146.035 400.996 C 147.73 400.774 149.602 400.464 150.195 400.309 C 151.641 399.931 151.651 399.934 151.57 400.645 L 151.499 401.267 L 147.984 401.905 C 143.771 402.669 141.534 402.898 141.311 402.588 L 141.311 402.588 Z  M 89.141 400.443 C 87.769 400.03 86.251 399.546 85.768 399.368 C 84.842 399.028 82.705 397.74 81.239 396.639 L 80.368 395.985 L 80.535 394.834 L 80.702 393.683 L 83.107 395.848 C 84.43 397.038 85.829 398.152 86.216 398.323 C 86.603 398.495 88.185 398.955 89.731 399.347 C 92.843 400.135 93.614 400.461 93.418 400.904 C 93.199 401.395 91.797 401.244 89.141 400.443 L 89.141 400.443 Z  M 158.425 400.239 C 157.963 399.972 158.423 399.276 159.793 398.171 C 160.767 397.385 162.283 396.841 162.64 397.149 C 162.852 397.332 162.024 398.624 161.167 399.446 C 160.305 400.272 159.093 400.623 158.425 400.239 Z  M 153.267 399.651 L 152.768 399.104 L 153.568 398.44 C 154.702 397.499 158.466 393.607 159.033 392.79 C 159.294 392.413 159.874 391.318 160.322 390.357 C 161.177 388.521 162.055 387.511 162.796 387.511 C 163.468 387.511 163.2 388.602 161.934 391.027 C 160.649 393.486 159.491 395.063 157.329 397.297 C 155.979 398.692 154.109 400.25 153.836 400.208 C 153.798 400.202 153.542 399.951 153.267 399.651 L 153.267 399.651 Z  M 109.224 399.266 C 108.614 398.284 109.115 396.033 110.102 395.317 C 110.875 394.757 110.973 394.454 110.437 394.277 C 109.309 393.904 108.82 394.175 107.773 395.757 C 107.013 396.907 106.575 397.286 106.011 397.286 C 105.029 397.286 105.277 396.679 106.796 395.359 C 107.624 394.639 108.302 393.952 108.302 393.832 C 108.302 393.523 107.745 393.376 106.577 393.376 C 105.714 393.376 105.539 393.446 105.356 393.86 C 105.232 394.141 104.888 394.398 104.534 394.475 C 103.798 394.634 96.27 394.412 93.438 394.148 C 92.322 394.045 90.104 393.875 88.51 393.772 C 85.114 393.553 84.163 393.252 82.688 391.934 C 82.132 391.437 81.532 391.03 81.354 391.03 C 81.089 391.03 81.061 390.749 81.193 389.442 C 81.281 388.568 81.402 387.743 81.462 387.609 C 81.522 387.475 81.997 387.2 82.518 386.998 C 83.878 386.471 86.845 384.838 88.946 383.459 C 89.941 382.805 91.992 381.562 93.502 380.695 C 98.059 378.08 98.551 377.566 98.551 375.409 L 98.551 374.242 L 99.286 374.18 C 99.931 374.127 100.119 373.965 100.817 372.866 C 101.583 371.659 102.232 371.07 102.522 371.32 C 102.598 371.385 101.951 372.659 101.084 374.151 C 100.217 375.643 99.379 377.235 99.22 377.69 C 98.964 378.427 98.978 378.56 99.344 378.909 C 99.868 379.407 100.817 379.408 101.946 378.912 C 103.031 378.435 103.182 378.235 103.123 377.355 C 103.089 376.845 103.231 376.518 103.658 376.123 C 104.348 375.484 104.743 375.45 105.354 375.977 C 106.009 376.541 105.925 376.853 104.843 377.869 C 103.202 379.412 102.281 379.887 100.926 379.887 C 100.13 379.887 99.644 379.787 99.448 379.583 C 98.838 378.949 98.363 378.876 97.358 379.262 C 96.223 379.697 92.092 382.335 88.128 385.155 C 86.573 386.261 84.715 387.523 83.999 387.958 C 83.284 388.393 82.75 388.823 82.815 388.912 C 83 389.17 84.346 389.102 85.399 388.782 C 86.805 388.354 87.171 388.406 88.783 389.261 C 89.584 389.686 90.327 389.987 90.434 389.93 C 90.54 389.874 90.803 389.507 91.018 389.115 C 91.255 388.682 91.764 388.229 92.315 387.96 C 93.624 387.322 93.784 387.409 92.807 388.227 C 92.177 388.755 91.97 389.077 92.02 389.449 C 92.081 389.903 92.198 389.961 93.154 390.014 C 93.974 390.06 94.19 390.139 94.093 390.356 C 93.94 390.701 94.646 390.73 95.891 390.432 C 96.504 390.286 96.903 390.013 97.299 389.472 C 98.07 388.42 98.214 388.391 98.89 389.154 C 99.494 389.837 100.447 390.248 101.425 390.248 C 102.001 390.248 102.406 389.643 102.406 388.783 C 102.406 388.264 103.003 387.65 103.396 387.764 C 103.547 387.808 103.659 388.32 103.668 389.004 C 103.676 389.644 103.758 390.274 103.851 390.404 C 104.051 390.682 105.773 390.714 106.261 390.448 C 106.496 390.32 106.588 389.977 106.56 389.338 C 106.515 388.33 106.784 387.707 107.263 387.707 C 107.645 387.707 107.841 388.315 107.845 389.508 C 107.847 390.234 107.946 390.475 108.31 390.643 C 109.111 391.012 109.662 390.707 109.666 389.893 C 109.671 388.666 109.988 388.518 110.656 389.43 C 111.311 390.325 111.846 390.639 112.713 390.639 C 113.036 390.639 115.007 390.162 117.093 389.579 C 120.14 388.727 121.323 388.491 123.104 388.379 C 124.323 388.302 125.385 388.149 125.464 388.039 C 125.542 387.93 124.902 387.291 124.04 386.62 C 123.179 385.948 122.54 385.341 122.621 385.27 C 122.702 385.198 123.091 385.132 123.486 385.123 C 124.063 385.109 124.457 385.316 125.493 386.183 C 126.202 386.776 126.964 387.316 127.186 387.382 C 127.711 387.54 129.39 386.959 129.39 386.62 C 129.39 386.475 128.656 386.023 127.759 385.614 C 126.861 385.206 126.089 384.768 126.044 384.64 C 125.928 384.317 126.806 383.601 127.318 383.601 C 127.551 383.601 128.439 384.046 129.294 384.589 C 130.921 385.625 131.183 385.666 132.564 385.099 C 133.558 384.692 133.258 384.313 131.714 384.026 C 130.913 383.877 130.297 383.659 130.297 383.523 C 130.297 383.391 130.583 383.047 130.933 382.758 C 131.648 382.168 132.573 382.083 133.471 382.526 C 134.179 382.875 134.409 382.887 134.362 382.575 C 134.238 381.752 134.183 381.746 137.507 382.929 C 138.427 383.257 138.546 383.258 139.693 382.946 C 140.997 382.592 141.532 382.207 141.336 381.765 C 141.268 381.613 140.388 381.062 139.38 380.541 C 138.373 380.021 137.487 379.427 137.411 379.221 C 137.152 378.52 139.061 377.722 140.33 378.001 C 141.169 378.186 143.449 379.504 143.449 379.804 C 143.449 380.157 142.942 380.153 141.542 379.787 C 140.93 379.627 140.227 379.496 139.981 379.496 C 139.568 379.496 139.575 379.524 140.074 379.859 C 142 381.153 143.967 381.206 146.039 380.02 C 146.735 379.622 147.304 379.168 147.304 379.01 C 147.304 378.74 145.755 378.25 144.356 378.079 C 143.863 378.018 143.912 377.975 144.731 377.75 C 145.633 377.501 145.725 377.516 146.928 378.109 C 148.112 378.693 148.226 378.713 148.934 378.458 C 149.347 378.309 149.817 378.05 149.979 377.882 C 150.227 377.624 150.193 377.527 149.759 377.265 C 149.475 377.094 149.088 376.952 148.897 376.95 C 148.707 376.947 148.105 376.771 147.56 376.558 C 146.701 376.221 146.609 376.13 146.866 375.862 C 147.212 375.503 147.58 375.557 149.507 376.257 C 150.394 376.579 151.121 376.725 151.464 376.651 C 151.764 376.586 152.762 376.059 153.682 375.48 L 155.354 374.427 L 155.739 374.859 C 156.294 375.482 156.449 376.582 156.154 377.805 C 155.946 378.668 155.698 379.039 154.839 379.769 C 153.119 381.232 153.091 380.814 154.784 378.909 C 155.118 378.533 155.469 378.109 155.564 377.968 C 155.925 377.435 152.421 379.173 150.193 380.632 C 148.916 381.469 147.534 382.325 147.123 382.534 C 146.327 382.939 146.336 382.864 146.858 384.585 C 147.344 386.184 148.268 386.319 149.998 385.042 C 151.038 384.275 151.122 383.921 150.583 382.599 L 150.234 381.744 L 150.899 382.428 C 151.558 383.107 151.567 383.109 152.041 382.74 L 152.519 382.368 L 152.519 383.186 C 152.519 384.2 152.082 385.116 151.301 385.737 C 150.91 386.048 150.705 386.414 150.705 386.802 C 150.705 387.262 150.441 387.609 149.515 388.363 C 146.795 390.579 145.161 391.149 140.161 391.628 C 136.514 391.977 136.01 392.413 137.435 393.989 C 138.104 394.729 138.251 395.064 138.295 395.938 C 138.345 396.945 138.321 396.993 137.782 396.993 C 137.268 396.993 137.139 396.805 136.378 394.942 C 135.399 392.548 134.953 392.119 133.583 392.252 C 133.08 392.301 132.187 392.525 131.596 392.75 C 130.175 393.292 130.192 393.704 131.679 394.675 C 132.894 395.469 133.698 396.545 133.698 397.376 C 133.698 398.264 133.013 397.933 130.881 396.016 C 129.745 394.994 128.696 394.158 128.551 394.158 C 127.993 394.158 127.122 394.551 127.122 394.804 C 127.122 394.948 127.939 395.571 128.936 396.187 C 130.697 397.274 131.192 397.873 130.331 397.873 C 130.1 397.873 129.105 397.375 128.121 396.765 C 124.846 394.739 124.527 394.693 120.433 395.641 C 117.738 396.264 116.791 396.245 114.955 395.527 C 113.271 394.869 112.49 394.8 111.755 395.244 C 110.96 395.724 110.713 396.296 110.58 397.971 C 110.467 399.39 110.41 399.54 109.961 399.595 C 109.648 399.634 109.377 399.512 109.224 399.266 L 109.224 399.266 Z  M 118.481 393.98 C 118.708 393.856 118.763 393.552 118.678 392.898 C 118.613 392.398 118.506 391.943 118.441 391.887 C 118.376 391.831 117.598 391.846 116.714 391.921 C 115.37 392.036 115.104 392.117 115.104 392.412 C 115.104 392.607 115.002 392.821 114.878 392.887 C 114.288 393.202 114.988 393.584 116.805 393.941 C 118.014 394.178 118.114 394.18 118.481 393.98 L 118.481 393.98 Z  M 120.87 393.46 C 121.089 393.271 121.227 392.812 121.227 392.269 L 121.227 391.384 L 120.036 391.523 C 119.382 391.599 118.813 391.686 118.773 391.718 C 118.654 391.811 119.68 393.463 119.954 393.618 C 120.323 393.828 120.474 393.802 120.87 393.46 L 120.87 393.46 Z  M 126.097 392.416 C 127.544 392.103 128.877 391.741 129.059 391.61 C 129.49 391.302 129.5 390.248 129.072 390.248 C 128.541 390.248 122.086 391.201 121.977 391.296 C 121.827 391.425 123.009 392.985 123.256 392.985 C 123.371 392.985 124.65 392.729 126.097 392.416 L 126.097 392.416 Z  M 133.961 390.33 C 134.488 390.095 134.605 389.914 134.605 389.341 C 134.605 388.547 134.776 388.546 132.225 389.362 C 131.352 389.641 130.484 389.918 130.297 389.976 C 130.027 390.06 130.073 390.164 130.52 390.477 C 130.986 390.805 131.274 390.851 132.199 390.745 C 132.813 390.675 133.606 390.488 133.961 390.33 Z  M 136.98 389.631 C 137.552 389.243 137.591 389.133 137.457 388.262 C 137.377 387.742 137.35 387.316 137.398 387.316 C 137.446 387.316 137.804 387.757 138.192 388.296 C 139.014 389.436 139.707 389.728 141.161 389.546 C 142.558 389.372 142.995 389.148 142.995 388.61 C 142.995 388.252 141.994 386.738 140.925 385.482 C 140.845 385.388 139.703 385.893 138.389 386.604 C 137.075 387.316 135.736 388.001 135.416 388.127 C 134.709 388.404 134.697 388.547 135.304 389.394 C 135.856 390.164 136.136 390.204 136.98 389.631 L 136.98 389.631 Z  M 145.771 387.73 C 147.009 386.734 147.027 386.077 145.861 384.508 C 145.061 383.431 144.967 383.369 144.307 383.482 C 143.921 383.549 143.175 383.838 142.649 384.125 L 141.692 384.647 L 142.582 386.315 C 143.071 387.232 143.581 388.097 143.715 388.236 C 144.138 388.675 144.797 388.513 145.771 387.73 L 145.771 387.73 Z  M 135.172 383.21 C 135.095 383.103 134.93 383.015 134.805 383.015 C 134.681 383.015 134.642 383.103 134.719 383.21 C 134.796 383.318 134.961 383.406 135.086 383.406 C 135.211 383.406 135.249 383.318 135.172 383.21 Z  M 79.242 395.011 C 78.568 394.357 77.828 391.617 78.325 391.617 C 78.425 391.617 78.844 391.916 79.255 392.282 C 79.995 392.939 80 392.96 79.81 394.161 C 79.627 395.312 79.597 395.356 79.242 395.011 L 79.242 395.011 Z  M 152.164 393.141 C 152.414 392.14 152.705 391.711 153.99 390.444 C 155.765 388.694 157.387 386.533 159.339 383.32 C 160.249 381.821 161.029 380.684 161.071 380.794 C 161.182 381.082 159.643 384.834 158.754 386.441 C 157.89 388.001 155.905 390.252 153.602 392.284 C 152.277 393.453 152.052 393.587 152.164 393.141 L 152.164 393.141 Z  M 78.483 390.443 C 78.314 390.208 78.962 387.109 79.322 386.428 C 79.462 386.164 79.662 385.947 79.766 385.947 C 80.084 385.947 79.966 387.192 79.609 387.597 C 79.149 388.122 79.193 388.342 79.73 388.195 C 80.152 388.08 80.184 388.16 80.184 389.355 L 80.184 390.639 L 79.404 390.639 C 78.974 390.639 78.56 390.551 78.483 390.443 Z  M 114.821 388.537 C 114.627 388.35 113.591 386.768 112.519 385.024 C 111.022 382.588 110.569 381.673 110.569 381.081 C 110.569 379.627 111.084 379.261 111.753 380.237 C 111.959 380.538 112.6 381.792 113.177 383.023 C 113.755 384.255 114.638 385.984 115.141 386.864 C 115.643 387.745 115.988 388.559 115.906 388.673 C 115.685 388.981 115.22 388.923 114.821 388.537 L 114.821 388.537 Z  M 168.302 388.566 C 168.017 387.927 168.468 386.211 169.325 384.677 C 170.779 382.073 171.036 379.138 169.969 377.321 C 169.16 375.944 167.366 373.802 166.173 372.791 L 165.068 371.854 L 163.457 373.316 C 162.571 374.12 161.405 375.34 160.867 376.027 C 159.19 378.168 154.227 383.985 154.075 383.989 C 153.779 383.996 153.665 383.043 153.893 382.479 C 154.029 382.144 154.734 381.478 155.555 380.911 C 157.409 379.63 157.829 378.884 157.839 376.842 C 157.847 375.443 157.778 375.172 157.228 374.456 C 156.887 374.011 156.663 373.523 156.731 373.37 C 156.817 373.176 156.627 373.054 156.104 372.966 C 155.691 372.897 155.099 372.668 154.787 372.458 L 154.22 372.075 L 157.288 372.071 C 159.691 372.068 160.464 372.001 160.859 371.762 C 161.552 371.343 161.493 371.032 160.587 370.347 C 159.456 369.491 158.134 369.312 151.386 369.103 C 148.08 369.001 144.024 368.873 142.372 368.82 C 139.536 368.727 138.719 368.55 139.878 368.278 C 141.062 368 148.646 367.728 152.633 367.82 C 157.436 367.931 158.88 368.194 160.786 369.304 C 162.277 370.171 163.075 370.502 163.676 370.504 C 165.477 370.507 167.054 371.478 169.071 373.825 C 171.045 376.12 171.794 378.063 171.794 380.891 C 171.794 382.29 171.681 382.713 170.764 384.743 C 168.969 388.721 168.615 389.271 168.302 388.566 L 168.302 388.566 Z  M 81.771 384.921 C 81.771 384.464 81.948 384.112 82.338 383.796 C 83.028 383.237 83.069 382.819 82.432 382.819 C 81.483 382.819 82.177 382.325 83.566 382.012 C 84.614 381.776 85.221 381.495 85.891 380.936 C 88.311 378.917 88.145 378.329 85.45 379.378 C 83.692 380.062 82.901 380.236 82.908 379.936 C 82.916 379.598 83.289 379.354 83.97 379.24 C 85.517 378.981 86.242 378.551 87.636 377.068 C 89.221 375.383 89.362 375.132 89.723 373.34 C 90.208 370.942 89.536 370.948 88.247 373.352 C 87.829 374.132 87.221 374.97 86.896 375.214 C 86.572 375.457 86.306 375.759 86.306 375.884 C 86.306 376.212 85.627 376.67 84.775 376.916 C 83.701 377.227 83.802 376.92 85.509 374.68 C 86.318 373.619 86.981 372.599 86.983 372.414 C 86.985 372.228 86.671 371.936 86.287 371.764 L 85.587 371.453 L 86.444 370.814 C 87.243 370.218 87.306 370.093 87.382 368.922 C 87.5 367.121 87.049 366.577 84.645 365.62 C 81.959 364.55 81.248 364.407 80.602 364.804 C 80.314 364.981 79.679 365.258 79.191 365.42 C 77.429 366.002 77.5 366.952 79.393 368.159 L 80.637 368.951 L 80.637 370.302 C 80.637 371.045 80.529 371.71 80.396 371.781 C 80.264 371.851 80.059 372.129 79.941 372.397 C 79.764 372.796 79.829 372.991 80.295 373.468 C 80.938 374.127 81.034 374.76 80.516 374.931 C 79.475 375.275 74.967 372.42 74.609 371.189 C 74.441 370.615 74.805 368.06 75.332 366.104 C 75.732 364.62 76.683 363.829 79.189 362.898 C 82.111 361.813 82.606 361.839 85.598 363.247 C 86.995 363.904 88.351 364.442 88.612 364.442 C 89.031 364.442 89.073 364.355 88.971 363.698 C 88.788 362.517 87.707 360.745 86.904 360.308 C 86.274 359.966 85.876 359.929 83.419 359.991 C 80.732 360.059 80.625 360.078 79.975 360.615 C 79.531 360.981 79.172 361.126 78.916 361.041 C 78.569 360.926 78.585 360.861 79.073 360.411 C 80.045 359.513 80.821 359.297 83.415 359.202 C 85.871 359.112 86.328 358.951 85.286 358.541 C 84.6 358.272 84.547 357.99 85.184 357.99 C 85.946 357.99 86.811 358.477 88.038 359.596 C 89.615 361.034 89.889 361.568 90.173 363.761 C 90.393 365.464 90.379 365.675 90.031 365.895 C 89.606 366.162 89.604 366.139 90.363 369.134 C 90.623 370.155 90.896 371.651 90.972 372.457 C 91.1 373.825 91.07 373.969 90.522 374.597 C 89.309 375.987 89.995 376.599 91.368 375.353 C 92.097 374.691 92.47 374.092 92.99 372.747 C 93.691 370.932 94.227 370.239 94.787 370.424 C 95.75 370.743 95.284 371.819 92.749 375.129 C 90.859 377.597 88.502 379.855 85.909 381.685 C 84.73 382.517 84.265 382.972 84.265 383.297 C 84.265 383.604 83.864 384.045 83.018 384.668 L 81.771 385.586 L 81.771 384.921 L 81.771 384.921 Z  M 116.926 384.2 C 116.797 383.993 116.7 383.487 116.71 383.077 L 116.729 382.33 L 117.038 382.939 C 117.525 383.896 117.678 384.579 117.404 384.579 C 117.271 384.579 117.055 384.409 116.926 384.2 L 116.926 384.2 Z  M 48.438 383.406 C 47.9 382.942 47.886 382.832 48.299 382.323 C 48.973 381.493 54.509 378.323 55.284 378.323 C 55.598 378.323 55.694 378.476 55.694 378.983 C 55.694 379.828 55.399 380.025 53.811 380.239 C 52.279 380.446 51.867 380.73 50.561 382.477 C 50.018 383.203 49.421 383.796 49.233 383.796 C 49.045 383.796 48.687 383.621 48.438 383.406 Z  M 76.222 383.393 C 74.322 383.119 73.218 382.649 72.251 381.702 C 71.75 381.211 71.34 380.641 71.34 380.434 C 71.34 380.114 71.481 380.068 72.304 380.12 C 73.233 380.178 73.292 380.222 73.948 381.345 C 74.796 382.796 75.204 382.92 78.094 382.605 C 79.252 382.479 80.256 382.425 80.325 382.485 C 80.395 382.545 80.389 382.766 80.311 382.977 C 80.088 383.584 78.598 383.735 76.222 383.393 L 76.222 383.393 Z  M 104.516 380.229 C 104.667 379.261 105.697 378.323 106.608 378.323 C 107.42 378.323 108.19 379.418 107.766 379.968 C 107.317 380.551 107.093 380.529 106.651 379.86 C 106.267 379.278 106.228 379.265 105.821 379.582 C 105.587 379.765 105.271 380.173 105.12 380.487 C 104.709 381.345 104.366 381.198 104.516 380.229 Z  M 79.496 380.005 C 77.938 379.724 77.066 379.198 75.798 377.773 C 74.624 376.455 74.061 375.559 74.061 375.009 C 74.061 373.967 75.647 375.003 76.915 376.872 C 77.402 377.589 78.089 378.363 78.442 378.591 C 78.795 378.82 79.331 379.216 79.631 379.473 C 80.077 379.852 80.24 379.894 80.513 379.698 C 80.998 379.352 81.406 379.519 81.042 379.914 C 80.789 380.189 80.585 380.201 79.496 380.005 L 79.496 380.005 Z  M 111.833 378.405 C 111.344 378.25 110.888 378.076 110.82 378.017 C 110.485 377.729 111.588 377.546 113.687 377.544 C 115.871 377.541 116.011 377.564 116.011 377.936 C 116.011 378.704 113.627 378.971 111.833 378.405 Z  M 78.596 377.132 C 77.593 376.617 77.236 376.221 77.236 375.625 C 77.236 375.05 77.457 375.106 79.027 376.079 C 80.824 377.192 80.457 378.087 78.596 377.132 Z  M 81.145 377.301 C 81.222 377.102 82.678 376.688 82.678 376.865 C 82.678 376.896 82.616 377.061 82.54 377.231 C 82.375 377.604 81.002 377.672 81.145 377.301 L 81.145 377.301 Z  M 109.343 376.514 C 108.683 375.636 108.682 375.104 109.337 374.433 C 110.153 373.597 110.753 373.689 111.433 374.755 C 111.871 375.441 112.08 375.586 112.632 375.586 C 113.613 375.586 113.849 374.999 113.547 373.315 C 113.251 371.663 112.776 371.226 111.474 371.405 C 110.739 371.507 110.573 371.46 110.343 371.09 C 109.976 370.499 110.291 370.273 111.634 370.161 C 113.43 370.012 114.498 370.374 115.604 371.505 C 117.15 373.086 118.194 373.509 120.766 373.596 C 123.503 373.689 129.755 373.172 133.585 372.536 C 137.631 371.863 144.805 371.63 145.47 372.149 C 145.805 372.411 146.651 372.54 149.155 372.713 L 152.406 372.938 L 144.923 373.175 C 138.66 373.374 136.885 373.497 134.039 373.933 C 131.077 374.386 129.821 374.466 124.337 374.555 C 118.828 374.643 117.913 374.615 117.052 374.332 C 116.51 374.154 115.883 373.833 115.659 373.619 C 115.065 373.053 114.887 373.459 115.04 375.031 C 115.13 375.957 115.082 376.448 114.882 376.656 C 114.524 377.028 113.36 377.03 112.61 376.661 C 111.873 376.297 110.994 376.295 110.443 376.655 C 109.848 377.042 109.727 377.026 109.343 376.514 L 109.343 376.514 Z  M 81.544 374.913 C 81.544 374.745 81.646 374.608 81.771 374.608 C 81.896 374.608 81.998 374.691 81.998 374.792 C 81.998 374.893 81.896 375.03 81.771 375.097 C 81.646 375.163 81.544 375.08 81.544 374.913 Z  M 105.694 373.435 C 105.461 373.109 105.779 372.87 106.747 372.646 C 107.907 372.376 108.05 372.497 107.316 373.13 C 106.723 373.641 105.946 373.787 105.694 373.435 Z  M 66.578 371.956 C 66.578 371.229 67.805 369.899 68.953 369.382 C 69.764 369.017 71.904 368.955 72.286 369.285 C 72.5 369.47 72.477 369.671 72.18 370.207 C 71.817 370.865 71.75 370.893 70.596 370.893 C 69.61 370.893 69.168 371.016 68.155 371.573 C 66.753 372.343 66.578 372.385 66.578 371.956 Z  M 83.63 370.463 C 83.009 369.927 83.69 367.998 84.609 367.694 C 85.014 367.56 85.818 368.263 86.009 368.919 C 86.119 369.298 85.979 369.529 85.323 370.046 C 84.441 370.743 84.063 370.837 83.63 370.463 Z  M 125.513 370.507 C 120.827 370.271 119.494 369.995 118.974 369.158 C 118.473 368.35 119.363 368.352 122.034 369.162 C 123.875 369.721 124.375 369.785 127.48 369.867 C 130.406 369.943 130.951 369.911 131.262 369.643 C 131.764 369.209 133.743 369.198 133.55 369.63 C 133.164 370.499 130.695 370.768 125.513 370.507 L 125.513 370.507 Z  M 126.378 368.918 C 125.633 368.769 124.175 368.229 124.174 368.103 C 124.174 368.079 124.723 368.088 125.395 368.124 C 126.211 368.168 126.854 368.084 127.334 367.87 C 128.027 367.561 128.066 367.566 128.486 368 C 129.041 368.573 129.04 368.691 128.482 368.828 C 127.484 369.072 127.202 369.084 126.378 368.918 L 126.378 368.918 Z  M 120.554 366.739 C 120.179 366.175 119.55 364.965 119.156 364.051 C 118.575 362.702 118.436 362.077 118.416 360.727 C 118.395 359.253 118.461 358.964 119.005 358.168 C 119.633 357.246 120.51 356.568 121.907 355.922 C 122.932 355.448 126.357 355.432 127.618 355.894 C 128.963 356.387 129.221 357.05 129.375 360.405 C 129.501 363.123 129.542 363.33 130.028 363.67 C 130.511 364.007 130.524 364.07 130.217 364.579 C 130.035 364.88 129.614 365.346 129.28 365.615 C 128.686 366.093 128.666 366.096 128.351 365.724 C 128.174 365.516 128.025 365.164 128.02 364.942 C 128.014 364.721 127.852 364.188 127.659 363.758 C 127.466 363.328 127.317 362.778 127.327 362.536 C 127.346 362.039 127.071 361.995 125.984 362.322 C 125.291 362.53 125.191 362.507 124.704 362.018 C 124.068 361.381 124.025 360.71 124.589 360.269 C 125.152 359.83 125.323 359.858 125.908 360.483 C 126.323 360.926 126.484 360.983 126.824 360.805 C 127.359 360.526 127.461 359.576 127.046 358.721 C 126.568 357.733 125.85 357.646 123.986 358.35 C 123.154 358.664 122.193 359.017 121.85 359.136 C 121.236 359.347 121.136 359.567 121.218 360.532 C 121.325 361.806 122.708 364.708 123.503 365.329 C 123.738 365.512 124.088 365.611 124.28 365.547 C 124.531 365.464 124.628 365.557 124.628 365.884 C 124.628 366.324 124.012 366.979 123.59 366.988 C 123.475 366.99 123.126 367.164 122.814 367.375 C 121.839 368.032 121.316 367.885 120.554 366.739 L 120.554 366.739 Z  M 129.889 367.215 L 129.367 366.869 L 131.092 366.018 C 132.433 365.357 132.877 365.22 133.088 365.402 C 133.298 365.585 133.096 365.853 132.185 366.604 C 130.897 367.664 130.66 367.727 129.889 367.215 Z  M 104.92 366.662 C 103.355 365.989 102.268 365.037 101.918 364.029 C 101.667 363.306 101.681 363.194 102.054 362.959 C 102.444 362.713 102.388 362.609 101.169 361.307 C 100.453 360.544 99.914 359.878 99.973 359.827 C 100.031 359.777 100.829 360.341 101.745 361.082 L 103.411 362.427 L 103.021 362.939 C 102.808 363.22 102.633 363.54 102.633 363.649 C 102.633 363.759 103.602 364.476 104.787 365.244 C 106.863 366.589 107.395 367.179 106.532 367.179 C 106.307 367.179 105.581 366.946 104.92 366.662 L 104.92 366.662 Z  M 126.359 367.042 C 126.28 366.974 126.215 366.662 126.215 366.348 C 126.215 365.704 126.568 365.702 127.063 366.344 C 127.348 366.714 127.335 366.781 126.942 366.962 C 126.7 367.074 126.438 367.11 126.359 367.042 L 126.359 367.042 Z  M 62.043 365.511 C 62.043 365.454 62.239 364.904 62.479 364.289 C 63.068 362.777 62.907 362.071 60.99 357.757 C 60.765 357.252 60.655 356.776 60.745 356.699 C 61.238 356.273 63.91 358.225 64.342 359.326 C 64.653 360.12 64.747 363.462 64.481 364.279 C 64.307 364.816 63.07 365.615 62.413 365.615 C 62.21 365.615 62.043 365.568 62.043 365.511 Z  M 115.785 363.859 C 115.513 363.711 115.447 363.213 115.456 361.37 C 115.466 359.4 115.544 358.917 115.993 358.041 C 116.868 356.337 118.969 355.088 120.621 355.291 C 121.033 355.341 120.943 355.438 120.072 355.879 C 117.87 356.995 116.861 358.852 116.956 361.614 C 117.001 362.904 116.932 363.508 116.714 363.734 C 116.363 364.099 116.251 364.114 115.785 363.859 L 115.785 363.859 Z  M 112.059 362.962 C 111.602 362.567 111.588 360.542 112.031 358.741 C 112.648 356.23 114.421 353.787 116.417 352.696 C 117.816 351.931 120.802 350.952 121.736 350.952 C 122.721 350.952 123.541 351.452 123.45 351.998 C 123.392 352.35 123.252 352.409 122.587 352.361 C 119.6 352.145 119.096 352.2 118.057 352.859 C 116.679 353.732 115.284 355.249 114.262 356.984 C 113.438 358.382 113.4 358.532 113.326 360.708 C 113.254 362.811 113.123 363.255 112.57 363.266 C 112.485 363.268 112.255 363.131 112.059 362.962 L 112.059 362.962 Z  M 71.318 360.992 C 70.379 360.052 70.584 359.497 72.203 358.601 C 73.334 357.975 74.14 357.846 74.741 358.193 C 75.027 358.357 74.973 358.467 74.401 358.878 C 73.082 359.827 72.582 360.25 72.134 360.8 C 71.697 361.334 71.667 361.342 71.318 360.992 L 71.318 360.992 Z  M 131.348 360.212 C 130.596 359.563 130.6 359.357 131.374 358.737 C 132.15 358.114 133.245 357.506 133.245 357.697 C 133.245 357.776 132.88 358.268 132.435 358.791 C 131.99 359.314 131.69 359.832 131.768 359.942 C 132.033 360.311 132.702 360.145 133.368 359.546 C 133.827 359.133 134.204 358.968 134.601 359.008 C 135.409 359.089 135.267 359.362 134.038 360.092 C 132.742 360.862 132.134 360.889 131.348 360.212 L 131.348 360.212 Z  M 92.534 355.849 C 92.28 355.761 91.936 355.546 91.769 355.372 C 91.333 354.92 89.024 353.741 87.862 353.378 C 87.209 353.174 85.64 353.025 83.245 352.939 C 81.078 352.862 79.617 352.731 79.617 352.614 C 79.617 352.001 85.918 351.748 88.72 352.248 C 90.931 352.643 93.955 352.52 96.057 351.948 C 96.867 351.727 98.857 350.886 100.479 350.078 C 102.487 349.078 103.661 348.609 104.163 348.608 C 104.569 348.607 104.9 348.69 104.9 348.792 C 104.9 349.093 103.003 350.379 100.766 351.595 C 99.361 352.358 97.982 352.915 96.52 353.308 C 93.723 354.062 93.491 354.187 94.364 354.477 C 95.787 354.95 97.568 354.408 102.746 351.923 C 104.967 350.857 105.603 350.416 108.551 347.902 C 110.959 345.848 111.964 345.111 112.236 345.201 C 112.442 345.269 112.61 345.487 112.61 345.686 C 112.61 346.409 106.675 351.61 103.529 353.645 C 101.764 354.786 100.62 355.174 97.655 355.634 C 94.956 356.053 93.315 356.122 92.534 355.849 L 92.534 355.849 Z  M 76.791 351.646 C 76.388 351.227 76.679 350.693 77.789 349.811 C 79.726 348.272 80.306 348.118 84.152 348.118 C 86.023 348.119 89.051 348.198 90.881 348.295 C 94.439 348.482 95.382 348.351 95.846 347.602 C 96.138 347.133 97.372 347.104 97.576 347.562 C 97.817 348.105 97.13 348.88 96.164 349.154 C 95.447 349.358 94.062 349.37 89.223 349.213 C 85.255 349.085 82.902 349.084 82.371 349.21 C 81.927 349.316 80.726 349.971 79.703 350.666 C 77.793 351.963 77.267 352.14 76.791 351.646 L 76.791 351.646 Z  M 131.857 348.665 C 130.143 347.551 129.892 346.884 130.83 345.943 L 131.389 345.383 L 131.807 346.066 C 132.036 346.442 132.768 347.21 133.432 347.773 C 134.745 348.885 134.891 349.446 133.896 349.545 C 133.473 349.588 132.888 349.335 131.857 348.665 L 131.857 348.665 Z  M 100.97 348.28 C 100.887 348.209 100.819 347.874 100.819 347.537 C 100.819 346.773 101.359 346.317 105.09 343.934 C 108.593 341.696 109.15 341.434 109.585 341.809 C 110.105 342.257 109.709 342.7 108.003 343.573 C 107.12 344.026 105.3 345.3 103.959 346.404 C 101.581 348.362 101.282 348.55 100.97 348.28 Z " fill="rgb(9,9,9)"/></g></g></g></g></g></g></svg>