<?xml version="1.0" standalone="no"?><!-- Generator: Gravit.io --><svg xmlns="http://www.w3.org/2000/svg" xmlns:xlink="http://www.w3.org/1999/xlink" style="isolation:isolate" viewBox="268 219.8 200 200" width="200" height="200"><defs><clipPath id="_clipPath_v21oxzOnGVN3952v4Bvdj4o7cNFYJgMD"><rect x="268" y="219.8" width="200" height="200"/></clipPath></defs><g clip-path="url(#_clipPath_v21oxzOnGVN3952v4Bvdj4o7cNFYJgMD)"><clipPath id="_clipPath_rCXr5ExiktpbQoafIMCsF1c2ocM6yJjN"><rect x="268" y="219.8" width="200" height="200" transform="matrix(1,0,0,1,0,0)" fill="rgb(255,255,255)"/></clipPath><g clip-path="url(#_clipPath_rCXr5ExiktpbQoafIMCsF1c2ocM6yJjN)"><g><g><g><path d=" M 268 319.8 L 268 219.8 L 368 219.8 L 468 219.8 L 468 319.8 L 468 419.8 L 368 419.8 L 268 419.8 L 268 319.8 L 268 319.8 Z " fill="rgb(254,254,254)"/><path d=" M 313.874 410.036 C 308.799 409.41 305.775 408.28 303.39 406.118 C 301.03 403.982 300.167 401.759 300.333 398.241 C 300.429 396.171 300.531 395.71 301.166 394.459 C 303.445 389.968 308.695 387.628 316.473 387.636 C 319.81 387.64 321.983 387.955 324.474 388.799 C 329.973 390.66 332.961 394.744 332.482 399.745 C 332.178 402.924 330.84 405.155 328.111 407.034 C 325.201 409.037 321.981 409.921 317.15 410.044 C 315.682 410.081 314.207 410.078 313.874 410.036 L 313.874 410.036 Z  M 319.5 405.407 C 323.075 404.203 324.884 400.389 323.701 396.553 C 322.693 393.285 319.837 391.613 315.661 391.843 C 312.813 392 310.643 393.199 309.49 395.253 C 308.814 396.456 308.56 399.599 309.011 401.173 C 309.593 403.201 311.185 404.761 313.389 405.462 C 314.787 405.907 318.106 405.877 319.5 405.407 L 319.5 405.407 Z  M 368.971 409.648 C 368.971 409.477 370.639 406.318 376.591 395.217 L 380.345 388.217 L 385.069 388.171 L 389.794 388.126 L 390.036 388.588 C 390.17 388.842 392.748 393.653 395.766 399.279 C 398.783 404.904 401.253 409.575 401.253 409.658 C 401.253 409.743 399.455 409.788 397.101 409.762 L 392.95 409.717 L 391.822 407.55 L 390.694 405.383 L 384.99 405.34 L 379.286 405.297 L 378.173 407.507 L 377.059 409.717 L 373.015 409.762 C 370.546 409.79 368.971 409.746 368.971 409.648 Z  M 388.633 401.175 C 388.637 400.939 385.115 393.967 384.992 393.968 C 384.868 393.969 381.341 400.943 381.346 401.175 C 381.348 401.244 382.988 401.3 384.99 401.3 C 386.993 401.3 388.632 401.244 388.633 401.175 Z  M 338.874 398.8 L 338.874 387.967 L 342.997 387.967 L 347.119 387.967 L 347.183 392.805 L 347.247 397.644 L 352.782 392.805 L 358.318 387.967 L 362.916 387.967 C 365.445 387.967 367.513 388.023 367.511 388.092 C 367.51 388.16 364.878 390.354 361.664 392.967 C 358.45 395.579 355.766 397.807 355.699 397.917 C 355.61 398.065 363.388 405.302 368.07 409.429 C 368.263 409.599 367.318 409.632 363.271 409.595 L 358.233 409.55 L 353.881 405.55 C 351.487 403.35 349.425 401.437 349.299 401.3 C 349.113 401.096 348.893 401.188 348.106 401.8 L 347.141 402.55 L 347.134 406.092 L 347.126 409.633 L 343 409.633 L 338.874 409.633 L 338.874 398.8 L 338.874 398.8 Z  M 413.631 405.535 L 413.631 401.429 L 407.927 394.871 C 404.79 391.265 402.223 388.234 402.223 388.136 C 402.223 388.016 403.673 387.974 406.748 388.005 L 411.273 388.05 L 414.575 392.09 C 416.393 394.313 417.948 396.131 418.033 396.132 C 418.118 396.132 419.633 394.296 421.398 392.05 L 424.609 387.967 L 428.909 387.967 C 431.275 387.967 433.266 388.005 433.335 388.052 C 433.403 388.099 430.859 391.118 427.681 394.761 L 421.903 401.383 L 421.903 405.467 L 421.903 409.55 L 417.767 409.596 L 413.631 409.641 L 413.631 405.535 L 413.631 405.535 Z  M 350.524 385.052 C 350.524 385.008 351.207 384.734 352.041 384.445 L 353.558 383.918 L 357.674 384.019 L 361.789 384.121 L 362.892 383.286 L 363.995 382.452 L 367.514 382.283 C 372.537 382.04 371.927 382.273 372.754 380.283 C 372.847 380.057 372.528 379.998 370.714 379.903 C 369.531 379.842 368.201 379.721 367.758 379.633 C 367.315 379.546 366.516 379.43 365.981 379.375 C 364.662 379.24 359.322 378.112 355.621 377.186 C 350.69 375.952 344.205 373.701 341.665 372.343 C 338.961 370.896 332.859 366.537 328.875 363.206 C 324.645 359.668 325.079 359.948 322.274 358.967 C 320.625 358.39 319.257 357.775 318.583 357.308 C 317.602 356.628 315.641 354.3 315.205 353.3 C 315.106 353.071 314.821 352.583 314.573 352.217 C 314.326 351.85 313.727 350.763 313.244 349.8 C 311.137 345.604 310.457 344.27 309.505 342.467 C 308.065 339.737 306.379 336.385 305.86 335.217 C 305.615 334.667 305.138 333.593 304.799 332.831 C 304.461 332.068 304.118 331.131 304.038 330.747 C 303.822 329.709 302.99 327.391 302.349 326.043 C 301.661 324.597 300.758 323.348 297.351 319.133 C 295.906 317.346 294.158 314.911 293.467 313.723 L 292.21 311.562 L 291.887 306.556 C 291.71 303.803 291.388 298.85 291.173 295.55 C 290.874 290.99 290.804 287.009 290.878 278.967 C 290.97 269.043 291.007 268.29 291.473 266.883 C 292.809 262.848 294.133 261.019 297.745 258.22 C 300.957 255.73 301.681 254.746 302.851 251.278 C 303.326 249.869 303.822 248.42 303.952 248.059 C 304.314 247.055 305.749 245.294 307.171 244.11 C 310.512 241.329 322.041 235.934 327.283 234.699 C 331.468 233.713 332.582 233.62 340.199 233.62 C 345.711 233.62 347.618 233.563 348.947 233.359 C 350.67 233.094 353.679 232.222 353.679 231.988 C 353.679 231.671 355.478 230.464 356.411 230.154 C 358.687 229.399 365.978 229.044 368.81 229.55 C 369.579 229.687 371.052 229.8 372.084 229.8 C 376.921 229.8 382.656 230.731 391.665 232.978 C 395.493 233.933 400.366 235.524 403.801 236.941 C 409.47 239.28 415.052 243.179 421.373 249.217 C 423.801 251.536 428.507 257.357 430.59 260.617 C 432.308 263.307 437.092 273.21 437.555 275.035 C 437.627 275.318 437.827 275.85 438.001 276.217 C 438.175 276.583 438.545 277.483 438.823 278.217 C 440.739 283.254 441.333 284.844 442.153 287.133 C 442.661 288.553 443.111 289.91 443.151 290.148 C 443.191 290.385 443.498 291.511 443.833 292.649 C 444.945 296.424 445.131 298.132 445.055 303.8 C 445.017 306.687 444.865 309.687 444.717 310.467 C 444.569 311.246 444.186 313.196 443.865 314.8 C 441.812 325.066 441.349 327.914 441.161 331.449 C 440.906 336.236 440.526 336.904 431.776 347.967 C 431.378 348.471 430.534 349.483 429.902 350.217 C 429.27 350.95 428.172 352.263 427.463 353.133 C 423.403 358.118 422.228 359.102 411.717 366.316 C 402.469 372.664 401.18 373.396 395.763 375.382 C 394.577 375.817 392.585 376.589 391.337 377.099 C 389.327 377.918 388.587 378.109 384.905 378.756 C 380.484 379.533 379.982 379.604 378.741 379.622 C 377.663 379.637 377.751 379.89 378.983 380.319 C 379.55 380.517 380.998 381.333 382.199 382.134 L 384.383 383.591 L 388.874 383.702 C 393.259 383.812 393.398 383.826 394.821 384.326 C 395.621 384.607 396.381 384.904 396.507 384.985 C 396.642 385.072 387.103 385.133 373.631 385.133 C 360.922 385.133 350.524 385.097 350.524 385.052 L 350.524 385.052 Z  M 377.83 377.143 C 382.022 376.683 388.038 375.593 388.697 375.174 C 388.995 374.985 390.931 374.217 393 373.465 C 398.599 371.431 400.71 370.312 407.29 365.889 C 416.094 359.97 420.583 356.357 423.197 353.084 C 424.164 351.874 425.943 349.721 427.149 348.3 C 428.356 346.879 429.744 345.192 430.234 344.55 C 430.725 343.908 432.043 342.183 433.165 340.717 C 434.286 339.25 435.664 337.263 436.226 336.3 L 437.248 334.55 L 437.44 331.3 C 437.685 327.168 438.027 325.07 440.241 314.133 C 441.39 308.452 441.649 304.57 441.259 298.8 C 441.035 295.469 439.229 289.198 436.556 282.467 C 436.101 281.321 435.682 280.196 435.625 279.967 C 435.522 279.556 434.898 278.018 434.172 276.383 C 433.968 275.925 433.753 275.362 433.694 275.132 C 433.408 274.012 430.126 266.99 428.534 264.089 C 427.025 261.342 424.936 258.299 422.552 255.377 C 421.339 253.892 417.078 249.359 416.525 248.967 C 416.33 248.829 415.412 248.042 414.483 247.217 C 413.555 246.392 411.754 244.977 410.482 244.073 C 405.674 240.655 401.847 238.829 394.931 236.655 C 389.334 234.896 378.745 232.701 374.355 232.39 C 373.103 232.301 372.636 232.342 371.807 232.612 C 370.732 232.962 368.412 233.232 365.209 233.381 C 364.141 233.43 362.339 233.544 361.204 233.634 C 360.069 233.724 358.465 233.798 357.638 233.799 C 356.811 233.8 356.066 233.877 355.981 233.971 C 355.748 234.231 352.262 235.397 350.874 235.68 C 349.49 235.962 346.195 236.071 341.13 236.004 C 334.326 235.914 329.486 236.543 325.38 238.052 C 323.065 238.903 316.315 241.939 314.739 242.838 C 310.73 245.126 308.517 246.823 307.834 248.133 C 307.572 248.637 307.115 249.8 306.819 250.717 C 305.173 255.825 304.671 256.607 301.37 259.217 C 297.714 262.106 296.798 263.156 295.829 265.569 C 294.387 269.158 294.114 272.076 294.302 281.883 C 294.384 286.192 294.554 291.142 294.679 292.883 C 294.805 294.625 295.08 299.013 295.291 302.633 C 295.503 306.254 295.779 309.742 295.906 310.383 C 296.198 311.857 297.837 314.45 300.693 317.952 C 304.851 323.052 305.89 324.727 307.062 328.217 C 307.308 328.95 307.583 329.904 307.672 330.337 C 307.761 330.77 308.202 331.877 308.653 332.796 C 309.104 333.715 309.428 334.467 309.374 334.467 C 309.319 334.467 309.394 334.673 309.539 334.925 C 309.685 335.177 310.279 336.321 310.859 337.467 C 311.439 338.613 312.473 340.6 313.155 341.883 C 313.838 343.167 314.762 344.967 315.209 345.883 C 318.118 351.855 319.805 354.504 321.415 355.633 C 321.933 355.996 322.958 356.426 323.953 356.7 C 326.735 357.465 327.823 358.113 330.835 360.8 C 333.017 362.747 337.459 366.171 340.614 368.339 C 344.555 371.047 348.511 372.617 356.592 374.68 C 366.932 377.319 371.447 377.843 377.83 377.143 L 377.83 377.143 Z  M 370.67 371.126 C 369.535 371.048 367.571 370.863 366.306 370.715 C 359.394 369.908 350.203 366.835 346.506 364.095 C 344.087 362.302 341.543 359.345 341.543 358.324 C 341.543 357.966 342.273 357.467 342.795 357.467 C 342.995 357.467 346.646 358.636 350.907 360.065 C 359.11 362.815 361.33 363.468 363.874 363.878 C 366.385 364.283 370.024 364.375 373.5 364.121 L 376.617 363.894 L 374.432 363.767 C 373.231 363.697 370.773 363.488 368.971 363.303 C 364.772 362.871 364.525 362.871 364.723 363.3 C 364.954 363.798 364.321 363.727 362.453 363.043 C 360.713 362.407 355.851 359.86 355.673 359.492 C 355.588 359.315 355.67 359.306 356.063 359.45 C 356.895 359.756 356.898 359.665 356.081 358.883 C 355.65 358.471 355.359 358.091 355.435 358.039 C 355.512 357.986 356.306 358.399 357.2 358.955 C 358.094 359.512 359.033 359.967 359.287 359.967 C 359.835 359.967 359.856 359.829 359.376 359.393 C 359.18 359.215 359.019 359.001 359.019 358.917 C 359.019 358.456 362.154 359.65 362.665 360.306 C 363.181 360.968 364.737 361.31 368.894 361.672 C 372.786 362.011 372.949 362.013 374.719 361.726 C 375.721 361.564 377.432 361.12 378.521 360.74 C 380.45 360.067 380.535 360.012 381.863 358.553 C 382.613 357.731 383.519 356.907 383.878 356.723 C 384.527 356.39 384.53 356.39 385.427 356.72 C 386.521 357.122 386.673 357.593 385.97 358.411 C 385.38 359.097 385.436 359.291 386.081 358.801 C 386.519 358.468 387.66 358.333 387.66 358.614 C 387.66 358.695 387.874 358.8 388.135 358.846 C 388.827 358.971 390.533 357.653 393.214 354.925 C 394.453 353.665 395.621 352.633 395.81 352.633 C 396.544 352.633 396.059 355.154 394.801 357.883 C 393.437 360.843 389.789 365.13 387.021 367.025 C 385.361 368.162 382.317 369.596 380.109 370.281 C 377.508 371.088 374.284 371.377 370.67 371.126 L 370.67 371.126 Z  M 333.972 351.555 C 332.809 350.757 332.277 348.705 332.94 347.572 C 333.093 347.311 333.039 347.28 332.603 347.375 C 331.884 347.532 330.775 347.047 330.181 346.315 C 329.273 345.2 329.071 343.9 329.528 342.126 C 329.751 341.259 329.982 340.325 330.041 340.05 C 330.1 339.775 330.581 338.955 331.109 338.228 C 331.638 337.501 332.028 336.877 331.976 336.841 C 331.925 336.806 331.412 336.941 330.837 337.143 C 330.15 337.383 329.761 337.445 329.701 337.321 C 329.651 337.218 329.455 337.133 329.266 337.133 C 329.077 337.133 328.922 337.077 328.922 337.008 C 328.922 336.939 329.727 336.183 330.711 335.327 C 332.211 334.023 332.587 333.565 333.038 332.494 C 333.645 331.052 333.911 330.633 335.49 328.633 C 336.106 327.854 336.965 326.604 337.399 325.856 C 338.361 324.201 339.08 323.659 339.951 323.932 C 341.091 324.288 341.359 324.815 341.351 326.685 C 341.343 328.847 341.096 329.469 339.729 330.758 C 338.527 331.892 338.454 332.003 338.995 331.86 C 339.195 331.807 339.359 331.848 339.359 331.949 C 339.359 332.05 339.523 332.133 339.723 332.133 C 340.247 332.133 340.171 332.53 339.577 332.899 C 338.85 333.35 337.97 334.437 337.699 335.217 C 337.571 335.583 337.194 336.521 336.861 337.3 C 335.678 340.068 335.704 339.873 335.645 346.3 C 335.619 349.187 335.509 351.644 335.401 351.758 C 335.102 352.076 334.633 352.009 333.972 351.555 L 333.972 351.555 Z  M 331.835 345.133 C 331.835 344.319 332.137 344.188 333.02 344.619 L 333.716 344.96 L 333.686 341.921 L 333.655 338.883 L 332.848 340.467 C 332.404 341.337 331.885 342.423 331.695 342.878 C 331.295 343.837 331.219 346.041 331.592 345.883 C 331.726 345.827 331.835 345.489 331.835 345.133 L 331.835 345.133 Z  M 337.723 349.885 C 337.522 349.729 337.433 349.123 337.455 348.076 C 337.485 346.707 337.418 346.423 336.939 345.891 C 336.527 345.433 336.423 345.13 336.527 344.688 C 336.788 343.585 338.48 341.8 339.265 341.8 C 339.43 341.8 339.892 342.025 340.293 342.3 C 340.693 342.575 341.197 342.8 341.411 342.8 C 341.991 342.8 344.633 342.011 346.155 341.383 C 349.45 340.024 350.467 339.76 352.77 339.67 C 354.886 339.587 354.93 339.577 354.314 339.32 C 353.631 339.036 353.518 338.613 353.928 337.873 C 354.154 337.466 354.266 337.432 355.133 337.512 C 355.932 337.585 356.483 337.467 358.503 336.786 C 361.275 335.852 361.841 335.457 363.524 333.282 C 364.783 331.654 365.431 331.136 365.848 331.422 C 365.994 331.522 366.317 332.288 366.566 333.124 C 367.085 334.858 367.278 335.167 368.333 335.941 C 369.319 336.666 370.005 336.845 371.669 336.811 C 373.539 336.774 375.154 337.084 376.035 337.65 C 377.033 338.29 376.765 338.514 375.166 338.377 C 374.331 338.305 373.826 338.331 373.719 338.45 C 373.628 338.551 373.676 338.633 373.825 338.633 C 373.974 338.633 374.034 338.703 373.957 338.788 C 373.705 339.068 371.194 339.196 370.764 338.951 C 370.318 338.697 368.625 338.516 365.303 338.367 C 363.347 338.279 362.869 338.308 362.345 338.543 C 360.907 339.19 357.634 339.45 357.186 338.952 C 356.958 338.7 356.684 338.779 356.421 339.175 L 356.172 339.55 L 367.365 339.467 C 373.521 339.421 378.938 339.435 379.401 339.499 C 379.865 339.563 380.369 339.732 380.52 339.874 C 380.731 340.072 381.268 340.133 382.804 340.133 C 384.426 340.133 384.971 340.201 385.644 340.486 C 386.177 340.713 386.427 340.928 386.34 341.083 C 386.265 341.217 386.204 341.383 386.204 341.452 C 386.204 341.57 385.779 341.713 382.49 342.7 C 381.716 342.933 379.054 344.071 376.575 345.23 C 374.095 346.388 371.397 347.55 370.579 347.81 C 367.934 348.652 365.281 349.047 362.255 349.049 L 359.545 349.05 L 356.721 348.07 C 354.598 347.334 353.613 346.881 352.756 346.248 C 352.129 345.784 351.262 345.162 350.83 344.865 C 349.933 344.25 347.657 343.587 346.398 343.576 C 345.535 343.568 341.593 344.254 341.216 344.478 C 340.913 344.657 341.277 345.3 341.681 345.3 C 341.95 345.3 342.029 345.564 342.029 346.457 C 342.029 347.441 341.953 347.651 341.523 347.858 C 341.073 348.074 341.036 348.204 341.187 349.034 C 341.381 350.096 341.216 350.177 340.131 349.55 C 339.735 349.321 339.358 349.133 339.293 349.133 C 339.229 349.133 339.039 349.358 338.874 349.633 C 338.546 350.176 338.194 350.253 337.723 349.885 L 337.723 349.885 Z  M 354.165 342.728 C 354.165 342.582 352.676 341.933 352.546 342.023 C 352.472 342.074 352.778 342.269 353.227 342.457 C 354.096 342.821 354.165 342.841 354.165 342.728 Z  M 357.806 341.975 C 357.806 341.879 357.363 341.8 356.821 341.8 C 356.029 341.8 355.702 341.699 355.146 341.28 C 354.303 340.647 353.755 340.762 354.282 341.461 C 354.479 341.723 354.779 341.968 354.949 342.008 C 355.64 342.167 357.806 342.142 357.806 341.975 L 357.806 341.975 Z  M 362.523 341.471 C 363.157 341.305 363.292 341.05 362.945 340.675 C 362.801 340.519 362.187 340.493 360.522 340.575 C 358.594 340.668 358.291 340.724 358.291 340.983 C 358.291 341.149 358.482 341.36 358.716 341.453 C 359.261 341.671 361.713 341.683 362.523 341.471 Z  M 371.883 340.82 C 371.883 340.361 371.093 340.254 368.549 340.367 C 367.122 340.43 365.913 340.511 365.861 340.547 C 365.809 340.582 365.839 340.691 365.927 340.789 C 366.122 341.005 371.883 341.036 371.883 340.82 Z  M 392.339 346.884 C 391.093 346.152 389.251 344.652 389.439 344.523 C 389.518 344.469 389.974 344.584 390.455 344.779 C 391.79 345.32 392.161 345.25 392.51 344.393 C 393.015 343.156 392.934 341.642 392.326 340.961 C 392.037 340.637 391.511 339.775 391.157 339.045 C 390.612 337.92 390.517 337.445 390.537 335.94 C 390.551 334.88 390.699 333.886 390.905 333.476 L 391.25 332.788 L 390.45 332.415 C 389.425 331.936 387.531 330.392 386.716 329.368 C 386.071 328.558 385.476 328.234 385.476 328.693 C 385.476 329.393 384.073 329.091 383.309 328.227 C 383.061 327.947 382.781 327.395 382.687 327.002 C 382.594 326.61 382.23 326.054 381.878 325.767 C 381.351 325.336 381.223 325.04 381.143 324.065 C 381.066 323.126 380.928 322.786 380.47 322.412 C 380.153 322.153 379.893 321.888 379.893 321.824 C 379.893 321.671 380.571 320.98 381.174 320.518 C 381.619 320.177 381.69 320.17 382.229 320.412 C 382.746 320.645 382.806 320.793 382.806 321.844 C 382.806 322.745 382.943 323.214 383.399 323.867 C 383.726 324.334 384.053 324.916 384.126 325.159 C 384.211 325.44 384.701 325.818 385.474 326.2 C 386.265 326.59 386.689 326.921 386.689 327.147 C 386.689 327.362 387.43 327.988 388.631 328.79 C 390.178 329.823 390.573 330.184 390.573 330.57 C 390.573 330.873 390.754 331.131 391.058 331.261 C 391.406 331.41 391.543 331.65 391.543 332.103 C 391.543 332.61 391.685 332.809 392.249 333.095 C 392.699 333.324 393.543 334.249 394.579 335.648 C 395.473 336.855 396.536 338.227 396.941 338.696 C 398.991 341.075 400.066 343.681 399.971 346.048 C 399.909 347.594 399.542 347.819 398.383 347.021 C 397.847 346.651 397.637 346.287 397.407 345.326 C 397.038 343.782 395.594 340.246 394.94 339.282 C 394.382 338.459 394.457 338.665 395.371 340.467 C 395.907 341.522 396.006 342.002 396.006 343.55 C 396.005 345.547 395.709 346.53 394.937 347.099 C 394.231 347.618 393.483 347.557 392.339 346.884 L 392.339 346.884 Z  M 389.573 342.919 C 389.098 342.644 388.897 342.331 388.778 341.69 C 388.691 341.217 388.404 340.4 388.14 339.872 C 387.546 338.685 387.516 338.226 388.044 338.366 C 388.255 338.421 388.476 338.467 388.534 338.467 C 388.726 338.467 391.022 340.966 391.683 341.894 C 392.21 342.633 392.274 342.848 392.029 343.05 C 391.589 343.414 390.307 343.345 389.573 342.919 L 389.573 342.919 Z  M 370.669 327.486 C 368.73 327.054 367.812 326.289 368.143 325.382 C 368.223 325.165 368.154 324.949 367.982 324.876 C 367.789 324.794 367.744 324.817 367.857 324.942 C 368.246 325.375 367.222 325.33 366.545 324.884 C 365.945 324.49 365.722 324.442 364.952 324.541 C 364.181 324.64 363.929 324.585 363.13 324.145 C 362.62 323.864 361.979 323.633 361.706 323.633 C 361.091 323.633 360.23 323.147 360.241 322.805 C 360.257 322.3 361.581 321.218 362.427 321.018 C 363.851 320.681 365.579 320.746 366.225 321.163 L 366.786 321.525 L 366.786 321.003 C 366.786 320.716 366.53 320.222 366.217 319.906 C 365.905 319.589 365.507 318.854 365.334 318.273 C 365.103 317.494 364.813 317.064 364.231 316.633 C 363.797 316.313 363.266 315.81 363.051 315.517 C 362.613 314.918 362.523 313.378 362.917 313.211 C 363.363 313.021 364.275 313.278 365.366 313.901 C 367.024 314.848 367.359 315.314 367.209 316.459 L 367.08 317.432 L 368.788 318.233 C 369.727 318.674 371.064 319.391 371.758 319.826 C 373.705 321.048 375.001 323.137 375.414 325.719 C 375.55 326.572 375.502 326.782 375.093 327.129 C 374.679 327.48 374.38 327.543 372.944 327.579 C 372.027 327.602 371.003 327.561 370.669 327.486 L 370.669 327.486 Z  M 367.726 322.716 C 367.701 322.184 367.545 321.72 367.355 321.612 C 367.175 321.509 367.029 321.497 367.029 321.585 C 367.029 321.884 367.581 323.633 367.675 323.633 C 367.727 323.633 367.75 323.22 367.726 322.716 Z  M 322.298 326.133 C 322.215 325.721 322.096 324.846 322.032 324.19 C 321.873 322.557 321.197 321.581 319.005 319.816 C 310.196 312.723 309.043 311.698 308.521 310.502 C 308.201 309.77 308.581 300.844 308.951 300.39 C 309.306 299.955 309.601 300.318 310.918 302.812 C 312.191 305.221 313.355 306.903 315.603 309.583 C 316.387 310.517 317.029 311.361 317.029 311.458 C 317.029 311.752 317.482 311.654 317.757 311.3 C 317.923 311.088 318.266 310.967 318.702 310.967 C 319.403 310.967 319.593 311.09 323.033 313.768 C 324.051 314.561 324.824 314.944 326.918 315.694 C 328.355 316.209 329.681 316.795 329.865 316.997 C 330.167 317.33 330.136 317.4 329.521 317.764 C 328.851 318.159 328.2 318.193 327.155 317.887 C 326.77 317.774 326.752 317.806 326.996 318.174 C 327.332 318.68 326.815 319.482 325.882 319.901 C 324.737 320.417 323.215 323.104 322.737 325.458 C 322.457 326.834 322.442 326.858 322.298 326.133 L 322.298 326.133 Z  M 323.446 315.785 C 323.054 315.503 322.514 315.196 322.247 315.103 C 321.981 315.011 322.254 315.239 322.854 315.611 C 324.158 316.417 324.433 316.498 323.446 315.785 Z  M 354.35 326.227 C 352.763 325.658 349.791 323.757 348.543 322.511 C 347.159 321.13 346.082 319.3 346.063 318.3 C 346.044 317.304 346.915 315.932 347.627 315.838 C 348.173 315.766 349.664 316.507 349.741 316.889 C 349.784 317.107 349.519 317.35 348.951 317.613 C 347.935 318.085 347.897 318.373 348.704 319.467 C 349.038 319.919 349.311 320.408 349.311 320.553 C 349.311 321.137 350.237 321.978 353.015 323.914 C 355.03 325.318 355.883 326.025 355.782 326.205 C 355.602 326.529 355.21 326.534 354.35 326.227 Z  M 348.287 325.55 C 347.638 325.247 347.073 325.133 346.216 325.133 C 344.788 325.133 342.969 324.554 341.803 323.729 C 340.847 323.051 340.583 322.012 341.059 320.799 C 341.463 319.767 344.214 317.879 344.214 318.633 C 344.214 318.725 344.377 318.8 344.578 318.8 C 345.053 318.8 345.036 318.942 344.483 319.564 C 343.923 320.196 343.633 321.29 343.849 321.963 C 343.978 322.37 344.134 322.467 344.658 322.467 C 345.501 322.468 349.998 324.17 351.405 325.02 C 352.693 325.799 352.541 325.96 350.52 325.964 C 349.487 325.966 348.976 325.871 348.287 325.55 L 348.287 325.55 Z  M 390.593 322.952 C 388.902 319.505 388.284 319.023 383.413 317.351 C 379.836 316.124 378.115 315.317 378.462 315.03 C 378.606 314.91 379.615 314.577 380.704 314.29 C 381.793 314.002 383.458 313.437 384.404 313.033 C 385.729 312.468 386.359 312.3 387.15 312.3 C 388.451 312.3 388.942 312.117 389.6 311.385 C 390.201 310.718 390.51 310.67 391.336 311.117 C 391.826 311.381 391.991 311.398 392.347 311.219 C 392.737 311.024 392.715 310.996 392.098 310.89 C 391.327 310.759 390.33 310.179 390.33 309.862 C 390.33 309.745 390.46 309.453 390.618 309.214 C 390.841 308.879 391.031 308.801 391.449 308.873 C 391.908 308.952 392.036 308.87 392.28 308.342 C 392.438 307.998 392.741 307.623 392.952 307.508 C 393.521 307.199 394.655 307.256 395.423 307.631 L 396.1 307.962 L 396.232 307.589 C 396.305 307.384 396.588 306.664 396.862 305.989 C 397.137 305.313 397.691 303.444 398.096 301.834 C 398.501 300.224 398.89 298.867 398.963 298.817 C 399.24 298.626 399.519 299.237 399.671 300.37 C 399.759 301.019 399.999 302.187 400.205 302.967 C 400.426 303.808 400.534 304.903 400.471 305.664 C 400.34 307.225 399.83 307.982 396.507 311.55 C 393.618 314.652 392.663 315.998 391.875 318.083 C 391.265 319.7 391.261 319.745 391.555 322.347 C 391.718 323.794 391.807 325.008 391.753 325.045 C 391.698 325.083 391.177 324.14 390.593 322.952 L 390.593 322.952 Z  M 395.666 308.252 C 395.668 308.181 395.342 308.378 394.942 308.691 C 394.541 309.004 394.214 309.393 394.214 309.555 C 394.214 309.839 395.655 308.545 395.666 308.252 Z  M 350.113 316.474 C 348.439 315.773 348.283 315.025 349.681 314.396 C 350.309 314.114 350.747 314.192 351.274 314.683 C 351.352 314.756 351.775 314.681 352.214 314.516 C 352.815 314.291 353.039 314.268 353.123 314.425 C 353.185 314.54 353.389 314.633 353.578 314.633 C 354.126 314.633 353.985 314.991 353.066 315.927 C 352.095 316.918 351.455 317.036 350.113 316.474 Z  M 372.854 310.767 C 372.254 310.566 370.767 309.722 369.551 308.892 C 368.335 308.062 366.943 307.15 366.457 306.865 C 365.014 306.019 365.486 305.177 366.995 305.902 C 367.687 306.235 367.932 306.094 368.527 305.018 L 368.961 304.233 L 367.51 303.327 C 366.711 302.829 366.058 302.337 366.058 302.235 C 366.058 302.133 366.441 301.841 366.908 301.584 C 367.967 301.004 367.975 300.753 366.943 300.315 C 365.306 299.62 363.226 297.8 364.069 297.8 C 364.176 297.8 364.729 298.035 365.298 298.322 C 366.686 299.023 366.91 298.848 366.566 297.328 C 366.421 296.682 366.301 295.683 366.301 295.11 L 366.301 294.068 L 365.473 294.619 C 365.017 294.923 364.528 295.122 364.386 295.062 C 363.662 294.754 362.343 290.013 362.437 288.053 C 362.473 287.318 362.415 286.507 362.31 286.251 C 362.104 285.754 362.656 285.133 363.305 285.133 C 364.046 285.133 363.529 284.59 361.871 283.626 C 360.903 283.063 359.921 282.403 359.688 282.16 C 359.174 281.622 359.135 280.648 359.61 280.207 C 360.255 279.607 361.145 280.21 362.952 282.471 C 363.847 283.591 364.648 284.554 364.733 284.612 C 364.817 284.669 365.215 284.435 365.617 284.092 C 366.019 283.748 366.561 283.467 366.822 283.467 C 367.469 283.467 368.646 283.895 369.871 284.576 C 372.09 285.81 377.517 287.106 381.234 287.291 C 383.171 287.387 383.558 287.462 384.566 287.938 C 387.67 289.404 389.991 291.761 390.473 293.932 C 390.549 294.272 390.708 294.85 390.828 295.217 C 391.192 296.327 391.121 296.967 390.634 296.967 C 390.305 296.968 390.195 297.129 390.151 297.676 C 389.992 299.628 388.226 301.67 386.073 302.394 C 384.803 302.82 384.371 302.867 380.535 302.996 C 374.785 303.189 374.878 303.194 373.738 302.665 C 372.91 302.281 372.733 302.105 372.735 301.666 C 372.738 301.063 372.481 300.963 372.244 301.475 C 372.031 301.935 372.427 302.311 374.967 304.064 C 377.313 305.682 379.65 307.554 379.65 307.815 C 379.65 308.178 376.944 306.765 372.529 304.097 C 370.435 302.832 369.699 302.556 369.699 303.036 C 369.699 303.167 369.632 303.392 369.551 303.538 C 369.447 303.723 369.509 303.776 369.753 303.712 C 370.453 303.527 374.553 305.939 374.553 306.535 C 374.553 306.658 374.393 306.85 374.197 306.963 C 373.764 307.209 372.843 306.769 371.914 305.873 C 371.588 305.558 371.165 305.3 370.975 305.3 C 370.163 305.3 373.208 307.447 374.999 308.138 C 376.128 308.574 376.177 308.804 375.191 309.043 C 374.22 309.279 373.066 308.779 371.306 307.36 C 370.489 306.701 369.783 306.188 369.738 306.218 C 369.473 306.399 370.211 307.111 372.255 308.65 C 373.751 309.774 374.538 310.496 374.496 310.703 C 374.403 311.167 374.083 311.179 372.854 310.767 L 372.854 310.767 Z  M 376.617 301.492 C 377.017 301.323 378.075 300.729 378.968 300.171 C 379.861 299.614 381.117 298.997 381.759 298.8 L 382.927 298.443 L 382.199 298.034 C 381.102 297.417 378.141 296.436 377.893 296.607 C 377.768 296.693 377.939 297.196 378.3 297.806 C 379.019 299.02 379.07 299.49 378.546 300.039 C 378.186 300.417 377.06 300.85 376.595 300.789 C 376.474 300.773 375.664 300.771 374.796 300.783 L 373.218 300.806 L 374.432 301.3 C 375.099 301.572 375.7 301.795 375.767 301.797 C 375.834 301.798 376.216 301.661 376.617 301.492 L 376.617 301.492 Z  M 378.563 295.359 C 379.106 295.216 378.906 294.766 378.193 294.522 C 376.196 293.84 375.986 293.803 375.443 294.036 C 375.154 294.16 373.839 294.309 372.522 294.368 C 371.205 294.428 369.921 294.551 369.67 294.644 C 369.051 294.871 369.095 295.275 369.759 295.474 C 370.326 295.644 377.856 295.545 378.563 295.359 L 378.563 295.359 Z  M 347.755 310.454 C 347.409 310.172 347.126 309.801 347.126 309.631 C 347.126 309.46 347.666 309.007 348.326 308.625 C 349.063 308.199 349.586 307.743 349.682 307.445 C 349.933 306.659 349.561 305.651 348.801 305.056 C 347.934 304.379 347.913 303.977 348.717 303.458 C 349.298 303.083 349.378 303.074 349.991 303.31 C 351.919 304.052 351.935 308.751 350.015 310.35 C 349.114 311.101 348.578 311.126 347.755 310.454 L 347.755 310.454 Z  M 329.165 309.633 C 329.165 309.542 329.042 309.485 328.892 309.508 C 328.295 309.6 328.495 309.158 329.627 307.883 L 330.812 306.55 L 330.304 306.212 L 329.797 305.874 L 328.279 306.427 C 326.342 307.133 324.61 307.3 323.737 306.863 C 323.394 306.691 323.109 306.495 323.105 306.427 C 323.101 306.359 323.998 305.986 325.099 305.599 L 327.102 304.894 L 325.864 304.803 C 323.745 304.648 321.825 303.579 318.668 300.8 C 318.062 300.266 318.005 300.249 318.003 300.599 C 318.001 300.826 318.465 301.322 319.147 301.823 C 320.243 302.628 320.274 302.676 319.829 302.9 C 318.737 303.448 317.519 302.87 316.913 301.515 C 316.675 300.984 316.222 300.358 315.906 300.124 C 315.589 299.89 315.33 299.626 315.33 299.537 C 315.33 299.448 314.658 299.04 313.838 298.629 C 311.982 297.702 311.332 297.038 310.825 295.55 C 310.002 293.134 310.727 291.425 313.331 289.64 C 316.482 287.481 318.947 286.782 325.053 286.315 C 327.75 286.108 328.394 285.896 328.931 285.036 C 329.275 284.485 329.622 284.257 330.646 283.906 C 332.183 283.38 333.015 283.352 333.843 283.8 C 335.161 284.512 335.233 284.342 335.233 280.564 C 335.233 278.891 335.294 277.48 335.369 277.429 C 335.735 277.177 336.911 277.863 337.371 278.597 C 338.414 280.261 338.486 280.786 338.009 283.263 C 337.517 285.819 337.266 286.361 336.181 287.209 C 335.44 287.789 335.434 287.808 335.737 288.621 C 336.091 289.568 335.757 292.379 335.151 293.558 C 334.814 294.214 334.826 294.258 335.59 295.15 C 336.892 296.668 336.933 296.87 336.715 300.8 C 336.465 305.319 336.461 305.327 332.691 307.925 C 330.258 309.601 329.165 310.132 329.165 309.633 Z  M 330.136 303.446 C 330.136 303.366 329.927 303.3 329.673 303.3 C 329.329 303.3 329.243 303.386 329.339 303.637 C 329.439 303.901 329.539 303.933 329.802 303.783 C 329.985 303.678 330.136 303.527 330.136 303.446 Z  M 330.398 302.11 C 332.507 301.676 334.505 299.969 334.505 298.6 C 334.505 297.8 334.505 297.8 333.675 297.8 C 332.241 297.8 332.097 297.895 332.464 298.601 C 332.641 298.939 332.789 299.53 332.795 299.912 C 332.805 300.568 332.755 300.619 331.913 300.81 C 330.678 301.09 326.975 300.916 326.033 300.533 C 325.214 300.2 324.972 299.895 324.559 298.67 C 324.191 297.58 324.381 297.003 325.175 296.796 C 325.51 296.709 327.501 296.588 329.598 296.528 C 331.696 296.467 333.673 296.352 333.991 296.272 C 334.556 296.128 334.559 296.117 334.121 295.785 C 333.875 295.598 332.974 295.102 332.119 294.684 C 330.983 294.127 330.44 293.727 330.097 293.195 C 329.839 292.794 329.534 292.467 329.419 292.467 C 328.906 292.467 326.01 294.894 325.029 296.147 C 323.553 298.03 323.215 298.297 322.291 298.315 L 321.519 298.329 L 322.17 298.464 C 323.243 298.686 323.779 299.028 325.07 300.315 C 326.971 302.209 328.087 302.585 330.398 302.11 L 330.398 302.11 Z  M 303.091 292.758 C 301.68 291.814 301.256 291.126 301.254 289.781 C 301.252 288.856 301.662 287.285 301.958 287.082 C 302.378 286.794 303.481 287.534 304.303 288.656 C 305.278 289.985 305.285 290.031 304.65 290.844 C 304.383 291.185 304.165 291.498 304.165 291.537 C 304.165 291.576 304.625 291.909 305.188 292.277 C 306.197 292.936 306.205 292.95 305.757 293.289 C 305.059 293.818 304.511 293.709 303.091 292.758 L 303.091 292.758 Z  M 392.432 289.724 C 391.371 289.172 393.233 287.87 395.869 287.321 C 396.851 287.116 397.695 286.835 397.819 286.671 C 398.209 286.157 398.386 284.204 398.107 283.492 C 397.961 283.12 397.571 282.595 397.241 282.325 C 396.043 281.348 396.69 281.204 398.947 281.946 C 400.575 282.482 401.742 283.233 401.803 283.787 C 401.886 284.541 402.465 283.608 402.414 282.803 C 402.377 282.223 402.549 281.791 403.113 281.049 C 403.525 280.507 403.961 280.041 404.083 280.013 C 404.206 279.985 404.52 280.07 404.782 280.202 C 405.203 280.414 405.255 280.639 405.242 282.163 C 405.225 284.208 405.059 284.741 404.397 284.885 C 403.909 284.992 403.903 285.118 404.352 285.936 C 404.529 286.259 402.031 287.843 399.697 288.888 C 397.671 289.794 397.126 289.952 397.126 289.633 C 397.126 289.542 396.962 289.467 396.762 289.467 C 396.556 289.467 396.398 289.317 396.398 289.122 C 396.398 288.799 396.298 288.814 394.767 289.372 C 392.911 290.049 393.025 290.032 392.432 289.724 L 392.432 289.724 Z  M 356.675 281.657 C 354.77 280.614 353.194 279.328 353.194 278.817 C 353.194 278.51 354.629 277.513 355.378 277.3 C 355.959 277.135 356.254 277.135 356.835 277.3 C 357.705 277.548 357.729 277.724 357.029 278.713 L 356.495 279.467 L 357.365 280.092 C 358.57 280.958 358.829 281.35 358.54 281.872 C 358.41 282.108 358.201 282.3 358.077 282.3 C 357.951 282.3 357.321 282.011 356.675 281.657 L 356.675 281.657 Z  M 338.883 279.53 C 337.413 278.68 337.141 277.715 338.122 276.822 L 338.543 276.438 L 339.356 276.907 C 340.255 277.426 341.62 279.303 341.393 279.708 C 341.158 280.13 339.749 280.03 338.883 279.53 Z  M 339.117 274.524 C 336.244 274.415 331.599 274.107 329.286 273.872 C 327.951 273.736 326.326 273.583 325.674 273.532 C 324.161 273.413 318.734 272.395 317.698 272.035 C 316.574 271.645 315.33 270.981 315.33 270.771 C 315.33 270.656 315.861 270.619 316.835 270.668 C 317.986 270.725 318.237 270.7 317.899 270.563 C 317.088 270.233 316.421 269.83 316.545 269.744 C 316.613 269.698 318.191 269.916 320.053 270.23 C 321.914 270.543 323.989 270.8 324.663 270.8 L 325.889 270.8 L 324.867 270.452 C 323.795 270.088 323.446 269.692 323.704 269.133 C 323.95 268.601 324.779 268.726 327.859 269.758 L 330.716 270.717 L 334.37 270.717 C 337.929 270.717 338.03 270.707 338.264 270.341 C 338.5 269.972 339.051 269.917 338.937 270.273 C 338.906 270.373 339.042 270.412 339.241 270.36 C 339.471 270.299 339.602 270.365 339.602 270.541 C 339.602 270.795 340.214 270.814 346.702 270.767 C 353.702 270.717 353.815 270.711 354.783 270.316 C 355.739 269.926 355.783 269.923 356.422 270.21 C 356.782 270.372 357.078 270.607 357.078 270.732 C 357.078 271.299 359.123 271.697 367.305 272.722 C 371.25 273.216 372.651 273.32 375.437 273.325 C 378.727 273.331 378.87 273.316 381.836 272.652 C 383.69 272.236 385.671 271.649 386.932 271.14 C 388.067 270.683 389.17 270.306 389.385 270.304 C 390.01 270.298 391.058 271.073 391.058 271.542 C 391.058 272.125 390.368 272.549 388.317 273.225 C 387.355 273.541 386.186 273.969 385.718 274.175 C 384.911 274.531 384.586 274.553 379.215 274.609 C 371.073 274.695 368.394 274.425 362.734 272.952 C 361.372 272.598 359.898 272.267 359.457 272.217 C 359.016 272.167 358.055 272.04 357.321 271.934 C 355.426 271.66 346.875 271.674 336.204 271.967 C 328.567 272.176 327.513 272.233 329.65 272.321 C 331.052 272.379 333.959 272.435 336.11 272.446 C 340.386 272.468 342.217 272.636 343.123 273.088 C 344.857 273.955 342.871 274.667 339.117 274.524 L 339.117 274.524 Z  M 326.541 270.853 C 326.366 270.805 326.156 270.811 326.075 270.866 C 325.995 270.921 326.138 270.961 326.394 270.953 C 326.677 270.946 326.734 270.906 326.541 270.853 L 326.541 270.853 Z  M 366.362 270.05 C 365.945 269.725 365.939 269.732 367.029 269.236 C 367.563 268.994 368 268.684 368 268.548 C 368 268.336 367.185 268.3 362.357 268.297 C 356.046 268.293 354.424 268.178 351.616 267.535 C 348.716 266.872 347.85 266.848 346.117 267.382 C 344.378 267.917 343.835 267.863 340.259 266.785 C 333.617 264.783 329.689 263.967 326.701 263.967 C 325.554 263.967 324.892 263.889 324.657 263.729 C 324.467 263.598 324.311 263.455 324.311 263.412 C 324.311 263.369 324.866 263.196 325.546 263.029 C 326.225 262.861 326.897 262.572 327.038 262.387 C 327.297 262.048 327.691 261.807 327.993 261.802 C 328.082 261.801 328.759 262.179 329.498 262.643 C 330.236 263.106 331.189 263.554 331.614 263.637 C 332.098 263.733 333.758 263.718 336.057 263.598 C 339.472 263.419 339.773 263.427 340.401 263.709 C 340.773 263.876 341.037 264.097 340.989 264.198 C 340.94 264.3 340.308 264.47 339.584 264.576 C 338.859 264.682 338.41 264.775 338.586 264.784 C 338.762 264.793 340.065 265.1 341.482 265.467 C 342.898 265.833 344.163 266.133 344.292 266.133 C 344.421 266.133 343.965 265.725 343.278 265.227 C 342.591 264.728 342.029 264.268 342.029 264.205 C 342.029 263.972 343.767 264.294 345.624 264.869 C 347.729 265.522 349.941 266.014 351.981 266.282 C 353.622 266.499 358.591 266.925 359.747 266.949 C 360.215 266.958 361.635 267.052 362.903 267.157 C 367.499 267.537 372.293 267.357 375.345 266.691 C 375.981 266.552 377.326 266.033 378.333 265.536 C 379.341 265.039 380.337 264.633 380.547 264.633 C 381.185 264.633 382.563 265.308 382.563 265.621 C 382.563 265.783 382.357 266.043 382.106 266.199 C 381.658 266.478 377.923 267.536 375.282 268.133 C 374.547 268.299 372.426 268.854 370.568 269.367 C 368.71 269.88 367.071 270.297 366.927 270.294 C 366.783 270.29 366.529 270.181 366.362 270.05 L 366.362 270.05 Z  M 357.927 264.025 C 357.66 263.986 356.295 263.774 354.893 263.553 C 353.491 263.333 351.416 263.063 350.282 262.955 C 349.147 262.846 347.442 262.591 346.492 262.387 C 344.555 261.971 341.169 260.655 340.15 259.923 L 339.481 259.441 L 340.162 259.036 C 340.984 258.55 341.563 258.688 342.302 259.548 C 342.897 260.24 343.046 260.278 345.63 260.399 C 348.195 260.518 349.112 260.698 350.514 261.356 C 351.963 262.036 354.279 262.467 357.078 262.577 C 359.201 262.661 359.705 262.614 363.437 261.984 C 365.666 261.608 367.851 261.301 368.291 261.304 C 369.287 261.308 370.267 261.797 370.146 262.229 C 370.008 262.722 369.017 262.949 366.275 263.115 C 364.597 263.216 363.194 263.412 362.085 263.7 C 360.554 264.098 359.18 264.205 357.927 264.025 L 357.927 264.025 Z " fill="rgb(181,181,181)"/><path d=" M 314.237 409.965 C 314.135 409.853 313.811 409.817 313.46 409.877 C 313.128 409.934 312.708 409.896 312.526 409.793 C 312.345 409.689 312.082 409.653 311.943 409.712 C 311.803 409.771 311.553 409.761 311.386 409.689 C 311.219 409.617 310.819 409.533 310.498 409.503 C 310.177 409.473 309.577 409.324 309.163 409.173 C 308.75 409.022 308.331 408.914 308.231 408.933 C 308.13 408.951 308.049 408.887 308.049 408.79 C 308.049 408.693 307.956 408.653 307.843 408.701 C 307.729 408.749 307.406 408.641 307.125 408.461 C 306.843 408.281 306.542 408.133 306.454 408.133 C 306.01 408.133 303.194 406.118 303.194 405.8 C 303.194 405.708 303.085 405.633 302.951 405.633 C 302.818 405.633 302.709 405.521 302.709 405.383 C 302.709 405.246 302.593 405.133 302.451 405.133 C 302.31 405.133 302.262 405.058 302.345 404.967 C 302.427 404.875 302.386 404.8 302.254 404.8 C 302.05 404.8 301.765 404.419 301.598 403.925 C 301.575 403.856 301.529 403.744 301.497 403.675 C 301.464 403.606 301.451 403.494 301.466 403.425 C 301.482 403.356 301.374 403.3 301.226 403.3 C 301.079 403.3 301.019 403.19 301.094 403.055 C 301.17 402.921 301.125 402.766 300.995 402.711 C 300.865 402.655 300.825 402.537 300.905 402.448 C 300.986 402.359 300.948 402.195 300.821 402.084 C 300.498 401.802 300.485 401.682 300.484 398.883 C 300.483 395.697 300.485 395.669 300.775 395.547 C 300.909 395.49 300.952 395.37 300.871 395.281 C 300.791 395.192 300.857 395.01 301.018 394.876 C 301.18 394.743 301.23 394.633 301.131 394.633 C 301.031 394.633 301.086 394.521 301.253 394.383 C 301.419 394.246 301.483 394.133 301.395 394.133 C 301.307 394.133 301.371 393.965 301.538 393.758 C 301.705 393.552 301.818 393.327 301.79 393.258 C 301.761 393.19 301.854 393.133 301.995 393.133 C 302.136 393.133 302.185 393.058 302.102 392.967 C 302.019 392.875 302.067 392.8 302.209 392.8 C 302.35 392.8 302.466 392.687 302.466 392.55 C 302.466 392.413 302.685 392.15 302.951 391.967 C 303.218 391.783 303.437 391.593 303.437 391.543 C 303.437 391.38 306.101 389.633 306.35 389.633 C 306.483 389.633 306.592 389.558 306.592 389.467 C 306.592 389.375 306.756 389.3 306.957 389.3 C 307.157 389.3 307.321 389.213 307.321 389.105 C 307.321 388.999 307.388 388.958 307.471 389.014 C 307.553 389.071 307.781 389.008 307.975 388.874 C 308.171 388.74 308.431 388.673 308.554 388.725 C 308.676 388.777 308.777 388.736 308.777 388.633 C 308.777 388.531 308.878 388.49 309.003 388.543 C 309.127 388.596 309.298 388.561 309.383 388.467 C 309.469 388.372 309.64 388.338 309.765 388.39 C 309.889 388.443 309.99 388.399 309.99 388.292 C 309.99 388.185 310.151 388.14 310.347 388.192 C 310.542 388.243 310.769 388.213 310.849 388.123 C 310.929 388.034 311.101 388.006 311.231 388.062 C 311.361 388.117 311.599 388.094 311.761 388.011 C 312.187 387.79 312.897 387.753 316.543 387.766 C 320.868 387.781 320.866 387.781 321.03 387.962 C 321.107 388.048 321.331 388.077 321.527 388.025 C 321.723 387.973 321.883 388.012 321.883 388.11 C 321.883 388.209 322.036 388.25 322.223 388.2 C 322.41 388.151 322.636 388.192 322.725 388.291 C 322.815 388.391 322.99 388.429 323.114 388.376 C 323.238 388.323 323.34 388.36 323.34 388.457 C 323.34 388.554 323.422 388.616 323.522 388.594 C 323.829 388.527 325.282 388.997 325.282 389.164 C 325.282 389.25 325.391 389.273 325.524 389.217 C 325.658 389.16 325.767 389.193 325.767 389.29 C 325.767 389.387 325.894 389.467 326.05 389.467 C 326.365 389.467 326.669 389.636 328.036 390.575 C 329.403 391.514 329.65 391.723 329.65 391.939 C 329.65 392.046 329.758 392.133 329.889 392.133 C 330.019 392.133 330.195 392.321 330.279 392.55 C 330.363 392.779 330.535 392.967 330.662 392.967 C 330.789 392.967 330.831 393.035 330.755 393.119 C 330.68 393.203 330.733 393.298 330.873 393.33 C 331.014 393.362 331.147 393.556 331.169 393.761 C 331.191 393.966 331.308 394.133 331.427 394.133 C 331.546 394.133 331.585 394.238 331.514 394.367 C 331.442 394.496 331.457 394.652 331.548 394.714 C 331.639 394.777 331.727 394.897 331.744 394.981 C 331.761 395.065 331.802 395.152 331.835 395.175 C 331.869 395.198 331.941 395.404 331.994 395.633 C 332.047 395.863 332.152 396.313 332.227 396.633 C 332.459 397.625 332.366 401.211 332.098 401.633 C 332.069 401.679 331.997 401.972 331.938 402.285 C 331.879 402.597 331.709 402.953 331.561 403.076 C 331.411 403.2 331.362 403.3 331.45 403.3 C 331.538 403.3 331.473 403.469 331.306 403.675 C 331.14 403.881 331.027 404.106 331.055 404.175 C 331.083 404.244 330.991 404.3 330.85 404.3 C 330.709 404.3 330.66 404.375 330.743 404.467 C 330.825 404.558 330.771 404.633 330.621 404.633 C 330.472 404.633 330.418 404.708 330.5 404.8 C 330.582 404.892 330.528 404.967 330.379 404.967 C 330.229 404.967 330.175 405.042 330.257 405.133 C 330.34 405.225 330.291 405.3 330.15 405.3 C 330.009 405.3 329.893 405.415 329.893 405.555 C 329.893 405.696 329.729 405.853 329.529 405.906 C 329.329 405.959 329.165 406.073 329.165 406.161 C 329.165 406.386 326.857 407.967 326.527 407.967 C 326.376 407.967 326.253 408.042 326.253 408.133 C 326.253 408.225 326.089 408.3 325.889 408.3 C 325.688 408.3 325.524 408.38 325.524 408.477 C 325.524 408.574 325.415 408.607 325.282 408.55 C 325.148 408.493 325.039 408.521 325.039 408.612 C 325.039 408.778 324.106 409.062 323.765 409 C 323.665 408.982 323.582 409.042 323.582 409.133 C 323.582 409.225 323.501 409.291 323.401 409.28 C 323.301 409.269 323.137 409.279 323.037 409.301 C 322.937 409.323 322.745 409.36 322.611 409.383 C 322.478 409.406 322.342 409.44 322.308 409.459 C 322.243 409.495 321.499 409.626 320.913 409.705 C 320.713 409.732 320.385 409.799 320.185 409.853 C 319.984 409.908 319.547 409.959 319.214 409.966 C 318.88 409.974 317.662 410.02 316.508 410.068 C 315.061 410.13 314.355 410.097 314.237 409.965 L 314.237 409.965 Z  M 318.154 405.754 C 318.288 405.698 318.709 405.612 319.09 405.565 C 319.47 405.517 319.87 405.382 319.979 405.264 C 320.088 405.147 320.179 405.102 320.181 405.166 C 320.187 405.348 322.369 403.821 322.369 403.634 C 322.369 403.542 322.485 403.467 322.626 403.467 C 322.767 403.467 322.815 403.392 322.733 403.3 C 322.65 403.208 322.705 403.133 322.854 403.133 C 323.003 403.133 323.058 403.058 322.976 402.967 C 322.893 402.875 322.948 402.8 323.097 402.8 C 323.246 402.8 323.306 402.73 323.229 402.645 C 323.152 402.56 323.202 402.442 323.34 402.383 C 323.478 402.325 323.532 402.212 323.461 402.133 C 323.39 402.054 323.445 401.942 323.582 401.883 C 323.721 401.825 323.77 401.707 323.694 401.622 C 323.617 401.536 323.635 401.377 323.734 401.267 C 324.225 400.721 324.24 397.063 323.753 396.521 C 323.658 396.416 323.647 396.211 323.729 396.065 C 323.814 395.913 323.752 395.8 323.582 395.8 C 323.421 395.8 323.348 395.692 323.422 395.561 C 323.495 395.429 323.479 395.298 323.387 395.269 C 323.294 395.24 322.953 394.854 322.628 394.411 C 322.153 393.763 320.608 392.467 320.311 392.467 C 320.274 392.467 319.821 392.34 319.304 392.186 C 318.787 392.031 318.271 391.921 318.157 391.942 C 318.042 391.962 317.824 391.909 317.671 391.824 C 317.291 391.613 315.294 391.613 314.923 391.824 C 314.758 391.918 314.517 391.95 314.387 391.895 C 314.257 391.839 314.081 391.871 313.995 391.966 C 313.91 392.061 313.738 392.095 313.614 392.042 C 313.49 391.99 313.389 392.031 313.389 392.133 C 313.389 392.235 313.279 392.273 313.146 392.216 C 313.012 392.16 312.903 392.197 312.903 392.3 C 312.903 392.402 312.794 392.439 312.66 392.383 C 312.527 392.326 312.418 392.361 312.418 392.461 C 312.418 392.56 312.143 392.713 311.807 392.8 C 311.473 392.888 311.073 393.149 310.919 393.38 C 310.766 393.611 310.549 393.8 310.437 393.8 C 310.325 393.8 310.233 393.912 310.233 394.05 C 310.233 394.187 310.106 394.3 309.95 394.3 C 309.794 394.3 309.735 394.347 309.82 394.405 C 309.904 394.463 309.845 394.669 309.687 394.863 C 309.53 395.057 309.383 395.272 309.362 395.341 C 309.341 395.41 309.301 395.485 309.274 395.508 C 309.22 395.554 309.068 395.992 308.884 396.633 C 308.649 397.451 308.786 401.227 309.063 401.558 C 309.251 401.783 309.592 402.692 309.545 402.841 C 309.523 402.91 309.621 402.966 309.762 402.966 C 309.903 402.966 309.951 403.041 309.869 403.133 C 309.786 403.225 309.841 403.3 309.99 403.3 C 310.139 403.3 310.194 403.375 310.111 403.466 C 310.029 403.558 310.077 403.633 310.219 403.633 C 310.36 403.633 310.475 403.7 310.475 403.783 C 310.475 404.222 313.155 405.581 314.321 405.732 C 314.5 405.755 314.682 405.799 314.726 405.829 C 314.869 405.926 317.904 405.86 318.154 405.754 L 318.154 405.754 Z  M 368.971 409.648 C 368.971 409.477 370.639 406.318 376.591 395.217 L 380.345 388.217 L 385.069 388.171 L 389.794 388.126 L 390.036 388.588 C 390.17 388.842 392.748 393.653 395.766 399.279 C 398.783 404.904 401.253 409.575 401.253 409.658 C 401.253 409.743 399.455 409.788 397.101 409.762 L 392.95 409.717 L 391.822 407.55 L 390.694 405.383 L 384.99 405.34 L 379.286 405.297 L 378.173 407.507 L 377.059 409.717 L 373.015 409.762 C 370.546 409.79 368.971 409.746 368.971 409.648 Z  M 388.633 401.175 C 388.637 400.939 385.115 393.967 384.992 393.968 C 384.868 393.969 381.341 400.943 381.346 401.175 C 381.348 401.244 382.988 401.3 384.99 401.3 C 386.993 401.3 388.632 401.244 388.633 401.175 Z  M 339.078 409.467 C 339.349 409.325 339.267 388.231 338.995 388.094 C 338.862 388.027 340.64 387.97 342.946 387.969 L 347.141 387.967 L 347.073 392.8 C 347.019 396.581 347.071 397.633 347.308 397.633 C 347.475 397.633 347.611 397.521 347.611 397.385 C 347.611 397.248 347.83 397.043 348.097 396.928 C 348.364 396.814 348.582 396.628 348.582 396.516 C 348.582 396.403 348.801 396.232 349.068 396.133 C 349.335 396.035 349.553 395.87 349.553 395.767 C 349.553 395.663 349.712 395.459 349.906 395.314 C 351.075 394.44 351.253 394.284 351.253 394.139 C 351.253 394.051 351.471 393.898 351.738 393.8 C 352.005 393.702 352.223 393.537 352.223 393.433 C 352.223 393.33 352.382 393.126 352.576 392.981 C 353.745 392.106 353.922 391.951 353.922 391.806 C 353.922 391.717 354.141 391.565 354.408 391.467 C 354.675 391.368 354.893 391.176 354.893 391.039 C 354.893 390.902 355.057 390.747 355.257 390.694 C 355.458 390.641 355.621 390.494 355.621 390.367 C 355.621 390.24 355.84 390.043 356.107 389.928 C 356.374 389.814 356.592 389.628 356.592 389.516 C 356.592 389.403 356.811 389.232 357.078 389.133 C 357.345 389.035 357.563 388.862 357.563 388.748 C 357.563 388.634 357.783 388.412 358.051 388.254 C 358.475 388.004 359.133 387.967 363.045 387.967 C 367.139 387.967 367.514 387.99 367.168 388.229 C 366.958 388.373 366.786 388.596 366.786 388.725 C 366.786 388.853 366.513 389.082 366.179 389.232 C 365.846 389.382 365.573 389.589 365.573 389.692 C 365.573 389.867 365.343 390.051 363.57 391.298 C 363.203 391.556 362.903 391.833 362.903 391.913 C 362.903 391.993 362.602 392.258 362.235 392.5 C 361.869 392.743 361.295 393.178 360.961 393.467 C 360.627 393.757 360.054 394.205 359.687 394.464 C 359.32 394.722 359.019 395.015 359.019 395.113 C 359.019 395.212 358.746 395.415 358.413 395.566 C 358.079 395.716 357.806 395.923 357.806 396.026 C 357.806 396.129 357.541 396.401 357.217 396.632 C 355.311 397.986 355.151 398.204 355.866 398.467 C 356.132 398.565 356.35 398.747 356.35 398.871 C 356.35 398.996 356.513 399.141 356.714 399.194 C 356.914 399.247 357.078 399.397 357.078 399.527 C 357.078 399.658 357.242 399.808 357.442 399.86 C 357.642 399.913 357.806 400.063 357.806 400.194 C 357.806 400.324 357.97 400.474 358.17 400.527 C 358.37 400.58 358.534 400.73 358.534 400.86 C 358.534 400.991 358.698 401.141 358.898 401.194 C 359.098 401.247 359.262 401.402 359.262 401.539 C 359.262 401.676 359.481 401.868 359.747 401.967 C 360.014 402.065 360.233 402.247 360.233 402.371 C 360.233 402.496 360.397 402.641 360.597 402.694 C 360.797 402.747 360.961 402.897 360.961 403.027 C 360.961 403.158 361.125 403.308 361.325 403.36 C 361.526 403.413 361.689 403.563 361.689 403.694 C 361.689 403.824 361.853 403.974 362.053 404.027 C 362.254 404.08 362.418 404.23 362.418 404.36 C 362.418 404.491 362.581 404.641 362.782 404.694 C 362.982 404.747 363.146 404.897 363.146 405.027 C 363.146 405.158 363.31 405.308 363.51 405.36 C 363.71 405.413 363.874 405.554 363.874 405.674 C 363.874 405.795 364.065 406.019 364.298 406.174 C 365.21 406.777 365.573 407.085 365.573 407.254 C 365.573 407.351 365.737 407.474 365.937 407.527 C 366.137 407.58 366.301 407.73 366.301 407.86 C 366.301 407.991 366.465 408.141 366.665 408.194 C 366.865 408.247 367.029 408.397 367.029 408.527 C 367.029 408.658 367.205 408.811 367.418 408.867 C 367.647 408.927 367.749 409.075 367.664 409.227 C 367.585 409.368 367.621 409.441 367.743 409.389 C 367.866 409.337 368.018 409.352 368.082 409.422 C 368.259 409.619 358.586 409.498 358.039 409.297 C 357.777 409.2 357.563 409.046 357.563 408.954 C 357.563 408.796 357.37 408.605 356.653 408.056 C 356.486 407.929 356.35 407.751 356.35 407.663 C 356.35 407.575 356.186 407.459 355.986 407.406 C 355.785 407.354 355.621 407.204 355.621 407.073 C 355.621 406.943 355.458 406.793 355.257 406.74 C 355.057 406.687 354.893 406.537 354.893 406.406 C 354.893 406.276 354.729 406.126 354.529 406.073 C 354.329 406.02 354.165 405.87 354.165 405.74 C 354.165 405.609 354.001 405.459 353.801 405.406 C 353.601 405.354 353.437 405.204 353.437 405.073 C 353.437 404.943 353.273 404.793 353.073 404.74 C 352.873 404.687 352.709 404.537 352.709 404.406 C 352.709 404.276 352.545 404.126 352.345 404.073 C 352.145 404.02 351.981 403.87 351.981 403.74 C 351.981 403.609 351.817 403.459 351.617 403.406 C 351.416 403.354 351.253 403.204 351.253 403.073 C 351.253 402.943 351.089 402.793 350.889 402.74 C 350.688 402.687 350.524 402.529 350.524 402.389 C 350.524 402.248 350.415 402.133 350.282 402.133 C 350.148 402.133 350.039 402.018 350.039 401.878 C 350.039 401.738 349.875 401.58 349.675 401.527 C 349.474 401.474 349.311 401.325 349.311 401.195 C 349.311 401.001 349.202 401.008 348.704 401.232 C 348.37 401.382 348.097 401.605 348.097 401.726 C 348.097 401.848 347.881 402.052 347.617 402.179 C 347.167 402.395 347.132 402.639 347.07 405.944 L 347.005 409.478 L 342.962 409.514 C 340.738 409.534 338.991 409.512 339.078 409.467 L 339.078 409.467 Z  M 413.684 405.425 C 413.722 403.156 413.67 401.3 413.57 401.3 C 413.47 401.3 413.389 401.187 413.389 401.05 C 413.389 400.913 413.261 400.8 413.105 400.8 C 412.95 400.8 412.886 400.756 412.964 400.702 C 413.042 400.649 412.923 400.459 412.701 400.281 C 412.478 400.102 412.351 399.938 412.418 399.916 C 412.484 399.894 412.297 399.697 412.001 399.479 C 411.705 399.261 411.521 399.019 411.591 398.941 C 411.661 398.864 411.61 398.8 411.477 398.8 C 411.345 398.8 411.161 398.637 411.069 398.438 C 410.977 398.239 410.701 397.927 410.454 397.746 C 410.209 397.565 410.065 397.352 410.134 397.275 C 410.205 397.197 410.148 397.133 410.009 397.133 C 409.87 397.133 409.689 396.946 409.605 396.717 C 409.521 396.487 409.362 396.3 409.252 396.3 C 409.142 396.3 408.976 396.135 408.882 395.933 C 408.789 395.731 408.563 395.463 408.381 395.337 C 408.198 395.212 408.049 395.002 408.049 394.871 C 408.049 394.74 407.947 394.633 407.822 394.633 C 407.698 394.633 407.519 394.468 407.426 394.266 C 407.333 394.064 407.107 393.796 406.925 393.671 C 406.742 393.546 406.592 393.336 406.592 393.205 C 406.592 393.074 406.477 392.967 406.335 392.967 C 406.194 392.967 406.146 392.892 406.228 392.8 C 406.311 392.708 406.262 392.633 406.121 392.633 C 405.98 392.633 405.864 392.521 405.864 392.383 C 405.864 392.246 405.757 392.133 405.626 392.133 C 405.495 392.133 405.319 391.946 405.235 391.717 C 405.152 391.487 404.979 391.3 404.853 391.3 C 404.726 391.3 404.689 391.225 404.772 391.133 C 404.854 391.042 404.806 390.967 404.665 390.967 C 404.523 390.967 404.408 390.854 404.408 390.717 C 404.408 390.579 404.292 390.467 404.151 390.467 C 404.009 390.467 403.961 390.392 404.043 390.3 C 404.126 390.208 404.078 390.133 403.937 390.133 C 403.795 390.133 403.679 390.021 403.679 389.883 C 403.679 389.746 403.552 389.633 403.397 389.633 C 403.241 389.633 403.179 389.588 403.261 389.532 C 403.341 389.477 403.199 389.278 402.945 389.09 C 402.691 388.903 402.54 388.686 402.61 388.608 C 402.68 388.53 402.622 388.467 402.481 388.467 C 402.339 388.467 402.223 388.354 402.223 388.217 C 402.223 388.003 402.886 387.967 406.737 387.967 C 411.045 387.967 411.255 387.982 411.376 388.3 C 411.446 388.483 411.606 388.633 411.732 388.633 C 411.858 388.633 411.893 388.708 411.811 388.8 C 411.728 388.892 411.769 388.967 411.902 388.967 C 412.035 388.967 412.282 389.229 412.45 389.55 C 412.619 389.871 412.851 390.133 412.966 390.133 C 413.081 390.133 413.107 390.208 413.024 390.3 C 412.942 390.392 412.973 390.467 413.093 390.467 C 413.326 390.467 413.986 391.301 413.916 391.508 C 413.893 391.577 413.976 391.633 414.101 391.633 C 414.226 391.633 414.466 391.896 414.635 392.217 C 414.804 392.537 415.036 392.8 415.15 392.8 C 415.265 392.8 415.291 392.875 415.209 392.967 C 415.126 393.058 415.157 393.133 415.277 393.133 C 415.511 393.133 416.171 393.967 416.101 394.175 C 416.077 394.244 416.161 394.3 416.285 394.3 C 416.41 394.3 416.65 394.563 416.819 394.883 C 416.989 395.204 417.221 395.467 417.335 395.467 C 417.45 395.467 417.475 395.542 417.393 395.633 C 417.311 395.725 417.365 395.8 417.514 395.8 C 417.664 395.8 417.718 395.875 417.636 395.967 C 417.553 396.058 417.689 396.133 417.937 396.133 C 418.232 396.133 418.494 395.932 418.695 395.55 C 418.864 395.229 419.111 394.967 419.243 394.967 C 419.377 394.967 419.418 394.892 419.335 394.8 C 419.253 394.708 419.307 394.633 419.457 394.633 C 419.606 394.633 419.66 394.558 419.578 394.467 C 419.495 394.375 419.543 394.3 419.685 394.3 C 419.826 394.3 419.922 394.244 419.898 394.175 C 419.827 393.971 420.741 392.8 420.972 392.8 C 421.089 392.8 421.117 392.725 421.034 392.633 C 420.951 392.542 421.006 392.467 421.155 392.467 C 421.305 392.467 421.359 392.392 421.277 392.3 C 421.194 392.208 421.215 392.133 421.323 392.133 C 421.431 392.133 421.721 391.795 421.968 391.383 C 422.215 390.97 422.522 390.633 422.65 390.633 C 422.778 390.633 422.815 390.558 422.733 390.467 C 422.65 390.375 422.671 390.3 422.779 390.3 C 422.887 390.3 423.178 389.962 423.425 389.55 C 423.671 389.137 423.978 388.8 424.106 388.8 C 424.234 388.8 424.272 388.725 424.189 388.633 C 424.107 388.542 424.155 388.467 424.297 388.467 C 424.438 388.467 424.526 388.373 424.493 388.258 C 424.446 388.099 425.459 388.039 428.783 388.004 C 431.176 387.979 433.225 388.021 433.335 388.097 C 433.446 388.173 433.331 388.387 433.079 388.572 C 432.828 388.757 432.547 389.072 432.455 389.271 C 432.363 389.47 432.186 389.633 432.061 389.633 C 431.937 389.633 431.835 389.74 431.835 389.871 C 431.835 390.002 431.686 390.212 431.503 390.337 C 431.32 390.463 431.094 390.731 431.001 390.933 C 430.908 391.135 430.73 391.3 430.605 391.3 C 430.481 391.3 430.379 391.407 430.379 391.538 C 430.379 391.669 430.229 391.879 430.047 392.004 C 429.864 392.13 429.638 392.398 429.545 392.6 C 429.451 392.801 429.273 392.967 429.149 392.967 C 429.024 392.967 428.922 393.074 428.922 393.205 C 428.922 393.336 428.773 393.546 428.59 393.671 C 428.407 393.796 428.182 394.064 428.089 394.266 C 427.995 394.468 427.817 394.633 427.693 394.633 C 427.568 394.633 427.466 394.74 427.466 394.871 C 427.466 395.002 427.317 395.212 427.134 395.337 C 426.951 395.463 426.726 395.731 426.632 395.933 C 426.539 396.135 426.373 396.3 426.262 396.3 C 426.153 396.3 425.994 396.487 425.91 396.717 C 425.826 396.946 425.644 397.133 425.505 397.133 C 425.366 397.133 425.31 397.197 425.38 397.275 C 425.45 397.352 425.306 397.565 425.06 397.746 C 424.814 397.927 424.538 398.239 424.445 398.438 C 424.353 398.637 424.17 398.8 424.037 398.8 C 423.905 398.8 423.854 398.864 423.924 398.941 C 423.994 399.019 423.809 399.261 423.514 399.479 C 423.218 399.697 423.03 399.894 423.097 399.916 C 423.164 399.938 423.055 400.089 422.854 400.253 C 421.984 400.963 421.902 401.414 421.902 405.466 L 421.902 409.478 L 417.758 409.514 L 413.615 409.55 L 413.684 405.425 L 413.684 405.425 Z  M 350.524 385.052 C 350.524 385.008 351.207 384.734 352.041 384.445 L 353.558 383.918 L 357.674 384.019 L 361.789 384.121 L 362.892 383.286 L 363.995 382.452 L 367.514 382.283 C 372.537 382.04 371.927 382.273 372.754 380.283 C 372.847 380.057 372.528 379.998 370.714 379.903 C 369.531 379.842 368.201 379.721 367.758 379.633 C 367.315 379.546 366.516 379.43 365.981 379.375 C 364.662 379.24 359.322 378.112 355.621 377.186 C 350.69 375.952 344.205 373.701 341.665 372.343 C 338.961 370.896 332.859 366.537 328.875 363.206 C 324.645 359.668 325.079 359.948 322.274 358.967 C 320.625 358.39 319.257 357.775 318.583 357.308 C 317.602 356.628 315.641 354.3 315.205 353.3 C 315.106 353.071 314.821 352.583 314.573 352.217 C 314.326 351.85 313.727 350.763 313.244 349.8 C 311.137 345.604 310.457 344.27 309.505 342.467 C 308.065 339.737 306.379 336.385 305.86 335.217 C 305.615 334.667 305.138 333.593 304.799 332.831 C 304.461 332.068 304.118 331.131 304.038 330.747 C 303.822 329.709 302.99 327.391 302.349 326.043 C 301.661 324.597 300.758 323.348 297.351 319.133 C 295.906 317.346 294.158 314.911 293.467 313.723 L 292.21 311.562 L 291.887 306.556 C 291.71 303.803 291.388 298.85 291.173 295.55 C 290.874 290.99 290.804 287.009 290.878 278.967 C 290.97 269.043 291.007 268.29 291.473 266.883 C 292.809 262.848 294.133 261.019 297.745 258.22 C 300.957 255.73 301.681 254.746 302.851 251.278 C 303.326 249.869 303.822 248.42 303.952 248.059 C 304.314 247.055 305.749 245.294 307.171 244.11 C 310.512 241.329 322.041 235.934 327.283 234.699 C 331.468 233.713 332.582 233.62 340.199 233.62 C 345.711 233.62 347.618 233.563 348.947 233.359 C 350.67 233.094 353.679 232.222 353.679 231.988 C 353.679 231.671 355.478 230.464 356.411 230.154 C 358.687 229.399 365.978 229.044 368.81 229.55 C 369.579 229.687 371.052 229.8 372.084 229.8 C 376.921 229.8 382.656 230.731 391.665 232.978 C 395.493 233.933 400.366 235.524 403.801 236.941 C 409.47 239.28 415.052 243.179 421.373 249.217 C 423.801 251.536 428.507 257.357 430.59 260.617 C 432.308 263.307 437.092 273.21 437.555 275.035 C 437.627 275.318 437.827 275.85 438.001 276.217 C 438.175 276.583 438.545 277.483 438.823 278.217 C 440.739 283.254 441.333 284.844 442.153 287.133 C 442.661 288.553 443.111 289.91 443.151 290.148 C 443.191 290.385 443.498 291.511 443.833 292.649 C 444.945 296.424 445.131 298.132 445.055 303.8 C 445.017 306.687 444.865 309.687 444.717 310.467 C 444.569 311.246 444.186 313.196 443.865 314.8 C 441.812 325.066 441.349 327.914 441.161 331.449 C 440.906 336.236 440.526 336.904 431.776 347.967 C 431.378 348.471 430.534 349.483 429.902 350.217 C 429.27 350.95 428.172 352.263 427.463 353.133 C 423.403 358.118 422.228 359.102 411.717 366.316 C 402.469 372.664 401.18 373.396 395.763 375.382 C 394.577 375.817 392.585 376.589 391.337 377.099 C 389.327 377.918 388.587 378.109 384.905 378.756 C 380.484 379.533 379.982 379.604 378.741 379.622 C 377.663 379.637 377.751 379.89 378.983 380.319 C 379.55 380.517 380.998 381.333 382.199 382.134 L 384.383 383.591 L 388.874 383.702 C 393.259 383.812 393.398 383.826 394.821 384.326 C 395.621 384.607 396.381 384.904 396.507 384.985 C 396.642 385.072 387.103 385.133 373.631 385.133 C 360.922 385.133 350.524 385.097 350.524 385.052 L 350.524 385.052 Z  M 376.495 377.459 C 378.007 377.294 381.055 376.838 385.476 376.115 C 387.001 375.865 388.013 375.568 389.359 374.977 C 390.361 374.537 392.173 373.834 393.387 373.417 C 398.686 371.591 402.741 369.31 410.961 363.528 C 418.212 358.429 421.445 355.695 423.55 352.883 C 424.099 352.15 424.834 351.213 425.183 350.8 C 431.929 342.826 435.718 337.878 436.732 335.717 C 437.053 335.034 437.271 333.87 437.423 332.05 C 437.545 330.583 437.865 328.108 438.135 326.55 C 438.404 324.992 438.626 323.413 438.628 323.041 C 438.63 322.669 439.057 320.419 439.578 318.041 C 440.099 315.663 440.527 313.529 440.528 313.3 C 440.529 313.071 440.775 311.496 441.074 309.8 C 441.912 305.056 441.805 299.143 440.812 295.383 C 440.691 294.925 440.533 294.147 440.461 293.654 C 440.333 292.785 439.727 290.846 438.993 288.958 C 438.795 288.449 438.594 287.807 438.548 287.533 C 438.462 287.022 437.28 283.84 435.811 280.16 C 435.359 279.029 434.937 277.9 434.873 277.65 C 434.809 277.401 434.361 276.301 433.877 275.207 C 433.393 274.112 432.947 273.029 432.887 272.8 C 432.826 272.571 432.395 271.614 431.927 270.673 C 431.46 269.732 431.038 268.832 430.991 268.673 C 430.826 268.125 428.474 263.676 427.378 261.837 C 423.522 255.373 416.618 248.172 409.757 243.459 C 403.728 239.317 398.141 237.097 387.418 234.582 C 383.807 233.735 378.247 232.649 377.102 232.565 C 373.104 232.275 372.587 232.27 371.818 232.516 C 370.639 232.892 359.36 233.875 357.322 233.78 C 356.731 233.752 356.063 233.901 355.136 234.27 C 351.603 235.674 349.186 236.005 342.514 235.998 C 337.826 235.994 333.485 236.148 331.471 236.39 C 328.707 236.723 325.531 237.75 320.791 239.844 C 312.977 243.295 308.887 245.927 307.602 248.333 C 307.065 249.337 306.395 251.162 306.207 252.13 C 305.923 253.601 304.543 256.111 303.376 257.28 C 302.953 257.703 301.581 258.875 300.326 259.883 C 296.652 262.837 295.338 265.036 294.651 269.383 C 294.011 273.435 294.256 287.11 295.293 305.217 L 295.618 310.883 L 296.398 312.206 C 297.27 313.684 298.615 315.566 300.575 318.05 C 303.89 322.251 304.425 322.972 305.229 324.315 C 305.701 325.103 306.143 325.966 306.214 326.232 C 306.284 326.499 306.619 327.542 306.958 328.55 C 307.297 329.558 307.729 330.873 307.918 331.47 C 308.107 332.068 308.391 332.781 308.549 333.054 C 308.707 333.327 309.199 334.337 309.643 335.3 C 310.087 336.263 311.006 338.1 311.685 339.383 C 312.869 341.619 313.44 342.73 315.885 347.55 C 318.144 352.004 319.564 354.264 320.805 355.381 C 321.373 355.893 322.764 356.449 325.767 357.364 C 326.691 357.646 329.097 359.368 331.033 361.136 C 332.834 362.781 340.165 368.221 342.664 369.767 C 344.405 370.845 347.85 372.273 350.983 373.216 C 355.723 374.643 356.351 374.814 359.534 375.555 C 362.512 376.248 368.553 377.347 370.306 377.514 C 371.778 377.654 374.961 377.626 376.495 377.459 L 376.495 377.459 Z  M 371.277 363.369 C 367.857 363.046 364.463 362.99 364.541 363.258 C 364.733 363.917 362.275 363.028 358.596 361.108 C 356.199 359.858 355.716 359.526 356.562 359.71 C 357.258 359.862 357.213 359.715 356.329 358.949 C 355.278 358.037 355.891 358.141 357.419 359.133 C 359.232 360.311 360.099 360.285 359.377 359.076 C 359.207 358.794 359.276 358.798 360.232 359.133 C 360.803 359.333 361.794 359.856 362.432 360.294 C 363.422 360.974 363.836 361.13 365.25 361.358 C 368.199 361.834 370.019 362.007 372.247 362.023 C 374.165 362.036 374.693 361.971 376.571 361.483 C 379.721 360.665 380.71 360.134 382.18 358.47 C 382.867 357.693 383.723 356.943 384.083 356.804 C 384.674 356.577 384.803 356.579 385.41 356.831 C 386.308 357.203 386.354 357.608 385.611 358.614 C 385.27 359.077 384.99 359.504 384.99 359.564 C 384.99 359.623 385.427 359.401 385.962 359.069 C 386.935 358.466 387.418 358.321 387.418 358.633 C 387.418 358.725 387.581 358.8 387.782 358.8 C 387.982 358.8 388.146 358.866 388.146 358.946 C 388.146 359.217 385.968 360.471 383.937 361.371 C 378.935 363.586 376.924 363.904 371.277 363.369 Z  M 334.093 351.478 C 333.535 351.121 332.806 349.635 332.806 348.857 C 332.806 348.595 332.913 348.124 333.045 347.81 C 333.325 347.138 333.253 347.047 332.622 347.278 C 331.843 347.565 330.514 346.816 329.928 345.761 C 328.93 343.965 329.791 339.887 331.637 337.665 C 332.042 337.179 332.317 336.742 332.249 336.695 C 332.181 336.649 331.682 336.766 331.14 336.955 C 329.924 337.381 329.461 337.408 329.922 337.026 C 330.217 336.783 330.193 336.765 329.709 336.87 C 329.41 336.936 329.165 336.953 329.165 336.909 C 329.165 336.866 329.822 336.279 330.626 335.606 C 332.287 334.215 332.897 333.437 333.428 332.034 C 333.633 331.493 334.487 330.187 335.325 329.133 C 336.164 328.079 337.213 326.557 337.656 325.75 C 338.598 324.036 339.091 323.696 340.113 324.059 C 340.921 324.346 341.172 324.986 341.157 326.717 C 341.139 328.723 340.885 329.367 339.587 330.7 C 338.927 331.377 338.389 331.969 338.389 332.017 C 338.389 332.064 338.607 332.063 338.874 332.015 C 339.145 331.967 339.359 332.01 339.359 332.114 C 339.359 332.217 339.533 332.3 339.744 332.3 C 340.011 332.3 339.846 332.521 339.198 333.027 C 338.512 333.563 338.06 334.188 337.481 335.405 C 335.684 339.179 335.15 342.192 335.272 347.88 C 335.343 351.212 335.306 351.716 334.983 351.76 C 334.779 351.787 334.379 351.661 334.093 351.478 L 334.093 351.478 Z  M 331.925 345.592 C 332.005 345.385 332.073 345.04 332.074 344.824 C 332.077 344.534 332.179 344.458 332.462 344.532 C 332.673 344.588 332.897 344.633 332.959 344.633 C 333.021 344.633 333.224 344.877 333.41 345.175 C 333.712 345.659 333.745 345.355 333.714 342.3 C 333.682 338.978 333.702 338.831 334.426 336.967 C 335.104 335.223 335.208 334.762 334.872 334.993 C 334.807 335.037 334.206 336.516 333.536 338.278 C 332.867 340.04 332.085 341.797 331.798 342.183 C 331.112 343.104 330.818 345.967 331.41 345.967 C 331.613 345.967 331.844 345.798 331.925 345.592 Z  M 339.117 328.123 C 339.117 328.026 339.007 327.993 338.874 328.05 C 338.741 328.107 338.631 328.186 338.631 328.227 C 338.631 328.267 338.741 328.3 338.874 328.3 C 339.007 328.3 339.117 328.22 339.117 328.123 Z  M 338.146 349.866 C 338.146 349.696 338.012 349.633 337.781 349.694 C 337.465 349.777 337.437 349.568 337.573 348.145 C 337.718 346.624 337.689 346.454 337.181 345.89 C 336.744 345.405 336.664 345.142 336.79 344.602 C 336.969 343.835 337.853 342.714 338.721 342.153 L 339.304 341.778 L 340.175 342.394 C 340.911 342.914 341.16 342.994 341.771 342.91 C 342.605 342.796 344.945 342.007 347.703 340.912 C 348.755 340.494 350.175 340.069 350.859 339.968 C 352.106 339.783 364.959 339.501 374.369 339.451 L 379.403 339.424 L 380.239 339.862 C 380.984 340.253 381.293 340.3 383.093 340.304 C 384.707 340.307 385.233 340.372 385.718 340.628 C 386.682 341.137 386.067 341.358 383.473 341.434 C 381.526 341.492 380.989 341.443 379.426 341.067 C 378.435 340.829 377.377 340.633 377.074 340.633 C 376.317 340.633 376.082 340.968 376.64 341.254 C 377.081 341.479 377.057 341.517 376.131 342.065 C 375.542 342.413 374.985 342.61 374.714 342.565 C 374.469 342.524 373.409 342.639 372.359 342.821 C 370.562 343.133 370.003 343.145 362.715 343.018 L 354.978 342.883 L 353.904 342.391 C 352.948 341.952 352.617 341.897 350.889 341.885 C 348.969 341.871 348.935 341.878 347.952 342.5 C 346.746 343.263 345.927 343.505 343.243 343.893 C 342.108 344.057 341.099 344.272 341.001 344.371 C 340.667 344.706 340.814 345.077 341.362 345.278 C 341.844 345.455 341.904 345.598 341.873 346.506 C 341.845 347.345 341.741 347.589 341.309 347.829 C 340.833 348.094 340.796 348.222 340.947 349.087 L 341.117 350.05 L 340.407 349.592 C 339.503 349.008 339.218 349.016 338.753 349.633 C 338.331 350.193 338.146 350.264 338.146 349.866 L 338.146 349.866 Z  M 357.685 341.967 C 357.685 341.798 357.346 341.685 356.646 341.621 C 355.961 341.559 355.48 341.402 355.236 341.163 C 354.784 340.72 353.922 340.676 353.922 341.096 C 353.922 341.575 354.605 342.106 355.321 342.184 C 356.618 342.327 357.685 342.229 357.685 341.967 Z  M 363.051 341.436 C 363.331 341.244 363.353 341.091 363.149 340.723 C 362.904 340.28 362.833 340.261 361.771 340.361 C 361.155 340.419 360.12 340.467 359.471 340.467 C 358.326 340.467 358.291 340.482 358.291 340.958 C 358.291 341.247 358.467 341.525 358.716 341.631 C 359.326 341.891 362.603 341.744 363.051 341.436 L 363.051 341.436 Z  M 372.014 340.956 C 372.102 340.859 371.972 340.624 371.725 340.435 C 371.306 340.114 371.105 340.099 368.611 340.201 C 365.789 340.317 365.122 340.489 365.923 340.895 C 366.499 341.187 371.759 341.24 372.014 340.956 L 372.014 340.956 Z  M 393.486 347.35 C 393.013 347.233 391.225 346.06 390.269 345.241 L 389.521 344.598 L 390.522 344.949 C 391.074 345.142 391.675 345.3 391.859 345.3 C 392.334 345.3 392.714 344.638 393.022 343.277 C 393.277 342.148 393.261 342.067 392.633 341.242 C 391.38 339.6 390.758 337.88 390.753 336.05 C 390.749 334.4 391.115 332.967 391.539 332.967 C 392.08 332.967 393.054 333.828 393.991 335.133 C 394.551 335.913 395.666 337.373 396.47 338.379 C 398.842 341.344 399.602 342.958 399.941 345.75 C 400.073 346.84 400.034 347.095 399.708 347.281 C 399.37 347.474 399.201 347.424 398.464 346.919 C 397.925 346.548 397.599 346.159 397.579 345.858 C 397.487 344.551 397.311 343.968 396.369 341.848 C 395.261 339.354 394.521 338.033 394.311 338.177 C 394.238 338.228 394.535 339.044 394.971 339.993 C 395.662 341.497 395.764 341.95 395.769 343.55 C 395.775 345.534 395.476 346.522 394.694 347.099 C 394.175 347.482 394.088 347.5 393.486 347.35 L 393.486 347.35 Z  M 389.663 342.859 C 389.317 342.69 389.117 342.42 389.117 342.122 C 389.117 341.863 388.837 341.042 388.495 340.299 C 387.702 338.575 387.776 338.187 388.765 338.9 C 389.658 339.545 391.751 342.089 391.841 342.64 C 391.899 343 391.805 343.054 391.058 343.087 C 390.588 343.108 389.965 343.006 389.663 342.859 Z  M 354.462 339.207 C 353.933 338.953 353.775 338.424 354.07 337.897 C 354.282 337.517 355.525 337.567 356.125 337.979 L 356.628 338.324 L 358.57 337.631 C 360.735 336.857 361.329 336.85 362.319 337.583 C 362.854 337.979 362.874 338.046 362.535 338.303 C 361.615 339 358.086 339.283 357.099 338.739 C 356.84 338.596 356.731 338.602 356.653 338.761 C 356.32 339.44 355.355 339.636 354.462 339.207 L 354.462 339.207 Z  M 370.563 338.721 C 370.303 338.582 369.642 338.467 369.093 338.467 C 367.992 338.467 365.815 337.653 365.815 337.242 C 365.815 336.893 367.443 336.775 370.641 336.892 C 373.783 337.007 375.59 337.32 376.121 337.84 C 376.639 338.349 376.388 338.462 374.996 338.349 C 373.975 338.266 373.697 338.3 373.438 338.543 C 373.009 338.947 371.188 339.06 370.563 338.721 L 370.563 338.721 Z  M 390.416 332.338 C 389.398 331.775 387.389 330.053 386.944 329.363 C 386.299 328.361 385.233 328.028 385.233 328.828 C 385.233 329.236 384.943 329.213 384.21 328.746 C 383.288 328.159 382.87 327.627 382.682 326.8 C 382.589 326.387 382.287 325.882 382.013 325.677 C 381.644 325.401 381.475 324.987 381.369 324.088 C 381.261 323.184 381.083 322.749 380.68 322.397 C 380.381 322.135 380.136 321.832 380.136 321.722 C 380.136 321.45 381.812 320.163 381.825 320.425 C 381.83 320.54 381.999 320.633 382.199 320.633 C 382.488 320.633 382.563 320.875 382.563 321.805 C 382.563 322.726 382.694 323.155 383.17 323.8 C 383.503 324.252 383.777 324.767 383.777 324.945 C 383.777 325.131 384.39 325.632 385.233 326.133 C 386.179 326.696 386.689 327.127 386.689 327.362 C 386.689 327.6 387.309 328.109 388.51 328.856 C 389.943 329.748 390.33 330.086 390.33 330.451 C 390.33 330.706 390.549 331.051 390.815 331.217 C 391.117 331.404 391.301 331.73 391.301 332.076 C 391.301 332.706 391.158 332.748 390.416 332.338 Z  M 353.922 325.932 C 353.322 325.729 351.953 324.961 350.882 324.223 C 349.299 323.135 348.698 322.565 347.684 321.192 C 346.997 320.262 346.363 319.169 346.274 318.764 C 346.079 317.867 346.469 316.787 347.195 316.214 L 347.733 315.79 L 348.643 316.217 C 349.775 316.75 349.79 317.104 348.702 317.613 C 347.666 318.098 347.648 318.387 348.582 319.524 C 348.983 320.012 349.311 320.599 349.311 320.83 C 349.311 321.405 350.281 322.256 353.168 324.214 C 356.187 326.261 356.411 326.77 353.922 325.932 L 353.922 325.932 Z  M 348.242 325.383 C 347.603 325.086 347.021 324.966 346.205 324.965 C 344.763 324.963 342.915 324.376 341.786 323.561 C 341.037 323.02 340.938 322.846 340.942 322.083 C 340.949 320.803 341.202 320.359 342.437 319.452 C 343.541 318.641 344.153 318.4 343.883 318.883 C 343.715 319.183 344.003 319.211 344.408 318.933 C 344.837 318.639 344.763 318.893 344.202 319.649 C 343.826 320.155 343.723 320.567 343.778 321.344 C 343.847 322.336 343.874 322.374 344.578 322.474 C 346.234 322.709 352.223 325.232 352.223 325.694 C 352.223 325.752 351.529 325.8 350.679 325.8 C 349.433 325.8 348.963 325.72 348.242 325.383 L 348.242 325.383 Z  M 368.529 325.05 C 367.952 324.546 367.757 324.525 367.757 324.967 C 367.757 325.413 367.606 325.39 366.609 324.788 C 365.875 324.346 365.637 324.291 364.845 324.383 C 364.057 324.475 363.814 324.42 363.105 323.993 C 362.651 323.719 361.967 323.47 361.585 323.44 C 360.554 323.356 360.284 322.946 360.786 322.224 C 361.383 321.364 362.472 320.968 364.245 320.967 C 366.034 320.967 366.673 321.237 366.892 322.087 C 367.142 323.062 367.529 323.8 367.788 323.8 C 368.145 323.8 367.763 321.75 367.366 321.532 C 366.983 321.321 366.907 320.205 367.265 320.053 C 367.619 319.903 369.011 320.452 369.141 320.794 C 369.203 320.958 369.518 321.189 369.841 321.307 C 370.535 321.563 370.659 322.37 370.029 322.536 C 369.689 322.626 369.65 322.846 369.759 324.054 C 369.877 325.34 369.849 325.467 369.447 325.467 C 369.205 325.467 368.791 325.279 368.529 325.05 L 368.529 325.05 Z  M 326.592 317.493 C 326.071 317.232 324.913 316.562 324.018 316.003 C 322.33 314.949 321.398 314.512 321.398 314.774 C 321.398 314.858 321.753 315.113 322.187 315.341 C 323.449 316.002 325.039 317.152 325.039 317.403 C 325.039 317.792 323.953 317.661 322.951 317.152 C 321.691 316.511 318.687 314.379 317.901 313.568 C 317.555 313.212 317.272 312.724 317.273 312.485 C 317.274 311.928 318.122 310.967 318.612 310.967 C 319.253 310.967 320.145 311.468 321.091 312.361 C 322.843 314.015 324.121 314.815 326.106 315.5 C 328.53 316.337 329.893 316.953 329.893 317.213 C 329.893 317.566 329.031 317.967 328.272 317.967 C 327.85 317.967 327.137 317.766 326.592 317.493 L 326.592 317.493 Z  M 365.937 317.434 C 365.085 317.121 363.846 316.236 363.367 315.599 C 362.907 314.985 362.717 313.397 363.085 313.244 C 363.468 313.084 365.382 313.872 366.207 314.529 C 367.031 315.185 367.066 315.265 366.978 316.258 C 366.872 317.441 366.647 317.695 365.937 317.434 L 365.937 317.434 Z  M 349.683 316.116 C 348.636 315.484 348.601 315.099 349.547 314.636 C 350.109 314.362 350.373 314.322 350.739 314.456 C 350.998 314.551 351.258 314.724 351.317 314.84 C 351.395 314.993 351.563 314.966 351.935 314.738 C 352.498 314.396 353.679 314.474 353.679 314.854 C 353.679 314.972 353.354 315.42 352.957 315.85 C 352.322 316.539 352.131 316.633 351.387 316.633 C 350.787 316.633 350.292 316.483 349.683 316.116 Z  M 378.859 315.41 C 378.525 315.228 378.498 315.142 378.738 315.017 C 379.144 314.804 381.489 314.133 381.826 314.133 C 381.971 314.133 383.087 313.721 384.305 313.217 C 386.096 312.475 386.723 312.3 387.586 312.3 C 388.666 312.3 389.407 311.974 390.01 311.233 C 390.33 310.841 391.166 311.003 391.699 311.563 C 392.052 311.932 392.051 312.001 391.698 312.372 C 390.927 313.181 387.537 314.668 385.57 315.062 C 383.909 315.395 383.733 315.414 381.35 315.536 C 379.767 315.617 379.187 315.588 378.859 315.41 L 378.859 315.41 Z  M 348.018 310.562 C 347.033 309.935 347.17 309.498 348.634 308.609 C 349.906 307.836 349.909 307.832 349.909 306.831 C 349.909 305.949 349.814 305.746 349.125 305.157 C 348.206 304.372 348.151 304.043 348.855 303.529 C 349.329 303.182 349.413 303.172 349.926 303.402 C 350.849 303.817 351.253 304.792 351.251 306.595 C 351.25 307.487 351.137 308.496 350.999 308.837 C 350.745 309.466 349.408 310.808 348.928 310.916 C 348.785 310.949 348.375 310.789 348.018 310.562 L 348.018 310.562 Z  M 372.854 310.626 C 372.195 310.424 370.924 309.715 369.65 308.838 C 368.489 308.038 367.095 307.109 366.554 306.775 C 365.907 306.374 365.62 306.076 365.716 305.904 C 365.846 305.672 365.966 305.679 366.781 305.965 C 367.646 306.268 367.721 306.27 368.07 306.001 C 368.274 305.845 368.562 305.401 368.712 305.016 C 368.965 304.363 369.515 303.799 369.898 303.8 C 370.297 303.802 371.754 304.535 372.979 305.35 C 374.281 306.216 374.736 306.967 373.958 306.967 C 373.593 306.967 371.883 305.852 371.883 305.614 C 371.883 305.373 370.878 305.09 370.629 305.261 C 370.318 305.475 373.39 307.625 374.74 308.138 C 375.873 308.568 375.958 308.855 374.975 308.935 C 373.986 309.016 373.031 308.575 371.258 307.22 C 370.355 306.531 369.576 305.996 369.525 306.031 C 369.18 306.267 370.063 307.191 372.03 308.651 C 373.284 309.583 374.311 310.485 374.311 310.656 C 374.311 311.042 374.209 311.039 372.854 310.626 L 372.854 310.626 Z  M 369.092 305.8 C 369.01 305.708 368.894 305.633 368.835 305.633 C 368.777 305.633 368.728 305.708 368.728 305.8 C 368.728 305.892 368.844 305.967 368.985 305.967 C 369.127 305.967 369.175 305.892 369.092 305.8 Z  M 391.567 310.589 C 390.754 310.302 390.473 309.929 390.669 309.393 C 390.807 309.014 390.935 308.951 391.402 309.032 C 391.897 309.117 392.03 309.026 392.47 308.298 C 392.95 307.505 393.015 307.467 393.897 307.472 C 394.405 307.475 395.007 307.574 395.234 307.693 C 395.615 307.892 395.591 307.956 394.925 308.511 C 394.527 308.842 394.038 309.433 393.837 309.825 C 393.325 310.822 392.763 311.011 391.567 310.589 L 391.567 310.589 Z  M 329.408 309.46 C 329.408 309.152 329.349 309.126 329.043 309.3 C 328.355 309.693 328.642 309.136 329.772 307.892 C 330.373 307.23 330.864 306.605 330.864 306.504 C 330.864 306.402 330.621 306.202 330.325 306.059 C 330.028 305.917 329.882 305.8 330.001 305.8 C 330.119 305.8 330.157 305.759 330.083 305.708 C 330.01 305.658 329.539 305.808 329.037 306.043 C 327.992 306.529 326.028 306.969 324.934 306.961 C 324.243 306.956 323.34 306.646 323.34 306.413 C 323.34 306.357 324.569 305.891 326.07 305.377 C 329.023 304.367 330.379 303.743 330.379 303.397 C 330.379 303.251 329.888 303.138 328.942 303.065 C 326.911 302.907 324.796 301.843 322.341 299.743 C 321.179 298.75 321.113 298.434 322.109 298.63 C 323.277 298.86 323.501 298.998 325.016 300.418 C 326.62 301.922 327.23 302.267 328.535 302.413 C 329.934 302.569 331.337 302.095 333.005 300.901 C 334.573 299.78 334.827 299.401 334.704 298.367 C 334.634 297.778 334.557 297.712 333.885 297.667 C 333.477 297.639 332.837 297.697 332.462 297.795 C 331.924 297.935 331.839 298.02 332.058 298.2 C 332.499 298.565 332.693 300.558 332.304 300.724 C 332.126 300.799 330.849 300.85 329.466 300.838 C 326.601 300.811 325.39 300.481 325.151 299.661 C 325.08 299.417 324.853 298.866 324.648 298.437 C 324.193 297.487 324.437 297.068 325.583 296.827 C 326.469 296.64 329.251 296.481 332.258 296.444 C 335.359 296.406 335.327 296.165 331.999 294.484 C 330.966 293.963 330.455 293.562 330.099 292.994 L 329.613 292.217 L 327.743 293.55 C 326.501 294.436 325.501 295.357 324.763 296.295 C 324.153 297.071 323.37 297.852 323.024 298.029 C 322.45 298.324 322.316 298.332 321.498 298.117 C 321.005 297.988 320.386 297.686 320.125 297.445 C 319.67 297.027 319.667 296.988 320.067 296.569 C 320.667 295.94 327.402 291.786 328.373 291.447 C 329.349 291.105 330.25 291.233 331.509 291.892 C 332.829 292.583 334.883 294.398 335.821 295.701 L 336.679 296.894 L 336.482 300.722 C 336.303 304.208 336.237 304.615 335.743 305.274 C 335.181 306.023 331.927 308.458 330.321 309.332 C 329.436 309.813 329.408 309.817 329.408 309.46 Z  M 378.045 307.16 C 377.393 306.802 375.385 305.639 373.582 304.576 C 371.781 303.512 370.166 302.64 369.995 302.638 C 369.673 302.633 369.597 302.735 369.351 303.508 C 369.27 303.76 369.109 303.967 368.993 303.967 C 368.638 303.967 366.301 302.45 366.301 302.22 C 366.301 302.102 366.57 301.884 366.899 301.736 C 368.221 301.141 368.149 300.897 366.364 299.913 C 363.858 298.532 363.009 297.211 365.439 298.474 C 366.259 298.9 366.446 298.938 366.737 298.739 C 367.015 298.548 367.028 298.295 366.81 297.33 C 366.393 295.484 366.467 294.138 367.021 293.515 C 368.47 291.883 372.967 291.347 374.846 292.583 L 375.524 293.029 L 375.524 292.258 C 375.524 291.833 375.631 291.441 375.762 291.385 C 376.505 291.07 378.621 292.484 380.266 294.393 C 381.69 296.047 382.235 296.475 384.323 297.581 C 385.09 297.987 385.727 298.409 385.738 298.518 C 385.751 298.662 385.791 298.659 385.879 298.508 C 386.069 298.185 386.551 298.261 387.166 298.71 C 387.628 299.048 387.703 299.242 387.592 299.81 C 387.518 300.189 387.217 300.675 386.922 300.89 C 386.415 301.261 386.357 301.267 385.788 301.012 C 385.023 300.667 384.637 300.009 385.015 299.697 C 385.243 299.507 385.113 299.467 384.28 299.467 C 382.865 299.467 382.006 299.819 379.766 301.317 C 377.465 302.855 376.421 303.222 375.062 302.971 C 373.802 302.738 372.854 302.199 372.854 301.715 C 372.854 301.114 373.275 301.055 374.582 301.476 C 375.701 301.835 375.823 301.843 376.559 301.602 C 376.991 301.461 378.094 300.879 379.01 300.309 C 379.926 299.738 381.155 299.131 381.741 298.959 C 383.45 298.455 383.105 298.073 379.961 296.988 C 377.534 296.15 377.177 296.321 378.099 297.878 C 379.273 299.858 378.68 300.535 375.62 300.71 C 372.891 300.867 372.397 300.952 372.111 301.32 C 371.703 301.842 372.018 302.189 374.39 303.832 C 377.097 305.706 379.523 307.61 379.353 307.726 C 379.285 307.773 378.696 307.518 378.045 307.16 L 378.045 307.16 Z  M 378.025 295.531 C 378.842 295.433 378.939 295.37 378.874 294.989 C 378.818 294.655 378.576 294.5 377.805 294.304 C 377.257 294.164 376.635 293.951 376.425 293.831 C 376.107 293.648 375.947 293.653 375.48 293.86 C 374.818 294.152 373.873 294.271 371.425 294.37 C 369.542 294.446 368.778 294.716 369.054 295.208 C 369.135 295.354 369.451 295.549 369.754 295.639 C 370.328 295.811 376.358 295.732 378.025 295.531 L 378.025 295.531 Z  M 318.073 302.698 C 317.771 302.55 317.32 301.984 317.034 301.393 C 316.755 300.817 316.266 300.179 315.946 299.973 C 315.627 299.767 315.423 299.493 315.495 299.366 C 315.567 299.237 315.477 299.133 315.295 299.133 C 315.114 299.133 314.35 298.801 313.597 298.395 C 311.606 297.322 310.882 296.232 310.759 294.124 C 310.672 292.642 310.716 292.45 311.335 291.581 C 312.197 290.373 314.967 288.515 316.908 287.842 C 318.778 287.195 319.555 287.05 323.854 286.555 C 325.805 286.331 327.684 286.058 328.03 285.95 C 328.378 285.841 328.869 285.445 329.132 285.061 C 329.507 284.513 329.884 284.276 330.948 283.918 C 332.597 283.364 332.683 283.363 333.705 283.898 C 335.161 284.661 335.233 284.525 335.237 281.014 C 335.239 279.08 335.339 277.788 335.498 277.633 C 335.691 277.445 335.786 277.435 335.878 277.592 C 335.946 277.706 336.134 277.8 336.295 277.8 C 336.456 277.8 336.902 278.231 337.285 278.758 C 337.869 279.561 337.993 279.956 338.048 281.193 C 338.121 282.821 337.671 285.044 337.075 286.002 C 336.194 287.418 334.43 288.233 329.304 289.587 C 326.421 290.35 321.997 291.3 321.323 291.301 C 321.031 291.302 319.937 291.443 318.894 291.615 C 317.539 291.837 316.79 292.062 316.275 292.4 C 314.758 293.399 314.252 296.353 315.321 297.976 C 315.649 298.475 315.944 298.911 315.975 298.944 C 316.007 298.978 316.285 298.809 316.592 298.569 C 317.011 298.242 317.291 298.16 317.717 298.24 C 318.199 298.331 318.264 298.424 318.149 298.865 C 317.645 300.79 317.618 300.682 318.837 301.624 C 319.459 302.104 319.926 302.584 319.875 302.69 C 319.734 302.985 318.672 302.989 318.073 302.698 L 318.073 302.698 Z  M 319.627 300.504 C 319.109 300.111 318.791 298.8 319.215 298.8 C 319.619 298.8 321.155 299.926 321.155 300.223 C 321.155 300.35 320.944 300.533 320.686 300.628 C 320.079 300.85 320.085 300.851 319.627 300.504 L 319.627 300.504 Z  M 389.316 296.256 C 388.873 295.958 387.337 294.772 385.902 293.622 C 382.203 290.656 381.95 290.554 377.616 290.289 C 374.343 290.089 370.937 289.507 367.178 288.504 C 364.108 287.685 362.824 287.057 362.519 286.223 C 362.371 285.816 362.463 285.681 363.17 285.275 L 363.995 284.802 L 362.782 284.031 C 362.114 283.607 361.104 282.972 360.537 282.619 C 359.626 282.054 359.505 281.895 359.509 281.265 C 359.518 279.425 360.738 279.859 362.738 282.413 C 363.515 283.405 364.347 284.355 364.587 284.523 C 365.01 284.82 365.041 284.813 365.59 284.273 C 366.223 283.651 366.527 283.473 366.962 283.469 C 367.125 283.468 368.326 283.97 369.631 284.586 C 371.615 285.521 372.563 285.836 375.403 286.502 C 378.315 287.185 379.071 287.299 380.691 287.3 C 382.87 287.3 383.917 287.589 385.766 288.699 C 387.782 289.91 389.012 291.167 389.83 292.853 C 390.53 294.295 391.122 296.534 390.853 296.718 C 390.569 296.914 390.067 296.763 389.316 296.256 L 389.316 296.256 Z  M 303.075 292.574 C 301.394 291.419 301.095 290.738 301.43 288.831 C 301.563 288.068 301.791 287.364 301.935 287.264 C 302.415 286.935 303.45 287.606 304.19 288.728 C 305.03 290 305.034 290.041 304.379 290.881 L 303.865 291.54 L 305.002 292.217 C 306.106 292.875 306.126 292.903 305.679 293.181 C 304.945 293.637 304.46 293.524 303.075 292.574 L 303.075 292.574 Z  M 392.757 289.646 C 392.757 289.561 392.57 289.467 392.341 289.436 C 392.003 289.391 392.103 289.245 392.869 288.663 C 393.969 287.827 394.746 287.519 396.144 287.365 C 397.656 287.199 398.072 286.877 398.356 285.654 C 398.706 284.147 398.453 283.258 397.436 282.422 C 396.971 282.04 396.711 281.7 396.858 281.667 C 397.326 281.56 399.486 282.136 400.49 282.635 C 401.252 283.015 401.509 283.274 401.675 283.834 L 401.889 284.55 L 402.294 284.022 C 402.523 283.725 402.682 283.179 402.658 282.772 C 402.617 282.054 403.909 279.689 404.113 280.109 C 404.164 280.214 404.358 280.3 404.545 280.3 C 405.07 280.3 405.218 281.03 405.045 282.779 C 404.915 284.1 404.801 284.433 404.399 284.663 C 403.997 284.894 403.939 285.063 404.07 285.623 C 404.215 286.25 404.159 286.348 403.363 286.864 C 402.493 287.427 399.169 289.077 398.163 289.444 C 397.506 289.683 396.641 289.389 396.641 288.924 C 396.641 288.669 396.409 288.709 394.948 289.215 C 393.191 289.822 392.757 289.907 392.757 289.646 Z  M 357.213 281.808 C 356.197 281.348 354.073 279.888 353.673 279.375 C 353.231 278.808 353.654 278.254 355.036 277.587 C 355.911 277.165 356.09 277.135 356.669 277.317 C 357.395 277.544 357.471 277.848 356.957 278.467 C 356.355 279.189 356.512 279.679 357.574 280.391 C 358.348 280.91 358.541 281.152 358.484 281.536 C 358.394 282.153 358.11 282.214 357.213 281.808 L 357.213 281.808 Z  M 339.845 279.78 C 338.945 279.534 337.946 278.816 337.779 278.294 C 337.631 277.829 338.194 276.63 338.558 276.637 C 339.099 276.648 339.904 277.334 340.579 278.361 C 341.562 279.855 341.383 280.2 339.845 279.78 L 339.845 279.78 Z  M 338.874 274.357 C 337.597 274.305 334.785 274.136 329.529 273.793 C 327.143 273.638 324.642 273.321 322.247 272.871 C 321.58 272.746 320.688 272.604 320.266 272.555 C 318.628 272.367 315.573 271.219 315.573 270.792 C 315.573 270.556 317.035 270.6 318.375 270.877 C 319.024 271.011 319.587 271.099 319.626 271.072 C 319.666 271.045 319.149 270.847 318.477 270.631 C 316.659 270.046 316.45 269.769 318.046 270.06 C 320.065 270.427 323.238 270.763 325.889 270.89 C 328.319 271.007 328.971 270.888 326.959 270.695 C 324.913 270.5 323.825 270.035 323.825 269.357 C 323.825 268.746 324.801 268.856 327.699 269.796 C 330.521 270.71 332.229 270.958 335.759 270.964 C 337.771 270.967 337.884 270.947 338.369 270.508 C 338.693 270.215 338.816 270.165 338.711 270.37 C 338.582 270.623 338.633 270.668 338.953 270.584 C 339.219 270.514 339.359 270.562 339.359 270.722 C 339.359 270.93 340.156 270.966 344.638 270.964 C 350.775 270.96 354.296 270.754 354.928 270.362 C 355.497 270.008 356.542 270.188 356.818 270.686 C 357.223 271.418 357.458 271.478 363.146 272.292 C 367.966 272.983 373.051 273.465 375.524 273.466 C 379.579 273.467 383.621 272.667 387.477 271.097 C 389.31 270.35 390.041 270.342 390.726 271.06 C 391.393 271.759 390.882 272.213 388.57 272.976 C 387.469 273.339 386.186 273.804 385.718 274.01 C 384.888 274.375 384.711 274.383 377.83 274.381 C 369.894 274.378 368.164 274.232 364.461 273.256 C 362.013 272.61 359.581 272.098 357.442 271.777 C 355.451 271.478 345.735 271.49 336.811 271.802 C 332.939 271.938 328.816 272.05 327.648 272.05 C 326.479 272.05 325.524 272.097 325.524 272.153 C 325.525 272.356 327.685 272.461 333.898 272.559 C 340.643 272.666 342.419 272.805 343.296 273.3 C 343.849 273.613 343.849 273.613 343.364 273.939 C 342.833 274.295 341.168 274.45 338.874 274.357 L 338.874 274.357 Z  M 366.897 269.979 C 366.973 269.895 366.85 269.801 366.625 269.771 C 366.331 269.732 366.502 269.586 367.229 269.256 C 368.275 268.781 368.564 268.307 367.818 268.29 C 354.26 267.988 354.599 268.004 352.345 267.563 C 347.867 266.686 348 266.696 346.598 267.147 C 344.527 267.812 343.486 267.693 338.717 266.248 C 333.521 264.673 330.169 263.955 327.476 263.841 C 324.897 263.732 324.359 263.46 325.917 263.051 C 326.584 262.877 327.119 262.607 327.279 262.365 C 327.425 262.146 327.682 261.967 327.85 261.967 C 328.018 261.967 328.759 262.346 329.498 262.809 C 331.233 263.898 331.828 264.005 334.987 263.8 C 338.455 263.574 339.876 263.597 340.438 263.889 C 341.18 264.274 340.567 264.516 338.894 264.5 C 337.161 264.483 336.735 264.722 338.205 264.885 C 338.773 264.949 340.358 265.299 341.728 265.664 C 343.098 266.028 344.351 266.296 344.513 266.259 C 344.684 266.22 344.276 265.806 343.539 265.271 C 341.569 263.841 341.749 263.812 345.513 264.956 C 348.866 265.975 351.157 266.413 354.286 266.633 C 355.621 266.727 358.024 266.913 359.626 267.048 C 367.642 267.721 370.509 267.7 374.623 266.942 C 376.068 266.676 376.936 266.382 378.302 265.697 C 379.286 265.203 380.27 264.8 380.489 264.8 C 381.225 264.8 382.321 265.299 382.321 265.634 C 382.321 266.161 380.763 266.686 375.16 268.047 C 373.425 268.468 371.453 268.99 370.779 269.205 C 369.45 269.631 367.405 270.133 367.006 270.133 C 366.87 270.133 366.82 270.064 366.897 269.979 L 366.897 269.979 Z  M 356.714 263.709 C 355.779 263.583 354.305 263.366 353.437 263.228 C 352.569 263.089 350.822 262.857 349.553 262.712 C 348.285 262.566 346.693 262.337 346.016 262.203 C 344.162 261.837 339.845 259.936 339.845 259.486 C 339.845 259.412 340.064 259.215 340.333 259.049 C 340.758 258.784 340.898 258.774 341.425 258.967 C 341.757 259.09 342.029 259.289 342.029 259.412 C 342.029 259.92 342.935 260.256 344.607 260.369 C 347.643 260.574 348.911 260.814 350.596 261.504 C 352.69 262.363 354.315 262.619 357.806 262.64 C 360.308 262.655 360.919 262.595 363.699 262.062 C 367.249 261.381 368.877 261.307 369.733 261.789 C 370.713 262.341 369.965 262.614 366.477 262.98 C 364.802 263.156 362.74 263.449 361.893 263.631 C 360.115 264.014 359.076 264.03 356.714 263.709 Z " fill="rgb(24,24,24)"/></g></g></g></g></g></svg>