<?xml version="1.0" standalone="no"?><!-- Generator: Gravit.io --><svg xmlns="http://www.w3.org/2000/svg" xmlns:xlink="http://www.w3.org/1999/xlink" style="isolation:isolate" viewBox="328 288.8 200 200" width="200" height="200"><defs><clipPath id="_clipPath_EyLrxmdQS5QN2sTKHGJ6ggdS1rQRNVEL"><rect x="328" y="288.8" width="200" height="200"/></clipPath></defs><g clip-path="url(#_clipPath_EyLrxmdQS5QN2sTKHGJ6ggdS1rQRNVEL)"><clipPath id="_clipPath_etc4vX6fWcHvwM5GyTYdAoz1MFwHlQH5"><rect x="328" y="288.8" width="200" height="200" transform="matrix(1,0,0,1,0,0)" fill="rgb(255,255,255)"/></clipPath><g clip-path="url(#_clipPath_etc4vX6fWcHvwM5GyTYdAoz1MFwHlQH5)"><g><g><path d=" M 492.731 425.947 C 490.515 427.794 488.003 429.445 485.999 431.422 C 481.32 436.041 478.823 441.495 477.085 447.189 C 476.983 447.523 477.074 447.896 477.074 448.526 C 477.675 448.172 478.118 448.036 478.302 447.78 C 478.869 446.998 479.463 446.202 479.823 445.352 C 482.079 440.048 484.874 434.952 489.508 430.667 C 491.651 428.688 494.193 426.984 496.521 425.131 C 498.389 423.645 499.911 421.968 500.749 419.946 C 502.175 416.504 502.025 413.197 499.35 410.133 C 498.981 409.71 498.442 409.355 497.901 409.065 C 497.689 408.951 497.149 409.013 496.95 409.159 C 496.764 409.296 496.7 409.695 496.812 409.9 C 497.095 410.412 497.521 410.874 497.862 411.368 C 498.485 412.271 499.348 413.132 499.648 414.099 C 500.455 416.699 499.834 419.218 497.866 421.366 C 496.358 423.011 494.508 424.466 492.731 425.947 Z  M 434.746 445.969 C 434.973 446.138 435.461 446.082 435.828 446.128 C 435.857 445.809 436.018 445.447 435.886 445.179 C 435.644 444.688 435.294 444.207 434.867 443.803 C 433.999 442.984 433.075 442.197 432.122 441.436 C 429.999 439.739 428.622 437.707 427.816 435.427 C 425.888 429.97 425.892 424.388 426.261 418.804 C 426.419 416.424 426.915 414.054 427.35 411.689 C 427.576 410.453 428.007 409.238 428.403 407.797 C 428.257 407.632 427.991 407.125 427.765 407.135 C 427.354 407.155 426.851 407.419 426.603 407.7 C 426.323 408.016 426.215 408.456 426.15 408.855 C 425.721 411.472 425.297 414.089 424.922 416.712 C 424.189 421.86 424.569 426.987 425.686 432.068 C 426.538 435.933 427.913 439.698 430.896 442.913 C 431.959 444.062 433.417 444.987 434.746 445.969 Z  M 370.225 367.402 C 371.172 367.2 372.103 366.94 373.013 366.65 C 374.255 366.251 374.802 366.461 375.014 367.501 C 375.122 368.029 375.081 368.593 375.301 369.084 C 375.64 369.838 376.102 370.563 376.607 371.258 C 376.731 371.425 377.248 371.515 377.533 371.464 C 377.705 371.435 377.838 371.068 377.881 370.841 C 377.919 370.634 377.834 370.407 377.767 370.195 C 377.248 368.555 376.76 366.908 376.164 365.284 C 376.015 364.882 375.51 364.564 375.189 364.229 C 372.973 364.833 371.041 365.314 369.585 366.513 C 369.396 366.668 369.384 366.959 369.29 367.186 C 369.603 367.266 369.958 367.46 370.225 367.402 Z  M 379.462 374.263 C 379.572 373.935 379.457 373.561 379.44 373.207 C 379.039 373.276 378.581 373.267 378.249 373.424 C 376.921 374.059 376.222 375.08 375.752 376.21 C 374.888 378.291 374.865 380.416 375.276 382.802 C 375.212 382.906 375.114 383.312 374.82 383.449 C 374.604 383.547 374.067 383.356 373.786 383.182 C 373.161 382.793 372.65 382.288 372.018 381.914 C 371.394 381.544 370.7 381.22 369.981 380.989 C 369.655 380.884 369.194 381.052 368.793 381.097 C 368.865 381.384 368.822 381.744 369.029 381.947 C 370.78 383.656 372.857 385.058 375.45 385.9 C 376.666 386.292 377.408 385.872 377.384 384.822 C 377.368 384.134 377.273 383.427 377.034 382.768 C 376.043 380.022 376.314 377.485 378.77 375.245 C 379.076 374.965 379.343 374.615 379.462 374.263 Z  M 390.118 446.917 C 387.615 443.209 383.677 440.479 379.839 437.692 C 379.705 437.594 379.517 437.54 379.086 437.344 C 380.03 439.523 381.454 441.143 383.352 442.471 C 385.565 444.019 387.226 445.849 388.44 447.976 C 388.974 448.913 389.712 449.78 390.428 450.643 C 390.612 450.864 391.062 450.945 391.389 451.09 C 391.485 450.777 391.751 450.419 391.646 450.157 C 391.206 449.057 390.8 447.924 390.118 446.917 Z  M 468.188 351.204 C 466.233 351.361 464.835 352.429 463.359 353.321 C 461.923 354.188 460.421 354.967 458.576 355.056 C 456.952 355.134 455.293 355.204 453.691 355.026 C 450.107 354.63 446.737 355.222 443.472 356.243 C 440.413 357.2 437.356 358.217 435.429 360.558 C 435.226 360.804 434.633 360.935 434.203 360.964 C 432.543 361.074 430.997 361.413 429.723 362.287 C 429.414 362.501 429.323 362.915 429.133 363.236 C 429.533 363.301 429.99 363.499 430.32 363.406 C 431.577 363.06 432.838 362.687 434.008 362.193 C 434.827 361.848 435.168 361.896 435.479 362.608 C 435.837 363.431 436.274 364.246 436.822 364.998 C 437.399 365.788 438.343 366.119 439.473 365.735 C 440.591 365.354 441.667 364.894 442.774 364.49 C 443.81 364.115 444.845 363.511 445.913 363.461 C 448.629 363.331 451.385 363.296 454.088 363.515 C 458.495 363.872 462.684 363.714 466.592 361.806 C 468.096 361.071 469.764 360.528 471.414 360.008 C 474.257 359.115 477.217 359.641 480.138 359.732 C 481.01 359.697 481.883 359.666 482.755 359.624 C 484.739 359.533 485.237 358.935 484.489 357.514 C 481.531 351.902 474.852 350.669 468.188 351.204 Z  M 487.427 364.402 C 487.292 364.878 487.403 365.397 487.402 365.895 C 487.933 365.57 488.493 365.269 488.984 364.911 C 489.204 364.751 489.349 364.487 489.423 364.25 C 489.869 362.802 490.284 361.35 490.713 359.898 C 490.598 359.879 490.483 359.859 490.371 359.839 C 490.371 359.334 490.478 358.812 490.349 358.329 C 490.084 357.327 489.775 356.321 489.306 355.37 C 489.178 355.109 488.428 355.041 487.96 354.882 C 487.88 355.269 487.729 355.659 487.739 356.045 C 487.745 356.269 487.98 356.505 488.154 356.712 C 488.871 357.561 489.208 358.508 488.943 359.492 C 488.502 361.14 487.895 362.76 487.427 364.402 Z  M 484.221 347.603 C 483.882 347.248 483.633 346.765 483.185 346.556 C 480.327 345.227 477.129 344.772 473.898 344.502 C 473.186 344.442 472.148 344.5 472.03 345.293 C 472.004 345.467 473.101 345.815 473.728 345.969 C 475.667 346.447 477.628 346.873 479.581 347.317 C 479.554 347.446 479.525 347.575 479.497 347.704 C 479.276 347.751 479.038 347.77 478.838 347.85 C 478.469 347.993 478.123 348.173 477.766 348.337 C 478.051 348.614 478.321 348.906 478.632 349.162 C 478.761 349.267 478.977 349.328 479.167 349.358 C 481.851 349.773 484.18 350.845 486.596 351.787 C 488.617 352.577 490.864 352.749 493.097 352.573 C 493.61 352.533 494.067 352.066 494.551 351.796 C 494.053 351.625 493.562 351.319 493.059 351.306 C 489.067 351.211 485.66 349.825 482.291 348.339 C 482.245 348.319 482.247 348.23 482.203 348.11 C 482.391 348.081 482.575 348.067 482.744 348.022 C 483.241 347.889 483.729 347.745 484.221 347.603 Z  M 425.656 437.909 C 423.355 432.181 421.155 426.424 418.68 420.742 C 417.255 417.467 416.691 414.249 417.727 410.855 C 418.594 408.024 419.343 405.17 420.059 402.312 C 420.148 401.958 419.717 401.521 419.529 401.123 C 419.102 401.388 418.627 401.62 418.268 401.934 C 418.081 402.098 418.077 402.403 418.019 402.648 C 417.51 404.805 417.018 406.964 416.5 409.119 C 415.421 413.581 415.445 417.979 417.39 422.324 C 419.715 427.515 422.124 432.679 423.726 438.061 C 424.301 439.995 425.353 441.849 426.307 443.7 C 426.629 444.32 427.325 444.818 427.85 445.37 C 427.998 445.312 428.143 445.25 428.29 445.188 C 428.23 444.855 428.226 444.511 428.104 444.193 C 427.303 442.094 426.496 439.998 425.656 437.909 Z  M 497.951 350.522 C 499.991 351.35 502.101 352.063 504.175 352.836 C 505.801 353.444 507.088 354.314 507.803 355.682 C 508.069 356.191 508.514 356.674 509.011 357.062 C 509.66 357.569 510.307 357.361 510.418 356.65 C 510.613 355.425 510.384 354.381 508.822 353.683 C 507.066 352.898 505.458 351.899 503.7 351.118 C 501.707 350.234 499.629 349.463 497.555 348.7 C 496.986 348.49 496.298 348.485 495.384 348.341 C 495.828 349.668 496.935 350.11 497.951 350.522 Z  M 427.701 369.046 C 428.007 369.254 428.291 369.62 428.616 369.645 C 432.256 369.931 435.35 371.451 438.696 372.4 C 438.839 372.441 438.943 372.567 439.065 372.651 C 438.275 372.761 437.593 372.649 436.904 372.575 C 435.417 372.417 433.931 372.221 432.437 372.17 C 432.023 372.156 431.588 372.593 431.161 372.823 C 431.562 373.029 431.933 373.343 432.371 373.418 C 433.799 373.665 435.251 373.817 436.692 374.017 C 438.483 374.267 440.267 374.56 442.067 374.758 C 442.447 374.801 442.883 374.516 443.294 374.381 C 443.149 374.107 443.097 373.672 442.851 373.584 C 441.41 373.074 441.636 372.172 441.858 371.04 C 442.753 371.355 443.581 371.609 444.362 371.93 C 445.594 372.435 446.782 372.903 448.258 372.933 C 450.669 372.983 453.135 373.017 455.465 373.446 C 458.366 373.98 461.148 374.92 464 375.644 C 464.442 375.757 465.077 375.788 465.418 375.608 C 465.651 375.487 465.627 374.917 465.538 374.579 C 465.347 373.861 465.043 373.162 464.7 372.225 C 465.383 372.531 465.769 372.749 466.2 372.88 C 466.496 372.97 466.982 373.05 467.147 372.929 C 467.333 372.794 467.386 372.383 467.268 372.172 C 466.922 371.546 466.559 370.9 466.031 370.369 C 464.391 368.727 462.025 368.644 459.649 368.622 C 455.957 368.592 452.423 369.302 448.951 370.168 C 446.884 370.683 445.033 370.625 443.163 369.762 C 440.357 368.466 437.52 367.207 434.681 365.955 C 434.055 365.681 433.361 365.505 432.697 365.284 C 432.606 365.395 432.514 365.506 432.423 365.617 C 433.771 367.977 437.148 368.61 439.475 370.327 C 437.499 370.462 434.956 369.976 433.382 369.088 C 431.93 368.27 430.323 368.283 428.703 368.383 C 428.35 368.405 428.035 368.815 427.701 369.046 Z  M 527.883 331.011 C 527.584 329.393 527.45 327.757 527.237 326.13 C 527.157 325.531 526.797 325.132 525.982 325.373 C 525.004 325.66 524.771 325.183 524.822 324.644 C 524.93 323.514 524.17 323.07 522.945 322.833 C 522.041 322.658 521.459 322.249 521.29 321.426 C 521.199 320.991 520.771 320.483 520.304 320.237 C 519.287 319.703 518.112 319.365 517.08 318.848 C 516.566 318.591 516.05 318.17 515.845 317.731 C 515.558 317.119 515.053 316.894 514.36 316.819 C 513.888 316.767 513.403 316.819 512.928 316.784 C 512.073 316.724 511.742 316.432 512.083 315.709 C 513.109 313.527 513.017 313.465 510.048 313.708 C 509.677 313.739 509.151 313.58 508.923 313.36 C 508.757 313.202 508.908 312.783 509.021 312.509 C 509.116 312.279 509.361 312.089 509.545 311.884 C 510.43 310.893 510.116 310.249 508.619 310.177 C 507.513 310.123 507.209 309.823 507.602 308.987 C 507.996 308.152 507.64 307.825 506.491 307.89 C 506.139 307.911 505.797 308.027 505.445 308.052 C 504.629 308.113 504.079 307.968 504.385 307.155 C 504.705 306.308 504.183 305.826 503.189 305.621 C 502.695 305.519 502.178 305.487 501.676 305.409 C 500.783 305.27 500.226 304.996 500.526 304.119 C 500.88 303.079 500.557 302.849 499.15 302.943 C 497.985 303.02 496.855 303.024 495.921 302.31 C 493.373 300.369 489.958 299.337 487.545 297.233 C 486.962 296.723 486.048 296.391 485.207 296.14 C 482.66 295.382 480.116 294.587 477.496 294.024 C 473.974 293.265 471.276 291.244 467.795 290.369 C 464.966 289.659 462.213 289.301 459.293 289.426 C 455.531 289.586 451.75 289.833 448.073 288.896 C 447.031 288.631 446.283 288.956 445.431 289.376 C 444.706 289.733 443.784 290.021 442.95 290.022 C 441.414 290.023 439.877 289.795 438.341 289.657 C 433.567 289.231 428.801 289.514 424.071 289.963 C 419.755 290.374 415.484 291.063 411.185 291.584 C 408.981 291.852 407.025 292.348 405.467 293.772 C 404.816 294.366 403.601 294.771 402.584 294.865 C 400.754 295.037 399.178 295.553 397.6 296.254 C 396.772 296.622 395.741 296.805 394.78 296.869 C 391.467 297.091 388.533 297.99 386.088 299.782 C 383.2 301.899 380.358 304.057 377.517 306.214 C 377.185 306.466 376.867 306.808 376.752 307.151 C 375.775 310.044 373.543 312.314 371.118 314.509 C 369.203 316.248 367.89 318.231 367.616 320.585 C 367.578 320.913 367.438 321.301 367.17 321.536 C 363.983 324.324 363.258 328.007 361.522 331.319 C 361.23 331.879 361.286 332.554 361.183 333.175 C 360.898 334.915 360.774 336.684 360.294 338.388 C 359.359 341.691 357.961 344.924 358.529 348.396 C 358.589 348.763 358.395 349.225 358.132 349.545 C 354.668 353.787 353.478 358.55 353.365 363.471 C 353.239 368.932 353.395 374.399 353.584 379.858 C 353.666 382.268 354.5 384.578 356.344 386.571 C 357.402 387.713 358.471 388.854 359.63 389.933 C 361.08 391.286 361.702 392.762 361.79 394.58 C 361.904 397.014 362.395 399.454 362.983 401.852 C 363.909 405.615 365.177 409.353 364.953 413.212 C 364.791 415.961 366.356 418.07 368.285 420.068 C 369.168 420.982 369.702 421.821 369.581 422.97 C 369.061 427.964 368.617 432.961 368.067 437.95 C 367.929 439.228 367.567 440.496 367.183 441.744 C 367.088 442.057 366.431 442.542 366.167 442.492 C 365.017 442.279 364.626 442.824 364.324 443.47 C 363.723 444.761 363.153 446.064 362.61 447.373 C 361.721 449.514 360.911 451.677 359.967 453.804 C 359.739 454.314 359.117 455.1 358.675 455.1 C 356.584 455.1 355.334 456.126 354.294 457.252 C 352.749 458.921 351.347 460.685 350.079 462.496 C 348.719 464.437 346.952 465.967 344.453 466.98 C 341.101 468.337 337.799 469.773 334.431 471.103 C 330.72 472.567 329.108 475.198 328.037 478.136 C 327.899 478.514 328.181 478.988 328.268 479.417 C 328.712 479.141 329.298 478.931 329.573 478.57 C 330.1 477.878 330.492 477.113 330.871 476.356 C 331.608 474.887 332.804 473.806 334.642 473.125 C 341.458 470.599 346.898 466.618 352.093 462.435 C 354.005 460.896 355.517 459.046 357.225 457.345 C 357.565 457.007 357.965 456.707 358.338 456.39 C 358.447 456.443 358.555 456.495 358.664 456.547 C 358.509 457.118 358.449 457.719 358.182 458.254 C 356.314 462.014 354.39 465.755 352.525 469.512 C 352.291 469.984 352.179 470.53 352.189 471.039 C 352.208 471.963 352.517 473.515 352.433 474.426 C 352.003 479.121 352.345 484.856 354.497 488.8 L 356.407 488.8 C 355.726 486.171 355.16 483.263 354.339 480.85 C 353.017 476.962 353.2 473.029 356.474 469.717 C 357.86 468.317 358.453 466.5 358.326 464.698 C 358.306 464.418 358.353 464.049 358.444 463.778 C 359.552 460.513 360.597 457.193 361.815 453.952 C 362.683 451.644 363.746 449.36 364.819 447.102 C 365.015 446.691 365.733 446.096 366.115 446.138 C 367.214 446.259 367.591 445.801 367.826 445.164 C 368.201 444.141 368.547 443.105 368.815 442.062 C 370.198 436.677 370.847 431.229 370.946 425.736 C 371.042 420.275 371.139 414.807 370.213 409.385 C 369.504 405.253 368.505 401.153 367.606 397.042 C 367.301 395.655 367.734 395.329 369.477 395.75 C 370.796 396.069 372.095 396.469 373.439 396.697 C 374.656 396.905 375.041 397.417 375.051 398.349 C 375.076 400.554 375.221 402.757 375.25 404.961 C 375.256 405.509 375.039 406.063 374.876 406.605 C 374.549 407.7 373.953 408.778 373.887 409.879 C 373.733 412.433 373.854 414.994 373.819 417.552 C 373.784 420.233 373.703 422.916 373.63 425.598 C 373.557 428.243 373.365 430.893 374.333 433.483 C 374.925 435.062 376.305 435.959 378.475 436.617 C 378.076 435.953 377.825 435.506 377.542 435.07 C 377.107 434.402 376.6 433.76 376.208 433.075 C 374.352 429.812 374.705 426.357 374.919 422.931 C 375.103 420.002 375.406 417.081 375.733 414.161 C 375.786 413.694 376.244 413.255 376.519 412.805 C 376.736 412.45 377.138 412.1 377.151 411.74 C 377.2 410.224 377.137 408.71 377.109 407.194 C 377.04 403.636 376.946 400.078 376.917 396.519 C 376.909 395.642 376.593 395.207 375.495 395.093 C 375.063 395.049 374.621 395.067 374.184 395.066 C 370.19 395.055 366.765 393.918 363.845 391.781 C 360.633 389.428 358.612 386.425 356.614 383.412 C 355.598 381.879 355.171 380.252 355.195 378.509 C 355.252 374.376 355.166 370.241 355.248 366.108 C 355.267 365.133 355.649 364.145 355.998 363.196 C 356.379 362.146 356.878 361.118 357.392 360.103 C 358.302 358.305 359.151 356.477 360.242 354.75 C 360.933 353.656 362.248 353.041 363.839 352.785 C 367.966 352.123 371.14 353.254 373.643 355.844 C 374.608 356.843 375.648 357.801 376.71 358.735 C 376.962 358.958 377.449 359.012 377.828 359.144 C 377.833 358.796 377.985 358.394 377.819 358.11 C 375.817 354.648 372.953 351.946 367.801 351.55 C 365.117 351.344 362.386 351.184 360.091 352.753 C 359.649 353.054 359.022 353.181 358.479 353.388 C 358.387 353.311 358.296 353.233 358.203 353.157 C 358.474 352.763 358.646 352.286 359.034 351.99 C 360.115 351.164 361.176 350.27 362.44 349.66 C 367.024 347.446 373.033 348.059 376.051 351.106 C 377.257 352.324 378.095 353.79 378.96 355.198 C 379.622 356.276 380.533 357.121 381.679 357.892 C 383.859 359.361 386.011 360.863 388.039 362.461 C 390.35 364.285 391.869 366.53 392.963 368.962 C 393.28 369.667 393.592 370.448 394.834 370.425 C 397.38 370.377 399.925 370.347 402.467 370.254 C 403.764 370.208 404.098 369.842 404.173 368.833 C 404.303 367.104 404.417 365.373 404.647 363.651 C 405.325 358.583 407.994 354.213 412.126 350.354 C 415.065 347.613 418.572 345.402 422.269 343.363 C 423.436 342.719 424.3 341.918 424.427 340.779 C 424.576 339.463 424.698 338.133 424.635 336.815 C 424.548 334.958 424.288 333.106 424.09 331.252 C 423.88 329.296 424.561 328.573 427.019 328.356 C 429.758 328.114 432.29 327.511 434.392 326.02 C 435.163 325.473 435.938 324.931 436.732 324.404 C 438.737 323.076 440.825 321.763 443.641 322.135 C 445.454 322.376 447.283 322.786 448.965 323.372 C 454.57 325.324 460.271 326.717 466.514 326.511 C 470.45 326.382 473.918 327.536 476.932 329.639 C 478.308 330.6 479.928 331.485 481.632 331.982 C 486.687 333.451 491.848 334.638 497.359 334.383 C 498.514 334.33 499.768 334.463 500.853 334.779 C 507.393 336.685 510.918 340.681 512.55 345.847 C 513.219 347.965 513.366 350.189 514.063 352.3 C 515.206 355.756 515.342 359.193 514.451 362.67 C 514.061 364.19 513.273 364.447 511.789 363.448 C 509.06 361.613 506.445 359.673 503.742 357.813 C 501.419 356.213 498.685 355.242 495.699 354.727 C 494.485 354.517 493.973 355 494.332 355.955 C 494.647 356.794 495.073 357.615 495.295 358.469 C 495.456 359.083 495.781 359.902 494.851 360.275 C 492.408 361.252 491.867 363.087 491.333 364.929 C 491.246 365.232 491.494 365.597 491.588 365.932 C 491.977 365.749 492.526 365.638 492.728 365.367 C 493.383 364.476 493.91 363.527 494.489 362.6 C 494.737 362.205 494.992 361.813 495.243 361.418 L 495.125 361.751 C 496.318 362.534 497.611 363.239 498.681 364.117 C 500.476 365.588 502.156 367.152 503.829 368.715 C 504.675 369.505 504.476 369.983 503.249 370.324 C 501.91 370.696 500.543 371.006 499.199 371.372 C 495.257 372.446 491.576 373.859 488.706 376.367 C 486.862 377.98 486.091 379.801 486.775 381.946 C 487.036 382.768 487.405 383.568 487.617 384.396 C 487.688 384.671 487.537 385.148 487.289 385.263 C 487 385.398 486.382 385.35 486.11 385.178 C 485.782 384.973 485.52 384.56 485.491 384.224 C 485.414 383.316 485.343 382.385 485.505 381.488 C 486.06 378.436 487.429 375.591 489.117 372.825 C 489.351 372.444 489.332 371.625 489.024 371.445 C 488.345 371.046 487.655 371.466 487.277 372 C 486.677 372.846 486.033 373.69 485.62 374.597 C 483.522 379.197 483.968 383.897 485.033 388.577 C 485.95 392.603 487.724 396.433 489.776 400.177 C 490.383 401.284 490.406 402.356 489.888 403.466 C 489.696 403.877 489.47 404.289 489.389 404.717 C 489.339 404.989 489.526 405.288 489.607 405.575 C 489.962 405.477 490.422 405.457 490.648 405.264 C 491.044 404.927 491.269 404.472 491.608 404.088 C 491.777 403.894 492.092 403.584 492.24 403.616 C 492.525 403.68 492.834 403.912 492.969 404.136 C 493.685 405.331 492.758 407.404 491.268 408.01 C 490.611 408.279 490.124 408.266 490.04 407.536 C 489.976 407.003 489.898 406.28 489.018 406.375 C 487.912 406.495 486.753 406.754 485.799 407.2 C 484.617 407.752 484.817 408.732 486.109 409.114 C 488.448 409.807 490.796 409.758 493.008 408.822 C 493.662 408.546 494.47 408.005 494.582 407.498 C 495.03 405.444 495.65 403.315 493.438 401.534 C 492.805 401.026 492.319 400.388 491.843 399.771 C 489.297 396.473 488.318 392.745 487.256 389.046 C 487.167 388.742 487.303 388.399 487.333 388.074 C 487.748 388.199 488.295 388.23 488.555 388.463 C 490.752 390.423 493.601 391.974 494.721 394.619 C 494.896 395.03 495.249 395.39 495.499 395.782 C 497.724 399.255 499.893 402.743 500.544 406.679 C 500.625 407.172 500.746 407.682 500.992 408.134 C 501.138 408.399 501.569 408.566 501.872 408.778 C 502.018 408.51 502.183 408.248 502.308 407.973 C 502.358 407.861 502.321 407.723 502.318 407.597 C 502.264 403.667 500.842 399.996 498.353 396.676 C 496.151 393.737 493.433 391.041 490.95 388.233 C 490.607 387.844 490.318 387.423 490.004 387.017 C 490.103 386.917 490.202 386.818 490.301 386.719 C 491.229 387.002 492.168 387.267 493.082 387.577 C 496.826 388.844 500.587 390.004 504.798 389.378 C 506.76 389.084 507.568 389.496 508.273 391.181 C 507.67 391.1 507.149 390.988 506.623 390.977 C 506.183 390.967 505.738 391.075 505.297 391.131 C 505.459 391.485 505.492 391.972 505.81 392.167 C 506.649 392.683 507.596 393.096 508.533 393.5 C 509.459 393.901 510.013 394.446 510.29 395.288 C 510.95 397.289 511.69 399.277 512.483 401.247 C 513.611 404.052 514.418 406.884 512.809 409.708 C 511.325 412.31 509.694 414.863 508.001 417.383 C 503.753 423.7 498.701 429.545 492.283 434.64 C 488.012 438.032 483.979 441.62 480.935 445.808 C 480.463 446.458 480.173 447.267 480.123 448.017 C 480.007 449.686 480.087 451.364 480.108 453.037 C 480.142 455.879 478.878 458.352 476.595 460.48 C 473.131 463.708 468.451 465.409 463.559 466.809 C 463.206 466.912 462.76 466.923 462.387 466.861 C 458.754 466.252 455.071 465.769 451.51 464.959 C 445.903 463.685 440.816 461.624 436.974 457.976 C 436.006 457.056 434.98 456.174 433.927 455.313 C 433.588 455.034 433.084 454.884 432.654 454.675 C 432.524 454.767 432.395 454.859 432.265 454.95 C 432.663 455.601 432.987 456.289 433.472 456.897 C 435.601 459.564 438.528 461.585 441.932 463.164 C 446.489 465.276 451.46 466.495 456.614 467.303 C 457.333 467.415 457.99 467.778 458.677 468.025 C 458.258 468.531 457.847 469.041 457.42 469.542 C 457.333 469.644 457.184 469.71 457.07 469.799 C 455.788 470.788 454.461 471.744 453.256 472.789 C 452.883 473.111 452.845 473.674 452.654 474.128 C 453.218 474.01 453.916 474.021 454.327 473.754 C 456.295 472.48 458.157 471.101 460.116 469.818 C 460.923 469.288 461.838 468.83 462.783 468.471 C 464.083 467.981 465.449 467.598 466.803 467.203 C 467.428 467.021 468.093 466.926 468.739 466.79 C 468.627 467.291 468.635 467.833 468.385 468.285 C 465.721 473.056 463.008 477.811 459.397 482.197 C 459.165 482.48 459.081 482.838 458.9 483.217 C 460.171 483.179 461.287 482.619 462.286 481.63 C 464.15 479.785 465.1 477.578 466.275 475.45 C 467.305 473.59 468.499 471.777 469.789 470.022 C 470.532 469.014 471.346 469.056 472.206 469.967 C 474.844 472.772 477.356 475.637 479.203 478.839 C 479.812 479.893 480.523 480.917 481.293 481.901 C 481.634 482.337 482.238 482.643 482.723 483.008 C 482.84 482.95 482.956 482.889 483.071 482.832 C 483.01 482.447 483.033 482.038 482.871 481.681 C 482.133 480.061 481.518 478.383 480.528 476.864 C 479.479 475.258 478.214 473.701 476.755 472.314 C 474.783 470.441 473.177 468.509 472.69 466.036 C 472.546 465.313 472.646 464.887 473.43 464.572 C 473.887 464.387 474.349 464.195 474.831 464.061 C 476.657 463.552 477.89 462.571 478.746 461.205 C 480.69 458.103 481.456 454.771 481.745 451.372 C 481.938 449.105 482.333 446.973 484.202 445.117 C 487.92 441.425 491.393 437.569 495.253 433.975 C 501.67 428.003 507.516 421.749 512.017 414.738 C 513.851 411.881 515.119 408.912 515.237 405.662 C 515.319 403.392 514.4 401.335 513.359 399.291 C 512.117 396.856 511.213 394.401 511.294 391.704 C 511.36 389.452 512.434 387.761 514.593 386.423 C 516.144 385.461 517.337 384.497 517.587 382.708 C 517.8 381.195 518.881 379.694 519.881 378.329 C 521.687 375.864 521.425 373.528 519.649 371.203 C 518.721 369.993 517.735 368.808 516.672 367.673 C 515.447 366.364 515.367 365 516.201 363.597 C 516.399 363.262 517.04 362.884 517.474 362.888 C 518.554 362.894 519.007 362.513 519.119 361.743 C 519.183 361.306 519.283 360.863 519.254 360.427 C 519.2 359.616 519.529 359.002 520.262 358.404 C 520.636 358.097 520.689 357.477 520.725 356.991 C 520.753 356.633 520.569 356.247 520.397 355.9 C 519.981 355.063 520.074 354.373 520.862 353.641 C 521.234 353.295 521.298 352.603 521.196 352.107 C 521.087 351.575 520.702 351.043 520.298 350.589 C 519.161 349.318 521.052 348.138 520.414 346.9 C 520.407 346.886 520.455 346.836 520.485 346.83 C 521.477 346.603 521.773 345.986 521.923 345.265 C 521.948 345.152 522.183 345.017 522.353 344.98 C 523.73 344.68 523.717 343.917 523.434 343.037 C 522.941 341.499 523.086 341.311 525.055 340.861 C 525.319 340.8 525.587 340.74 525.849 340.67 C 527.121 340.326 527.363 339.886 527.259 338.814 C 527.138 337.576 526.754 336.191 527.283 335.116 C 527.972 333.717 528.147 332.442 527.883 331.011 Z  M 505.926 387.453 C 501.475 388.844 497.296 388.204 493.349 386.264 C 491.672 385.439 490.306 384.343 489.433 382.91 C 488.766 381.817 489.135 381.254 490.641 381.052 C 491.189 380.979 491.737 380.904 492.287 380.865 C 492.721 380.835 493.163 380.859 493.599 380.859 C 497.53 380.816 500.785 382.151 503.767 384.024 C 504.639 384.571 505.485 385.148 506.309 385.74 C 507.389 386.514 507.29 387.029 505.926 387.453 Z  M 510.129 388.686 C 509.887 388.885 509.347 388.993 509.001 388.931 C 508.783 388.893 508.472 388.413 508.55 388.221 C 508.854 387.493 509.3 386.801 509.75 385.987 C 510.568 386.711 510.759 388.168 510.129 388.686 Z  M 513.127 385.421 C 512.168 385.966 511.667 385.389 511.116 384.838 C 509.887 383.614 508.76 382.282 507.295 381.263 C 504.243 379.14 500.483 378.152 496.527 377.637 C 495.047 377.444 493.539 377.373 492.059 377.179 C 491.561 377.114 491.108 376.841 490.633 376.664 C 490.958 376.334 491.208 375.916 491.625 375.691 C 494.465 374.157 497.57 373.087 500.934 372.516 C 501.974 372.339 503.027 372.211 504.482 372 C 505.084 372.239 506.013 372.486 506.754 372.929 C 508.272 373.835 509.799 374.762 511.126 375.831 C 513.367 377.641 514.852 379.834 515.161 382.386 C 515.314 383.641 514.422 384.686 513.127 385.421 Z  M 516.633 358.269 C 515.999 356.893 515.958 355.612 516.471 354.329 C 516.557 354.116 516.953 353.924 517.255 353.849 C 517.392 353.815 517.711 354.061 517.844 354.23 C 518.584 355.178 517.967 357.46 516.633 358.269 Z  M 364.822 379.461 C 363.819 377.226 362.636 375.284 362.12 373.238 C 361.608 371.202 361.764 369.062 361.609 366.704 C 360.911 367.396 360.377 367.928 359.719 368.58 C 359.585 367.763 359.479 367.116 359.374 366.467 C 359.223 366.44 359.073 366.412 358.922 366.384 C 358.564 366.911 358.096 367.408 357.866 367.968 C 356.738 370.726 356.968 373.502 358.064 376.213 C 358.425 377.106 359.21 377.902 359.892 378.694 C 360.054 378.88 360.588 378.863 360.95 378.938 C 361.014 378.65 361.162 378.353 361.117 378.078 C 361.04 377.628 360.838 377.192 360.687 376.752 C 361.915 377.725 362.65 379.06 364.822 379.461 Z  M 476.017 376.233 C 476.074 376.546 476.248 376.844 476.371 377.149 C 476.738 376.942 477.241 376.797 477.446 376.515 C 478.335 375.298 478.21 373.981 477.788 372.683 C 477.7 372.409 477.29 372.2 477.03 371.961 C 476.789 372.227 476.402 372.469 476.331 372.761 C 476.137 373.56 476.074 374.379 475.958 375.189 C 475.974 375.191 475.988 375.193 476.003 375.197 C 476.003 375.543 475.956 375.894 476.017 376.233 Z  M 488.522 418.783 C 485.923 417.146 483.011 415.89 479.825 415.187 C 476.44 414.439 472.964 413.948 469.533 413.336 C 463.732 412.303 457.99 410.983 452.373 411.176 C 450.996 411.176 450.039 411.147 449.086 411.181 C 444.301 411.356 439.78 412.319 435.66 414.265 C 431.957 416.014 431.696 417.94 432.223 420.711 C 432.743 423.45 434.07 426.025 435.69 428.479 C 437.529 431.265 439.585 433.908 443.342 435.369 C 452.151 438.799 461.411 440.629 471.255 440.138 C 475.541 439.923 479.03 438.501 480.85 435.143 C 481.803 433.384 483.32 431.956 485.067 430.62 C 486.019 429.895 486.721 428.854 487.164 427.852 C 487.506 427.08 487.917 426.525 488.76 426.093 C 489.882 425.521 490.772 424.797 491.099 423.699 C 491.738 421.55 490.494 420.024 488.522 418.783 Z  M 442.581 417.396 C 442.972 416.621 443.727 416.338 444.672 416.507 C 445.173 416.599 445.578 416.989 446.076 417.148 C 446.453 417.267 447.019 417.379 447.31 417.239 C 449.681 416.108 450.257 416.187 451.823 418.007 C 451.954 418.16 452.125 418.291 452.441 418.583 C 452.899 418.023 453.226 417.568 453.619 417.147 C 454.409 416.301 455.182 416.228 456.058 417.024 C 456.753 417.654 457.282 418.402 457.861 419.11 C 458.089 419.389 458.253 419.702 458.585 420.215 C 459.051 419.642 459.387 419.242 459.705 418.832 C 460.607 417.668 461.603 417.627 462.469 418.815 C 463.075 419.647 463.467 420.577 464.058 421.65 C 464.383 421.199 464.636 420.876 464.858 420.54 C 465.257 419.937 465.494 419.122 466.574 419.165 C 467.675 419.208 468.683 419.602 469.172 420.451 C 469.495 421.012 469.627 421.644 469.848 422.242 C 469.922 422.444 470.002 422.645 470.197 423.143 C 470.694 422.452 471.038 421.983 471.371 421.51 C 471.814 420.878 472.471 420.474 473.391 420.564 C 474.37 420.66 474.546 421.285 474.649 421.958 C 474.736 422.533 474.956 423.097 475.119 423.666 C 475.298 423.759 475.478 423.852 475.658 423.947 C 475.936 423.58 476.154 423.167 476.511 422.854 C 477.233 422.218 477.699 422.279 478.023 423.063 C 478.275 423.671 478.537 424.015 479.444 423.7 C 479.608 423.643 480.284 424.123 480.254 424.172 C 479.749 424.998 479.286 425.872 478.544 426.553 C 478.239 426.833 477.278 426.761 476.647 426.687 C 476.051 426.618 475.494 426.335 474.801 426.108 C 472.573 427.086 471.31 426.949 469.118 425.505 C 468.809 425.302 468.2 425.327 467.738 425.346 C 467.195 425.367 466.661 425.539 466.118 425.57 C 464.951 425.639 464.232 425.23 464.075 424.263 C 464.037 424.028 463.873 423.807 463.731 423.503 C 462.571 424.192 461.311 424.446 460.315 423.651 C 459.486 422.992 459.007 422.061 458.324 421.185 C 457.685 421.55 457.064 421.989 456.352 422.297 C 454.858 422.943 454.001 422.676 453.35 421.451 C 452.47 419.786 452.47 419.786 450.458 420.721 C 448.872 421.459 448.56 421.436 447.588 420.234 C 446.967 419.466 446.505 419.808 445.894 420.209 C 445.159 420.693 444.348 420.655 443.599 420.2 C 442.576 419.578 442.136 418.271 442.581 417.396 Z  M 461.841 433.389 C 461.417 433.322 460.796 432.848 460.793 432.556 C 460.788 432.13 461.154 431.604 461.57 431.307 C 461.837 431.117 462.492 431.221 462.958 431.27 C 463.536 431.33 464.102 431.463 464.67 431.577 C 465.039 431.65 465.434 431.701 465.761 431.842 C 466.272 432.066 466.751 432.339 467.215 432.624 C 467.409 432.746 467.519 432.949 467.67 433.113 C 467.461 433.223 467.269 433.39 467.04 433.432 C 466.354 433.557 465.654 433.633 464.961 433.729 C 464.961 433.67 464.963 433.611 464.965 433.552 C 463.921 433.51 462.858 433.547 461.841 433.389 Z  M 459.707 432.233 C 459.477 432.448 458.885 432.603 458.557 432.523 C 457.899 432.364 457.323 432.008 456.689 431.767 C 456.332 431.631 455.849 431.407 455.57 431.5 C 454.654 431.807 454.1 431.42 453.416 431.066 C 452.753 430.724 451.971 430.524 451.225 430.288 C 450.24 429.976 449.192 429.764 448.271 429.362 C 447.893 429.197 447.487 428.58 447.598 428.293 C 447.861 427.625 448.687 427.444 449.452 427.758 C 450.112 428.027 450.618 428.521 451.263 428.819 C 451.7 429.021 452.307 429.224 452.755 429.143 C 455.049 428.72 455.038 428.688 456.443 429.984 C 457.164 429.83 457.773 429.576 458.364 429.603 C 459.405 429.651 460.392 431.6 459.707 432.233 Z  M 439.056 416.876 C 439.103 416.765 439.792 416.679 439.853 416.752 C 440.263 417.254 440.584 417.801 441.035 418.49 C 440.568 418.94 440.184 419.31 439.8 419.68 C 439.356 419.348 438.593 419.048 438.538 418.681 C 438.451 418.1 438.797 417.462 439.056 416.876 Z  M 482.998 429.576 C 481.316 432.275 479.36 434.829 476.483 436.847 C 473.93 438.637 470.803 439.212 467.526 439.116 C 459.391 438.878 451.584 437.574 444.429 434.315 C 440.671 432.602 438.488 429.959 437.227 426.762 C 437.092 426.42 437.137 426.033 437.065 425.363 C 437.774 425.686 438.261 425.841 438.641 426.097 C 442.156 428.435 445.935 430.431 450.21 431.788 C 454.686 433.21 459.323 434.077 464.145 434.32 C 465.806 434.402 467.467 434.541 469.114 434.735 C 472.55 435.14 475.311 434.125 477.734 432.298 C 478.828 431.472 479.925 430.644 481.062 429.857 C 481.609 429.479 482.255 429.189 482.855 428.859 C 482.946 428.926 483.04 428.993 483.134 429.059 C 483.091 429.231 483.093 429.423 482.998 429.576 Z  M 488.927 423.457 C 488.704 423.675 488.299 423.776 487.977 423.933 C 487.821 423.671 487.576 423.417 487.527 423.144 C 487.45 422.71 487.511 422.263 487.505 421.82 C 487.494 421.016 487.069 420.525 485.982 420.434 C 479.861 419.917 473.974 418.647 468.171 417.052 C 464.299 415.986 460.366 415.054 456.44 414.114 C 454.931 413.752 453.364 413.542 451.829 413.246 C 451.427 413.168 451.045 413.024 450.654 412.91 C 450.66 412.787 450.668 412.665 450.676 412.542 C 452.018 412.495 453.364 412.389 454.705 412.412 C 460.498 412.505 466.074 413.651 471.659 414.717 C 476.163 415.578 480.636 416.553 484.654 418.444 C 486.101 419.125 487.381 420.065 488.605 420.997 C 489.646 421.79 489.693 422.701 488.927 423.457 Z  M 460.44 396.07 C 461.714 395.901 463.072 396.155 464.392 396.163 C 464.925 396.167 465.457 396.017 465.989 395.936 C 465.631 395.561 465.292 395.172 464.904 394.817 C 464.795 394.717 464.541 394.672 464.356 394.675 C 462.548 394.709 460.724 394.645 458.942 394.833 C 457.071 395.032 456.492 395.64 456.229 397.13 C 456.101 397.846 456.036 398.568 455.946 399.285 C 455.551 401.869 457.79 403.038 460.369 404.1 C 460.808 404.281 461.443 404.208 461.983 404.183 C 464.429 404.065 466.905 403.663 469.306 403.856 C 471.952 404.067 474.687 404.604 475.611 407.144 C 475.839 407.771 476.46 407.715 477.017 407.335 C 477.957 406.694 477.906 405.777 476.813 404.975 C 474.898 403.569 472.583 402.805 470.043 402.44 C 467.587 402.088 465.168 401.843 463.008 403.243 C 462.784 403.388 462.122 403.263 461.778 403.103 C 460.963 402.729 460.24 402.226 459.436 401.832 C 457.829 401.043 457.127 400.054 457.442 398.692 C 457.754 397.35 458.719 396.301 460.44 396.07 Z  M 462.894 379.123 C 460.233 380.131 457.491 380.128 454.821 379.318 C 452.325 378.562 449.944 377.568 447.502 376.697 C 446.968 376.506 446.39 376.394 445.832 376.246 C 445.74 376.348 445.65 376.45 445.557 376.554 C 445.931 376.96 446.233 377.429 446.691 377.763 C 449.367 379.711 452.627 380.694 456.132 381.228 C 458.42 381.577 460.641 381.387 462.667 380.438 C 463.294 380.146 463.765 379.646 464.306 379.242 L 463.977 378.89 C 463.616 378.967 463.226 378.997 462.894 379.123 Z  M 436.654 401.801 C 431.517 406.948 428.413 412.726 428.327 419.389 C 428.327 419.673 428.254 419.972 428.342 420.238 C 428.537 420.833 428.813 421.412 429.056 421.996 C 429.439 421.422 430.057 420.873 430.162 420.268 C 430.512 418.275 430.578 416.25 430.936 414.261 C 431.371 411.861 432.089 409.516 433.816 407.438 C 436.864 403.77 440.603 400.606 444.884 397.841 C 446.824 396.59 448.821 395.372 451.299 394.855 C 452.251 394.656 453.284 394.696 454.223 394.472 C 454.732 394.352 455.121 393.912 455.566 393.615 C 455.096 393.468 454.613 393.17 454.156 393.194 C 451.099 393.357 448.278 394.146 445.651 395.383 C 442.118 397.05 439.185 399.267 436.654 401.801 Z " fill="rgb(19,19,19)"/></g></g></g></g></svg>