<?xml version="1.0" standalone="no"?><!-- Generator: Gravit.io --><svg xmlns="http://www.w3.org/2000/svg" xmlns:xlink="http://www.w3.org/1999/xlink" style="isolation:isolate" viewBox="5 203 200 200" width="200" height="200"><defs><clipPath id="_clipPath_yxvrEBHEWMlxhYYsRWCpbmmYp9mSkxZI"><rect x="5" y="203" width="200" height="200"/></clipPath></defs><g clip-path="url(#_clipPath_yxvrEBHEWMlxhYYsRWCpbmmYp9mSkxZI)"><g><g><rect x="5" y="203" width="200" height="200" transform="matrix(1,0,0,1,0,0)" fill="rgb(255,255,255)"/></g><g><g><path d=" M 8.809 396.187 C 9.148 394.602 9.723 392.906 10.087 392.418 C 10.451 391.931 10.991 390.515 11.287 389.272 C 11.582 388.03 14.421 384.438 17.595 381.291 C 20.769 378.143 23.376 375.247 23.388 374.854 C 23.426 373.622 30.522 363.607 33.46 360.64 C 35.005 359.08 38.464 356.086 41.147 353.988 C 50.318 346.813 65.874 333.001 65.926 331.986 C 65.955 331.428 65.38 330.742 64.648 330.461 C 63.917 330.181 63.318 329.557 63.318 329.076 C 63.318 328.594 62.347 326.769 61.16 325.02 C 58.216 320.683 56.565 315.317 54.47 303.29 C 51.736 287.586 52.018 275.29 55.402 262.694 C 58.061 252.797 62.545 240.054 65.971 232.658 C 69.023 226.068 88.231 211.97 94.18 211.953 C 95.79 211.948 98.214 211.372 99.567 210.672 C 104.43 208.157 117.301 206.374 126.164 206.986 C 138.882 207.865 147.728 211.135 169.312 222.939 C 172.204 224.52 182.428 232.585 184.599 234.997 C 190.962 242.068 197.076 255.087 200.289 268.41 C 202.89 279.192 200.565 306.165 195.792 320.583 C 194.545 324.351 188.229 334.288 186.629 334.999 C 186.349 335.124 184.082 337.119 181.59 339.433 C 178.15 342.629 174.401 344.772 166.003 348.342 C 151.689 354.427 147.587 355.614 140.885 355.614 C 137.102 355.614 135.029 356.026 134.283 356.924 C 133.13 358.313 134.578 359.877 142.339 365.625 L 145.678 368.097 L 145.958 365.181 C 146.349 361.115 148.621 361.369 149.619 365.591 C 150.092 367.592 150.931 368.917 151.726 368.917 C 152.774 368.917 152.923 368.188 152.446 365.369 C 151.974 362.572 152.122 361.822 153.147 361.822 C 155.192 361.822 156.82 364.412 156.599 367.312 C 156.327 370.877 158.331 370.174 159.32 366.357 C 160.152 363.146 162.037 363.049 162.497 366.194 C 162.955 369.322 161.915 372.293 160.206 372.74 C 159.039 373.045 159.149 373.171 160.65 373.248 C 161.747 373.305 162.645 372.952 162.645 372.464 C 162.645 371.976 163.244 371.577 163.976 371.577 C 165.567 371.577 165.739 374.336 164.242 375.834 C 162.578 377.498 157.8 377.085 155.218 375.054 C 153.928 374.039 152.49 373.341 152.023 373.502 C 150.982 373.86 151.666 374.835 155.215 378.05 L 157.955 380.532 L 162.058 378.351 C 168.395 374.981 177.899 368.451 180.622 365.594 C 183.077 363.019 183.078 363.015 181.287 361.395 C 180.302 360.503 179.495 359.224 179.495 358.553 C 179.495 356.535 182.13 356.142 183.595 357.942 C 184.339 358.856 184.7 359.114 184.398 358.515 C 184.095 357.915 184.277 356.622 184.802 355.641 C 185.614 354.124 186.017 354.021 187.503 354.949 C 188.464 355.55 189.298 357.042 189.356 358.266 C 189.451 360.289 189.512 360.25 190.03 357.831 C 190.879 353.858 193.242 354.348 193.242 358.497 C 193.242 360.326 193.313 361.823 193.4 361.823 C 193.487 361.822 194.182 361.198 194.945 360.435 C 196.459 358.922 198.119 359.425 198.119 361.396 C 198.119 362.08 197.221 363.488 196.124 364.524 C 194.478 366.078 193.437 366.316 190.187 365.882 C 186.679 365.414 185.947 365.64 183.535 367.941 C 178.016 373.206 160.779 383.993 157.884 383.993 C 157.124 383.993 153.872 381.533 150.657 378.525 L 144.812 373.057 L 139.078 375.081 C 135.924 376.195 130.658 377.282 127.375 377.497 C 116.973 378.18 118.188 376.939 108.204 397.067 C 107.621 398.241 106.4 399.059 105.222 399.063 C 102.612 399.072 102.693 398.48 106.022 393.257 C 109.781 387.359 113.104 379.739 112.17 379.162 C 111.469 378.729 110.182 379.029 102.727 381.364 C 100.087 382.191 99.709 381.917 89.424 371.732 C 83.602 365.967 76.643 358.734 73.96 355.659 C 71.278 352.585 67.977 348.996 66.627 347.685 C 65.276 346.374 64.444 345.028 64.779 344.693 C 66.36 343.112 68.757 344.538 73.074 349.628 C 75.66 352.676 83.001 360.28 89.388 366.525 C 98.475 375.41 101.387 377.769 102.778 377.376 C 103.756 377.1 106.352 376.654 108.547 376.386 C 116.208 375.448 116.421 375.312 120.668 368.673 C 122.922 365.149 125.906 360.877 127.299 359.181 C 128.692 357.485 129.832 355.789 129.832 355.412 C 129.832 355.035 127.737 354.726 125.176 354.724 C 109.572 354.712 91.717 348.82 76.249 338.576 C 72.727 336.244 70.391 335.262 69.154 335.591 C 68.139 335.862 65.114 338.121 62.431 340.611 C 59.748 343.102 55.758 346.596 53.563 348.376 C 37.053 361.764 34.468 364.277 29.632 371.635 C 26.886 375.813 22.806 381.038 20.566 383.247 C 16.457 387.298 13.511 392.145 12.433 396.631 C 12.029 398.313 11.28 399.07 10.02 399.07 C 8.423 399.07 8.27 398.706 8.809 396.187 L 8.809 396.187 Z  M 137.047 371.892 L 142.045 370.415 L 136.61 365.675 C 133.621 363.068 130.888 360.935 130.537 360.935 C 129.736 360.935 122.737 371.171 122.737 372.342 C 122.737 372.815 122.238 373.44 121.628 373.728 C 119.273 374.844 132.311 373.292 137.047 371.892 L 137.047 371.892 Z  M 156.881 348.769 C 162.73 346.375 163.072 346.08 162.807 343.655 C 162.651 342.24 162.124 340.334 161.635 339.419 C 160.81 337.879 160.587 337.859 158.622 339.147 C 155.745 341.032 153.636 340.911 143.532 338.286 C 137.803 336.797 134.569 336.333 133.987 336.914 C 133.435 337.467 132.537 337.488 131.572 336.972 C 130.4 336.345 130.065 336.49 130.156 337.583 C 130.222 338.372 129.776 339.192 129.167 339.407 C 127.566 339.972 127.783 336.506 129.452 334.836 C 131.448 332.84 136.166 332.722 138.7 334.604 C 139.432 335.147 138.833 334.277 137.37 332.67 L 134.709 329.749 L 137.148 330.851 C 138.49 331.458 139.587 332.225 139.587 332.556 C 139.587 334.018 150.85 337.852 155.191 337.867 C 159.017 337.881 161.305 335.11 161.187 330.607 C 161.048 325.286 156.881 323.385 156.881 328.643 C 156.881 330.75 156.472 331.265 154.664 331.438 L 152.446 331.651 L 154.499 330.781 C 155.628 330.302 156.303 329.508 155.999 329.016 C 155.214 327.747 152.895 327.905 152.862 329.23 C 152.845 329.877 152.315 329.654 151.588 328.694 C 150.902 327.79 149.821 327.223 149.185 327.435 C 148.549 327.647 147.472 327.264 146.791 326.584 C 145.986 325.779 145.252 325.649 144.688 326.214 C 143.44 327.461 144.688 329.006 146.956 329.022 C 148.025 329.029 149.498 329.46 150.229 329.98 C 151.23 330.689 150.66 330.822 147.933 330.513 C 145.742 330.265 142.308 328.776 139.262 326.753 L 134.218 323.404 L 132.434 325.32 C 131.452 326.373 130.509 327.235 130.337 327.235 C 130.166 327.235 131.115 324.541 132.447 321.249 C 135.463 313.792 136.379 309.498 134.953 309.498 C 134.168 309.498 134.173 309.236 134.976 308.434 C 136.319 307.09 136.366 304.177 135.044 304.177 C 132.719 304.177 136.268 301.727 140.85 300.169 C 144.822 298.819 146.108 298.713 148.01 299.58 C 149.286 300.161 150.084 301.034 149.784 301.52 C 149.476 302.018 150.227 302.403 151.507 302.403 C 154.179 302.403 154.548 300.291 152.309 297.817 C 151.383 296.794 151.231 296.195 151.897 296.195 C 152.644 296.195 152.699 295.722 152.087 294.577 C 151.18 292.884 145.761 290.869 142.145 290.881 C 139.7 290.889 137.182 295.032 138.7 296.55 C 139.964 297.813 139.797 298.856 138.331 298.856 C 137.64 298.856 136.873 299.354 136.627 299.964 C 135.504 302.748 136.19 295.994 137.37 292.648 C 138.102 290.574 138.713 287.63 138.729 286.106 C 138.744 284.583 139.311 282.605 139.988 281.712 C 140.926 280.474 141 279.462 140.3 277.454 C 139.795 276.005 139.628 274.574 139.928 274.274 C 140.228 273.974 140.474 274.194 140.474 274.763 C 140.474 275.332 141.272 275.797 142.248 275.797 C 143.223 275.797 144.021 276.097 144.021 276.463 C 144.021 276.828 145.312 277.09 146.89 277.043 C 148.962 276.982 150.023 277.475 150.711 278.817 C 151.235 279.839 152.323 280.622 153.129 280.558 C 153.935 280.493 154.51 280.892 154.407 281.445 C 154.304 281.997 154.888 282.339 155.705 282.204 C 156.557 282.063 157.433 282.724 157.76 283.756 C 158.074 284.744 158.783 285.553 159.335 285.553 C 160.05 285.553 160.033 285.246 159.275 284.489 C 157.464 282.677 158.105 281.635 159.985 283.336 C 162.474 285.588 162.228 286.131 158.438 286.746 C 155.611 287.205 154.795 286.937 152.944 284.941 C 151.646 283.541 150.631 283.016 150.424 283.637 C 150.234 284.209 149.63 284.4 149.083 284.062 C 147.557 283.119 143.926 282.908 144.474 283.793 C 144.74 284.224 144.124 285.023 143.105 285.568 C 140.307 287.066 141.512 288.65 145.496 288.711 C 149.558 288.772 154.664 291.907 154.664 294.339 C 154.664 296.334 158.208 297.969 162.532 297.969 C 166.736 297.969 169.606 295.158 170.325 290.336 C 170.813 287.062 170.767 286.975 169.431 288.657 C 168.068 290.374 168.022 290.34 167.995 287.601 C 167.979 286.044 167.561 284.52 167.065 284.214 C 166.569 283.907 166.376 283.313 166.636 282.892 C 166.896 282.472 166.703 281.877 166.207 281.571 C 165.711 281.265 165.306 281.503 165.306 282.101 C 165.306 284.439 164.238 281.96 163.961 278.978 C 163.8 277.24 162.827 273.572 161.799 270.826 C 160.772 268.08 160.164 264.982 160.447 263.942 C 160.926 262.188 160.873 262.164 159.711 263.603 C 158.015 265.705 157.692 265.566 157.733 262.757 C 157.764 260.636 157.331 260.27 153.998 259.6 C 151.925 259.184 150.229 258.44 150.229 257.949 C 150.229 257.414 151.031 257.324 152.225 257.725 C 154.448 258.471 160.872 258.781 160.872 258.141 C 160.872 257.23 156.942 253.626 155.948 253.626 C 155.361 253.626 154.391 253.036 153.792 252.315 C 152.984 251.341 152.271 251.235 151.023 251.902 C 149.273 252.839 148.54 251.566 150.229 250.522 C 151.895 249.493 151.118 247.332 147.903 244.049 C 146.135 242.244 143.678 239.179 142.443 237.239 C 139.844 233.157 138.387 231.574 135.378 229.564 C 134.186 228.768 133.599 227.876 134.074 227.583 C 135.001 227.01 143.135 233.732 143.135 235.071 C 143.135 235.87 144.756 237.899 149.695 243.286 C 151.109 244.827 151.944 245.526 151.552 244.84 C 151.022 243.911 151.272 243.699 152.53 244.012 C 153.735 244.311 155.239 243.225 157.768 240.231 C 161.85 235.397 166.719 232.513 168.236 234.03 C 168.941 234.735 168.88 235.002 168.013 235.002 C 166.624 235.002 159.272 240.775 157.324 243.395 C 154.968 246.564 154.657 250.072 156.563 251.978 C 157.505 252.92 158.56 253.532 158.909 253.337 C 159.257 253.143 161.836 252.276 164.641 251.41 C 167.585 250.501 169.74 249.325 169.74 248.627 C 169.74 247.962 170.182 247.418 170.722 247.418 C 171.262 247.418 171.5 247.917 171.25 248.527 C 169.536 252.72 169.537 252.739 171.447 252.739 C 175.702 252.739 183.043 257.338 183.043 260.003 C 183.043 260.583 181.847 259.835 180.386 258.34 C 177.631 255.523 174.576 254.513 168.803 254.513 C 164.527 254.513 161.727 257.946 161.821 263.075 C 161.894 267.084 162.974 270.323 163.795 268.995 C 164.107 268.49 163.888 266.818 163.308 265.28 C 162.344 262.728 162.458 262.279 164.608 260.128 C 166.413 258.324 168.078 257.68 171.719 257.378 C 175.899 257.032 176.817 257.273 179.315 259.375 C 182.06 261.685 183.092 264.268 181.269 264.268 C 180.781 264.268 180.382 263.732 180.382 263.076 C 180.382 260.048 172.719 256.884 169.935 258.762 C 169.019 259.38 169.041 259.994 170.048 261.935 C 171.013 263.794 171.415 264.03 171.821 262.974 C 172.446 261.345 176.9 261.141 178.431 262.672 C 180.247 264.488 179.669 267.452 177.289 268.537 C 174.247 269.922 172.625 269.072 170.549 265.003 C 169.572 263.088 168.152 261.283 167.393 260.992 C 165.924 260.428 164.446 262.071 164.446 264.268 C 164.446 265.305 164.607 265.345 165.176 264.448 C 165.763 263.522 166.117 263.552 166.985 264.598 C 167.855 265.647 167.754 266.08 166.464 266.83 C 165.583 267.343 165.286 267.774 165.804 267.789 C 166.321 267.804 167.639 268.649 168.732 269.667 C 169.902 270.757 171.309 271.291 172.154 270.967 C 172.943 270.664 173.901 270.921 174.282 271.538 C 175.16 272.958 179.411 270.001 181.034 266.843 L 182.13 264.712 L 182.143 266.984 C 182.159 269.886 177.923 273.137 174.125 273.137 C 172.596 273.137 170.188 272.314 168.774 271.307 C 166.374 269.598 164.419 269.607 164.419 271.328 C 164.419 272.615 170.559 275.766 174.203 276.348 C 176.121 276.655 177.482 277.242 177.228 277.653 C 176.571 278.715 171.583 277.649 168.188 275.721 C 166.603 274.82 165.306 274.221 165.306 274.389 C 165.306 275.466 168.448 281.894 169.838 283.662 C 172.084 286.517 172.104 293.42 169.875 296.297 C 168.974 297.46 167.969 299.51 167.641 300.851 C 167.31 302.208 166.435 303.29 165.669 303.29 C 164.445 303.29 164.44 303.438 165.622 304.62 C 166.354 305.352 167.58 305.95 168.346 305.95 C 169.113 305.95 169.77 306.25 169.806 306.616 C 169.842 306.981 170.043 308.203 170.252 309.33 C 170.502 310.675 170.294 311.17 169.648 310.771 C 168.976 310.356 168.864 310.796 169.296 312.158 C 169.728 313.518 169.617 313.961 168.948 313.547 C 168.28 313.134 167.946 314.444 167.904 317.649 C 167.87 320.238 167.494 323.155 167.069 324.131 C 166.315 325.861 166.281 325.856 165.706 323.941 C 165.201 322.263 164.936 322.157 163.88 323.212 C 161.982 325.111 162.312 328.122 164.419 328.122 C 165.394 328.122 166.193 328.483 166.193 328.925 C 166.193 329.368 165.394 329.521 164.419 329.265 C 162.864 328.859 162.645 329.238 162.645 332.34 C 162.645 335.545 165.618 344.085 166.734 344.085 C 169.121 344.085 177.532 338.712 182.26 334.167 C 191.078 325.691 192.496 322.279 196.384 300.186 C 200.612 276.162 196.559 256.894 183.711 239.939 C 176.316 230.179 160.327 220.196 141.804 213.775 C 129.626 209.553 113.526 209.397 102.936 213.399 C 100.901 214.168 96.553 215.531 93.274 216.428 C 87.48 218.014 82.108 221.323 74.847 227.78 C 73.14 229.298 71.493 230.546 71.187 230.554 C 69.791 230.59 62.193 250.917 58.789 263.722 C 55.044 277.812 55.386 292.458 59.928 312.561 C 61.882 321.208 68.13 330.782 71.819 330.782 C 72.46 330.782 73.304 331.303 73.694 331.94 C 76.088 335.846 93.086 345 102.783 347.604 C 104.791 348.144 107.645 347.567 107.439 346.663 C 107.317 346.13 108.015 345.232 108.991 344.668 C 109.966 344.103 110.964 343.442 111.208 343.198 C 111.452 342.954 112.449 342.319 113.425 341.787 C 114.401 341.255 116.396 339.184 117.859 337.185 C 121.201 332.621 122.289 332.448 120.487 336.768 C 119.725 338.598 116.867 342.143 114.137 344.646 L 109.173 349.198 L 115.29 350.212 C 123.64 351.596 129.453 351.907 140.917 351.584 C 149.231 351.35 151.59 350.933 156.881 348.769 L 156.881 348.769 Z  M 127.171 348.467 C 127.171 347.95 127.57 347.774 128.058 348.076 C 128.546 348.377 128.945 348.8 128.945 349.015 C 128.945 349.23 128.546 349.406 128.058 349.406 C 127.57 349.406 127.171 348.983 127.171 348.467 Z  M 123.624 345.444 C 123.624 342.394 126.558 334.459 128.614 331.946 C 129.737 330.574 130.669 329.922 130.687 330.497 C 130.704 331.072 130.215 332.07 129.6 332.714 C 127.651 334.756 126.036 339.125 127.1 339.479 C 128.516 339.951 128.296 340.758 125.841 344.085 C 124.169 346.351 123.624 346.685 123.624 345.444 L 123.624 345.444 Z  M 167.966 325.018 C 167.966 324.286 168.365 323.687 168.853 323.687 C 169.341 323.687 169.74 324.286 169.74 325.018 C 169.74 325.749 169.341 326.348 168.853 326.348 C 168.365 326.348 167.966 325.749 167.966 325.018 Z  M 98.792 318.893 C 98.792 318.082 99.413 317.808 100.566 318.109 C 101.541 318.364 102.339 318.926 102.339 319.357 C 102.339 319.787 101.541 320.14 100.566 320.14 C 99.59 320.14 98.792 319.579 98.792 318.893 Z  M 112.647 303.698 C 111.825 301.555 112.003 300.892 112.995 302.403 C 113.771 303.585 113.972 303.585 114.803 302.403 C 115.584 301.291 115.693 301.352 115.468 302.773 C 115.119 304.974 113.359 305.552 112.647 303.698 L 112.647 303.698 Z  M 84.824 301.766 C 84.214 301.547 83.716 300.803 83.716 300.112 C 83.716 298.515 84.394 298.52 86.003 300.129 C 87.356 301.482 86.674 302.429 84.824 301.766 L 84.824 301.766 Z  M 99.309 298.088 C 98.927 297.47 98.854 296.724 99.147 296.432 C 99.94 295.638 100.806 296.805 100.377 298.091 C 100.077 298.993 99.868 298.992 99.309 298.088 L 99.309 298.088 Z  M 162.818 287.77 C 162.836 286.307 163.035 285.815 163.26 286.678 C 163.485 287.541 163.47 288.738 163.227 289.339 C 162.984 289.939 162.8 289.233 162.818 287.77 L 162.818 287.77 Z  M 165.306 286.883 C 165.306 286.151 165.705 285.553 166.193 285.553 C 166.68 285.553 167.08 286.151 167.08 286.883 C 167.08 287.615 166.68 288.213 166.193 288.213 C 165.705 288.213 165.306 287.615 165.306 286.883 Z  M 151.597 279.406 C 151.317 278.952 151.493 278.33 151.989 278.024 C 152.484 277.717 152.89 278.089 152.89 278.849 C 152.89 280.407 152.358 280.636 151.597 279.406 Z  M 119.879 275.724 L 117.859 273.997 L 120.31 274.553 C 121.672 274.862 123.294 274.665 123.963 274.111 C 124.624 273.562 126.115 273.265 127.277 273.451 C 128.493 273.646 131.396 272.681 134.122 271.176 C 140.027 267.916 141.023 268.53 135.901 272.273 C 129.225 277.15 123.092 278.472 119.879 275.724 L 119.879 275.724 Z  M 109.755 273.58 C 108.99 271.586 110.059 269.58 111.845 269.66 C 112.774 269.701 112.968 269.914 112.317 270.177 C 110.376 270.96 110.995 273.324 112.976 272.695 C 114.333 272.264 114.62 272.457 114.211 273.522 C 113.533 275.291 110.427 275.331 109.755 273.58 L 109.755 273.58 Z  M 112.456 266.838 C 111.613 265.906 111.187 264.881 111.509 264.559 C 111.831 264.236 112.101 264.538 112.108 265.229 C 112.12 266.296 112.244 266.293 112.932 265.206 C 113.592 264.162 114.17 264.121 116.064 264.984 C 117.341 265.566 120.969 266.042 124.127 266.042 C 130.319 266.042 135.301 263.785 138.181 259.674 C 140.348 256.58 139.897 254.362 135.957 248.738 C 133.96 245.888 131.68 242.569 130.891 241.364 C 129.511 239.258 129.522 239.211 131.195 240.157 C 132.153 240.699 134.301 242.367 135.969 243.864 C 137.637 245.36 140.94 247.64 143.31 248.93 C 147.69 251.314 147.707 252.696 143.356 252.726 C 142.259 252.733 141.361 253.138 141.361 253.626 C 141.361 254.114 143.38 254.513 145.847 254.513 C 148.69 254.513 150.128 254.847 149.771 255.423 C 149.462 255.924 148.74 256.276 148.167 256.205 C 147.594 256.135 145.928 256.136 144.465 256.209 C 142.013 256.33 141.944 256.419 143.578 257.344 C 144.554 257.895 145.646 258.836 146.005 259.435 C 146.365 260.033 147.762 260.798 149.109 261.135 C 150.457 261.471 152.327 262.413 153.264 263.229 C 154.202 264.045 154.694 264.241 154.358 263.665 C 154.022 263.089 154.142 262.374 154.623 262.076 C 155.901 261.287 156.754 265.634 155.693 267.53 C 154.871 268.999 154.703 268.923 153.855 266.691 C 152.956 264.327 149.916 262.495 146.89 262.495 C 145.763 262.495 145.677 262.731 146.505 263.559 C 147.09 264.144 147.569 265.212 147.569 265.931 C 147.569 266.886 146.99 266.694 145.416 265.215 C 144.232 264.103 143.476 262.637 143.737 261.957 C 144.493 259.986 141.33 260.485 139.469 262.63 C 138.559 263.681 137.807 264.179 137.8 263.739 C 137.793 263.299 137.493 263.365 137.135 263.886 C 135.71 265.959 128.268 268.011 121.245 268.266 C 115.023 268.493 113.769 268.289 112.456 266.838 L 112.456 266.838 Z  M 117.157 262.458 C 111.322 259.304 110.449 251.434 115.638 248.751 C 123.09 244.897 132.932 249.63 132.329 256.777 C 131.809 262.944 123.686 265.986 117.157 262.458 Z  M 123.759 261.378 C 123.929 261.78 125.265 261.883 126.728 261.608 L 129.388 261.107 L 127.023 259.53 C 125.009 258.187 124.376 258.125 122.753 259.115 C 121.07 260.142 120.648 260.034 119.132 258.184 C 117.172 255.792 116.937 253.573 118.48 252.03 C 121.005 249.505 126.41 252.285 125.776 255.782 C 125.513 257.23 126.062 257.923 128.075 258.682 L 130.719 259.68 L 130.719 256.23 C 130.719 252.501 128.986 250.73 123.915 249.276 C 118.058 247.596 111.413 253.471 113.904 258.128 C 115.041 260.251 118.069 261.887 119.702 261.261 C 120.396 260.994 120.963 261.212 120.963 261.744 C 120.963 262.412 121.348 262.392 122.207 261.679 C 122.892 261.112 123.59 260.976 123.759 261.378 L 123.759 261.378 Z  M 154.22 257.174 C 153.919 256.686 154.294 256.287 155.055 256.287 C 155.815 256.287 156.437 256.686 156.437 257.174 C 156.437 257.661 156.062 258.06 155.603 258.06 C 155.144 258.06 154.522 257.661 154.22 257.174 Z  M 135.139 254.883 C 135.12 252.509 129.15 246.2 125.264 244.446 C 123.483 243.642 120.789 242.984 119.277 242.984 C 117.766 242.984 116.529 242.585 116.529 242.097 C 116.529 240.776 122.352 241.026 125.876 242.498 C 131.321 244.773 137.886 253.849 135.681 256.055 C 135.39 256.345 135.147 255.817 135.139 254.883 L 135.139 254.883 Z  M 149.544 240.989 C 149.002 239.891 148.299 237.669 147.98 236.051 C 147.662 234.433 146.843 232.039 146.16 230.73 C 145.478 229.422 144.912 227.752 144.903 227.021 C 144.894 226.289 143.933 224.022 142.767 221.983 C 140.18 217.459 140.818 216.338 143.969 219.868 C 146.695 222.921 148.999 229.149 149.814 235.667 C 150.134 238.227 150.757 240.545 151.199 240.818 C 152.207 241.441 152.254 242.984 151.266 242.984 C 150.861 242.984 150.086 242.086 149.544 240.989 Z  M 153.777 235.18 C 153.777 234.79 154.276 233.968 154.885 233.354 C 155.774 232.458 155.666 232.361 154.34 232.867 C 152.67 233.503 152.684 232.792 154.437 228.129 C 154.666 227.52 154.412 227.021 153.872 227.021 C 153.332 227.021 152.884 225.923 152.876 224.582 C 152.867 222.876 152.633 222.505 152.1 223.346 C 150.808 225.386 150.026 222.844 151.258 220.609 C 152.215 218.874 152.414 218.81 152.694 220.148 C 152.873 221.001 153.534 221.7 154.162 221.7 C 154.903 221.7 155.155 222.48 154.88 223.922 C 154.324 226.83 155.902 228.614 159.653 229.317 C 161.919 229.742 162.462 230.164 161.789 230.974 C 161.293 231.572 161.15 232.324 161.47 232.645 C 161.791 232.966 160.778 233.229 159.218 233.229 C 157.515 233.229 156.178 233.76 155.871 234.559 C 155.338 235.948 153.777 236.411 153.777 235.18 L 153.777 235.18 Z  M 158.211 230.568 C 156.474 229.446 155.3 229.446 155.994 230.568 C 156.295 231.056 157.217 231.449 158.042 231.441 C 159.334 231.43 159.357 231.309 158.211 230.568 Z  M 123.624 227.021 C 123.624 226.533 124.222 226.134 124.954 226.134 C 125.686 226.134 126.284 226.533 126.284 227.021 C 126.284 227.508 125.686 227.908 124.954 227.908 C 124.222 227.908 123.624 227.508 123.624 227.021 Z  M 115.224 222.627 C 114.487 221.436 115.652 217.265 116.721 217.265 C 117.224 217.265 117.367 218.225 117.052 219.483 C 116.634 221.146 116.845 221.7 117.895 221.7 C 118.664 221.7 119.048 222.099 118.746 222.586 C 118.051 223.712 115.91 223.737 115.224 222.627 Z  M 143.135 325.932 C 143.135 325.139 142.615 324.829 141.804 325.14 C 140.962 325.464 140.474 325.128 140.474 324.226 C 140.474 323.442 139.875 322.801 139.144 322.801 C 137.21 322.801 137.514 324.149 139.809 325.75 C 142.346 327.519 143.135 327.563 143.135 325.932 Z  M 149.343 324.279 C 149.343 323.559 148.313 323.096 146.715 323.096 C 144.37 323.096 144.25 323.221 145.606 324.25 C 147.587 325.755 149.343 325.768 149.343 324.279 L 149.343 324.279 Z  M 152.687 323.854 C 152.88 323.274 152.406 322.801 151.634 322.801 C 150.861 322.801 150.229 323.432 150.229 324.205 C 150.229 325.771 152.139 325.498 152.687 323.854 L 152.687 323.854 Z  M 136.04 321.418 C 136.04 320.657 135.641 320.282 135.153 320.583 C 134.665 320.885 134.266 321.507 134.266 321.966 C 134.266 322.425 134.665 322.801 135.153 322.801 C 135.641 322.801 136.04 322.178 136.04 321.418 Z  M 163.749 319.028 C 165.43 316.824 165.849 315.411 165.522 313.042 C 165.084 309.857 162.064 305.657 160.782 306.449 C 160.386 306.694 158.6 306.282 156.811 305.535 C 152.911 303.906 149.202 303.785 147.746 305.241 C 147.155 305.832 146.682 305.911 146.682 305.418 C 146.682 304.931 147.161 304.053 147.746 303.467 C 148.332 302.882 148.473 302.403 148.061 302.403 C 146.604 302.403 136.927 313.34 136.927 314.986 C 136.927 316.438 137.186 316.518 138.922 315.6 C 140.019 315.019 142.486 313.209 144.403 311.577 C 146.32 309.946 148.79 308.611 149.893 308.611 C 150.996 308.611 152.17 308.172 152.502 307.635 C 153.454 306.094 157.753 307.401 160.673 310.121 C 162.868 312.164 163.259 313.111 162.891 315.484 C 162.645 317.069 162.137 318.366 161.761 318.366 C 161.386 318.366 160.87 319.164 160.615 320.14 C 159.928 322.767 161.257 322.295 163.749 319.028 L 163.749 319.028 Z  M 142.248 309.054 C 142.855 308.323 143.95 307.724 144.682 307.724 C 145.764 307.724 145.806 307.972 144.908 309.054 C 144.301 309.786 143.206 310.385 142.474 310.385 C 141.392 310.385 141.35 310.136 142.248 309.054 Z  M 139.144 319.253 C 139.445 318.765 139.07 318.366 138.309 318.366 C 137.549 318.366 136.927 318.765 136.927 319.253 C 136.927 319.741 137.302 320.14 137.761 320.14 C 138.22 320.14 138.842 319.741 139.144 319.253 Z  M 155.95 317.579 C 155.486 317.146 154.209 316.521 153.112 316.189 C 151.491 315.7 151.116 315.931 151.116 317.42 C 151.116 319.426 152.495 319.915 153.156 318.145 C 153.432 317.405 153.791 317.572 154.235 318.648 C 154.706 319.79 155.175 319.983 155.846 319.313 C 156.441 318.717 156.479 318.074 155.95 317.579 Z  M 159.781 319.087 C 159.233 317.442 157.324 317.17 157.324 318.736 C 157.324 319.508 157.956 320.14 158.728 320.14 C 159.501 320.14 159.975 319.666 159.781 319.087 L 159.781 319.087 Z  M 141.804 317.479 C 142.106 316.992 141.93 316.593 141.413 316.593 C 140.897 316.593 140.474 316.992 140.474 317.479 C 140.474 317.967 140.65 318.366 140.865 318.366 C 141.08 318.366 141.503 317.967 141.804 317.479 Z  M 149.986 316.593 C 150.059 315.617 149.745 314.819 149.287 314.819 C 148.83 314.819 148.456 314.986 148.456 315.19 C 148.456 315.394 148.213 316.192 147.917 316.963 C 147.585 317.829 147.852 318.366 148.615 318.366 C 149.296 318.366 149.912 317.568 149.986 316.593 L 149.986 316.593 Z  M 145.795 315.706 C 145.795 314.72 145.204 313.932 144.465 313.932 C 143.115 313.932 142.646 315.808 143.726 316.888 C 144.85 318.013 145.795 317.473 145.795 315.706 L 145.795 315.706 Z  M 157.971 315.17 C 157.676 314.875 156.911 314.844 156.271 315.1 C 155.564 315.383 155.774 315.593 156.807 315.636 C 157.742 315.674 158.266 315.465 157.971 315.17 L 157.971 315.17 Z  M 151.596 313.104 C 150.866 311.923 147.569 311.852 147.569 313.017 C 147.569 313.49 148.127 313.662 148.809 313.4 C 149.492 313.139 150.33 313.377 150.672 313.931 C 151.014 314.484 151.493 314.737 151.737 314.493 C 151.981 314.25 151.918 313.624 151.596 313.104 Z  M 161.315 313.045 C 161.014 312.557 159.992 312.158 159.046 312.158 C 158.099 312.158 157.324 312.557 157.324 313.045 C 157.324 313.533 158.345 313.932 159.594 313.932 C 160.881 313.932 161.626 313.548 161.315 313.045 Z  M 155.55 312.253 C 155.55 311.338 153.391 310.385 151.318 310.385 C 150.139 310.385 150.191 310.612 151.612 311.687 C 153.554 313.156 155.55 313.443 155.55 312.253 L 155.55 312.253 Z  M 161.882 303.26 C 159.438 301.225 156.437 300.961 156.437 302.781 C 156.437 304.125 158.136 304.811 161.758 304.931 L 163.976 305.005 L 161.882 303.26 L 161.882 303.26 Z  M 145.795 281.119 C 145.795 280.631 145.372 280.232 144.856 280.232 C 144.339 280.232 144.163 280.631 144.465 281.119 C 144.766 281.606 145.189 282.005 145.404 282.005 C 145.619 282.005 145.795 281.606 145.795 281.119 L 145.795 281.119 Z  M 153.496 246.365 C 153.213 245.658 153.002 245.868 152.96 246.901 C 152.921 247.836 153.131 248.36 153.426 248.065 C 153.72 247.77 153.752 247.005 153.496 246.365 L 153.496 246.365 Z " fill="rgb(185,185,185)"/><path d=" M 8.333 398.63 C 8.333 398.388 9.177 395.694 10.209 392.644 C 11.64 388.41 13.302 385.838 17.228 381.776 C 20.058 378.849 24.248 373.661 26.541 370.247 C 31.872 362.309 33.826 360.222 42.477 353.233 C 46.379 350.081 53.405 344.07 58.09 339.876 L 66.608 332.251 L 63.192 327.748 C 61.314 325.271 58.972 320.832 57.988 317.883 C 53.709 305.057 51.242 278.257 53.624 270.471 C 54.145 268.767 55.349 264.18 56.3 260.278 C 58.07 253.014 61.709 242.856 65.706 234.023 C 67.484 230.094 69.32 227.959 74.469 223.835 C 83.227 216.82 91.466 211.944 94.563 211.944 C 95.962 211.944 98.184 211.398 99.501 210.73 C 100.818 210.062 105.949 208.846 110.902 208.028 C 126.193 205.504 141.483 208.295 156.881 216.421 C 170.547 223.633 171.771 224.417 180.779 231.728 C 184.141 234.456 190.63 243.162 193.47 248.755 C 198.011 257.695 201.667 272.64 201.667 282.261 C 201.667 289.104 198.044 312.349 195.803 319.884 C 194.087 325.654 190.611 330.63 183.631 337.313 C 178.521 342.206 175.41 344.021 161.315 350.337 C 154.788 353.261 145.157 355.582 139.474 355.599 C 131.662 355.623 131.434 357.064 138.34 362.778 C 146.301 369.366 146.382 369.396 145.946 365.668 C 145.638 363.026 145.831 362.586 147.184 362.846 C 148.125 363.027 149.095 364.345 149.534 366.036 C 150.614 370.206 153.302 370.026 152.621 365.829 C 152.044 362.276 153.165 361.083 155.183 363.102 C 156.167 364.085 156.4 365.295 155.977 367.222 C 155.43 369.711 155.559 369.924 157.459 369.655 C 158.979 369.44 159.617 368.702 159.822 366.921 C 160.245 363.249 162.645 363.771 162.645 367.536 C 162.645 369.686 162.062 370.998 160.674 371.97 C 158.779 373.298 158.773 373.351 160.497 373.351 C 161.483 373.351 162.756 372.885 163.326 372.316 C 164.825 370.817 165.836 373.861 164.41 375.579 C 163.018 377.257 157.87 377.294 156.494 375.637 C 155.919 374.943 154.27 373.965 152.83 373.463 C 150.41 372.619 150.282 372.678 151.12 374.245 C 151.619 375.177 153.438 377.016 155.163 378.331 L 158.299 380.723 L 162.024 378.65 C 164.073 377.509 166.747 375.895 167.966 375.063 C 169.186 374.231 172.507 372.05 175.347 370.218 C 178.186 368.385 181.137 365.929 181.903 364.76 C 183.203 362.775 183.169 362.515 181.396 360.863 C 179.258 358.872 179.02 357.786 180.517 356.861 C 181.079 356.514 182.02 356.89 182.61 357.696 C 184.128 359.772 184.817 359.517 184.817 356.879 C 184.817 353.497 187.67 354.461 188.979 358.285 L 190.038 361.379 L 190.088 358.496 C 190.128 356.163 190.497 355.614 192.025 355.614 C 193.746 355.614 193.859 355.943 193.313 359.355 L 192.715 363.096 L 194.861 361.081 C 196.857 359.205 197.048 359.176 197.619 360.663 C 198.046 361.777 197.53 362.864 195.909 364.258 C 193.349 366.46 190.982 366.771 188.182 365.272 C 186.607 364.429 186.044 364.671 184.249 366.965 C 181.166 370.904 160.639 383.993 157.544 383.993 C 157.145 383.993 154.281 381.563 151.179 378.593 C 146.988 374.58 145.059 373.303 143.672 373.622 C 142.645 373.857 138.648 374.89 134.789 375.918 C 130.931 376.945 125.692 377.785 123.147 377.785 C 120.522 377.785 118.126 378.265 117.609 378.894 C 117.108 379.504 114.596 384.132 112.028 389.179 C 109.459 394.226 106.84 398.553 106.208 398.796 C 103.309 399.908 103.486 398.156 106.852 392.416 C 110.978 385.379 113.442 379.724 112.704 378.985 C 112.296 378.577 104.561 380.209 101.009 381.453 C 100.16 381.75 79.997 362.119 69.228 350.51 C 65.35 346.33 64.412 344.837 65.42 344.45 C 67.36 343.706 68.962 344.856 73.584 350.312 C 79.267 357.02 82.185 360.089 92.07 369.756 L 100.638 378.134 L 104.605 377.073 C 106.787 376.489 110.164 376.012 112.109 376.012 C 115.437 376.012 115.878 375.684 119.578 370.469 C 121.74 367.42 124.763 363.181 126.296 361.049 C 130.597 355.067 130.59 354.728 126.158 354.722 C 119.496 354.713 105.72 352.243 98.792 349.816 C 91.857 347.386 79.054 340.891 78.542 339.543 C 78.38 339.114 77.899 338.764 77.473 338.764 C 77.048 338.764 75.222 337.761 73.417 336.536 C 70.301 334.421 70.017 334.381 67.835 335.739 C 66.57 336.526 64.937 337.828 64.205 338.632 C 62.938 340.024 51.276 350.139 47.691 352.953 C 44.473 355.48 36.266 362.26 35.35 363.148 C 34.845 363.638 32.361 367.232 29.83 371.134 C 27.299 375.036 23.055 380.424 20.398 383.106 C 16.929 386.61 14.986 389.541 13.503 393.514 C 12.056 397.386 10.972 399.048 9.885 399.057 C 9.032 399.064 8.333 398.872 8.333 398.63 L 8.333 398.63 Z  M 138.125 371.933 L 142.427 370.463 L 140.342 368.572 C 139.195 367.532 136.551 365.347 134.467 363.717 C 129.965 360.196 129.772 360.292 124.523 368.663 L 120.859 374.507 L 127.341 373.955 C 130.906 373.652 135.759 372.742 138.125 371.933 L 138.125 371.933 Z  M 155.703 349.779 C 157.982 348.904 160.701 347.543 161.746 346.755 C 163.51 345.424 163.571 345.024 162.597 341.156 C 162.02 338.865 161.196 336.99 160.766 336.99 C 160.336 336.99 159.985 337.374 159.985 337.843 C 159.985 338.312 158.449 339.109 156.572 339.615 C 153.796 340.362 151.85 340.176 146.151 338.617 C 142.297 337.563 137.049 336.616 134.488 336.513 C 130.46 336.35 129.832 336.549 129.832 337.988 C 129.832 338.902 129.532 339.653 129.167 339.657 C 128.801 339.66 127.546 341.066 126.378 342.781 C 125.21 344.495 124.093 345.737 123.896 345.54 C 123.095 344.738 124.789 340.538 125.914 340.538 C 126.581 340.538 127.79 339.241 128.602 337.655 C 129.415 336.07 130.522 334.48 131.064 334.121 C 132.72 333.026 135.986 333.367 138.288 334.875 C 141.19 336.777 141.066 335.837 138.044 333.035 C 134.788 330.016 136.011 330.186 140.67 333.401 C 144.828 336.27 153.809 338.506 157.478 337.586 C 160.193 336.904 162.045 333.059 161.392 329.459 C 160.82 326.304 159.622 325.07 157.805 325.767 C 156.762 326.167 156.55 326.951 156.99 328.767 L 157.587 331.226 L 155.7 329.009 C 154.102 327.132 153.679 326.995 152.943 328.117 C 152.191 329.263 151.906 329.215 150.843 327.761 C 149.989 326.592 149.419 326.393 148.978 327.107 C 148.517 327.854 147.974 327.767 146.997 326.79 C 145.504 325.296 144.021 325.765 144.021 327.731 C 144.021 329.395 142.757 329.361 141.344 327.658 C 140.407 326.529 140.462 326.399 141.679 326.866 C 142.68 327.25 143.135 326.95 143.135 325.905 C 143.135 324.965 142.66 324.567 141.892 324.861 C 141.127 325.155 140.456 324.6 140.147 323.42 C 139.759 321.936 139.406 321.74 138.59 322.557 C 137.773 323.373 137.817 323.969 138.782 325.187 C 139.975 326.69 139.923 326.692 137.623 325.224 C 134.604 323.297 132.842 323.272 132.123 325.145 C 131.815 325.946 131.368 326.407 131.13 326.168 C 130.891 325.929 131.639 323.577 132.793 320.941 C 133.946 318.306 135.156 315.052 135.481 313.71 C 135.807 312.369 136.465 311.272 136.944 311.272 C 137.422 311.272 137.813 310.849 137.813 310.332 C 137.813 309.816 137.498 309.588 137.112 309.827 C 136.726 310.065 136.369 308.991 136.318 307.44 C 136.268 305.889 136.084 304.071 135.911 303.401 C 135.724 302.675 136.674 301.856 138.257 301.379 C 139.72 300.938 142.192 300.172 143.749 299.677 C 145.816 299.02 147.056 299.074 148.339 299.876 C 149.963 300.889 149.984 301.057 148.611 302.063 C 147.342 302.994 147.577 303.13 150.229 302.999 C 153.603 302.833 155.074 300.974 153.445 298.936 C 152.896 298.248 152.446 296.652 152.446 295.388 C 152.446 293.471 151.896 292.955 149.121 292.27 C 147.292 291.818 145.795 291.166 145.795 290.821 C 145.795 290.476 144.538 290.292 143.001 290.413 C 139.661 290.676 136.975 294.56 138.698 296.636 C 139.476 297.574 139.291 298.065 137.871 298.825 C 135.469 300.11 135.463 298.738 137.838 291.688 C 138.827 288.752 139.409 285.983 139.132 285.534 C 138.855 285.085 139.255 283.506 140.021 282.024 C 141.048 280.037 141.174 278.88 140.501 277.622 C 139.239 275.264 139.335 275.011 141.299 275.525 C 142.389 275.809 142.824 276.462 142.495 277.318 C 142.05 278.477 142.275 278.506 144.109 277.525 C 145.28 276.898 146.239 276.356 146.239 276.32 C 146.239 276.285 148.085 277.582 150.341 279.202 C 154.074 281.882 157.119 286.054 156.093 287.08 C 155.867 287.306 154.803 286.481 153.73 285.247 C 152.172 283.455 151.168 283.08 148.748 283.39 C 146.239 283.711 145.762 283.511 145.978 282.227 C 146.144 281.241 145.672 280.675 144.687 280.675 C 143.833 280.675 143.169 281.03 143.21 281.463 C 143.252 281.896 142.914 282.495 142.46 282.793 C 142.006 283.092 141.372 284.406 141.052 285.714 C 140.408 288.35 141.359 288.928 146.398 288.96 C 149.935 288.983 153.64 291.349 154.308 294.011 C 155.287 297.913 163.363 299.483 167.359 296.548 C 168.619 295.622 169.93 293.668 170.272 292.204 C 170.614 290.741 171.064 290.037 171.273 290.64 C 171.483 291.244 170.625 293.913 169.367 296.572 C 168.109 299.231 167.08 301.83 167.08 302.348 C 167.08 302.866 166.432 303.29 165.641 303.29 C 164.462 303.29 164.402 303.531 165.306 304.62 C 165.913 305.352 166.911 305.95 167.523 305.95 C 169.46 305.95 170.812 308.24 169.512 309.319 C 168.852 309.867 168.262 312.762 168.107 316.215 C 167.943 319.874 167.352 322.655 166.573 323.434 C 165.475 324.532 165.302 324.486 165.276 323.086 C 165.25 321.665 165.042 321.715 163.547 323.509 C 161.67 325.761 162.034 328.065 164.292 328.225 C 165.542 328.313 165.529 328.385 164.197 328.733 C 161.895 329.335 161.802 335.173 164.027 339.438 C 164.724 340.774 165.297 342.367 165.3 342.976 C 165.318 346.59 176.028 340.773 183.578 333.05 C 191.589 324.855 192.912 321.626 196.492 301.516 C 198.053 292.749 198.048 271.277 196.484 266.042 C 192.71 253.411 187.699 243.507 181.532 236.493 C 175.647 229.799 157.306 219.026 143.504 214.158 C 129.247 209.128 111.681 209.133 99.678 214.168 C 96.994 215.294 93.203 216.509 91.253 216.868 C 89.302 217.228 86.63 218.362 85.314 219.389 C 70.765 230.742 70.545 230.957 68.406 235.862 C 63.885 246.228 60.626 255.259 59.261 261.197 C 58.48 264.594 57.477 268.289 57.032 269.41 C 55.92 272.21 56.013 292.47 57.171 299.64 C 58.45 307.562 61.445 319.149 62.983 322.123 C 65.037 326.095 69.588 330.782 71.391 330.782 C 72.316 330.782 73.073 331.162 73.073 331.626 C 73.073 332.462 79.43 337.184 83.715 339.533 C 93.619 344.962 100.424 347.68 104.801 347.957 C 106.855 348.087 107.577 347.807 107.267 347 C 107.026 346.372 107.34 345.859 107.964 345.859 C 108.589 345.859 109.931 345.085 110.946 344.138 C 111.962 343.192 112.954 342.579 113.151 342.777 C 113.348 342.974 115.068 341.168 116.972 338.764 C 118.877 336.36 120.565 334.523 120.724 334.682 C 121.676 335.634 118.545 340.301 114.307 344.245 C 111.6 346.764 109.709 349.149 110.105 349.544 C 112.843 352.283 148.702 352.467 155.703 349.779 L 155.703 349.779 Z  M 125.398 337.929 C 125.398 337.47 125.792 336.851 126.274 336.553 C 126.777 336.242 126.926 336.598 126.623 337.388 C 126.033 338.924 125.398 339.205 125.398 337.929 Z  M 127.171 334.586 C 127.171 334.077 127.87 333.112 128.723 332.443 C 130.159 331.317 130.178 331.359 128.974 332.999 C 128.259 333.975 127.56 334.939 127.422 335.143 C 127.284 335.346 127.171 335.095 127.171 334.586 Z  M 153.61 331.063 C 154.251 330.807 155.016 330.839 155.31 331.133 C 155.605 331.428 155.081 331.638 154.146 331.599 C 153.113 331.556 152.903 331.346 153.61 331.063 L 153.61 331.063 Z  M 147.177 329.978 C 146.903 329.536 147.478 329.383 148.454 329.638 C 150.525 330.18 150.787 330.782 148.951 330.782 C 148.249 330.782 147.45 330.42 147.177 329.978 L 147.177 329.978 Z  M 167.966 325.461 C 167.966 324.973 168.389 324.574 168.906 324.574 C 169.422 324.574 169.598 324.973 169.297 325.461 C 168.995 325.949 168.573 326.348 168.357 326.348 C 168.142 326.348 167.966 325.949 167.966 325.461 Z  M 99.383 319.549 C 98.223 318.388 98.821 317.653 100.556 318.107 C 101.526 318.36 102.101 318.922 101.834 319.354 C 101.257 320.287 100.205 320.37 99.383 319.549 L 99.383 319.549 Z  M 114.312 303.29 C 114.613 302.802 115.036 302.403 115.251 302.403 C 115.466 302.403 115.642 302.802 115.642 303.29 C 115.642 303.778 115.22 304.177 114.703 304.177 C 114.186 304.177 114.01 303.778 114.312 303.29 Z  M 84.159 300.629 C 83.465 299.507 84.639 299.507 86.376 300.629 C 87.523 301.37 87.499 301.491 86.207 301.503 C 85.382 301.51 84.46 301.117 84.159 300.629 L 84.159 300.629 Z  M 99.235 297.082 C 99.537 296.594 99.96 296.195 100.175 296.195 C 100.39 296.195 100.566 296.594 100.566 297.082 C 100.566 297.57 100.143 297.969 99.627 297.969 C 99.11 297.969 98.934 297.57 99.235 297.082 Z  M 162.715 287.696 C 162.758 286.663 162.968 286.453 163.251 287.16 C 163.507 287.8 163.476 288.565 163.181 288.86 C 162.886 289.155 162.677 288.631 162.715 287.696 L 162.715 287.696 Z  M 167.606 285.429 C 166.892 280.966 166.205 279.664 165.318 281.098 C 164.852 281.854 164.507 281.741 164.109 280.703 C 163.754 279.778 163.904 279.47 164.524 279.853 C 165.539 280.481 165.062 277.933 163.516 274.467 C 161.005 268.84 160.175 265.951 160.6 264.324 C 160.872 263.283 160.652 262.495 160.088 262.495 C 159.543 262.495 159.098 261.896 159.098 261.164 C 159.098 260.433 158.699 259.834 158.211 259.834 C 157.723 259.834 157.324 259.408 157.324 258.888 C 157.324 258.345 158.08 258.181 159.098 258.504 C 160.073 258.814 160.872 258.71 160.872 258.275 C 160.872 257.289 157.039 253.626 156.007 253.626 C 155.589 253.626 154.524 252.973 153.642 252.174 C 152.333 250.989 151.787 250.927 150.689 251.839 C 149.766 252.605 149.343 252.643 149.343 251.961 C 149.343 251.414 149.742 250.966 150.229 250.966 C 152.162 250.966 151.002 246.574 148.434 244.168 C 146.958 242.785 144.323 239.421 142.577 236.691 C 140.831 233.962 138.219 231.03 136.773 230.175 C 135.327 229.321 134.336 228.429 134.572 228.193 C 135.532 227.233 138.636 229.883 142.235 234.737 C 147.777 242.212 151.348 245.817 152.063 244.66 C 152.504 243.947 152.833 243.948 153.275 244.663 C 153.608 245.203 153.459 245.645 152.942 245.645 C 151.312 245.645 151.911 247.119 154.885 250.434 L 157.768 253.646 L 163.089 252.175 C 166.015 251.366 168.909 250.088 169.518 249.335 C 170.48 248.147 170.627 248.141 170.627 249.289 C 170.627 250.016 170.181 251.057 169.636 251.602 C 168.905 252.333 169.663 252.821 172.518 253.458 L 176.391 254.323 L 170.405 254.418 C 167.113 254.47 164.419 254.884 164.419 255.337 C 164.419 255.79 163.855 256.724 163.167 257.412 C 160.61 259.969 161.897 271.592 164.554 269.949 C 165.222 269.536 165.338 269.707 164.886 270.438 C 164.454 271.137 165.002 272.274 166.343 273.457 C 167.526 274.5 167.966 274.998 167.322 274.563 C 166.677 274.127 165.958 273.963 165.724 274.197 C 165.01 274.911 167.221 280.56 168.976 282.506 C 170.931 284.674 171.091 286.725 169.412 288.118 C 168.427 288.935 168.085 288.427 167.606 285.429 L 167.606 285.429 Z  M 156.644 284.667 C 156.062 283.736 155.932 282.761 156.355 282.5 C 156.777 282.239 157.352 282.901 157.632 283.972 C 158.298 286.519 157.952 286.762 156.644 284.667 Z  M 159.985 285.057 C 159.985 284.297 160.39 283.925 160.886 284.232 C 161.382 284.538 161.558 285.16 161.277 285.614 C 160.517 286.844 159.985 286.615 159.985 285.057 Z  M 142.7 283.765 C 143.006 283.269 143.629 283.093 144.083 283.374 C 145.313 284.134 145.083 284.666 143.526 284.666 C 142.765 284.666 142.394 284.26 142.7 283.765 Z  M 120.608 276.503 C 118.598 275.378 118.846 274.1 120.968 274.655 C 121.946 274.911 123.243 274.714 123.85 274.218 C 124.457 273.722 126.087 273.444 127.472 273.6 C 129.065 273.78 131.669 272.91 134.567 271.228 C 138.403 269.001 138.783 268.904 136.916 270.632 C 135.691 271.766 134.017 273.223 133.195 273.871 C 130.964 275.629 122.289 277.444 120.608 276.503 Z  M 109.927 273.217 C 109.253 272.127 110.292 269.59 111.411 269.59 C 111.956 269.59 111.901 270.085 111.273 270.841 C 110.12 272.231 111.431 273.652 112.982 272.694 C 113.469 272.392 113.869 272.568 113.869 273.085 C 113.869 274.231 110.621 274.34 109.927 273.217 Z  M 171.717 272.084 C 171.91 271.505 172.542 270.873 173.122 270.679 C 173.77 270.463 173.968 270.869 173.637 271.733 C 173.018 273.345 171.185 273.68 171.717 272.084 Z  M 167.625 270.398 C 161.818 265.83 161.793 260.841 167.566 258.429 C 170.913 257.03 176.471 256.754 177.21 257.95 C 177.474 258.377 175.953 258.53 173.83 258.291 C 169.794 257.836 167.787 259.122 169.64 260.976 C 170.183 261.519 170.627 262.358 170.627 262.842 C 170.627 263.325 170.102 263.002 169.46 262.124 C 167.788 259.838 164.862 260.645 164.862 263.394 C 164.862 264.834 165.299 265.505 166.121 265.327 C 167.096 265.116 167.151 265.331 166.364 266.279 C 165.246 267.626 166.509 269.59 168.492 269.59 C 169.074 269.59 169.78 270.188 170.061 270.92 C 170.732 272.669 170.429 272.604 167.625 270.398 Z  M 176.835 271.94 C 176.835 271.735 177.882 270.881 179.161 270.043 C 180.441 269.205 181.217 268.957 180.885 269.493 C 180.253 270.517 176.835 272.581 176.835 271.94 Z  M 113.18 267.66 C 111.646 266.126 113.57 264.046 115.545 265.103 C 116.855 265.804 124.044 266.326 129.485 266.115 C 130.514 266.075 133.208 264.412 135.471 262.419 C 140.354 258.121 140.848 255.004 137.37 250.443 C 136.151 248.845 135.153 247.111 135.153 246.591 C 135.153 246.07 134.84 245.645 134.457 245.645 C 134.075 245.645 133.01 244.373 132.092 242.818 C 130.442 240.025 130.485 240.039 135.67 243.996 C 138.556 246.198 142.206 248.749 143.782 249.663 C 146.82 251.428 146.275 252.7 142.469 252.726 C 141.372 252.733 140.474 253.138 140.474 253.626 C 140.474 254.114 142.569 254.556 145.13 254.608 L 149.786 254.703 L 145.999 255.551 C 142.396 256.357 141.553 258.045 144.739 258.074 C 145.929 258.085 145.988 258.246 145.024 258.857 C 144.142 259.416 144.748 259.932 147.241 260.743 C 150.552 261.821 154.889 264.268 153.487 264.268 C 153.11 264.268 151.724 263.717 150.407 263.043 C 147.185 261.394 140.474 260.313 140.474 261.443 C 140.474 261.926 139.377 262.777 138.035 263.333 C 136.694 263.89 134.191 265.086 132.474 265.992 C 128.32 268.183 118.997 268.978 116.819 267.327 C 114.688 265.712 113.804 265.729 114.435 267.372 C 115.048 268.971 114.595 269.074 113.18 267.66 L 113.18 267.66 Z  M 172.105 268.111 C 171.141 267.148 171.431 263.819 172.578 262.672 C 175.55 259.7 181.298 264.132 178.634 267.342 C 177.499 268.709 173.208 269.215 172.105 268.111 L 172.105 268.111 Z  M 145.13 264.716 C 143.801 263.206 143.72 262.495 144.877 262.495 C 145.348 262.495 146.16 263.293 146.682 264.268 C 147.77 266.302 146.778 266.587 145.13 264.716 Z  M 119.855 263.657 C 119.001 263.434 118.303 262.919 118.303 262.513 C 118.303 262.106 119.142 261.993 120.167 262.262 C 121.26 262.547 122.356 262.237 122.814 261.513 C 123.458 260.497 123.599 260.491 123.61 261.481 C 123.618 262.184 124.177 262.472 124.954 262.174 C 125.686 261.893 126.284 262.007 126.284 262.428 C 126.284 263.944 123.205 264.533 119.855 263.657 Z  M 154.664 262.938 C 154.664 262.207 154.82 261.608 155.012 261.608 C 155.204 261.608 155.59 262.207 155.871 262.938 C 156.152 263.67 155.995 264.268 155.523 264.268 C 155.05 264.268 154.664 263.67 154.664 262.938 Z  M 180.789 263.323 C 180.468 262.802 180.395 262.187 180.627 261.954 C 180.86 261.722 181.286 262.147 181.575 262.9 C 182.175 264.463 181.664 264.738 180.789 263.323 Z  M 128.649 261.017 C 127.572 259.939 128.037 258.995 129.388 259.513 C 130.12 259.794 130.719 259.582 130.719 259.042 C 130.719 258.502 131.121 258.06 131.613 258.06 C 132.143 258.06 132.056 258.783 131.4 259.834 C 130.227 261.712 129.61 261.977 128.649 261.017 L 128.649 261.017 Z  M 113.389 259.775 C 113.067 259.255 112.994 258.639 113.227 258.407 C 113.459 258.174 113.886 258.6 114.175 259.353 C 114.774 260.915 114.263 261.19 113.389 259.775 L 113.389 259.775 Z  M 118.285 257.14 C 116.119 253.093 120.356 249.338 123.687 252.353 C 124.628 253.205 125.398 254.558 125.398 255.36 C 125.398 258.968 119.988 260.322 118.285 257.14 Z  M 152.24 258.311 C 153.589 258.107 154.464 257.568 154.183 257.113 C 153.902 256.659 154.071 256.287 154.559 256.287 C 155.047 256.287 155.667 256.644 155.936 257.081 C 156.544 258.064 154.28 258.992 151.709 258.814 C 150.277 258.716 150.413 258.587 152.24 258.311 Z  M 112.162 255.298 C 112.004 249.864 118.737 246.07 124.795 248.179 C 127.609 249.159 127.607 249.16 124.021 248.751 C 119.165 248.196 114.768 250.596 113.324 254.59 C 112.306 257.406 112.225 257.455 112.162 255.298 L 112.162 255.298 Z  M 131.708 256.581 C 131.652 256.011 131.347 254.814 131.032 253.92 C 130.586 252.66 130.704 252.523 131.558 253.31 C 132.163 253.868 132.468 255.065 132.235 255.971 C 132.002 256.876 131.765 257.151 131.708 256.581 Z  M 135.153 254.863 C 135.153 250.413 125.746 242.984 120.112 242.984 C 118.629 242.984 117.416 242.585 117.416 242.097 C 117.416 240.603 122.612 241.111 126.234 242.958 C 131.598 245.695 137.664 254.071 135.703 256.032 C 135.4 256.335 135.153 255.809 135.153 254.863 L 135.153 254.863 Z  M 177.285 255.41 C 176.974 254.907 177.33 254.759 178.119 255.062 C 179.655 255.651 179.937 256.287 178.661 256.287 C 178.202 256.287 177.583 255.892 177.285 255.41 L 177.285 255.41 Z  M 154.653 245.68 C 155.594 242.402 163.586 234.116 165.808 234.116 C 166.73 234.116 167.069 234.422 166.592 234.822 C 166.128 235.211 163.455 237.437 160.65 239.769 C 157.783 242.152 155.55 244.731 155.55 245.661 C 155.55 246.57 155.177 247.544 154.721 247.826 C 154.212 248.141 154.186 247.309 154.653 245.68 L 154.653 245.68 Z  M 149.62 240.102 C 149.12 239.004 147.762 235.113 146.602 231.455 C 145.441 227.797 143.788 223.494 142.926 221.894 C 140.801 217.944 140.957 217.464 143.569 219.917 C 146.186 222.376 149.081 229.653 149.404 234.588 C 149.531 236.523 150.177 239.004 150.839 240.102 C 151.502 241.199 151.703 242.097 151.287 242.097 C 150.87 242.097 150.12 241.199 149.62 240.102 L 149.62 240.102 Z  M 153.777 235.14 C 153.777 234.728 154.516 233.721 155.42 232.903 C 156.672 231.77 157.57 231.618 159.189 232.266 L 161.315 233.116 L 158.848 233.172 C 157.492 233.203 156.152 233.827 155.871 234.559 C 155.329 235.972 153.777 236.402 153.777 235.14 L 153.777 235.14 Z  M 153.966 230.263 L 154.908 227.195 L 157.605 228.836 C 159.089 229.738 160.73 230.239 161.252 229.949 C 161.775 229.658 161.723 229.938 161.139 230.57 C 160.272 231.507 159.669 231.452 157.872 230.275 C 155.768 228.896 155.656 228.917 155.388 230.739 C 155.233 231.788 154.638 232.801 154.066 232.989 C 153.283 233.247 153.258 232.57 153.966 230.263 L 153.966 230.263 Z  M 152.903 224.634 C 152.896 223.566 153.289 222.445 153.777 222.143 C 154.906 221.445 154.906 223.5 153.777 225.247 C 153.078 226.329 152.915 226.214 152.903 224.634 Z  M 115.103 222.212 C 114.837 221.519 115.115 220.023 115.723 218.889 C 116.422 217.583 116.965 217.243 117.205 217.963 C 117.413 218.588 117.098 219.684 116.504 220.399 C 115.631 221.451 115.7 221.7 116.864 221.7 C 117.655 221.7 118.303 222.099 118.303 222.586 C 118.303 223.948 115.65 223.638 115.103 222.212 L 115.103 222.212 Z  M 150.863 221.686 C 151.362 219.776 152.89 218.356 152.89 219.801 C 152.89 221.314 151.84 223.473 151.104 223.473 C 150.714 223.473 150.606 222.669 150.863 221.686 L 150.863 221.686 Z  M 153.777 324.574 C 151.762 322.559 150.236 322.274 150.216 323.909 C 150.207 324.606 149.96 324.684 149.551 324.12 C 149.192 323.626 147.762 323.167 146.371 323.1 C 142.809 322.927 144.765 324.657 149.076 325.491 C 155.294 326.695 155.799 326.597 153.777 324.574 L 153.777 324.574 Z  M 162.14 321.813 C 161.872 321.381 161.986 321.027 162.391 321.027 C 162.797 321.027 163.828 319.729 164.682 318.142 C 167.44 313.022 164.516 305.95 159.643 305.95 C 158.479 305.95 156.384 305.354 154.987 304.626 C 151.968 303.051 149.676 302.919 148.841 304.271 C 148.417 304.956 147.994 304.889 147.439 304.05 C 146.834 303.134 145.377 304.177 141.342 308.413 C 133.508 316.637 134.541 319.873 142.816 313.028 C 147.297 309.321 151.302 307.737 156.216 307.729 C 158.128 307.725 159.098 308.151 159.098 308.995 C 159.098 309.693 159.896 310.518 160.872 310.828 C 163.171 311.558 163.204 315.127 160.953 319.755 C 159.145 323.472 159.35 325.318 161.384 323.63 C 162.067 323.063 162.407 322.246 162.14 321.813 L 162.14 321.813 Z  M 142.248 309.659 C 142.248 308.587 143.93 307.337 144.545 307.952 C 144.768 308.176 144.343 308.863 143.599 309.48 C 142.757 310.18 142.248 310.247 142.248 309.659 Z  M 136.362 321.475 C 136.083 320.747 135.497 320.371 135.06 320.641 C 133.808 321.415 134.134 322.801 135.568 322.801 C 136.36 322.801 136.671 322.28 136.362 321.475 Z  M 157.324 321.914 C 157.324 321.426 156.925 321.027 156.437 321.027 C 155.95 321.027 155.55 321.426 155.55 321.914 C 155.55 322.401 155.95 322.801 156.437 322.801 C 156.925 322.801 157.324 322.401 157.324 321.914 Z  M 139.587 319.253 C 139.587 318.765 138.765 318.366 137.761 318.366 C 136.757 318.366 136.182 318.765 136.483 319.253 C 136.785 319.741 137.606 320.14 138.309 320.14 C 139.012 320.14 139.587 319.741 139.587 319.253 Z  M 154.501 318.849 C 155.377 320.343 155.641 320.399 156.407 319.253 C 157.004 318.36 157.301 318.288 157.311 319.031 C 157.318 319.641 157.952 320.14 158.719 320.14 C 159.575 320.14 159.995 319.539 159.806 318.588 C 159.601 317.555 158.837 317.129 157.524 317.313 C 156.439 317.466 155.55 317.143 155.55 316.596 C 155.55 316.049 155.156 315.845 154.674 316.143 C 154.171 316.454 154.022 316.098 154.325 315.308 C 154.656 314.445 154.362 313.932 153.537 313.932 C 152.813 313.932 151.723 313.333 151.116 312.602 C 150.353 311.683 150.32 311.271 151.008 311.271 C 151.555 311.271 152.003 311.624 152.003 312.055 C 152.003 312.978 155.227 313.96 155.935 313.252 C 156.759 312.428 154.541 310.385 152.823 310.385 C 150.68 310.385 146.682 312.235 146.682 313.226 C 146.682 313.657 147.181 313.949 147.791 313.875 C 148.4 313.8 149.775 314.023 150.845 314.37 C 152.382 314.867 152.568 315.241 151.732 316.144 C 150.879 317.066 150.534 316.923 149.962 315.41 C 149.371 313.847 149.112 313.751 148.424 314.84 C 147.091 316.947 147.44 318.366 149.29 318.366 C 150.237 318.366 151.303 318.839 151.66 319.416 C 152.106 320.137 152.493 319.942 152.897 318.79 C 153.468 317.161 153.513 317.163 154.501 318.849 L 154.501 318.849 Z  M 141.804 317.479 C 142.106 316.992 141.93 316.593 141.413 316.593 C 140.897 316.593 140.474 316.992 140.474 317.479 C 140.474 317.967 140.65 318.366 140.865 318.366 C 141.08 318.366 141.503 317.967 141.804 317.479 Z  M 146.147 316.956 C 146.82 315.202 146.091 313.932 144.412 313.932 C 143.71 313.932 143.135 314.664 143.135 315.558 C 143.135 318.43 145.211 319.394 146.147 316.956 Z  M 161.547 314.474 C 161.779 311.669 158.863 310.855 156.789 313.147 C 154.909 315.224 155.894 316.472 158.251 315 C 159.684 314.105 159.985 314.149 159.985 315.255 C 159.985 317.453 161.357 316.767 161.547 314.474 Z  M 138.529 306.37 C 138.256 306.097 137.76 306.59 137.427 307.464 C 136.946 308.728 137.048 308.83 137.924 307.961 C 138.53 307.359 138.802 306.643 138.529 306.37 Z  M 162.207 303.295 C 160.48 301.387 156.916 300.912 155.957 302.462 C 155.125 303.809 155.953 304.371 159.753 305.04 C 163.897 305.769 164.231 305.532 162.207 303.295 Z " fill="rgb(77,77,77)"/><path d=" M 9.226 396.631 C 9.65 395.289 10.514 392.608 11.147 390.671 C 11.815 388.629 14.318 385.091 17.11 382.246 C 19.756 379.549 24.375 373.75 27.375 369.36 C 31.762 362.94 34.835 359.73 43.083 352.953 C 48.722 348.32 55.376 342.667 57.868 340.393 C 60.36 338.118 63.467 335.417 64.772 334.391 L 67.145 332.524 L 65.351 330.545 C 60.512 325.203 57.011 316.611 55.147 305.507 C 53.54 295.937 53.77 270.3 55.52 263.825 C 56.311 260.898 57.383 256.853 57.903 254.835 C 58.423 252.817 59.814 248.826 60.995 245.966 C 62.176 243.107 64.031 238.461 65.117 235.644 C 66.667 231.62 68.257 229.514 72.521 225.834 C 83.378 216.465 91.819 211.366 94.666 212.458 C 95.377 212.731 97.534 212.152 99.458 211.17 C 108.148 206.737 130.328 206.474 142.691 210.659 C 157.987 215.836 178.346 228.01 184.373 235.584 C 199.899 255.095 203.892 274.897 198.543 305.861 C 195.722 322.188 193.159 327.829 184.929 335.819 C 180.881 339.75 176.844 342.595 171.957 344.962 C 154.678 353.333 151.443 354.391 140.689 355.188 C 131.338 355.882 131.074 357.058 138.829 363.485 C 142.417 366.458 145.703 368.896 146.133 368.903 C 146.562 368.91 146.687 367.52 146.41 365.813 C 145.675 361.281 148.114 361.696 149.358 366.314 C 150.546 370.725 152.487 370.483 152.345 365.942 C 152.278 363.794 152.64 362.709 153.423 362.709 C 154.857 362.709 156.351 365.385 155.79 366.951 C 155.566 367.576 155.614 368.691 155.897 369.428 C 156.726 371.589 159.985 369.33 159.985 366.595 C 159.985 363.373 162.137 364.408 162.473 367.791 C 162.674 369.808 162.225 370.884 160.753 371.915 C 158.373 373.583 159.07 374.79 161.624 373.423 C 163.708 372.308 165.312 372.179 165.292 373.129 C 165.227 376.308 159.439 377.671 156.326 375.24 C 153.743 373.222 150.229 372.04 150.229 373.188 C 150.229 374.093 156.947 380.446 157.903 380.446 C 159.141 380.446 167.95 375.769 168.924 374.596 C 169.492 373.911 170.338 373.351 170.803 373.351 C 172.087 373.351 182.222 365.342 182.781 363.885 C 183.05 363.184 182.435 361.831 181.413 360.879 C 180.352 359.891 179.78 358.565 180.079 357.786 C 180.548 356.563 180.755 356.563 182.114 357.793 C 184.145 359.631 184.642 359.522 184.977 357.166 C 185.408 354.126 187.789 354.786 188.979 358.274 C 189.581 360.039 190.107 360.709 190.198 359.826 C 190.287 358.973 190.409 357.776 190.47 357.166 C 190.531 356.556 191.18 356.057 191.911 356.057 C 192.904 356.057 193.175 356.902 192.981 359.383 C 192.7 362.981 193.318 363.549 195.005 361.243 C 196.532 359.154 198.412 360.504 197.181 362.805 C 195.801 365.383 192.17 366.52 188.926 365.389 C 186.474 364.534 185.986 364.712 183.349 367.427 C 179.981 370.895 170.27 377.555 163.024 381.367 C 157.103 384.481 156.747 384.362 149.545 376.851 L 145.243 372.364 L 140.293 374.216 C 136.121 375.777 124.322 377.754 119.037 377.778 C 118.034 377.783 115.901 381.11 112.434 388.078 C 107.784 397.427 105.772 400.137 104.459 398.824 C 104.203 398.568 106.268 394.029 109.046 388.737 C 114.836 377.71 114.735 377.48 105.188 379.953 L 99.864 381.333 L 87.57 369.139 C 70.521 352.229 63.345 344.085 65.493 344.085 C 67.038 344.085 70.469 346.413 70.893 347.749 C 71.176 348.641 77.988 355.938 86.031 363.965 L 100.654 378.561 L 104.823 377.296 C 107.115 376.6 110.662 376.026 112.705 376.021 C 116.279 376.012 116.546 375.811 119.8 370.653 C 121.659 367.705 124.917 363.016 127.04 360.232 L 130.9 355.171 L 121.018 354.071 C 101.896 351.945 92.649 348.648 76.428 338.176 C 73.151 336.06 70.115 334.33 69.681 334.33 C 69.247 334.33 64.929 337.822 60.086 342.09 C 55.243 346.357 47.585 352.823 43.069 356.458 C 36.56 361.697 33.672 364.822 29.137 371.534 C 25.99 376.192 21.787 381.599 19.797 383.55 C 15.905 387.364 11.881 394.338 11.881 397.266 C 11.881 398.457 11.299 399.07 10.169 399.07 C 8.706 399.07 8.569 398.715 9.226 396.631 L 9.226 396.631 Z  M 135.596 372.848 C 142.115 371.003 143.136 370.167 140.842 368.551 C 139.826 367.834 137.294 365.828 135.216 364.092 C 133.138 362.356 130.935 360.935 130.32 360.935 C 129.458 360.935 120.963 373.302 120.963 374.556 C 120.963 375.222 131.593 373.982 135.596 372.848 Z  M 151.116 351.059 C 155.949 350.031 163.532 346.727 163.532 345.65 C 163.532 343.871 161.505 336.992 160.988 337.018 C 160.68 337.034 159.653 337.632 158.707 338.349 C 156.347 340.134 152.35 339.983 143.886 337.789 C 139.935 336.764 135.636 336.14 134.334 336.4 C 133.031 336.661 131.386 336.501 130.677 336.045 C 129.555 335.324 129.561 335.103 130.719 334.343 C 132.691 333.048 135.822 333.259 138.249 334.849 C 139.43 335.623 140.767 336.027 141.22 335.747 C 141.674 335.466 145.094 336.017 148.82 336.97 C 156.077 338.826 159.076 338.453 160.74 335.487 C 161.591 333.972 161.67 333.982 162.212 335.66 C 162.527 336.635 163.352 338.493 164.045 339.788 C 164.739 341.082 165.306 342.778 165.306 343.557 C 165.306 345.328 165.194 345.337 170.303 343.147 C 178.957 339.437 188.072 330.356 191.957 321.572 C 194.698 315.376 198.258 293.695 198.308 282.892 C 198.355 272.717 196.179 261.916 192.328 253.208 C 190.26 248.532 183.427 237.92 180.778 235.271 C 174.476 228.97 151.727 216.169 140.917 212.842 C 128.651 209.067 109.594 209.638 99.458 214.084 C 96.897 215.207 93.209 216.419 91.264 216.776 C 87.668 217.436 82.528 220.737 74.231 227.713 C 70.02 231.254 69.28 232.476 65.623 241.941 C 57.158 263.846 55.925 269.845 56.467 286.469 C 57.064 304.78 58.788 313.921 63.322 322.808 C 65.243 326.574 69.308 330.782 71.025 330.782 C 71.615 330.782 72.418 331.308 72.808 331.952 C 75.602 336.559 99.591 348.519 106.038 348.519 C 107.223 348.519 108.572 348.889 109.035 349.34 C 109.789 350.076 120.835 351.56 131.606 352.373 C 136.763 352.763 146.044 352.137 151.116 351.059 L 151.116 351.059 Z  M 108.227 347.189 C 107.92 346.39 108.22 345.859 108.979 345.859 C 109.674 345.859 112.455 343.698 115.159 341.058 C 117.864 338.417 120.076 336.664 120.076 337.162 C 120.076 338.142 110.246 348.503 109.307 348.513 C 108.994 348.517 108.507 347.921 108.227 347.189 Z  M 124.336 343.536 C 124.885 342.503 125.134 341.456 124.888 341.21 C 124.642 340.964 125.254 340.55 126.249 340.29 C 128.676 339.655 128.505 340.529 125.682 343.198 C 123.621 345.147 123.458 345.188 124.336 343.536 L 124.336 343.536 Z  M 161.263 327.807 C 160.804 326.761 159.53 325.777 158.433 325.621 C 156.87 325.399 156.422 325.784 156.367 327.395 C 156.329 328.526 156.096 328.953 155.85 328.343 C 155.307 326.997 152.89 326.859 152.89 328.174 C 152.89 328.691 152.491 328.867 152.003 328.565 C 150.055 327.361 151.12 325.708 153.555 326.157 L 155.994 326.606 L 154.23 324.482 C 153.259 323.313 152.371 322.2 152.256 322.009 C 152.14 321.818 151.473 322.136 150.773 322.717 C 150.05 323.317 149.284 323.424 149 322.963 C 148.356 321.922 144.089 322.379 142.846 323.622 C 141.5 324.967 140.474 324.804 140.474 323.244 C 140.474 321.718 139.081 321.467 138.233 322.839 C 137.918 323.349 138.194 324.41 138.846 325.199 C 139.913 326.49 139.843 326.516 138.146 325.459 C 135.737 323.96 135.578 320.14 137.924 320.14 C 138.839 320.14 139.587 319.764 139.587 319.305 C 139.587 317.561 137.936 317.571 135.701 319.33 C 133.107 321.37 132.992 321.053 134.709 316.593 C 135.422 314.743 135.932 314.155 135.972 315.137 C 136.027 316.478 136.487 316.673 138.441 316.182 C 139.762 315.851 141.857 314.553 143.097 313.299 C 144.337 312.044 146.948 310.285 148.899 309.39 C 152.685 307.654 159.588 307.1 158.657 308.607 C 158.357 309.093 159.131 309.955 160.378 310.523 C 162.051 311.285 162.645 312.23 162.645 314.127 C 162.645 315.541 162.284 316.474 161.842 316.201 C 161.4 315.927 161.237 314.945 161.479 314.017 C 161.93 312.291 159.091 310.623 157.44 311.643 C 157.007 311.911 155.424 311.517 153.923 310.768 C 151.442 309.53 150.988 309.541 148.938 310.884 C 146.627 312.398 146.088 313.556 147.45 314.08 C 147.872 314.242 147.9 315.174 147.512 316.149 C 146.843 317.831 146.803 317.819 146.744 315.927 C 146.702 314.565 146.136 313.932 144.961 313.932 C 140.35 313.932 142.988 318.248 147.801 318.58 C 150.708 318.78 150.943 318.953 149.627 319.918 C 148.277 320.91 148.269 321.027 149.553 321.027 C 150.343 321.027 151.614 320.403 152.376 319.64 C 153.634 318.382 153.856 318.458 154.765 320.452 C 155.316 321.661 156.416 322.838 157.211 323.068 C 158.005 323.298 159.333 323.766 160.162 324.108 C 161.306 324.58 161.968 324.016 162.907 321.77 C 163.587 320.142 164.76 318.299 165.512 317.676 C 166.615 316.761 166.717 315.819 166.041 312.811 C 165.031 308.315 163.255 306.177 160.114 305.673 C 158.823 305.466 159.264 305.406 161.093 305.539 C 162.922 305.673 164.419 305.439 164.419 305.02 C 164.419 304.601 165.75 305.138 167.377 306.213 C 169.854 307.85 170.121 308.325 169.018 309.139 C 168.055 309.85 167.744 311.667 167.861 315.907 C 167.982 320.289 167.703 321.825 166.72 322.202 C 166.005 322.476 165.259 322.224 165.063 321.642 C 164.866 321.06 164.045 321.855 163.238 323.409 C 161.949 325.892 161.929 326.392 163.072 327.535 C 164.093 328.556 164.128 328.93 163.236 329.273 C 162.611 329.513 161.723 328.853 161.263 327.807 L 161.263 327.807 Z  M 142.248 317.479 C 142.248 316.992 141.849 316.593 141.361 316.593 C 140.873 316.593 140.474 316.992 140.474 317.479 C 140.474 317.967 140.873 318.366 141.361 318.366 C 141.849 318.366 142.248 317.967 142.248 317.479 Z  M 147.125 326.348 C 146.824 325.86 147.223 325.461 148.012 325.461 C 148.801 325.461 149.201 325.86 148.899 326.348 C 148.598 326.836 148.199 327.235 148.012 327.235 C 147.826 327.235 147.427 326.836 147.125 326.348 Z  M 143.135 325.461 C 143.135 324.973 143.557 324.574 144.074 324.574 C 144.59 324.574 144.766 324.973 144.465 325.461 C 144.163 325.949 143.741 326.348 143.526 326.348 C 143.311 326.348 143.135 325.949 143.135 325.461 Z  M 132.492 322.828 C 132.492 322.356 133.091 322.199 133.823 322.48 C 134.554 322.761 135.153 323.147 135.153 323.339 C 135.153 323.531 134.554 323.687 133.823 323.687 C 133.091 323.687 132.492 323.301 132.492 322.828 Z  M 157.048 321.483 C 155.593 320.419 155.649 320.333 157.722 320.453 C 159.932 320.58 160.659 321.392 159.31 322.226 C 158.939 322.456 157.921 322.121 157.048 321.483 Z  M 98.792 318.394 C 98.792 317.922 99.391 317.765 100.122 318.046 C 100.854 318.326 101.453 318.713 101.453 318.905 C 101.453 319.096 100.854 319.253 100.122 319.253 C 99.391 319.253 98.792 318.867 98.792 318.394 Z  M 156.437 316.613 C 156.437 316.228 157.235 315.704 158.211 315.449 C 159.187 315.194 159.985 315.3 159.985 315.685 C 159.985 316.071 159.187 316.594 158.211 316.85 C 157.235 317.105 156.437 316.998 156.437 316.613 Z  M 137.813 309.609 C 137.813 308.572 137.427 307.724 136.954 307.724 C 136.482 307.724 136.327 307.12 136.61 306.383 C 136.893 305.645 136.662 304.483 136.096 303.801 C 135.53 303.119 135.385 302.378 135.775 302.155 C 137.804 300.994 145.956 299.674 147.693 300.225 L 149.694 300.86 L 147.523 302.575 C 146.329 303.519 143.656 305.911 141.583 307.893 C 138.278 311.051 137.813 311.263 137.813 309.609 L 137.813 309.609 Z  M 139.144 306.837 C 139.445 306.349 139.269 305.95 138.753 305.95 C 138.236 305.95 137.813 306.349 137.813 306.837 C 137.813 307.325 137.989 307.724 138.205 307.724 C 138.42 307.724 138.842 307.325 139.144 306.837 Z  M 142.248 309.149 C 142.248 308.958 142.867 308.563 143.624 308.273 C 144.413 307.97 144.769 308.118 144.459 308.621 C 143.938 309.464 142.248 309.868 142.248 309.149 Z  M 149.137 303.14 C 149.653 302.625 150.598 302.378 151.237 302.591 C 151.902 302.813 151.5 303.215 150.3 303.528 C 148.825 303.914 148.479 303.799 149.137 303.14 Z  M 154.27 300.407 C 154.297 298.334 153.898 295.912 153.383 295.024 C 152.11 292.83 145.771 290.027 142.628 290.269 C 139.675 290.496 137.529 293.722 138.259 296.837 C 138.611 298.334 138.4 298.685 137.381 298.294 C 135.752 297.668 135.75 297.992 137.403 294.035 C 138.153 292.24 139 289.099 139.285 287.054 C 139.57 285.009 140.154 282.412 140.582 281.282 C 141.056 280.034 141.013 278.579 140.474 277.571 C 139.052 274.914 139.447 274.477 141.319 276.636 C 142.272 277.735 143.56 278.464 144.183 278.257 C 144.805 278.049 146.106 278.618 147.075 279.521 C 148.044 280.424 149.324 280.975 149.92 280.746 C 151.324 280.208 155.551 283.53 155.551 285.174 C 155.551 285.87 155.151 286.44 154.664 286.44 C 154.176 286.44 153.777 285.937 153.777 285.323 C 153.777 283.83 150.461 281.753 150.05 282.988 C 149.88 283.499 148.706 283.09 147.408 282.069 C 146.123 281.059 144.725 280.232 144.3 280.232 C 142.741 280.232 140.831 283.458 140.874 286.021 C 140.914 288.468 141.203 288.694 144.908 289.173 C 151.061 289.969 152.655 290.805 154.19 294.039 C 156.475 298.855 163.954 300.114 168.188 296.396 C 169.042 295.647 169.772 294.397 169.81 293.619 C 169.859 292.627 170.019 292.551 170.345 293.364 C 170.6 294.002 170.223 295.199 169.507 296.025 C 168.791 296.85 167.94 298.64 167.616 300.003 C 166.911 302.964 163.72 304.491 161.945 302.716 C 160.274 301.045 155.551 301.141 155.551 302.846 C 155.551 303.578 155.251 304.176 154.885 304.176 C 154.52 304.176 154.243 302.48 154.27 300.407 L 154.27 300.407 Z  M 84.602 300.577 C 84.602 300.06 85.002 299.884 85.489 300.186 C 85.977 300.487 86.376 300.91 86.376 301.125 C 86.376 301.34 85.977 301.516 85.489 301.516 C 85.002 301.516 84.602 301.094 84.602 300.577 Z  M 162.715 287.696 C 162.758 286.663 162.968 286.453 163.251 287.16 C 163.507 287.8 163.476 288.565 163.181 288.86 C 162.886 289.155 162.677 288.631 162.715 287.696 L 162.715 287.696 Z  M 167.7 285.374 C 167.078 280.739 167.396 280.311 169.303 283.221 C 170.607 285.212 170.63 285.692 169.494 287.314 C 168.268 289.064 168.183 288.971 167.7 285.374 L 167.7 285.374 Z  M 164.914 279.973 C 165.175 279.292 164.572 276.663 163.574 274.13 C 161.222 268.163 161.264 266.555 163.669 270.476 C 165.743 273.858 166.701 279.813 165.31 280.673 C 164.831 280.969 164.653 280.654 164.914 279.973 Z  M 120.298 276.124 C 119.688 275.863 119.19 275.235 119.19 274.728 C 119.19 274.172 119.717 274.244 120.52 274.911 C 121.469 275.698 122.175 275.745 122.985 275.073 C 123.609 274.555 125.361 274.167 126.879 274.21 C 128.396 274.253 131.026 273.431 132.722 272.382 C 137.188 269.622 137.869 270.043 133.776 273.034 C 130.369 275.523 122.898 277.236 120.298 276.124 Z  M 110.321 273.327 C 110.321 272.944 111.119 272.63 112.095 272.63 C 113.07 272.63 113.869 272.944 113.869 273.327 C 113.869 273.71 113.07 274.024 112.095 274.024 C 111.119 274.024 110.321 273.71 110.321 273.327 Z  M 172.471 271.733 C 172.513 270.7 172.723 270.489 173.006 271.197 C 173.263 271.837 173.231 272.602 172.936 272.897 C 172.642 273.191 172.432 272.668 172.471 271.733 L 172.471 271.733 Z  M 116.28 266.753 C 112.924 264.962 113.24 264.942 121.407 266.416 L 127.615 267.537 L 123.375 267.907 C 120.473 268.16 118.233 267.796 116.28 266.753 Z  M 172.052 267.3 C 171.246 265.199 171.379 264.53 172.907 263.002 C 174.736 261.173 175.583 261.243 177.742 263.402 C 179.167 264.827 179.343 265.557 178.598 266.949 C 177.441 269.11 172.841 269.357 172.052 267.3 Z  M 163.866 265.833 C 162.929 263.072 163.344 261.61 165.598 259.727 C 167.916 257.791 170.582 257.354 168.695 259.219 C 168.05 259.856 166.825 260.641 165.971 260.965 C 164.208 261.632 163.833 265.699 165.484 266.249 C 166.26 266.508 166.277 266.772 165.548 267.223 C 164.961 267.586 164.265 267.011 163.866 265.833 L 163.866 265.833 Z  M 134.052 264.273 C 137.902 261.926 140.578 257.454 139.856 254.576 C 139.548 253.351 138.364 251.343 137.225 250.114 C 136.085 248.885 135.153 247.55 135.153 247.146 C 135.153 246.743 134.076 244.943 132.759 243.147 L 130.365 239.88 L 133.424 242.683 C 135.107 244.224 138.834 246.889 141.708 248.605 L 146.932 251.725 L 143.703 252.331 C 138.548 253.298 140.094 255.591 145.408 254.858 C 147.895 254.516 147.872 254.557 144.908 255.78 C 142.055 256.956 141.961 257.107 143.75 257.65 C 145.284 258.116 145.472 258.482 144.637 259.378 C 144.055 260.003 142.689 260.417 141.603 260.298 C 140.308 260.157 139.44 260.674 139.083 261.799 C 138.783 262.743 138.322 263.299 138.057 263.034 C 137.792 262.769 136.578 263.338 135.358 264.297 C 134.138 265.257 132.695 266.041 132.151 266.039 C 131.607 266.037 132.463 265.242 134.052 264.273 L 134.052 264.273 Z  M 145.352 264.268 C 144.469 263.293 144.111 262.495 144.557 262.495 C 145.004 262.495 145.867 263.293 146.476 264.268 C 147.085 265.244 147.443 266.042 147.27 266.042 C 147.098 266.042 146.235 265.244 145.352 264.268 L 145.352 264.268 Z  M 122.737 262.523 C 122.737 262.05 123.336 261.893 124.067 262.174 C 124.799 262.455 125.398 262.841 125.398 263.033 C 125.398 263.225 124.799 263.382 124.067 263.382 C 123.336 263.382 122.737 262.995 122.737 262.523 L 122.737 262.523 Z  M 145.573 261.021 C 146.183 260.775 147.181 260.775 147.791 261.021 C 148.4 261.267 147.901 261.468 146.682 261.468 C 145.463 261.468 144.964 261.267 145.573 261.021 L 145.573 261.021 Z  M 160.022 259.765 C 161.391 257.206 160.665 255.896 156.619 253.622 C 154.474 252.416 152.552 250.412 151.64 248.43 L 150.154 245.201 L 152.843 248.305 C 154.322 250.012 155.984 251.943 156.536 252.596 C 157.754 254.036 162.388 253.333 167.286 250.967 C 169.123 250.079 170.627 249.692 170.627 250.107 C 170.627 250.522 170.228 251.108 169.74 251.409 C 167.999 252.485 168.904 253.267 172.145 253.485 C 177.643 253.856 176.609 254.513 170.528 254.513 C 164.389 254.513 161.758 256.112 161.758 259.844 C 161.758 260.839 161.165 261.608 160.397 261.608 C 159.293 261.608 159.222 261.259 160.022 259.765 L 160.022 259.765 Z  M 118.917 257.363 C 117.13 255.388 117.856 252.114 120.249 251.354 C 122.134 250.756 125.398 253.466 125.398 255.629 C 125.398 258.847 121.262 259.953 118.917 257.363 Z  M 175.511 258.071 C 175.2 257.568 175.556 257.419 176.345 257.722 C 177.882 258.312 178.163 258.947 176.887 258.947 C 176.428 258.947 175.809 258.553 175.511 258.071 L 175.511 258.071 Z  M 112.682 252.904 C 113.301 250.536 116.825 247.924 118.496 248.595 C 119.235 248.892 119.112 249.076 118.145 249.122 C 117.327 249.16 115.642 250.489 114.402 252.074 C 112.496 254.509 112.229 254.638 112.682 252.904 L 112.682 252.904 Z  M 130.762 247.908 C 128.353 245.344 123.807 243.053 120.601 242.787 C 118.051 242.576 117.399 241.205 119.855 241.219 C 122.238 241.232 130.07 245.162 131.97 247.298 C 134.353 249.977 133.236 250.542 130.762 247.908 Z  M 154.664 245.253 C 154.664 244.551 155.025 243.752 155.468 243.479 C 155.91 243.205 156.063 243.78 155.808 244.757 C 155.266 246.827 154.664 247.089 154.664 245.253 L 154.664 245.253 Z  M 144.021 238.993 C 143.385 238.226 143.299 237.663 143.818 237.663 C 144.313 237.663 144.948 238.262 145.229 238.993 C 145.51 239.725 145.601 240.323 145.432 240.323 C 145.264 240.323 144.629 239.725 144.021 238.993 Z  M 148.856 237.885 C 148.423 235.852 146.076 229.193 142.683 220.369 C 142.001 218.596 142.001 218.596 143.767 220.369 C 146.088 222.701 149.101 230.821 149.608 236.111 C 150.053 240.761 149.665 241.678 148.856 237.885 L 148.856 237.885 Z  M 159.946 238.959 C 161.597 236.736 164.636 234.161 165.636 234.135 C 166.786 234.106 164.514 236.592 161.394 238.778 C 158.895 240.529 158.768 240.545 159.946 238.959 Z  M 139.53 232.564 C 138.794 231.71 137.208 230.296 136.007 229.421 C 133.906 227.891 133.936 227.891 136.783 229.421 C 139.153 230.694 142.333 234.116 141.146 234.116 C 140.993 234.116 140.266 233.417 139.53 232.564 L 139.53 232.564 Z  M 156.946 232.237 C 157.316 231.638 160.872 232.22 160.872 232.879 C 160.872 233.06 159.903 233.129 158.718 233.031 C 157.534 232.933 156.736 232.575 156.946 232.237 Z  M 154.277 231.195 C 154.61 230.32 155.106 229.828 155.379 230.101 C 155.652 230.374 155.379 231.09 154.774 231.691 C 153.898 232.561 153.796 232.459 154.277 231.195 L 154.277 231.195 Z  M 152.89 224.856 C 152.89 224.153 153.252 223.354 153.694 223.081 C 154.136 222.808 154.289 223.383 154.034 224.359 C 153.493 226.43 152.89 226.692 152.89 224.856 L 152.89 224.856 Z  M 115.273 222.018 C 114.787 220.75 114.918 220.718 116.287 221.767 C 117.152 222.429 118.026 223.084 118.229 223.222 C 118.432 223.36 117.976 223.473 117.215 223.473 C 116.454 223.473 115.581 222.818 115.273 222.018 Z  M 151.13 222.417 C 151.122 221.592 151.515 220.671 152.003 220.369 C 153.125 219.676 153.125 220.85 152.003 222.586 C 151.262 223.733 151.141 223.709 151.13 222.417 Z  M 115.642 219.039 C 115.642 218.551 116.065 218.152 116.581 218.152 C 117.098 218.152 117.274 218.551 116.972 219.039 C 116.671 219.527 116.248 219.926 116.033 219.926 C 115.818 219.926 115.642 219.527 115.642 219.039 Z " fill="rgb(51,51,51)"/><path d=" M 9.22 397.818 C 9.22 394.097 13.342 386.322 17.378 382.429 C 19.773 380.119 23.869 375.036 26.48 371.134 C 32.712 361.819 34.038 360.382 42.757 353.495 C 46.813 350.29 54.105 344.17 58.962 339.893 C 65.724 333.939 67.517 331.91 66.616 331.228 C 64.429 329.574 59.999 322.382 58.565 318.155 C 53.626 303.607 52.093 278.043 55.406 265.489 C 56.42 261.647 57.478 257.506 57.757 256.287 C 58.406 253.446 65.579 234.8 67.31 231.452 C 68.035 230.051 71.524 226.663 75.063 223.922 C 78.603 221.182 82.254 218.319 83.176 217.56 C 85.87 215.345 93.585 212.044 94.894 212.546 C 95.555 212.8 97.799 212.193 99.882 211.198 C 109.426 206.639 129.776 206.641 143.412 211.202 C 154.428 214.887 173.018 225.258 180.862 232.095 C 186.59 237.088 194.036 249.906 197.748 261.165 C 200.949 270.874 201.683 287.077 199.486 299.515 C 195.231 323.597 194.233 326.001 184.481 335.656 C 177.717 342.351 176.57 343.094 165.658 347.836 C 152.429 353.585 148.478 354.675 140.759 354.706 C 136.919 354.721 134.851 355.156 133.846 356.16 C 133.058 356.949 132.531 357.901 132.674 358.278 C 133.016 359.171 146.062 369.801 146.819 369.803 C 147.139 369.803 147.186 368.207 146.924 366.256 C 146.612 363.927 146.793 362.709 147.452 362.709 C 148.004 362.709 148.456 363.289 148.456 363.997 C 148.456 366.143 150.443 369.804 151.607 369.804 C 153.131 369.804 153.882 367.428 153.207 364.74 C 152.781 363.041 152.947 362.579 153.873 362.884 C 154.599 363.123 155.219 364.813 155.38 366.99 C 155.644 370.582 156.587 371.418 158.787 370.012 C 159.347 369.653 159.946 368.363 160.117 367.143 C 160.528 364.217 162.129 364.298 162.473 367.262 C 162.665 368.921 162.078 370.121 160.447 371.404 C 157.684 373.577 159.079 375.022 162.285 373.307 C 164.799 371.961 166.033 372.737 164.437 374.66 C 163.022 376.364 157.475 376.421 155.62 374.75 C 154.85 374.057 153.023 373.192 151.56 372.83 C 149.035 372.204 148.967 372.257 150.229 373.869 C 152.667 376.982 156.864 380.418 158.211 380.402 C 161.223 380.365 175.671 371.532 181.174 366.362 L 184.182 363.535 L 182.282 361.513 C 181.237 360.401 180.382 359.017 180.382 358.439 C 180.382 356.933 182.116 357.14 182.722 358.718 C 183.525 360.81 185.934 360.397 185.262 358.282 C 184.954 357.311 184.963 356.095 185.282 355.579 C 186.272 353.977 188.364 356.482 188.364 359.27 C 188.364 360.674 188.72 361.822 189.156 361.822 C 190.117 361.822 191.024 359.632 191.024 357.315 C 191.024 356.38 191.465 355.614 192.004 355.614 C 192.613 355.614 192.856 356.959 192.646 359.161 C 192.407 361.664 192.65 362.709 193.468 362.709 C 194.106 362.709 194.857 362.11 195.138 361.379 C 195.773 359.725 197.232 359.629 197.232 361.241 C 197.232 364.542 190.147 366.798 187.643 364.294 C 186.801 363.451 186.006 363.9 183.973 366.367 C 181.159 369.78 169.416 377.969 162.035 381.664 L 157.435 383.967 L 151.309 377.973 L 145.183 371.98 L 140.022 373.979 C 137.184 375.078 131.076 376.365 126.448 376.838 C 121.821 377.312 117.732 378.018 117.364 378.407 C 116.995 378.797 114.394 383.605 111.584 389.093 C 108.774 394.58 105.956 399.07 105.322 399.07 C 103.913 399.07 104.514 397.248 107.511 392.441 C 109.52 389.218 113.869 380.086 113.869 379.09 C 113.869 378.227 108.712 378.719 104.435 379.989 L 100 381.306 L 87.94 369.125 C 74.644 355.695 65.092 345.721 65.092 345.266 C 65.092 345.104 65.827 344.972 66.727 344.972 C 67.626 344.972 70.109 347.067 72.244 349.628 C 78.242 356.819 85.212 364.023 93.526 371.621 L 101.12 378.56 L 104.612 377.639 C 106.533 377.133 110.068 376.46 112.468 376.143 C 116.351 375.632 117.152 375.128 119.726 371.577 C 121.317 369.382 122.646 367.257 122.678 366.854 C 122.71 366.451 124.575 363.733 126.821 360.813 C 129.068 357.894 130.687 355.287 130.419 355.019 C 130.152 354.751 127.416 354.35 124.339 354.127 C 116.788 353.581 103.119 351.297 101.953 350.387 C 101.434 349.982 99.841 349.371 98.412 349.028 C 94.11 347.998 84.792 343.331 77.006 338.308 L 69.662 333.57 L 66.328 336.389 C 64.494 337.939 61.969 340.15 60.717 341.301 C 57.578 344.188 48.036 352.234 38.344 360.165 C 36.18 361.936 32.048 366.925 29.162 371.251 C 26.276 375.576 22.272 380.587 20.264 382.385 C 17.004 385.305 10.994 395.474 10.994 398.07 C 10.994 398.62 10.595 399.07 10.107 399.07 C 9.619 399.07 9.22 398.507 9.22 397.818 L 9.22 397.818 Z  M 136.86 372.698 C 139.506 371.838 141.78 370.735 141.913 370.247 C 142.218 369.128 132.963 361.467 130.888 361.121 C 129.436 360.879 124.072 367.466 120.997 373.266 L 119.867 375.399 L 125.958 374.831 C 129.308 374.518 134.214 373.559 136.86 372.698 L 136.86 372.698 Z  M 151.349 351.191 C 157.935 349.532 160.999 348.345 163.219 346.595 C 163.973 346.001 163.822 344.424 162.635 340.505 C 161.755 337.596 161.187 335.216 161.374 335.216 C 161.867 335.216 165.306 342.93 165.306 344.036 C 165.306 345.447 166.274 345.21 172.17 342.354 C 179.234 338.932 188.231 330.006 191.428 323.246 C 194.369 317.03 199.006 291.884 199.006 282.154 C 199.006 273.817 195.521 259.402 191.546 251.295 C 184.281 236.481 175.996 229.064 155.107 218.67 C 138.579 210.446 124.953 207.98 110.742 210.643 C 106.455 211.447 102.311 212.457 101.534 212.889 C 98.459 214.598 93.143 216.379 91.117 216.379 C 88.612 216.379 76.714 224.507 72.065 229.394 C 68.043 233.622 61.624 249.539 57.823 264.712 C 55.368 274.511 55.196 276.197 55.649 285.996 C 56.224 298.403 58.871 313.894 61.356 319.393 C 63.64 324.448 68.345 330.782 69.815 330.782 C 70.456 330.782 72.263 331.927 73.83 333.326 C 75.397 334.726 80.132 337.819 84.35 340.2 C 95.525 346.506 104.647 349.525 108.297 348.125 C 109.608 347.621 109.64 347.418 108.523 346.711 C 107.431 346.021 107.474 345.884 108.789 345.872 C 109.653 345.865 112.148 344.211 114.332 342.198 C 116.516 340.185 118.303 338.937 118.303 339.425 C 118.303 339.914 116.108 342.228 113.425 344.568 C 110.742 346.908 108.547 349.116 108.547 349.475 C 108.547 350.173 113.809 351.025 124.511 352.061 C 136.637 353.235 144.212 352.99 151.349 351.191 Z  M 125.841 341.424 C 126.142 340.937 126.565 340.538 126.78 340.538 C 126.995 340.538 127.171 340.937 127.171 341.424 C 127.171 341.912 126.749 342.311 126.232 342.311 C 125.716 342.311 125.54 341.912 125.841 341.424 Z  M 147.569 338.612 C 145.862 338.141 143.268 337.523 141.806 337.24 C 139.551 336.803 139.41 336.632 140.874 336.118 C 141.824 335.785 145.016 336.272 147.967 337.201 C 151.197 338.217 154.569 338.698 156.437 338.408 C 158.604 338.072 159.14 338.183 158.211 338.775 C 156.565 339.825 151.689 339.75 147.569 338.612 L 147.569 338.612 Z  M 130.874 334.681 C 131.89 333.665 133.081 333.431 135.045 333.862 C 139.629 334.869 139.124 336.103 134.128 336.103 C 129.837 336.103 129.569 335.986 130.874 334.681 Z  M 154.258 324.636 C 153.503 323.414 154.965 322.814 157.245 323.41 C 158.748 323.803 158.952 324.121 158.064 324.684 C 156.498 325.676 154.889 325.656 154.258 324.636 L 154.258 324.636 Z  M 140.474 323.172 C 140.474 322.16 139.943 321.846 138.758 322.156 C 137.765 322.415 136.842 322.085 136.568 321.372 C 136.263 320.578 136.715 320.14 137.841 320.14 C 138.802 320.14 139.587 319.741 139.587 319.253 C 139.587 318.765 140.186 318.366 140.917 318.366 C 141.649 318.366 142.248 317.991 142.248 317.532 C 142.248 317.073 143.317 317.252 144.623 317.93 C 145.929 318.608 147.281 318.988 147.626 318.774 C 147.971 318.561 148.455 319.154 148.7 320.093 C 149.252 322.203 152.883 321.581 152.903 319.371 C 152.915 318.12 153.031 318.103 153.753 319.246 C 154.989 321.201 153.648 322.003 148.799 322.209 C 146.415 322.31 143.567 322.898 142.469 323.515 C 140.753 324.48 140.474 324.432 140.474 323.172 Z  M 132.492 322.828 C 132.492 322.356 133.091 322.199 133.823 322.48 C 134.554 322.761 135.153 323.147 135.153 323.339 C 135.153 323.531 134.554 323.687 133.823 323.687 C 133.091 323.687 132.492 323.301 132.492 322.828 Z  M 162.645 322.051 C 162.645 321.488 163.044 321.027 163.532 321.027 C 164.02 321.027 164.419 320.477 164.419 319.805 C 164.419 319.133 164.971 318.125 165.646 317.565 C 166.595 316.777 166.996 316.869 167.419 317.973 C 168.169 319.927 168.121 320.14 166.928 320.14 C 166.356 320.14 165.159 320.8 164.267 321.608 C 163.297 322.486 162.645 322.664 162.645 322.051 Z  M 134.528 317.505 C 135.18 315.777 135.751 315.238 136.185 315.94 C 136.702 316.777 137.487 316.777 139.769 315.942 C 142.406 314.977 142.523 315 140.97 316.176 C 140.023 316.893 138.569 317.48 137.739 317.48 C 136.909 317.48 136 318.078 135.719 318.81 C 135.438 319.542 134.832 320.14 134.371 320.14 C 133.881 320.14 133.946 319.048 134.528 317.505 L 134.528 317.505 Z  M 158.045 315.987 C 158.685 315.731 159.45 315.762 159.745 316.057 C 160.039 316.351 159.515 316.561 158.581 316.523 C 157.547 316.48 157.337 316.27 158.045 315.987 L 158.045 315.987 Z  M 166.619 314.597 C 166.396 313.987 166.09 312.63 165.94 311.58 C 165.79 310.53 165.123 309.016 164.46 308.216 C 163.623 307.208 163.536 306.479 164.177 305.838 C 164.817 305.197 165.496 305.479 166.391 306.757 C 167.101 307.77 168 308.303 168.388 307.94 C 168.776 307.577 168.631 308.17 168.065 309.258 C 167.499 310.345 167.289 312.241 167.598 313.47 C 168.165 315.729 167.368 316.646 166.619 314.597 L 166.619 314.597 Z  M 143.578 312.854 C 144.554 312.291 145.879 311.305 146.524 310.664 C 147.886 309.308 149.343 309.133 149.343 310.325 C 149.343 310.78 148.544 311.405 147.569 311.715 C 146.593 312.025 145.795 312.65 145.795 313.105 C 145.795 313.56 144.897 313.92 143.8 313.905 C 141.857 313.879 141.851 313.851 143.578 312.854 L 143.578 312.854 Z  M 159.985 312.126 C 158.765 311.724 156.033 310.892 153.912 310.276 C 150.564 309.304 150.306 309.065 151.948 308.458 C 153.908 307.733 162.645 310.891 162.645 312.325 C 162.645 312.721 162.546 313.003 162.424 312.951 C 162.302 312.899 161.204 312.528 159.985 312.126 L 159.985 312.126 Z  M 138.146 309.186 C 138.26 308.41 138.631 307.498 138.97 307.159 C 140.069 306.06 139.624 305.105 138.257 305.63 C 137.525 305.91 136.867 305.698 136.794 305.158 C 136.442 302.565 136.55 301.955 137.37 301.898 C 137.858 301.864 139.973 301.344 142.07 300.743 C 144.167 300.142 146.696 299.909 147.689 300.224 C 149.455 300.785 149.449 300.829 147.424 302.174 C 146.284 302.93 144.938 303.99 144.433 304.528 C 140.931 308.258 137.959 310.46 138.146 309.186 L 138.146 309.186 Z  M 160.705 305.345 C 161.345 305.088 162.11 305.12 162.405 305.415 C 162.7 305.709 162.176 305.919 161.241 305.88 C 160.208 305.838 159.998 305.628 160.705 305.345 L 160.705 305.345 Z  M 154.823 299.928 C 154.897 297.835 155.221 296.548 155.542 297.069 C 155.864 297.59 158.199 298.261 160.73 298.561 C 164.414 298.997 165.679 298.793 167.066 297.537 C 168.777 295.989 168.782 296.014 167.422 299.476 C 165.975 303.159 164.694 303.611 161.158 301.687 C 159.168 300.604 156.489 301.108 155.341 302.782 C 154.982 303.305 154.749 302.021 154.823 299.928 L 154.823 299.928 Z  M 152.324 293.091 C 152.043 292.359 151.281 291.761 150.63 291.761 C 149.98 291.761 149.201 291.362 148.899 290.874 C 147.861 289.195 150.135 289.991 152.619 292.176 C 153.987 293.38 154.596 294.378 153.971 294.393 C 153.346 294.409 152.605 293.823 152.324 293.091 L 152.324 293.091 Z  M 139.587 286.984 C 139.587 285.333 140.169 282.86 140.881 281.488 C 141.806 279.705 141.907 278.673 141.235 277.863 C 140.34 276.784 143.413 277.929 147.827 280.319 C 148.7 280.792 149.797 280.942 150.265 280.653 C 150.733 280.364 151.116 280.55 151.116 281.066 C 151.116 281.583 151.544 282.005 152.066 282.005 C 153.352 282.005 155.55 284.285 155.55 285.619 C 155.55 286.213 154.572 285.643 153.376 284.352 C 152.18 283.061 150.629 282.005 149.93 282.005 C 149.23 282.005 147.553 281.432 146.202 280.731 C 143.931 279.553 143.635 279.603 142.282 281.396 C 140.007 284.413 140.1 288.12 142.477 289.075 C 144.383 289.842 144.364 289.877 142.026 289.931 C 139.835 289.981 139.587 289.682 139.587 286.984 L 139.587 286.984 Z  M 167.939 284.615 C 166.597 282.108 167.312 281.586 169.212 283.686 C 170.156 284.728 170.397 285.59 169.842 285.933 C 169.347 286.239 168.491 285.646 167.939 284.615 Z  M 123.051 275.402 C 124.443 274.649 125.922 274.243 126.338 274.5 C 126.753 274.757 128.556 274.356 130.345 273.609 C 134.679 271.798 135.292 271.916 132.049 273.939 C 130.586 274.851 127.393 275.862 124.954 276.184 C 120.577 276.763 120.553 276.753 123.051 275.402 L 123.051 275.402 Z  M 110.986 273.436 C 111.596 273.19 112.594 273.19 113.203 273.436 C 113.813 273.682 113.314 273.884 112.095 273.884 C 110.875 273.884 110.377 273.682 110.986 273.436 L 110.986 273.436 Z  M 162.751 271.971 C 161.299 268.319 161.549 266.951 163.119 269.96 C 163.861 271.383 164.305 272.979 164.106 273.507 C 163.906 274.035 163.297 273.344 162.751 271.971 Z  M 172.448 267.429 C 170.851 265.505 172.792 262.495 175.631 262.495 C 177.328 262.495 177.776 262.847 177.383 263.871 C 177.08 264.66 177.229 265.016 177.732 264.706 C 178.723 264.093 178.87 265.216 178.07 267.3 C 177.398 269.051 173.861 269.132 172.448 267.429 L 172.448 267.429 Z  M 116.529 266.929 C 115.485 266.254 115.676 266.089 117.416 266.161 C 118.635 266.211 120.83 266.557 122.294 266.929 C 124.856 267.581 124.824 267.609 121.407 267.697 C 119.456 267.748 117.261 267.402 116.529 266.929 Z  M 138.664 260.127 C 140.121 258.118 140.538 256.664 140.128 255.031 C 139.55 252.726 134.58 244.87 132.936 243.663 C 132.448 243.304 132.391 243.005 132.808 242.998 C 133.226 242.99 135.079 244.181 136.927 245.645 C 138.774 247.108 140.565 248.305 140.905 248.305 C 141.246 248.305 142.539 249.103 143.779 250.079 L 146.034 251.853 L 143.254 251.853 C 139.924 251.853 139.413 254.144 142.469 255.372 C 144.245 256.086 144.275 256.181 142.735 256.231 C 140.684 256.297 141.833 257.682 144.465 258.315 C 146.068 258.701 146.046 258.751 144.243 258.844 C 143.146 258.901 142.248 259.37 142.248 259.887 C 142.248 260.403 141.823 260.564 141.305 260.243 C 140.786 259.923 139.522 260.398 138.494 261.299 C 136.778 262.804 136.792 262.708 138.664 260.127 L 138.664 260.127 Z  M 159.985 260.773 C 159.985 260.314 160.379 259.695 160.861 259.397 C 161.364 259.086 161.513 259.442 161.21 260.232 C 160.62 261.768 159.985 262.049 159.985 260.773 Z  M 167.08 259.921 C 167.08 259.001 168.766 257.667 169.266 258.193 C 169.428 258.364 169.003 259.018 168.32 259.647 C 167.638 260.276 167.08 260.4 167.08 259.921 L 167.08 259.921 Z  M 118.863 257.072 C 116.322 253.443 120.193 249.764 123.518 252.647 C 125.82 254.644 125.87 255.584 123.776 257.48 C 121.623 259.428 120.445 259.33 118.863 257.072 Z  M 160.003 255.865 C 159.104 254.782 159.351 254.385 161.446 253.553 C 162.837 253.001 164.669 252.192 165.515 251.757 C 167.755 250.606 168.853 250.784 168.853 252.296 C 168.853 253.028 168.255 253.626 167.523 253.626 C 166.791 253.626 165.395 254.424 164.419 255.4 C 162.303 257.516 161.448 257.606 160.003 255.865 L 160.003 255.865 Z  M 172.179 253.926 C 172.789 253.68 173.786 253.68 174.396 253.926 C 175.006 254.172 174.507 254.373 173.287 254.373 C 172.068 254.373 171.569 254.172 172.179 253.926 L 172.179 253.926 Z  M 112.982 251.94 C 112.982 251.019 114.669 249.686 115.168 250.212 C 115.331 250.383 114.905 251.037 114.222 251.666 C 113.54 252.295 112.982 252.418 112.982 251.94 L 112.982 251.94 Z  M 153.154 250.765 C 151.81 249.031 151.004 246.357 152.013 246.981 C 152.495 247.279 152.89 248.065 152.89 248.727 C 152.89 249.389 153.389 250.109 153.998 250.327 C 154.608 250.545 154.865 250.987 154.568 251.309 C 154.272 251.632 153.636 251.387 153.154 250.765 L 153.154 250.765 Z  M 126.728 244.698 C 125.265 243.76 124.466 242.994 124.954 242.995 C 125.442 242.995 127.038 243.789 128.502 244.758 C 129.965 245.727 130.763 246.493 130.275 246.461 C 129.787 246.428 128.191 245.635 126.728 244.698 Z  M 161.305 237.745 C 162.986 235.82 166.193 233.64 166.193 234.422 C 166.193 234.626 164.696 235.911 162.867 237.278 C 160.143 239.314 159.861 239.399 161.305 237.745 L 161.305 237.745 Z  M 146.392 229.026 C 145.501 226.704 144.204 223.744 143.51 222.45 C 141.908 219.462 141.899 218.564 143.487 220.152 C 145.265 221.93 148.668 230.169 148.313 231.838 C 148.147 232.614 147.283 231.349 146.392 229.026 L 146.392 229.026 Z " fill="rgb(0,0,0)"/></g></g></g></g></svg>