<svg xmlns="http://www.w3.org/2000/svg" xmlSpace="preserve" width="420px" height="420px" style="shape-rendering:geometricPrecision; text-rendering:geometricPrecision; image-rendering:optimizeQuality; fill-rule:evenodd; clip-rule:evenodd" viewBox="0 0 420 420" xmlnslink="http://www.w3.org/1999/xlink">
 <defs>
  <style type="text/css">
   <![CDATA[
    .str0 {stroke:#1F1A17;stroke-width:2.08228;stroke-linecap:round;stroke-linejoin:round}
    .str1 {stroke:#1F1A17;stroke-width:6.25039;stroke-linecap:round;stroke-linejoin:round;stroke-opacity:0.400000}
    .fil2 {fill:none}
    .fil3 {fill:#28166F}
    .fil0 {fill:white}
    .fil1 {fill:#EDEEF0}
   ]]>
  </style>
 </defs>
 <g id="Layer_x0020_1">
  <metadata id="CorelCorpID_0Corel-Layer"/>
  <rect class="fil0" x="-0.0011811" y="-0.0011811" width="420.002" height="420.002"/>
  <rect class="fil1 str0" x="112.513" y="112.535" width="194.418" height="194.418"/>
  <path class="fil2 str1" d="M210 183.914l0 52.1717m26.0858 -26.0858l-52.1717 0"/>
  <path class="fil2 str1" d="M404.14 183.659l0 52.1717m26.0858 -26.0858l-52.1717 0"/>
  <path class="fil2 str1" d="M209.722 -10.7587l0 52.1717m26.0858 -26.0858l-52.1717 0"/>
  <path class="fil2 str1" d="M209.722 378.077l0 52.1717m26.0858 -26.0858l-52.1717 0"/>
  <path class="fil2 str1" d="M15.3047 183.659l0 52.1717m26.0858 -26.0858l-52.1717 0"/>
  <path class="fil2 str1" d="M404.14 378.077l0 52.1717m26.0858 -26.0858l-52.1717 0"/>
  <path class="fil2 str1" d="M404.14 -10.7587l0 52.1717m26.0858 -26.0858l-52.1717 0"/>
  <path class="fil2 str1" d="M15.3047 -10.7587l0 52.1717m26.0858 -26.0858l-52.1717 0"/>
  <path class="fil2 str1" d="M15.3047 378.077l0 52.1717m26.0858 -26.0858l-52.1717 0"/>
  <circle class="fil3" cx="275.61" cy="119.055" r="11.4876"/>
  <circle class="fil3" cx="298.996" cy="141.141" r="11.4876"/>
  <circle class="fil3" cx="222.342" cy="190.511" r="11.4876"/>
  <circle class="fil3" cx="301.594" cy="189.862" r="11.4876"/>
  <circle class="fil3" cx="341.87" cy="158.681" r="11.4876"/>
  <circle class="fil3" cx="341.22" cy="258.07" r="11.4876"/>
  <circle class="fil3" cx="363.307" cy="294.448" r="11.4876"/>
  <circle class="fil3" cx="400.335" cy="102.815" r="11.4876"/>
  <circle class="fil3" cx="368.504" cy="102.165" r="11.4876"/>
  <circle class="fil3" cx="356.161" cy="-0.00162784" r="11.4876"/>
  <circle class="fil3" cx="341.233" cy="3.43892" r="11.4876"/>
  <circle class="fil3" cx="271.063" cy="53.4444" r="11.4876"/>
  <circle class="fil3" cx="217.146" cy="108.011" r="11.4876"/>
  <circle class="fil3" cx="149.587" cy="72.9326" r="11.4876"/>
  <circle class="fil3" cx="97.6181" cy="61.2397" r="11.4876"/>
  <circle class="fil3" cx="57.3425" cy="154.133" r="11.4876"/>
  <circle class="fil3" cx="16.4173" cy="162.578" r="11.4876"/>
  <circle class="fil3" cx="287.953" cy="368.503" r="11.4876"/>
  <circle class="fil3" cx="217.146" cy="362.007" r="11.4876"/>
  <circle class="fil3" cx="148.937" cy="311.338" r="11.4876"/>
  <circle class="fil3" cx="319.783" cy="376.299" r="11.4876"/>
  <circle class="fil3" cx="397.736" cy="315.885" r="11.4876"/>
  <circle class="fil3" cx="425.669" cy="325.629" r="11.4876"/>
 </g>
</svg>