<?xml version="1.0" encoding="UTF-8" standalone="no"?>
<!-- Created with Inkscape (http://www.inkscape.org/) -->

<svg
   xmlns:dc="http://purl.org/dc/elements/1.1/"
   xmlns:cc="http://creativecommons.org/ns#"
   xmlns:rdf="http://www.w3.org/1999/02/22-rdf-syntax-ns#"
   xmlns:svg="http://www.w3.org/2000/svg"
   xmlns="http://www.w3.org/2000/svg"
   xmlns:sodipodi="http://sodipodi.sourceforge.net/DTD/sodipodi-0.dtd"
   xmlns:inkscape="http://www.inkscape.org/namespaces/inkscape"
   width="824"
   height="1200"
   id="svg2"
   version="1.1"
   inkscape:version="0.47pre4 r22446"
   sodipodi:docname="New document 1">
  <defs
     id="defs4">
    <inkscape:perspective
       sodipodi:type="inkscape:persp3d"
       inkscape:vp_x="0 : 526.18109 : 1"
       inkscape:vp_y="0 : 1000 : 0"
       inkscape:vp_z="744.09448 : 526.18109 : 1"
       inkscape:persp3d-origin="372.04724 : 350.78739 : 1"
       id="perspective10" />
    <inkscape:perspective
       id="perspective2824"
       inkscape:persp3d-origin="0.5 : 0.33333333 : 1"
       inkscape:vp_z="1 : 0.5 : 1"
       inkscape:vp_y="0 : 1000 : 0"
       inkscape:vp_x="0 : 0.5 : 1"
       sodipodi:type="inkscape:persp3d" />
  </defs>
  <sodipodi:namedview
     id="base"
     pagecolor="#ffffff"
     bordercolor="#666666"
     borderopacity="1.0"
     inkscape:pageopacity="0.0"
     inkscape:pageshadow="2"
     inkscape:zoom="0.35"
     inkscape:cx="499.22487"
     inkscape:cy="570.22853"
     inkscape:document-units="px"
     inkscape:current-layer="layer1"
     showgrid="false"
     inkscape:window-width="1280"
     inkscape:window-height="639"
     inkscape:window-x="0"
     inkscape:window-y="27"
     inkscape:window-maximized="1" />
  <metadata
     id="metadata7">
    <rdf:RDF>
      <cc:Work
         rdf:about="">
        <dc:format>image/svg+xml</dc:format>
        <dc:type
           rdf:resource="http://purl.org/dc/dcmitype/StillImage" />
        <dc:title></dc:title>
      </cc:Work>
    </rdf:RDF>
  </metadata>
  <g
     inkscape:label="Layer 1"
     inkscape:groupmode="layer"
     id="layer1"
     transform="translate(1062.7143,53.352102)">
    <g
       id="g2830"
       transform="translate(-1025.7143,8.5714286)">
      <path
         style="fill:#fefefe"
         d="m -37,538.07647 0,-600.000001 412,0 412,0 0,600.000001 0,600.00003 -412,0 -412,0 0,-600.00003 z"
         id="path2836" />
      <path
         style="fill:#b5b5b5"
         d="m 152,1079.4947 c -20.90835,-3.7603 -33.36501,-10.5394 -43.19504,-23.5072 -9.72001,-12.8227 -13.27439,-26.1596 -12.59578,-47.2622 0.39945,-12.42163 0.81852,-15.19183 3.43283,-22.69303 9.39215,-26.9485 31.02317,-40.99 63.06583,-40.9384 13.75006,0.022 22.70137,1.9161 32.96555,6.9751 22.65329,11.1653 34.96402,35.6724 32.99293,65.67943 -1.25286,19.073 -6.76551,32.4598 -18.00864,43.7317 -11.98916,12.0198 -25.25683,17.3257 -45.15768,18.0589 -6.05,0.2229 -12.125,0.203 -13.5,-0.044 z m 23.17945,-27.774 c 14.7283,-7.2255 22.18263,-30.1081 17.30676,-53.12683 -4.1527,-19.6045 -15.91631,-29.6397 -33.12555,-28.2583 -11.73145,0.9417 -20.67023,8.1351 -25.42268,20.4586 -2.78375,7.2185 -3.8297,26.07243 -1.97063,35.52193 2.39358,12.1663 8.95359,21.5269 18.03265,25.731 5.76348,2.6688 19.43525,2.4916 25.17945,-0.3264 z M 379,1077.1645 c 0,-1.0282 6.87129,-19.9785 31.39649,-86.58803 l 15.46413,-42 19.46462,-0.2708 19.46462,-0.2708 0.99946,2.7708 c 0.54971,1.5239 11.17199,30.388 23.60508,64.14253 12.43308,33.7544 22.6056,61.7775 22.6056,62.2736 0,0.5114 -7.40504,0.7835 -17.10348,0.6283 l -17.10348,-0.2736 -4.64652,-13 -4.64652,-13 -23.5,-0.2585 -23.5,-0.2584 -4.58787,13.2584 -4.58788,13.2585 -16.66212,0.2742 C 385.48941,1078.0181 379,1077.7508 379,1077.1645 z m 81.00898,-50.838 c 0.017,-1.4181 -14.49578,-43.25003 -15.00224,-43.24283 -0.51111,0.01 -15.04436,41.84903 -15.0199,43.24283 0.007,0.4125 6.76316,0.75 15.01316,0.75 8.25,0 15.00404,-0.3375 15.00898,-0.75 z M 255,1012.0765 l 0,-65.00003 16.9849,0 16.98489,0 0.26511,29.0319 0.2651,29.03203 22.80394,-29.03203 22.80394,-29.0319 18.94606,0 c 10.42033,0 18.94019,0.3375 18.93302,0.75 -0.007,0.4125 -10.84775,13.575 -24.09018,29.25 -13.24242,15.675 -24.30109,29.04013 -24.57482,29.70023 -0.36734,0.8858 31.6769,44.312 50.96725,69.0705 0.79507,1.0205 -3.09854,1.2174 -19.77004,1 l -20.7601,-0.2707 -17.93082,-24 c -9.86195,-13.2 -18.35558,-24.675 -18.87473,-25.5 -0.77048,-1.2244 -1.67423,-0.6732 -4.91887,3 l -3.97497,4.5 -0.0298,21.25 -0.0299,21.25 -17,0 -17,0 0,-65 z m 308,40.4089 0,-24.6383 -23.5,-39.34433 c -12.925,-21.6394 -23.5,-39.8227 -23.5,-40.4074 0,-0.7224 5.97293,-0.9759 18.64178,-0.791 l 18.64179,0.2721 13.60821,24.2419 c 7.48452,13.333 13.89483,24.2455 14.24514,24.25 0.3503,0 6.58869,-11.0169 13.86308,-24.4919 l 13.22617,-24.5 17.72025,0 c 9.74613,0 17.95118,0.2309 18.23343,0.5132 0.28226,0.2822 -10.19986,18.3947 -23.29359,40.25 l -23.80678,39.73683 -10e-6,24.5 -10e-6,24.5 -17.03973,0.2736 -17.03973,0.2736 0,-24.6383 z M 303,929.59087 c 0,-0.26709 2.8125,-1.90698 6.25,-3.64422 l 6.25,-3.15861 16.9546,0.60622 16.95461,0.60623 4.54539,-5.00433 4.5454,-5.00432 14.5,-1.01942 c 20.69303,-1.45483 18.17994,-0.0576 21.5851,-12.00086 0.38589,-1.35349 -0.93056,-1.7097 -8.40345,-2.27383 -4.87356,-0.3679 -10.35348,-1.09695 -12.17759,-1.6201 -1.82411,-0.52314 -5.1186,-1.21995 -7.32108,-1.54844 -5.43773,-0.81103 -27.43863,-7.58255 -42.68298,-13.13712 -20.31665,-7.40277 -47.03552,-20.90611 -57.5,-29.05969 -11.14283,-8.68215 -36.27884,-34.8328 -52.69465,-54.82174 -17.42862,-21.22222 -15.63797,-19.54754 -27.1956,-25.43417 -6.7974,-3.46211 -12.43214,-7.14973 -15.20744,-9.9524 -4.04194,-4.08181 -12.12224,-18.04491 -13.91611,-24.0476 -0.41091,-1.375 -1.58257,-4.3 -2.6037,-6.5 -1.02113,-2.2 -3.48589,-8.725 -5.47724,-14.5 -8.68175,-25.17746 -11.48225,-33.17711 -15.40344,-44 -5.93345,-16.37695 -12.87765,-36.49155 -15.01759,-43.5 -1.00761,-3.3 -2.97402,-9.74254 -4.36979,-14.31677 -1.39577,-4.57422 -2.80691,-10.19922 -3.13587,-12.5 -0.89065,-6.2293 -4.32026,-20.13648 -6.9601,-28.2234 -2.83352,-8.68025 -6.55518,-16.17329 -20.59236,-41.45983 -5.95371,-10.725 -13.1549,-25.3338 -16.00265,-32.46399 l -5.177716,-12.96399 -1.330173,-30.03601 c -0.731596,-16.51981 -2.057116,-46.23601 -2.945601,-66.03601 -1.227608,-27.35741 -1.518645,-51.24457 -1.212288,-99.5 0.37803,-59.54506 0.530576,-64.06054 2.449249,-72.5 5.504779,-24.21326 10.959219,-35.18595 25.839619,-51.98159 13.23773,-14.94153 16.2186,-20.84237 21.03971,-41.64959 1.95855,-8.45285 4.00016,-17.14543 4.5369,-19.31684 1.48863,-6.02228 7.40346,-16.588931 13.26092,-23.690211 13.76515,-16.68813 61.26512,-49.057333 82.86222,-56.467064 17.24218,-5.915608 21.83337,-6.474233 53.21302,-6.474594 22.71075,-2.6e-4 30.56645,-0.341681 36.04068,-1.566381 7.10067,-1.588569 19.5,-6.818426 19.5,-8.224814 0,-1.901596 7.40959,-9.148431 11.25267,-11.005512 9.37887,-4.532115 39.41747,-6.662678 51.08602,-3.623405 3.16739,0.825 9.23624,1.5 13.48633,1.5 19.93017,0 43.55744,5.584138 80.67498,19.066962 15.77276,5.729403 35.84952,15.277445 50,23.778848 23.35834,14.03334 46.35525,37.42992 72.396,73.654191 10.00413,13.91634 29.3922,48.84078 37.97378,68.40356 7.07923,16.13795 26.78886,75.55378 28.6961,86.50605 0.29599,1.69971 1.12325,4.89039 1.83836,7.09039 0.71511,2.2 2.2402,7.6 3.38909,12 7.89203,30.22465 10.33822,39.7661 13.71509,53.49614 2.09619,8.52288 3.94716,16.6635 4.11328,18.09026 0.16613,1.42677 1.43077,8.17851 2.81033,15.00386 4.5789,22.65411 5.35021,32.89924 5.03739,66.90974 -0.15935,17.325 -0.78751,35.325 -1.3959,40 -0.6084,4.675 -2.18766,16.375 -3.50948,26 -8.45929,61.59746 -10.36463,78.68039 -11.14156,99.89306 -1.05201,28.72321 -2.61574,32.73144 -38.66458,99.10694 -1.64289,3.025 -5.1181,9.1 -7.72268,13.5 -2.60458,4.4 -7.12621,12.275 -10.04806,17.5 -16.72479,29.90812 -21.56848,35.81384 -64.87278,79.0969 -38.10394,38.08524 -43.41377,42.47949 -65.72989,54.3959 -4.88647,2.60929 -13.09357,7.24394 -18.238,10.29922 -8.27754,4.91604 -11.32596,6.06005 -26.5,9.94493 -18.21163,4.66257 -20.28045,5.08569 -25.39649,5.19415 -4.43962,0.0941 -4.07752,1.60874 1,4.18283 2.3375,1.18502 8.3,6.08665 13.25,10.89251 l 9,8.73792 18.5,0.66993 c 18.06695,0.65425 18.64045,0.7418 24.5,3.73984 3.3,1.68845 6.4275,3.4695 6.95,3.95789 0.5539,0.51774 -38.74321,0.88798 -94.25,0.88798 -52.36,0 -95.2,-0.21852 -95.2,-0.4856 z m 112.5,-47.45786 c 17.26945,-2.75953 42.05544,-9.29755 44.77288,-11.81012 1.22491,-1.13257 9.20212,-5.74841 17.72712,-10.25741 23.06839,-12.20123 31.76449,-18.91533 58.87599,-45.45713 36.27259,-35.51039 54.76583,-57.18919 65.536,-76.82491 3.9842,-7.26384 11.31156,-20.18197 16.28301,-28.70697 4.97146,-8.525 10.69115,-18.65 12.71044,-22.5 2.01929,-3.85 7.45225,-14.2 12.07324,-23 4.62099,-8.8 10.29671,-20.725 12.6127,-26.5 l 4.2109,-10.5 0.79156,-19.5 c 1.00643,-24.79345 2.41603,-37.37812 11.53701,-103 4.73805,-34.08845 5.80083,-57.38141 4.19766,-92 -0.92561,-19.9876 -8.36487,-57.61051 -19.37775,-98 -1.87458,-6.875 -3.60122,-13.625 -3.83697,-15 -0.42199,-2.46117 -2.9924,-11.69298 -5.98625,-21.5 -0.83951,-2.75 -1.7245,-6.12808 -1.96665,-7.50684 -1.18037,-6.72098 -14.69986,-48.85096 -21.26238,-66.25868 -6.21467,-16.48504 -14.82188,-34.74105 -24.64526,-52.27294 -4.99369,-8.9123 -22.55313,-36.10923 -24.83232,-38.46154 -0.79935,-0.825 -4.58372,-5.55 -8.4097,-10.5 C 562.68524,97.626469 555.26754,89.138079 550.02745,83.713379 530.21633,63.204329 514.44821,52.251929 485.95584,39.209769 462.89579,28.654228 419.2707,15.482477 401.18378,13.614498 c -5.15757,-0.532663 -7.0837,-0.288273 -10.5,1.332259 -4.42888,2.10085 -13.98704,3.723228 -27.18378,4.614109 -4.4,0.297034 -11.825,0.981143 -16.5,1.520243 -4.675,0.5391 -11.28594,0.983597 -14.69098,0.987771 -3.40504,0.0042 -6.47657,0.469675 -6.82562,1.034448 -0.9615,1.555738 -15.32389,8.551323 -21.04386,10.249971 -5.70151,1.693166 -19.27461,2.352008 -40.14383,1.948591 -28.03162,-0.54187 -47.97345,3.234289 -64.88972,12.287449 -9.54035,5.10575 -37.34903,23.32012 -43.84211,28.71608 -16.51804,13.72703 -25.63451,23.909061 -28.4462,31.771051 -1.08183,3.025 -2.96311,10 -4.18062,15.5 -6.78538,30.65247 -8.84969,35.34152 -22.45228,51 -15.06225,17.33876 -18.83581,23.63901 -22.83063,38.11754 -5.94091,21.53179 -7.06608,39.03579 -6.29194,97.88246 0.34007,25.85 1.04046,55.55 1.55644,66 0.51598,10.45 1.65074,36.775 2.5217,58.5 0.87096,21.725 2.01107,42.65 2.53358,46.5 1.20016,8.84319 7.95529,24.40013 19.71924,45.41308 17.13143,30.6004 21.41285,40.64835 26.24208,61.58692 1.01481,4.4 2.14533,10.12571 2.51227,12.72379 0.36694,2.59808 2.18658,9.23558 4.04365,14.75 1.85707,5.51442 3.19241,10.02621 2.96741,10.02621 -0.22499,0 0.0825,1.2375 0.68331,2.75 0.60081,1.5125 3.04753,8.375 5.43715,15.25 2.38962,6.875 6.64712,18.8 9.46111,26.5 2.814,7.7 6.62143,18.5 8.46096,24 11.98402,35.83087 18.93268,51.72743 25.57156,58.50047 2.12967,2.17271 6.35241,4.75767 10.45492,6.40002 11.46225,4.58866 15.94487,8.4779 28.35265,24.59951 8.99114,11.68233 27.29221,32.22949 40.2913,45.23627 16.23671,16.2463 32.5336,25.66449 65.82846,38.04315 42.59888,15.83779 61.20156,18.97943 87.5,14.77712 z M 386,846.03474 c -4.675,-0.47142 -12.76522,-1.58208 -17.97827,-2.46811 -28.47661,-4.84004 -66.34537,-23.27787 -81.57652,-39.71859 C 276.47732,793.08857 266,775.3435 266,769.22073 c 0,-2.14884 3.00293,-5.14426 5.15717,-5.14426 0.82482,0 15.86439,7.01488 33.42126,15.58863 33.7939,16.50297 42.93995,20.42033 53.42157,22.88115 10.3441,2.42852 25.33863,2.98037 39.65976,1.4596 l 12.84024,-1.3635 -9,-0.76272 c -4.95,-0.4195 -15.075,-1.67291 -22.5,-2.78536 -17.29948,-2.5919 -18.31731,-2.59293 -17.5,-0.0178 0.94855,2.98861 -1.65653,2.55977 -9.35377,-1.5398 -7.16831,-3.81786 -27.20111,-19.09955 -27.93179,-21.30731 -0.35194,-1.06337 -0.0141,-1.11602 1.60412,-0.25 3.42803,1.83463 3.44021,1.28439 0.0752,-3.40123 -1.77676,-2.47409 -2.97333,-4.75548 -2.65904,-5.06976 0.31428,-0.31428 3.5854,2.15997 7.26916,5.49834 3.68375,3.33837 7.55236,6.06976 8.5969,6.06976 2.25835,0 2.34638,-0.82463 0.36737,-3.44113 -0.80751,-1.06762 -1.4682,-2.3539 -1.4682,-2.85841 0,-2.76404 12.91427,4.40231 15.01844,8.334 2.12841,3.97696 8.53533,6.02301 25.66645,8.19658 16.03336,2.03429 16.70256,2.04331 23.99853,0.32328 4.12789,-0.97315 11.1753,-3.63348 15.66091,-5.91184 7.94764,-4.03682 8.29893,-4.37151 13.77214,-13.12152 3.08906,-4.93847 6.82355,-9.88025 8.29888,-10.98174 2.67672,-1.99846 2.69024,-1.9985 6.38353,-0.021 4.50934,2.4145 5.1316,5.23951 2.23535,10.1483 -2.42766,4.11457 -2.19883,5.27779 0.46022,2.33957 1.8066,-1.99617 6.5056,-2.80715 6.5056,-1.12272 0,0.48585 0.87961,1.11339 1.95469,1.39453 2.85255,0.74596 9.88148,-7.15672 20.92657,-23.5279 5.10216,-7.5625 9.91613,-13.75 10.6977,-13.75 3.02321,0 1.02663,15.12654 -4.15776,31.5 -5.62342,17.76001 -20.65295,43.47734 -32.05547,54.85074 -6.84011,6.82264 -19.38099,15.42575 -28.47658,19.53508 -10.71638,4.8416 -23.99848,6.57403 -38.88915,5.07245 z M 234.80423,728.60797 c -4.7917,-4.79169 -6.9821,-17.10357 -4.25149,-23.8969 0.6299,-1.56709 0.40769,-1.75682 -1.38952,-1.1864 -2.96221,0.94016 -7.52852,-1.96909 -9.9796,-6.35813 -3.73721,-6.69207 -4.57128,-14.49087 -2.68782,-25.13189 0.92076,-5.202 1.87204,-10.80818 2.11397,-12.45818 0.24192,-1.65 2.22205,-6.56914 4.40029,-10.93142 2.17824,-4.36228 3.78568,-8.10617 3.57209,-8.31976 -0.21358,-0.21359 -2.32549,0.59992 -4.69312,1.80779 -2.83108,1.44431 -4.43332,1.81053 -4.68024,1.06976 -0.2065,-0.6195 -1.01296,-1.12637 -1.79212,-1.12637 -0.77917,0 -1.41667,-0.33771 -1.41667,-0.75047 0,-0.41276 3.31688,-4.95143 7.37083,-10.08594 6.18031,-7.82761 7.72855,-10.57335 9.58551,-16.99953 2.49959,-8.65001 3.5977,-11.16752 10.10395,-23.16406 2.53545,-4.675 6.0752,-12.17265 7.86611,-16.66146 3.96261,-9.93203 6.92233,-13.18412 10.51082,-11.5491 4.69621,2.13974 5.80039,5.30014 5.7715,16.51938 -0.0334,12.97156 -1.05428,16.70448 -6.68438,24.44189 -4.9503,6.80316 -5.25372,7.46641 -3.02434,6.61092 0.825,-0.31659 1.5,-0.0775 1.5,0.53138 0,0.60885 0.675,1.10699 1.5,1.10699 2.15815,0 1.84579,2.37709 -0.60364,4.5938 -2.99334,2.70893 -6.62071,9.22846 -7.73721,13.9062 -0.5251,2.2 -2.07799,7.825 -3.45086,12.5 -4.87725,16.60832 -4.76882,15.43979 -5.0107,54 -0.10867,17.325 -0.56165,32.0625 -1.00661,32.75 -1.23293,1.90499 -3.16271,1.50554 -5.88675,-1.2185 z M 226,690.07647 c 0,-4.88643 1.24566,-5.67333 4.88202,-3.08401 l 2.86837,2.04246 -0.1252,-18.22923 -0.12519,-18.22922 -3.32685,9.5 c -1.82977,5.225 -3.96727,11.73557 -4.75,14.46793 -1.64818,5.75348 -1.95859,18.98102 -0.42315,18.03207 0.55,-0.33992 1,-2.36492 1,-4.5 z m 24.25762,28.51233 c -0.82639,-0.93896 -1.19536,-4.57328 -1.10197,-10.85442 0.12216,-8.21665 -0.15419,-9.91949 -2.12822,-13.11353 -1.69733,-2.74633 -2.12383,-4.5629 -1.69367,-7.21367 1.07379,-6.61698 8.04479,-17.33071 11.27641,-17.33071 0.67979,0 2.58598,1.35 4.23598,3 1.65,1.65 3.72318,3 4.60706,3 2.38801,0 13.27301,-4.7355 19.54679,-8.5038 13.57548,-8.154 17.76578,-9.73394 27.25053,-10.27474 8.72054,-0.49722 8.90336,-0.5575 6.36397,-2.09831 -2.81321,-1.70695 -3.27828,-4.24708 -1.59042,-8.68649 0.92892,-2.44324 1.38997,-2.64446 4.96151,-2.16542 3.2936,0.44177 5.56457,-0.27013 13.88835,-4.35365 11.41831,-5.60165 13.75235,-7.97435 20.68391,-21.02651 5.18661,-9.76644 7.85656,-12.87667 9.57697,-11.15626 0.59815,0.59815 1.9294,5.19193 2.95833,10.2084 2.13431,10.40573 2.93124,12.25696 7.27684,16.90366 4.06542,4.34711 6.89095,5.42014 13.74794,5.22099 7.70167,-0.2237 14.35452,1.6369 17.98739,5.03052 4.11092,3.84017 3.00728,5.18453 -3.5805,4.36144 -3.442,-0.43005 -5.51997,-0.2767 -5.96294,0.44005 -0.37395,0.60507 -0.1768,1.10012 0.43812,1.10012 0.61492,0 0.85938,0.41851 0.54325,0.93001 -1.03744,1.67862 -11.38364,2.44734 -13.15481,0.97741 -1.83776,-1.52521 -8.81372,-2.61234 -22.50042,-3.50646 -8.05705,-0.52635 -10.02862,-0.35494 -12.18742,1.05956 -5.92189,3.88017 -19.41012,5.43653 -21.25438,2.45247 -0.93754,-1.51698 -2.06859,-1.03711 -3.1513,1.33701 l -1.02612,2.25 46.1156,-0.5 c 25.36358,-0.275 47.67855,-0.18723 49.58882,0.19503 1.91028,0.38227 3.98489,1.39477 4.61025,2.25 0.8699,1.18966 3.08029,1.55497 9.40874,1.55497 6.68167,0 8.93091,0.4074 11.70094,2.11937 2.19567,1.357 3.22735,2.64543 2.86803,3.58179 -0.30865,0.80433 -0.56118,1.79869 -0.56118,2.20969 0,0.71028 -1.75117,1.56747 -15.29989,7.48922 -3.18994,1.39423 -14.15767,8.22407 -24.37274,15.17743 -10.21508,6.95335 -21.33013,13.921 -24.70012,15.48365 -10.89787,5.05332 -21.83246,7.42273 -34.29447,7.43123 l -11.16723,0.008 -11.63762,-5.87838 c -8.74485,-4.41719 -12.8047,-7.13514 -16.33278,-10.9343 -2.58233,-2.78075 -6.15394,-6.51426 -7.9369,-8.29668 -3.69504,-3.69392 -13.07383,-7.66672 -18.25825,-7.73408 -3.5561,-0.0462 -19.7971,4.06834 -21.34934,5.40871 -1.24945,1.07891 0.24821,4.93473 1.91673,4.93473 1.10593,0 1.43261,1.5833 1.43261,6.9433 0,5.90304 -0.31224,7.16199 -2.08407,8.40303 -1.85419,1.29873 -2.00694,2.07711 -1.38478,7.05671 0.79633,6.37356 0.11872,6.85612 -4.34878,3.09696 -1.6341,-1.375 -3.18903,-2.5 -3.45541,-2.5 -0.26637,0 -1.04351,1.35 -1.72696,3 -1.34906,3.25692 -2.79976,3.71954 -4.74238,1.51233 z M 318,675.64456 c 0,-0.87625 -6.1342,-4.76723 -6.67035,-4.23107 -0.30537,0.30536 0.95804,1.47777 2.80757,2.60535 3.57874,2.18182 3.86278,2.30136 3.86278,1.62572 z m 15,-4.5167 c 0,-0.57827 -1.82537,-1.05139 -4.05637,-1.05139 -3.26566,0 -4.61153,-0.60782 -6.90435,-3.11813 -3.47107,-3.80034 -5.72699,-3.11244 -3.55665,1.08453 0.81141,1.5691 2.04726,3.0449 2.74633,3.27956 C 324.07707,672.27846 333,672.13097 333,671.12786 z m 19.4349,-3.02664 c 2.61015,-0.99238 3.16852,-2.52614 1.7392,-4.77729 -0.59382,-0.93526 -3.12303,-1.08731 -9.98469,-0.60026 -7.94196,0.56374 -9.18941,0.89671 -9.18941,2.45285 0,0.99031 0.7875,2.25925 1.75,2.81985 2.24395,1.30698 12.34545,1.37451 15.6849,0.10485 z M 391,664.19891 c 0,-2.75442 -3.25912,-3.40025 -13.73969,-2.72267 -5.87629,0.37991 -10.85886,0.86545 -11.07237,1.07896 -0.21352,0.21351 -0.0916,0.86815 0.27094,1.45474 C 367.2613,665.30828 391,665.49108 391,664.19891 z m 84.27838,36.38385 c -5.13359,-4.39416 -12.72282,-13.39518 -11.94771,-14.17029 0.32116,-0.32117 2.20387,0.37185 4.18379,1.54003 5.49908,3.24454 7.02902,2.82614 8.46872,-2.31596 2.07861,-7.42405 1.74308,-16.50544 -0.76085,-20.59341 -1.19032,-1.94333 -3.35741,-7.11833 -4.81576,-11.5 -2.24573,-6.74738 -2.63679,-9.59815 -2.55516,-18.6266 0.0575,-6.36006 0.66967,-12.32393 1.51764,-14.78519 l 1.42127,-4.12525 -3.29865,-2.24149 C 463.26812,610.89462 455.46929,601.62619 452.10992,595.48432 449.45205,590.62498 447,588.68145 447,591.43412 c 0,4.19942 -5.77931,2.39029 -8.92845,-2.79492 -1.02304,-1.6845 -2.17485,-4.99085 -2.55958,-7.34743 -0.38472,-2.35659 -1.88425,-5.69271 -3.33229,-7.41361 -2.17498,-2.58482 -2.70206,-4.36113 -3.03117,-10.21529 -0.31663,-5.63214 -0.88579,-7.6665 -2.77345,-9.91313 C 425.06878,552.19505 424,550.60767 424,550.22225 c 0,-0.91665 2.79481,-5.06819 5.27743,-7.83935 1.83252,-2.0455 2.12575,-2.08836 4.34387,-0.63499 2.13182,1.39682 2.3787,2.28873 2.3787,8.59366 0,5.40466 0.56664,8.217 2.44502,12.13499 1.34476,2.80495 2.69229,6.29343 2.99452,7.75217 0.35001,1.68937 2.3667,3.95778 5.55498,6.24834 3.25448,2.33811 5.00548,4.32477 5.00548,5.67916 0,1.28908 3.04936,5.0476 8,9.86048 6.37381,6.19645 8,8.36701 8,10.67803 0,1.81763 0.74674,3.36698 2,4.14966 1.43052,0.89337 2,2.33202 2,5.05249 0,3.0391 0.58395,4.2352 2.90573,5.95176 1.8528,1.36984 5.33204,6.91988 9.60147,15.31615 3.68266,7.24231 8.06036,15.4727 9.72823,18.28975 8.45018,14.27248 12.87518,29.90605 12.48434,44.10729 -0.25534,9.27765 -1.76745,10.62759 -6.53996,5.83854 -2.20941,-2.21707 -3.07367,-4.40189 -4.02182,-10.16695 -1.52372,-9.26471 -7.47144,-30.48238 -10.16594,-36.26557 -2.29923,-4.93482 -1.99109,-3.70364 1.77915,7.10861 2.2084,6.33324 2.61481,9.21124 2.61243,18.5 -0.003,11.98221 -1.2226,17.87665 -4.40538,21.29297 -2.90506,3.11822 -5.98666,2.74765 -10.69987,-1.28668 z m -11.39895,-23.79225 c -1.95394,-1.65083 -2.78634,-3.52617 -3.27225,-7.37218 -0.35843,-2.83698 -1.54168,-7.74493 -2.62944,-10.90655 -2.45056,-7.12269 -2.57117,-9.87701 -0.39595,-9.0423 0.86998,0.33385 1.77907,0.60699 2.02019,0.60699 0.78883,0 10.24862,14.99529 12.97425,20.56629 2.1684,4.43204 2.43192,5.71897 1.42057,6.93757 -1.80953,2.18034 -7.08973,1.76813 -10.11737,-0.78982 z m -77.8859,-92.59754 c -7.98473,-2.59081 -11.76791,-7.18293 -10.4018,-12.62594 0.32651,-1.30094 0.0421,-2.59881 -0.66521,-3.03597 -0.7971,-0.49264 -0.98079,-0.35142 -0.51765,0.39796 1.60525,2.59736 -2.61205,2.32697 -5.4024,-0.34636 -2.4718,-2.36813 -3.3906,-2.65671 -6.56344,-2.06148 -3.17805,0.59621 -4.2184,0.26691 -7.50752,-2.3763 -2.10003,-1.68762 -4.73948,-3.06841 -5.86544,-3.06841 -2.53646,0 -6.08148,-2.91985 -6.03685,-4.97224 0.0659,-3.02796 5.51788,-9.51637 9.00882,-10.72132 5.86319,-2.02375 12.98615,-1.62858 15.64351,0.86787 L 370,548.4251 l 0,-3.12991 c 0,-1.72144 -1.05492,-4.68442 -2.34427,-6.58438 -1.28935,-1.89996 -2.92642,-6.30745 -3.63794,-9.79441 -0.95375,-4.67412 -2.14809,-7.25955 -4.54554,-9.83993 -1.78853,-1.925 -3.97646,-4.94015 -4.86207,-6.70034 -1.80693,-3.59139 -2.17651,-12.83161 -0.55334,-13.83479 1.84084,-1.1377 5.59632,0.40397 10.09051,4.14226 6.83048,5.68163 8.21346,8.47716 7.59081,15.34388 l -0.52943,5.83859 7.0375,4.8085 c 3.87062,2.64468 9.37676,6.94647 12.23587,9.55954 8.02068,7.33045 13.36027,19.86409 15.06203,35.3552 0.56245,5.1199 0.3662,6.37633 -1.32147,8.46051 -1.70673,2.10772 -2.9362,2.483 -8.85233,2.70205 -3.77868,0.13991 -7.99824,-0.11159 -9.3768,-0.5589 z m -12.12257,-28.62226 c -0.10429,-3.19144 -0.7455,-5.97515 -1.52544,-6.62244 -0.74307,-0.6167 -1.34552,-0.6888 -1.34552,-0.16103 0,1.79302 2.27488,12.28923 2.66349,12.28923 0.21306,0 0.30642,-2.47759 0.20747,-5.50576 z m -187.16501,20.50576 c -0.33779,-2.475 -0.83032,-7.72302 -1.09452,-11.66227 -0.6569,-9.7946 -3.44001,-15.65007 -12.47367,-26.24372 -36.28959,-42.55631 -41.04207,-48.70487 -43.1917,-55.8797 -1.31668,-4.39469 0.24768,-57.95118 1.7723,-60.67554 1.46008,-2.60902 2.67489,-0.43059 8.10518,14.53442 5.24397,14.45153 10.04045,24.54638 19.30219,40.62413 3.23085,5.60852 5.87427,10.67102 5.87427,11.25 0,1.7638 1.86407,1.17518 3,-0.94732 0.68187,-1.27408 2.09382,-2 3.89013,-2 2.88938,0 3.67253,0.73766 17.84613,16.80966 4.19484,4.7567 7.37772,7.05474 16.00363,11.55465 5.92205,3.08937 11.38586,6.6074 12.14179,7.81784 1.24848,1.99913 1.11891,2.42059 -1.41398,4.59929 -2.76096,2.37488 -5.44416,2.5786 -9.75079,0.7403 -1.58602,-0.67699 -1.65815,-0.48689 -0.65265,1.71996 1.38374,3.03696 -0.74702,7.84911 -4.59061,10.36752 -4.71859,3.09174 -10.98706,19.21713 -12.95884,33.33611 -1.1536,8.26041 -1.21583,8.39988 -1.80886,4.05467 z m 4.73114,-62.08606 c -1.6154,-1.69733 -3.83709,-3.53965 -4.93709,-4.09404 -1.1,-0.55439 0.025,0.81514 2.5,3.04342 5.3724,4.83684 6.5054,5.32527 2.43709,1.05062 z m 127.32722,62.64663 c -6.53955,-3.41145 -18.78333,-14.82096 -23.92629,-22.29599 -5.70088,-8.28596 -10.14104,-19.26314 -10.21926,-25.26458 -0.0779,-5.97717 3.51326,-14.20916 6.44498,-14.77376 2.24771,-0.43287 8.39158,4.01824 8.7071,6.30812 0.17986,1.30531 -0.91193,2.7648 -3.25,4.34454 -4.18776,2.82952 -4.34646,4.55831 -1.02084,11.1211 1.375,2.71343 2.5,5.64582 2.5,6.51642 0,3.50727 3.81738,8.55159 15.26152,20.1667 8.30299,8.42705 11.81841,12.6662 11.40252,13.75 -0.74422,1.93939 -2.35946,1.97428 -5.89973,0.12745 z m -24.97912,-4.06057 c -2.67614,-1.81848 -5.00306,-2.5 -8.53579,-2.5 -5.88371,0 -13.37834,-3.47434 -18.17902,-8.42739 -3.93811,-4.0631 -5.02766,-10.30384 -3.0689,-17.57812 C 265.66956,537.8762 277,526.54927 277,531.07647 c 0,0.55 0.675,1 1.5,1 1.95985,0 1.88781,0.85178 -0.38768,4.58333 -2.31085,3.78954 -3.50446,10.3548 -2.61709,14.39494 0.53606,2.44067 1.17721,3.02255 3.33423,3.02599 3.4748,0.006 22.00066,10.21383 27.80003,15.31864 5.3044,4.66912 4.6798,5.63868 -3.64736,5.66179 -4.25472,0.0118 -6.36007,-0.55699 -9.19694,-2.48469 z M 468.08438,556.9868 c -6.96747,-20.67827 -9.51316,-23.56974 -29.58438,-33.60272 -14.735,-7.36557 -21.82712,-12.20852 -20.39877,-13.92958 0.59482,-0.71672 4.75288,-2.71406 9.24013,-4.43853 4.48725,-1.72447 11.34641,-5.11633 15.24257,-7.53745 5.46056,-3.39327 8.05371,-4.40205 11.31574,-4.40205 5.35759,0 7.3811,-1.10019 10.09251,-5.48735 2.47544,-4.00535 3.7469,-4.29233 7.15159,-1.6142 2.01972,1.58871 2.69955,1.68928 4.16678,0.61642 1.6034,-1.17243 1.51546,-1.34107 -1.02863,-1.97258 C 471.10832,483.83098 467,480.35024 467,478.44921 c 0,-0.70325 0.53477,-2.45232 1.18837,-3.88682 0.91713,-2.01287 1.69832,-2.48019 3.42257,-2.04743 1.89013,0.47439 2.41713,-0.0167 3.42197,-3.18887 0.65328,-2.06229 1.89913,-4.31212 2.76856,-4.99962 2.34518,-1.85444 7.01571,-1.51637 10.18009,0.73687 l 2.79031,1.98687 0.54337,-2.23687 c 0.29886,-1.23028 1.4676,-5.55253 2.5972,-9.60499 1.1296,-4.05247 3.41694,-15.2705 5.08297,-24.92895 1.66603,-9.65845 3.27309,-17.80476 3.57124,-18.10291 1.143,-1.14301 2.29049,2.52002 2.92051,9.32287 0.36047,3.89241 1.34816,10.90211 2.19486,15.57711 0.91448,5.04921 1.36017,11.62005 1.09783,16.18533 -0.53806,9.36373 -2.63939,13.90774 -16.33088,35.31467 -11.90307,18.61068 -15.83456,26.68657 -19.08156,39.19644 -2.51759,9.69962 -2.5316,9.97088 -1.32093,25.58517 0.673,8.67988 1.04005,15.96519 0.81567,16.18957 -0.22438,0.22439 -2.37438,-5.428 -4.77777,-12.56085 z m 20.89742,-88.19513 c 0.01,-0.43163 -1.3318,0.75277 -2.9818,2.63202 -1.65,1.87924 -3,4.21262 -3,5.18528 0,1.70009 5.94115,-6.06407 5.9818,-7.8173 z m -187.67747,49.3288 c -6.89568,-4.20456 -7.53618,-8.69639 -1.77801,-12.46929 2.58609,-1.69447 4.38981,-1.22113 6.56148,1.72187 0.3233,0.43812 2.06651,-0.0119 3.87382,-1 2.47531,-1.35334 3.39938,-1.48819 3.74553,-0.54658 0.25273,0.6875 1.09702,1.25 1.87618,1.25 2.25651,0 1.67343,2.14543 -2.1099,7.76335 -4.00273,5.94372 -6.63688,6.65386 -12.1691,3.28065 z M 395,483.87764 c -2.475,-1.20844 -8.59904,-6.27056 -13.60897,-11.24916 -5.00994,-4.97861 -10.74744,-10.45093 -12.75,-12.16071 -5.94303,-5.07415 -3.99841,-10.13163 2.22073,-5.77557 2.85104,1.99694 3.85856,1.14946 6.30949,-5.30728 l 1.78677,-4.70707 -5.97901,-5.43875 c -3.28845,-2.99131 -5.979,-5.93912 -5.97898,-6.55069 2e-5,-0.61157 1.57502,-2.36862 3.5,-3.90457 4.36686,-3.48432 4.39523,-4.99095 0.14349,-7.61867 -6.74365,-4.1678 -15.31358,-15.0887 -11.84052,-15.0887 0.44165,0 2.72107,1.41057 5.06539,3.1346 5.71864,4.20554 6.64048,3.15235 5.22515,-5.96969 C 368.49209,399.36497 368,393.37879 368,389.93875 l 0,-6.25461 -3.41359,3.30858 c -1.87748,1.81972 -3.89079,3.01367 -4.47402,2.65321 -2.98639,-1.84569 -8.4189,-30.29117 -8.03041,-42.04854 0.14576,-4.41151 -0.0914,-9.27655 -0.527,-10.81121 -0.84758,-2.98604 1.42779,-6.70971 4.10001,-6.70971 3.05467,0 0.92559,-3.26154 -5.90499,-9.04587 -3.9875,-3.37672 -8.03513,-7.33529 -8.99474,-8.79681 -2.11671,-3.22386 -2.27693,-9.06894 -0.32117,-11.71619 2.65725,-3.59674 6.32141,0.0189 13.76847,13.58631 3.6864,6.71605 6.98771,12.49486 7.33624,12.84178 0.34853,0.34693 1.98853,-1.05672 3.64444,-3.11922 1.65591,-2.0625 3.88945,-3.75 4.96341,-3.75 2.66488,0 7.51649,2.57129 12.56235,6.65788 9.13982,7.40225 31.49831,15.18005 46.81708,16.28618 7.97767,0.57604 9.57188,1.02726 13.72497,3.88465 12.78737,8.79795 22.35447,22.93539 24.33782,35.96436 0.31036,2.03881 0.96883,5.50693 1.46326,7.70693 1.49778,6.66439 1.20497,10.49924 -0.80213,10.50518 -1.35354,0.004 -1.80382,0.96685 -1.98757,4.25 -0.65536,11.71013 -7.93052,23.96757 -16.80147,28.30772 -5.23205,2.55981 -7.01089,2.84151 -22.81769,3.61354 -23.69201,1.15715 -23.30571,1.18458 -28.00372,-1.98844 -3.41241,-2.30473 -4.13785,-3.35725 -4.12988,-5.99192 0.0109,-3.61645 -1.05063,-4.21774 -2.02521,-1.14712 -0.87677,2.76245 0.7531,5.01911 11.21845,15.53273 9.66434,9.70891 19.29709,20.9432 19.29709,22.50541 0,2.17982 -11.1503,-6.29609 -29.34327,-22.30531 C 385.0306,436.26755 382,434.6131 382,437.49468 c 0,0.78002 -0.2751,2.13512 -0.61134,3.01134 -0.4262,1.11066 -0.17418,1.42538 0.83215,1.03921 C 385.10738,440.43755 402,454.9084 402,458.48882 c 0,0.73852 -0.66112,1.89144 -1.46915,2.56205 -1.78289,1.47966 -5.5768,-1.15728 -9.40392,-6.53615 -1.3455,-1.89104 -3.0873,-3.43825 -3.87067,-3.43825 -3.34184,0 9.2008,12.88079 16.58244,17.0295 4.64819,2.61243 4.84939,3.99287 0.79099,5.42712 -4.00378,1.41493 -8.75997,-1.58466 -16.01009,-10.0971 -3.36578,-3.9518 -6.27319,-7.03325 -6.46091,-6.84766 -1.09141,1.079 1.94994,5.35471 10.37409,14.5845 6.16112,6.75035 9.40276,11.07845 9.23137,12.32531 -0.38176,2.77731 -1.70155,2.85135 -6.76415,0.3795 z m 15.5,-55.65172 c 1.65,-1.01369 6.00963,-4.57862 9.68806,-7.92207 3.67844,-3.34345 8.85344,-7.04453 11.5,-8.22462 l 4.81194,-2.14562 -3,-2.45458 c -4.52086,-3.69893 -16.71807,-9.58449 -17.74164,-8.56092 -0.51389,0.51389 0.19026,3.53267 1.67811,7.1943 2.9602,7.28508 3.17365,10.10327 1.01478,13.39812 -1.4839,2.26471 -6.12492,4.86357 -8.03896,4.50162 -0.50176,-0.0949 -3.83729,-0.11156 -7.41229,-0.037 l -6.5,0.13547 5,2.9659 c 2.75,1.63124 5.225,2.97189 5.5,2.97921 0.275,0.007 1.85,-0.81607 3.5,-1.82976 z m 8.01945,-36.79529 c 2.23683,-0.85835 1.41526,-3.56237 -1.52653,-5.0242 -8.22522,-4.08731 -9.09041,-4.30981 -11.32931,-2.91354 -1.18998,0.74213 -6.6047,1.63988 -12.03271,1.99501 -5.428,0.35512 -10.7155,1.09866 -11.75,1.65231 -2.5503,1.36488 -2.37085,3.78702 0.3691,4.98203 2.33323,1.01762 33.3569,0.42604 36.26945,-0.69161 z M 291.58889,481.99974 C 290.165,480.30755 289,478.08433 289,477.05927 c 0,-1.02506 2.22511,-3.73999 4.94468,-6.03317 3.03403,-2.55833 5.19181,-5.29456 5.58423,-7.08125 1.03509,-4.71272 -0.49764,-10.76318 -3.63047,-14.33127 -3.56925,-4.06515 -3.65591,-6.47687 -0.34455,-9.58774 2.39302,-2.24812 2.72373,-2.30411 5.25,-0.8888 7.94298,4.44994 8.00926,32.64455 0.0993,42.2407 -3.71262,4.50404 -5.92355,4.65169 -9.31431,0.622 z M 215,477.07647 c 0,-0.55 -0.50625,-0.8875 -1.125,-0.75 -2.45794,0.54621 -1.63424,-2.10373 3.03066,-9.75 l 4.88071,-8 -2.0928,-2.02863 -2.0928,-2.02863 -6.25246,3.32007 c -7.97864,4.23668 -15.11649,5.23384 -18.71078,2.61391 -1.41607,-1.03219 -2.58882,-2.2092 -2.60611,-2.61556 -0.0173,-0.40636 3.68108,-2.64184 8.21858,-4.96772 l 8.25,-4.22889 -5.10053,-0.54594 c -8.72916,-0.93435 -16.64303,-7.3457 -29.6474,-24.01861 -2.49897,-3.20393 -2.73083,-3.30605 -2.74098,-1.20716 -0.007,1.36472 1.90259,4.33872 4.71649,7.34701 4.5151,4.82701 4.64134,5.11722 2.80887,6.45716 -4.50228,3.29214 -9.5191,-0.17705 -12.01591,-8.30915 -0.97738,-3.18332 -2.84434,-6.93748 -4.1488,-8.34258 C 159.06728,418.61666 158,417.03077 158,416.49755 c 0,-0.53321 -2.76731,-2.98359 -6.14959,-5.44528 -7.6461,-5.565 -10.32158,-9.54813 -12.41024,-18.4758 -3.39137,-14.49585 -0.40544,-24.74994 10.32524,-35.4583 12.9816,-12.95459 23.13798,-17.15134 48.29055,-19.9543 11.11295,-1.23841 13.76908,-2.51342 15.97976,-7.67073 1.41736,-3.30658 2.8456,-4.67695 7.06668,-6.78041 6.33109,-3.15491 9.75805,-3.32047 13.17047,-0.63626 5.42765,4.26939 5.72713,3.25415 5.72713,-19.41512 0,-10.03835 0.25203,-18.50357 0.56006,-18.81161 1.51093,-1.51093 6.35554,2.60306 8.2493,7.00522 4.29709,9.98886 4.59264,13.13839 2.62742,27.99929 -2.02857,15.33995 -3.06075,18.58542 -7.52958,23.67514 -3.05449,3.47886 -3.07964,3.59538 -1.82948,8.47328 1.45675,5.68392 0.0808,22.54956 -2.41656,29.62097 -1.38977,3.93518 -1.33963,4.19948 1.81184,9.55192 5.36241,9.10748 5.52861,10.32355 4.63305,33.90091 -1.03,27.11691 -1.04661,27.15974 -16.57881,42.75 C 219.50466,476.88653 215,480.06488 215,477.07647 z m 4,-37.12244 c 0,-0.48266 -0.85787,-0.87756 -1.90638,-0.87756 -1.42068,0 -1.77172,0.51492 -1.37786,2.02108 0.41527,1.58798 0.82378,1.77603 1.90638,0.87755 C 218.37996,441.34616 219,440.43668 219,439.95403 z m 1.07772,-8.01899 C 228.77072,429.33055 237,419.09185 237,410.88069 c 0,-4.80198 -0.002,-4.80422 -3.41821,-4.80422 -5.91114,0 -6.50159,0.56862 -4.98908,4.80457 0.72573,2.03249 1.33926,5.57303 1.3634,7.86788 0.0414,3.934 -0.16633,4.24182 -3.63459,5.38646 -5.08894,1.67949 -20.34164,0.63299 -24.22718,-1.66226 -3.37381,-1.99295 -4.37008,-3.82693 -6.07234,-11.17818 -1.51402,-6.53838 -0.73219,-9.99796 2.54066,-11.24229 1.37874,-0.5242 9.57867,-1.2483 18.22207,-1.60911 8.6434,-0.36081 16.78716,-1.05244 18.09725,-1.53697 2.3292,-0.86143 2.34109,-0.92613 0.53671,-2.91995 -1.0149,-1.12145 -4.72596,-4.09461 -8.2468,-6.60704 -4.68358,-3.34212 -6.92002,-5.74014 -8.33351,-8.93557 -1.06258,-2.40215 -2.31878,-4.36754 -2.79154,-4.36754 -2.11196,0 -14.04582,14.56643 -18.08812,22.07831 -6.08041,11.29933 -7.47264,12.90461 -11.2813,13.00764 l -3.17742,0.086 2.68122,0.80917 c 4.42125,1.33429 6.62847,3.38655 11.94933,11.11036 7.82841,11.36381 12.42648,13.6196 21.94717,10.76713 z M 107.57506,375.82647 c -5.81287,-5.66982 -7.55973,-9.7923 -7.56948,-17.86351 -0.007,-5.5503 1.68227,-14.97434 2.90238,-16.19445 1.72713,-1.72713 6.27222,2.71567 9.65972,9.44235 4.01741,7.97751 4.04697,8.24842 1.43232,13.12679 -1.1,2.05237 -2,3.92437 -2,4.16001 0,0.23563 1.89638,2.23283 4.21418,4.43822 4.15855,3.95685 4.1895,4.03705 2.34501,6.07519 -2.87422,3.17597 -5.13511,2.52048 -10.98413,-3.1846 z M 475.6593,357.61811 c -4.36865,-3.31028 3.30057,-11.11968 14.159,-14.41783 4.04655,-1.2291 7.524,-2.91511 8.03447,-3.89542 1.60846,-3.08893 2.33864,-14.80384 1.18884,-19.07385 -0.60181,-2.23498 -2.20738,-5.38652 -3.56791,-7.00343 -4.93525,-5.86521 -2.27033,-6.72841 7.0263,-2.27592 6.71175,3.2145 11.51896,7.72639 11.76902,11.04602 0.34077,4.52383 2.72466,-1.0704 2.51449,-5.90071 -0.15148,-3.48148 0.55803,-6.07322 2.88202,-10.52758 1.69563,-3.25 3.49525,-6.04651 3.99916,-6.21448 0.5039,-0.16797 1.79799,0.3419 2.87575,1.13304 1.7344,1.27316 1.95258,2.62482 1.89878,11.76348 -0.0722,12.27162 -0.75475,15.47302 -3.48333,16.33904 -2.01037,0.63807 -2.03275,1.39402 -0.18656,6.30145 0.72956,1.93925 -9.55917,11.44059 -19.17853,17.7108 -8.34523,5.4397 -10.5908,6.38827 -10.5908,4.47375 0,-0.55 -0.675,-1 -1.5,-1 -0.84951,0 -1.5,-0.89632 -1.5,-2.06689 0,-1.94031 -0.41136,-1.84845 -6.71728,1.5 -7.64767,4.06093 -7.18155,3.95881 -9.62342,2.10853 z M 328.3398,309.21751 C 320.49171,302.95994 314,295.2456 314,292.17701 c 0,-1.84198 5.91136,-7.82118 8.9954,-9.09863 2.39491,-0.99201 3.61335,-0.9924 6.0046,-0.002 3.58288,1.48408 3.68262,2.54146 0.79951,8.47577 l -2.20049,4.52927 3.58226,3.74748 c 4.9656,5.19464 6.03404,7.55094 4.84361,10.68201 -0.53646,1.41101 -1.39612,2.56547 -1.91034,2.56547 -0.51423,0 -3.11286,-1.73653 -5.77475,-3.85896 z m -73.29899,-12.76016 c -6.06157,-5.10047 -7.18059,-10.89265 -3.13945,-16.25011 l 1.73846,-2.30472 3.34666,2.81603 c 3.70293,3.11581 9.32697,14.37752 8.3941,16.80854 -0.97052,2.52912 -6.77666,1.92843 -10.33977,-1.06974 z M 256,266.42202 c -11.83521,-0.65396 -30.97323,-2.50389 -40.5,-3.91485 -5.5,-0.81457 -12.19654,-1.73191 -14.8812,-2.03854 -6.23784,-0.71246 -28.59368,-6.82214 -32.86167,-8.98085 C 163.12486,249.14483 158,245.16223 158,243.90539 c 0,-0.69234 2.18622,-0.91116 6.20149,-0.62073 4.73985,0.34285 5.77251,0.19441 4.38143,-0.62981 -3.34023,-1.97909 -6.08862,-4.40049 -5.57775,-4.91414 0.27785,-0.27935 6.78072,1.03191 14.45084,2.91392 7.67012,1.88201 16.21779,3.42149 18.99483,3.42105 l 5.04916,-7.9e-4 -4.20941,-2.08363 c -4.41278,-2.1843 -5.85377,-4.56502 -4.79059,-7.91479 1.01399,-3.1948 4.43126,-2.44617 17.11761,3.75 l 11.77285,5.75 15.05477,0 c 14.66064,0 15.08066,-0.059 16.04351,-2.25375 0.97034,-2.2118 3.2405,-2.54516 2.77326,-0.40724 -0.13091,0.59896 0.43159,0.83206 1.25,0.51801 0.94962,-0.3644 1.488,0.0305 1.488,1.09154 0,1.51912 2.52321,1.63618 29.25,1.35699 28.84282,-0.3013 29.30634,-0.33904 33.29753,-2.71127 3.93879,-2.34109 4.12012,-2.35815 6.75,-0.63499 1.48636,0.9739 2.70247,2.3836 2.70247,3.13267 0,3.40154 8.42673,5.78923 42.13642,11.93923 16.25384,2.96536 22.02521,3.58887 33.50376,3.61961 13.55793,0.0363 14.14617,-0.0538 26.36358,-4.0391 7.64067,-2.49236 15.79902,-6.01698 20.99624,-9.07092 4.675,-2.74708 9.22179,-5.00506 10.10398,-5.01773 2.57511,-0.037 6.89602,4.61799 6.89602,7.4292 0,3.50018 -2.84272,6.04086 -11.29639,10.09615 -3.96198,1.9006 -8.77861,4.46723 -10.70361,5.70362 -3.32474,2.13541 -4.66633,2.26581 -26.79179,2.60407 -33.54823,0.51288 -44.58507,-1.10325 -67.90588,-9.94349 -5.60872,-2.1261 -11.68372,-4.11015 -13.5,-4.409 -1.81628,-0.29885 -5.77733,-1.06401 -8.80233,-1.70037 -7.8029,-1.64147 -43.03625,-1.56178 -87,0.19677 -31.46159,1.25846 -35.80925,1.60104 -27,2.12746 5.775,0.34511 17.75108,0.68261 26.61351,0.75 17.618,0.13398 25.16163,1.14016 28.8919,3.85364 7.14718,5.19901 -1.03473,9.46928 -16.50541,8.61445 z m -51.8125,-22.02866 c -0.72188,-0.28887 -1.58438,-0.25335 -1.91667,0.0789 -0.33229,0.33229 0.25834,0.56864 1.3125,0.52522 1.16495,-0.048 1.4019,-0.28494 0.60417,-0.60416 z M 368.25,239.58064 c -1.71949,-1.95301 -1.7422,-1.91268 2.75,-4.88547 2.2,-1.45589 4,-3.31569 4,-4.13289 0,-1.27124 -3.35756,-1.48867 -23.25,-1.50562 -25.99939,-0.0222 -32.68398,-0.712 -44.25254,-4.56688 -11.94754,-3.98117 -15.51657,-4.12663 -22.65447,-0.92334 -7.16649,3.21614 -9.40223,2.88443 -24.13458,-3.58075 -27.36805,-12.01026 -43.55152,-16.90922 -55.8588,-16.90922 -4.7268,0 -7.45535,-0.46288 -8.42104,-1.42857 C 195.64286,200.86218 195,200.00738 195,199.74833 c 0,-0.25905 2.28931,-1.29422 5.08735,-2.30038 2.79804,-1.00617 5.56541,-2.73886 6.1497,-3.85043 1.06818,-2.03213 2.68922,-3.4773 3.93236,-3.50574 0.36818,-0.008 3.15877,2.25982 6.20131,5.04053 3.04254,2.78071 6.96548,5.46699 8.71763,5.9695 1.99524,0.57223 8.83564,0.483 18.3047,-0.23876 14.07253,-1.07266 15.31145,-1.02631 17.89989,0.66971 1.52951,1.00217 2.61832,2.32198 2.41959,2.93292 -0.19873,0.61093 -2.80285,1.6299 -5.78693,2.26436 -2.98408,0.63447 -4.83411,1.19697 -4.11117,1.25 0.72293,0.053 6.09105,1.89643 11.92915,4.09643 5.8381,2.2 11.04938,4 11.58063,4 0.53125,0 -1.34937,-2.44806 -4.17915,-5.44014 C 270.31528,207.64425 268,204.88537 268,204.50549 c 0,-1.39518 7.1628,0.53239 14.81156,3.9859 8.67296,3.91595 17.78547,6.86612 26.18844,8.4785 6.76285,1.29767 27.23493,3.8563 32,3.99941 1.925,0.0578 7.775,0.61986 13,1.249 18.93625,2.28008 38.68654,1.20264 51.26289,-2.79656 2.61959,-0.83301 8.15943,-3.95147 12.31076,-6.92992 4.15133,-2.97844 8.25492,-5.41535 9.11908,-5.41535 2.62992,0 8.30727,4.05033 8.30727,5.92657 0,0.9699 -0.84787,2.53077 -1.88416,3.46859 -1.84674,1.67128 -17.23323,8.02085 -28.11584,11.60261 -3.025,0.99561 -11.76408,4.32841 -19.42017,7.40622 -7.65609,3.0778 -14.40609,5.57889 -15,5.55797 -0.59391,-0.0209 -1.64233,-0.67692 -2.32983,-1.45779 z M 333.5,203.42495 c -1.1,-0.23074 -6.725,-1.50322 -12.5,-2.82775 -5.775,-1.32452 -14.325,-2.94094 -19,-3.59205 -4.675,-0.6511 -11.70054,-2.18394 -15.61232,-3.40632 -7.97908,-2.49335 -21.93396,-10.38964 -26.1275,-14.7841 l -2.76018,-2.89242 2.80959,-2.42621 c 3.38562,-2.92364 5.77021,-2.09358 8.81612,3.06887 2.44831,4.14956 3.06241,4.37813 13.70755,5.10186 10.56935,0.71857 14.34786,1.79744 20.12671,5.74671 5.9705,4.08023 15.50996,6.66441 27.04003,7.32497 8.74574,0.50105 10.82594,0.21849 26.20045,-3.55889 9.18524,-2.25673 18.18524,-4.09314 20,-4.08091 4.10468,0.0277 8.14191,2.96151 7.64266,5.55391 -0.56945,2.95692 -4.65519,4.31735 -15.95114,5.31126 -6.91281,0.60824 -12.69168,1.78452 -17.26103,3.51347 -6.30692,2.38642 -11.96971,3.03021 -17.13094,1.9476 z"
         id="path2834" />
      <path
         style="fill:#181818"
         d="m 153.49353,1079.066 c -0.4145,-0.6706 -1.75012,-0.8909 -3.19828,-0.5275 -1.36761,0.3433 -3.0988,0.116 -3.8471,-0.505 -0.7483,-0.6211 -1.83025,-0.8389 -2.40435,-0.4841 -0.57409,0.3548 -1.6063,0.2925 -2.2938,-0.1386 -0.6875,-0.431 -2.33283,-0.9324 -3.65629,-1.1141 -1.32346,-0.1818 -3.79846,-1.0732 -5.5,-1.9809 -1.70154,-0.9078 -3.43121,-1.558 -3.84371,-1.4449 -0.4125,0.1131 -0.75,-0.271 -0.75,-0.8534 0,-0.5825 -0.38185,-0.823 -0.84856,-0.5346 -0.4667,0.2884 -1.79789,-0.36 -2.95818,-1.441 -1.1603,-1.081 -2.40252,-1.9654 -2.7605,-1.9654 -1.83009,0 -13.43276,-12.0926 -13.43276,-14 0,-0.55 -0.45,-1 -1,-1 -0.55,0 -1,-0.675 -1,-1.5 0,-0.825 -0.47656,-1.5 -1.05902,-1.5 -0.58246,0 -0.7809,-0.45 -0.44098,-1 0.33992,-0.55 0.1718,-1 -0.3736,-1 -0.83812,0 -2.01334,-2.2832 -2.70224,-5.25 -0.0958,-0.4125 -0.2837,-1.0875 -0.41758,-1.5 -0.13388,-0.4125 -0.19013,-1.0875 -0.125,-1.5 0.0651,-0.4125 -0.37972,-0.75 -0.98857,-0.75 -0.60884,0 -0.8535,-0.6606 -0.54367,-1.468 0.30982,-0.8074 0.12563,-1.7385 -0.40933,-2.0691 -0.53495,-0.3306 -0.70155,-1.0397 -0.37023,-1.5758 0.33132,-0.5361 0.175,-1.5175 -0.34738,-2.1809 -1.33272,-1.6925 -1.38483,-2.4133 -1.38851,-19.2062 -0.004,-19.11993 0.006,-19.28273 1.19773,-20.01953 0.55055,-0.3403 0.72992,-1.0573 0.3986,-1.5934 -0.33132,-0.5361 -0.0586,-1.63 0.60613,-2.4309 0.6647,-0.8009 0.87334,-1.4562 0.46365,-1.4562 -0.40969,0 -0.18469,-0.675 0.5,-1.5 0.68469,-0.825 0.94896,-1.5 0.58726,-1.5 -0.36169,0 -0.0962,-1.0125 0.59001,-2.25 0.6862,-1.2375 1.15203,-2.5875 1.03518,-3 -0.11685,-0.4125 0.26411,-0.75 0.84657,-0.75 0.58246,0 0.7809,-0.45 0.44098,-1 -0.33992,-0.55 -0.14148,-1 0.44098,-1 0.58246,0 1.05902,-0.675 1.05902,-1.5 0,-0.825 0.9,-2.4 2,-3.5 1.1,-1.1 2,-2.2446 2,-2.5435 0,-0.9789 10.97487,-11.4565 12.00024,-11.4565 0.54987,0 0.99976,-0.45 0.99976,-1 0,-0.55 0.675,-1 1.5,-1 0.825,0 1.5,-0.525 1.5,-1.1667 0,-0.6416 0.27857,-0.8881 0.61905,-0.5476 0.34047,0.3405 1.27675,-0.039 2.08062,-0.8425 0.80386,-0.8039 1.87529,-1.2059 2.38095,-0.8934 0.50566,0.3125 0.91938,0.065 0.91938,-0.5498 0,-0.6149 0.41891,-0.8591 0.9309,-0.5427 0.512,0.3164 1.21809,0.1106 1.5691,-0.4573 0.35101,-0.5679 1.0571,-0.7737 1.5691,-0.4573 0.51199,0.3164 0.9309,0.051 0.9309,-0.5907 0,-0.6413 0.66059,-0.9125 1.46797,-0.6027 0.80739,0.3099 1.73849,0.1257 2.0691,-0.4093 0.33062,-0.5349 1.03974,-0.7015 1.57583,-0.3702 0.53609,0.3313 1.5175,0.1933 2.1809,-0.3068 1.75787,-1.325 4.68202,-1.5428 19.7062,-1.468 17.81641,0.089 17.80989,0.088 18.48247,1.1766 0.31987,0.5176 1.24217,0.6876 2.04956,0.3777 0.80738,-0.3098 1.46797,-0.079 1.46797,0.5123 0,0.5916 0.62948,0.8341 1.39885,0.5388 0.76937,-0.2952 1.70046,-0.049 2.0691,0.5477 0.36863,0.5965 1.08915,0.8256 1.60115,0.5092 0.51199,-0.3164 0.9309,-0.099 0.9309,0.4837 0,0.5824 0.3375,0.952 0.75,0.8212 1.26478,-0.4009 7.25,2.4209 7.25,3.4181 0,0.5158 0.45,0.6596 1,0.3197 0.55,-0.3399 1,-0.1415 1,0.441 0,0.5824 0.52475,1.059 1.16611,1.059 1.29509,0 2.54852,1.0191 8.18164,6.6523 5.63312,5.6331 6.65225,6.8865 6.65225,8.1816 0,0.6413 0.44143,1.1661 0.98095,1.1661 0.53952,0 1.2633,1.125 1.60841,2.5 0.3451,1.375 1.05523,2.5 1.57807,2.5 0.52283,0 0.69624,0.4116 0.38536,0.9146 -0.31089,0.503 -0.0925,1.0722 0.48541,1.2648 0.57787,0.1926 1.12643,1.3561 1.21904,2.5854 0.0926,1.2294 0.57075,2.2352 1.06255,2.2352 0.4918,0 0.65205,0.631 0.3561,1.4022 -0.29595,0.7713 -0.23159,1.7088 0.14301,2.0834 0.37461,0.3746 0.73735,1.0936 0.8061,1.5977 0.0688,0.5042 0.23868,1.0292 0.37762,1.1667 0.13895,0.1375 0.43232,1.375 0.65195,2.75 0.21963,1.375 0.65239,4.075 0.96168,6 0.95602,5.95003 0.57389,27.46703 -0.53278,30.00003 -0.12015,0.275 -0.41709,2.0337 -0.65987,3.9083 -0.24278,1.8745 -0.94251,4.012 -1.55495,4.75 -0.61245,0.7379 -0.81761,1.3417 -0.45591,1.3417 0.36169,0 0.0962,1.0125 -0.59001,2.25 -0.6862,1.2375 -1.15203,2.5875 -1.03518,3 0.11685,0.4125 -0.26411,0.75 -0.84657,0.75 -0.58246,0 -0.7809,0.45 -0.44098,1 0.33992,0.55 0.11492,1 -0.5,1 -0.61492,0 -0.83992,0.45 -0.5,1 0.33992,0.55 0.11492,1 -0.5,1 -0.61492,0 -0.83992,0.45 -0.5,1 0.33992,0.55 0.14148,1 -0.44098,1 -0.58246,0 -1.05902,0.6891 -1.05902,1.5314 0,0.8422 -0.675,1.7904 -1.5,2.107 -0.825,0.3166 -1.5,1.0027 -1.5,1.5248 0,1.3553 -9.50741,10.8368 -10.86638,10.8368 -0.62349,0 -1.13362,0.45 -1.13362,1 0,0.55 -0.675,1 -1.5,1 -0.825,0 -1.5,0.4766 -1.5,1.059 0,0.5825 -0.45,0.7809 -1,0.441 -0.55,-0.3399 -1,-0.1718 -1,0.3736 0,0.9945 -3.84326,2.6961 -5.25,2.3245 -0.4125,-0.1089 -0.75,0.2519 -0.75,0.8019 0,0.55 -0.3375,0.9467 -0.75,0.8816 -0.4125,-0.065 -1.0875,-0.01 -1.5,0.125 -0.4125,0.1339 -1.2,0.3559 -1.75,0.4934 -0.55,0.1375 -1.1125,0.3407 -1.25,0.4515 -0.27031,0.2179 -3.33221,1.0047 -5.75,1.4775 -0.825,0.1613 -2.175,0.5615 -3,0.8892 -0.825,0.3277 -2.625,0.6333 -4,0.679 -1.375,0.046 -6.39132,0.3218 -11.14737,0.6136 -5.96315,0.3657 -8.8683,0.1729 -9.3591,-0.6213 z m 16.14111,-25.2637 c 0.55303,-0.3418 2.28752,-0.8539 3.85443,-1.138 1.56691,-0.2842 3.21598,-1.0952 3.66461,-1.8022 0.44863,-0.7071 0.82259,-0.9742 0.83101,-0.5936 0.0242,1.0955 9.01531,-8.0661 9.01531,-9.1863 0,-0.5531 0.47656,-1.0057 1.05902,-1.0057 0.58246,0 0.7809,-0.45 0.44098,-1 -0.33992,-0.55 -0.11492,-1 0.5,-1 0.61492,0 0.83992,-0.45 0.5,-1 -0.33992,-0.55 -0.11492,-1 0.5,-1 0.61492,0 0.85914,-0.4189 0.54271,-0.9309 -0.31644,-0.512 -0.11065,-1.2181 0.45729,-1.5691 0.56794,-0.351 0.79294,-1.026 0.5,-1.5 -0.29294,-0.474 -0.0679,-1.149 0.5,-1.5 0.56794,-0.351 0.77373,-1.0571 0.45729,-1.5691 -0.31643,-0.512 -0.24187,-1.4704 0.16569,-2.1299 2.02513,-3.2767 2.08605,-25.2267 0.079,-28.47423 -0.38967,-0.6305 -0.43388,-1.8619 -0.0983,-2.7366 0.35131,-0.9154 0.0951,-1.5902 -0.60374,-1.5902 -0.66769,0 -0.96611,-0.6459 -0.66317,-1.4354 0.30295,-0.7895 0.2386,-1.577 -0.14301,-1.75 -0.3816,-0.173 -1.78866,-2.4894 -3.1268,-5.1476 -1.95716,-3.8878 -8.32142,-11.667 -9.5449,-11.667 -0.15283,0 -2.02033,-0.7586 -4.15,-1.6858 -2.12966,-0.9271 -4.25699,-1.5864 -4.72738,-1.4649 -0.47039,0.1215 -1.37039,-0.1964 -2,-0.7064 -1.56312,-1.2661 -9.7938,-1.2641 -11.32035,0 -0.68023,0.5646 -1.6754,0.7554 -2.21149,0.4241 -0.53609,-0.3313 -1.26189,-0.1377 -1.6129,0.4302 -0.35101,0.5679 -1.0571,0.7737 -1.5691,0.4573 -0.51199,-0.3164 -0.9309,-0.072 -0.9309,0.5427 0,0.6149 -0.45,0.8399 -1,0.5 -0.55,-0.3399 -1,-0.1149 -1,0.5 0,0.6149 -0.45,0.8399 -1,0.5 -0.55,-0.3399 -1,-0.1303 -1,0.4657 0,0.5961 -1.13053,1.5136 -2.51229,2.039 -1.38176,0.5253 -3.02899,2.0892 -3.66052,3.4752 -0.63152,1.3861 -1.52599,2.5201 -1.98771,2.5201 -0.46171,0 -0.83948,0.675 -0.83948,1.5 0,0.825 -0.525,1.5 -1.16667,1.5 -0.64166,0 -0.8825,0.2842 -0.53518,0.6315 0.34732,0.3473 0.10076,1.5848 -0.5479,2.75 -0.64866,1.1652 -1.25158,2.456 -1.33981,2.8685 -0.0882,0.4125 -0.25112,0.8625 -0.36195,1 -0.22226,0.2757 -0.84825,2.9071 -1.60581,6.75 -0.96737,4.90733 -0.40254,27.56223 0.73675,29.55053 0.77367,1.3502 2.17999,6.8062 1.98461,7.6995 -0.0902,0.4125 0.31252,0.75 0.89498,0.75 0.58246,0 0.7809,0.45 0.44098,1 -0.33992,0.55 -0.11492,1 0.5,1 0.61492,0 0.83992,0.45 0.5,1 -0.33992,0.55 -0.14148,1 0.44098,1 0.58246,0 1.05902,0.405 1.05902,0.9 0,2.6367 11.04089,10.7884 15.84163,11.6962 0.7379,0.1396 1.48901,0.4 1.66914,0.5788 0.58996,0.5855 13.09308,0.1879 14.12387,-0.4492 z M 379,1077.1645 c 0,-1.0282 6.87129,-19.9785 31.39649,-86.58803 l 15.46413,-42 19.46462,-0.2708 19.46462,-0.2708 0.99946,2.7708 c 0.54971,1.5239 11.17199,30.388 23.60508,64.14253 12.43308,33.7544 22.6056,61.7775 22.6056,62.2736 0,0.5114 -7.40504,0.7835 -17.10348,0.6283 l -17.10348,-0.2736 -4.64652,-13 -4.64652,-13 -23.5,-0.2585 -23.5,-0.2584 -4.58787,13.2584 -4.58788,13.2585 -16.66212,0.2742 C 385.48941,1078.0181 379,1077.7508 379,1077.1645 z m 81.00898,-50.838 c 0.017,-1.4181 -14.49578,-43.25003 -15.00224,-43.24283 -0.51111,0.01 -15.04436,41.84903 -15.0199,43.24283 0.007,0.4125 6.76316,0.75 15.01316,0.75 8.25,0 15.00404,-0.3375 15.00898,-0.75 z m -204.16574,49.75 c 1.11475,-0.8487 0.77598,-127.41243 -0.34324,-128.23473 -0.55,-0.4041 6.77579,-0.7416 16.27954,-0.75 l 17.27953,-0.015 -0.27953,29.0006 c -0.21865,22.6831 -0.007,29.00053 0.97046,29.00003 0.6875,-3e-4 1.25,-0.6718 1.25,-1.4921 0,-0.8204 0.9,-2.0536 2,-2.7406 1.1,-0.6869 2,-1.79993 2,-2.47333 0,-0.6733 0.9,-1.7059 2,-2.2946 1.1,-0.5887 2,-1.5793 2,-2.2013 0,-0.622 0.65411,-1.8437 1.45358,-2.7148 4.81463,-5.2462 5.54642,-6.1762 5.54642,-7.0487 0,-0.5307 0.9,-1.4465 2,-2.0352 1.1,-0.5887 2,-1.5793 2,-2.2013 0,-0.622 0.65411,-1.8437 1.45358,-2.7148 4.81463,-5.2462 5.54642,-6.1762 5.54642,-7.0487 0,-0.5307 0.9,-1.4465 2,-2.0352 1.1,-0.5887 2,-1.7437 2,-2.5666 0,-0.8229 0.675,-1.7552 1.5,-2.0718 0.825,-0.3166 1.5,-1.1986 1.5,-1.9601 0,-0.7615 0.9,-1.9466 2,-2.6336 1.1,-0.6869 2,-1.7999 2,-2.4733 0,-0.6733 0.9,-1.7059 2,-2.2946 1.1,-0.5887 2,-1.6295 2,-2.3129 0,-0.6835 0.90514,-2.0176 2.01143,-2.9649 1.74667,-1.4955 4.45448,-1.7222 20.57143,-1.7222 16.87272,0 18.41714,0.1429 16.98857,1.5714 -0.86429,0.8643 -1.57143,2.2039 -1.57143,2.977 0,0.773 -1.125,2.1426 -2.5,3.0436 -1.375,0.9009 -2.5,2.1439 -2.5,2.7622 0,1.0466 -0.94727,2.1525 -8.25,9.6318 -1.5125,1.549 -2.75,3.2107 -2.75,3.6925 0,0.4819 -1.2375,2.0677 -2.75,3.524 -1.5125,1.4563 -3.875,4.0673 -5.25,5.8023 -1.375,1.735 -3.7375,4.4242 -5.25,5.9761 -1.5125,1.5518 -2.75,3.3056 -2.75,3.8973 0,0.5916 -1.125,1.8128 -2.5,2.7138 -1.375,0.9009 -2.5,2.1439 -2.5,2.7622 0,0.6183 -1.09152,2.2541 -2.4256,3.635 -7.85083,8.12663 -8.51324,9.43803 -5.56445,11.01613 1.09453,0.5858 1.99005,1.6761 1.99005,2.4229 0,0.7468 0.675,1.6168 1.5,1.9334 0.825,0.3166 1.5,1.2166 1.5,2 0,0.7834 0.675,1.6834 1.5,2 0.825,0.3166 1.5,1.2166 1.5,2 0,0.7834 0.675,1.6834 1.5,2 0.825,0.3166 1.5,1.2166 1.5,2 0,0.7834 0.675,1.6834 1.5,2 0.825,0.3166 1.5,1.2489 1.5,2.0718 0,0.8229 0.9,1.9779 2,2.5666 1.1,0.5887 2,1.6814 2,2.4282 0,0.7468 0.675,1.6168 1.5,1.9334 0.825,0.3166 1.5,1.2166 1.5,2 0,0.7834 0.675,1.6834 1.5,2 0.825,0.3166 1.5,1.2166 1.5,2 0,0.7834 0.675,1.6834 1.5,2 0.825,0.3166 1.5,1.2166 1.5,2 0,0.7834 0.675,1.6834 1.5,2 0.825,0.3166 1.5,1.2166 1.5,2 0,0.7834 0.675,1.6834 1.5,2 0.825,0.3166 1.5,1.1647 1.5,1.8848 0,0.72 0.7875,2.0684 1.75,2.9965 3.75378,3.6194 5.25,5.4673 5.25,6.484 0,0.5825 0.675,1.3181 1.5,1.6347 0.825,0.3166 1.5,1.2166 1.5,2 0,0.7834 0.675,1.6834 1.5,2 0.825,0.3166 1.5,1.2166 1.5,2 0,0.7834 0.72169,1.7014 1.60375,2.0398 0.94476,0.3626 1.36038,1.2497 1.01146,2.159 -0.32577,0.8489 -0.17855,1.2878 0.32715,0.9752 0.50569,-0.3125 1.133,-0.2234 1.39402,0.1981 0.73064,1.1798 -39.12081,0.452 -41.37735,-0.7556 -1.07747,-0.5767 -1.95903,-1.5016 -1.95903,-2.0555 0,-0.9484 -0.79675,-2.0927 -3.75,-5.3859 -0.6875,-0.7666 -1.25,-1.8278 -1.25,-2.3583 0,-0.5304 -0.675,-1.2234 -1.5,-1.54 -0.825,-0.3166 -1.5,-1.2166 -1.5,-2 0,-0.7834 -0.675,-1.6834 -1.5,-2 -0.825,-0.3166 -1.5,-1.2166 -1.5,-2 0,-0.7834 -0.675,-1.6834 -1.5,-2 -0.825,-0.3166 -1.5,-1.2166 -1.5,-2 0,-0.7834 -0.675,-1.6834 -1.5,-2 -0.825,-0.3166 -1.5,-1.2166 -1.5,-2 0,-0.7834 -0.675,-1.6834 -1.5,-2 -0.825,-0.3166 -1.5,-1.2166 -1.5,-2 0,-0.7834 -0.675,-1.6834 -1.5,-2 -0.825,-0.3166 -1.5,-1.2166 -1.5,-2 0,-0.7834 -0.675,-1.6834 -1.5,-2 -0.825,-0.3166 -1.5,-1.2166 -1.5,-2 0,-0.7834 -0.675,-1.6834 -1.5,-2 -0.825,-0.3166 -1.5,-1.2648 -1.5,-2.107 0,-0.8423 -0.45,-1.5314 -1,-1.5314 -0.55,0 -1,-0.6891 -1,-1.5314 0,-0.8422 -0.675,-1.7904 -1.5,-2.107 -0.825,-0.3166 -1.5,-1.2128 -1.5,-1.9916 0,-1.1623 -0.44815,-1.1225 -2.5,0.222 -1.375,0.9009 -2.5,2.2357 -2.5,2.9663 0,0.7306 -0.89083,1.9523 -1.97962,2.7149 -1.85144,1.2968 -1.99712,2.7594 -2.25,22.5899 l -0.27038,21.2033 -16.65676,0.2168 c -9.16122,0.1192 -16.36122,-0.01 -16,-0.2832 z m 307.37372,-24.2507 c 0.15567,-13.613 -0.0545,-24.7505 -0.46696,-24.75 -0.4125,4e-4 -0.75,-0.6743 -0.75,-1.4993 0,-0.825 -0.525,-1.5 -1.16667,-1.5 -0.64166,0 -0.90363,-0.263 -0.58215,-0.5845 0.32149,-0.3215 -0.16601,-1.4611 -1.08333,-2.5324 -0.91732,-1.0714 -1.44285,-2.0564 -1.16785,-2.189 0.275,-0.1326 -0.49694,-1.3111 -1.71542,-2.619 -1.21848,-1.3079 -1.97942,-2.7598 -1.69098,-3.2265 0.28844,-0.4667 0.0782,-0.8486 -0.4672,-0.8486 -0.54539,0 -1.302,-0.9779 -1.68135,-2.1731 -0.37935,-1.1952 -1.51911,-3.0634 -2.53281,-4.1515 -1.01369,-1.088 -1.60708,-2.3601 -1.31864,-2.8268 0.28844,-0.4667 0.0564,-0.8486 -0.51553,-0.8486 -0.57198,0 -1.32232,-1.125 -1.66743,-2.50003 -0.3451,-1.375 -0.99835,-2.5 -1.45166,-2.5 -0.45331,0 -1.1389,-0.9915 -1.52352,-2.2034 -0.38463,-1.2118 -1.31495,-2.819 -2.06739,-3.5714 -0.75244,-0.7524 -1.36807,-2.0109 -1.36807,-2.7966 0,-0.7857 -0.41968,-1.4286 -0.93261,-1.4286 -0.51294,0 -1.24731,-0.9915 -1.63193,-2.2034 -0.38463,-1.2118 -1.31495,-2.819 -2.06739,-3.5714 -0.75244,-0.7524 -1.36807,-2.0109 -1.36807,-2.7966 0,-0.7857 -0.47656,-1.4286 -1.05902,-1.4286 -0.58246,0 -0.7809,-0.45 -0.44098,-1 0.33992,-0.55 0.14148,-1 -0.44098,-1 -0.58246,0 -1.05902,-0.675 -1.05902,-1.5 0,-0.825 -0.44143,-1.5 -0.98095,-1.5 -0.53952,0 -1.2633,-1.125 -1.60841,-2.5 -0.3451,-1.375 -1.05523,-2.5 -1.57807,-2.5 -0.52283,0 -0.67249,-0.45 -0.33257,-1 0.33992,-0.55 0.14148,-1 -0.44098,-1 -0.58246,0 -1.05902,-0.675 -1.05902,-1.5 0,-0.825 -0.47656,-1.5 -1.05902,-1.5 -0.58246,0 -0.7809,-0.45 -0.44098,-1 0.33992,-0.55 0.14148,-1 -0.44098,-1 -0.58246,0 -1.05902,-0.675 -1.05902,-1.5 0,-0.825 -0.525,-1.5 -1.16667,-1.5 -0.64166,0 -0.89376,-0.2729 -0.56021,-0.6064 0.33354,-0.3336 -0.2509,-1.5267 -1.29876,-2.6515 -1.04786,-1.1247 -1.6692,-2.4268 -1.38076,-2.8935 0.28844,-0.4667 0.0479,-0.8486 -0.53458,-0.8486 -0.58246,0 -1.05902,-0.675 -1.05902,-1.5 0,-1.2796 2.73262,-1.5 18.59362,-1.5 17.75262,0 18.61728,0.091 19.11663,2 0.28766,1.1 0.94709,2 1.4654,2 0.51831,0 0.66427,0.45 0.32435,1 -0.33992,0.55 -0.1706,1 0.37626,1 0.54685,0 1.56381,1.575 2.2599,3.5 0.69609,1.925 1.65177,3.5 2.12375,3.5 0.47197,0 0.58001,0.45 0.24009,1 -0.33992,0.55 -0.21371,1 0.28047,1 0.96474,0 3.68342,5.0063 3.39404,6.25 -0.096,0.4125 0.24636,0.75 0.76076,0.75 0.5144,0 1.5048,1.575 2.20089,3.5 0.69609,1.925 1.65177,3.5 2.12375,3.5 0.47197,0 0.58001,0.45 0.24009,1 -0.33992,0.55 -0.21371,1 0.28047,1 0.96474,0 3.68342,5.0063 3.39404,6.25 -0.096,0.4125 0.24636,0.75 0.76076,0.75 0.5144,0 1.5048,1.575 2.20089,3.5 0.69609,1.925 1.65177,3.5 2.12375,3.5 0.47197,0 0.58001,0.45 0.24009,1 -0.33992,0.55 -0.11492,1 0.5,1 0.61492,0 0.83992,0.45 0.5,1 -0.33992,0.55 0.21812,1 1.24009,1 1.21584,0 2.29561,-1.2098 3.12375,-3.5 0.69609,-1.925 1.71305,-3.5 2.2599,-3.5 0.54686,0 0.71618,-0.45 0.37626,-1 -0.33992,-0.55 -0.11492,-1 0.5,-1 0.61492,0 0.83992,-0.45 0.5,-1 -0.33992,-0.55 -0.14148,-1 0.44098,-1 0.58246,0 0.97794,-0.3375 0.87885,-0.75 -0.29379,-1.223 3.47475,-8.25 4.4244,-8.25 0.48059,0 0.59569,-0.45 0.25577,-1 -0.33992,-0.55 -0.11492,-1 0.5,-1 0.61492,0 0.83992,-0.45 0.5,-1 -0.33992,-0.55 -0.25398,-1.0017 0.19098,-1.0037 0.44496,0 1.64109,-2.0271 2.65808,-4.5 1.01698,-2.473 2.28103,-4.4963 2.80901,-4.4963 0.52798,0 0.68185,-0.45 0.34193,-1 -0.33992,-0.55 -0.25398,-1.0017 0.19098,-1.0037 0.44496,0 1.64109,-2.0271 2.65808,-4.5 1.01698,-2.473 2.28103,-4.4963 2.80901,-4.4963 0.52798,0 0.68185,-0.45 0.34193,-1 -0.33992,-0.55 -0.14148,-1 0.44098,-1 0.58246,0 0.94652,-0.5625 0.80902,-1.25 -0.19096,-0.9548 3.98341,-1.3147 17.67621,-1.5238 9.85941,-0.1506 18.2994,0.099 18.75552,0.5555 0.45611,0.4561 -0.0181,1.7389 -1.05388,2.8507 -1.03575,1.1117 -2.19355,2.9993 -2.5729,4.1945 -0.37935,1.1952 -1.1094,2.1731 -1.62234,2.1731 -0.51293,0 -0.93261,0.6429 -0.93261,1.4286 0,0.7857 -0.61563,2.0442 -1.36807,2.7966 -0.75244,0.7524 -1.68276,2.3596 -2.06739,3.5714 -0.38462,1.2119 -1.11899,2.2034 -1.63193,2.2034 -0.51293,0 -0.93261,0.6429 -0.93261,1.4286 0,0.7857 -0.61563,2.0442 -1.36807,2.7966 -0.75244,0.7524 -1.68276,2.3596 -2.06739,3.5714 -0.38462,1.2119 -1.11899,2.2034 -1.63193,2.2034 -0.51293,0 -0.93261,0.6429 -0.93261,1.4286 0,0.7857 -0.61563,2.0442 -1.36807,2.7966 -0.75244,0.7524 -1.68276,2.3596 -2.06739,3.5714 -0.38462,1.2119 -1.11899,2.2034 -1.63193,2.2034 -0.51293,0 -0.93261,0.6429 -0.93261,1.4286 0,0.7857 -0.61563,2.0442 -1.36807,2.7966 -0.75244,0.7524 -1.68276,2.3596 -2.06739,3.5714 -0.38462,1.2119 -1.07021,2.2034 -1.52352,2.2034 -0.45331,0 -1.10656,1.125 -1.45166,2.5 -0.34511,1.37503 -1.09545,2.50003 -1.66743,2.50003 -0.57198,0 -0.80397,0.3819 -0.51553,0.8486 0.28844,0.4667 -0.30495,1.7388 -1.31864,2.8268 -1.0137,1.0881 -2.15346,2.9563 -2.53281,4.1515 -0.37935,1.1952 -1.13596,2.1731 -1.68135,2.1731 -0.5454,0 -0.75564,0.3819 -0.4672,0.8486 0.28844,0.4667 -0.4725,1.9186 -1.69098,3.2265 -1.21848,1.3079 -1.99042,2.4864 -1.71542,2.619 0.275,0.1326 -0.175,1.0431 -1,2.0235 -3.58507,4.26 -3.92453,6.9656 -3.92453,31.2791 l 0,24.0682 -17.07077,0.2176 -17.07077,0.2175 0.28303,-24.7507 z M 303,929.59087 c 0,-0.26709 2.8125,-1.90698 6.25,-3.64422 l 6.25,-3.15861 16.9546,0.60622 16.95461,0.60623 4.54539,-5.00433 4.5454,-5.00432 14.5,-1.01942 c 20.69303,-1.45483 18.17994,-0.0576 21.5851,-12.00086 0.38589,-1.35349 -0.93056,-1.7097 -8.40345,-2.27383 -4.87356,-0.3679 -10.35348,-1.09695 -12.17759,-1.6201 -1.82411,-0.52314 -5.1186,-1.21995 -7.32108,-1.54844 -5.43773,-0.81103 -27.43863,-7.58255 -42.68298,-13.13712 -20.31665,-7.40277 -47.03552,-20.90611 -57.5,-29.05969 -11.14283,-8.68215 -36.27884,-34.8328 -52.69465,-54.82174 -17.42862,-21.22222 -15.63797,-19.54754 -27.1956,-25.43417 -6.7974,-3.46211 -12.43214,-7.14973 -15.20744,-9.9524 -4.04194,-4.08181 -12.12224,-18.04491 -13.91611,-24.0476 -0.41091,-1.375 -1.58257,-4.3 -2.6037,-6.5 -1.02113,-2.2 -3.48589,-8.725 -5.47724,-14.5 -8.68175,-25.17746 -11.48225,-33.17711 -15.40344,-44 -5.93345,-16.37695 -12.87765,-36.49155 -15.01759,-43.5 -1.00761,-3.3 -2.97402,-9.74254 -4.36979,-14.31677 -1.39577,-4.57422 -2.80691,-10.19922 -3.13587,-12.5 -0.89065,-6.2293 -4.32026,-20.13648 -6.9601,-28.2234 -2.83352,-8.68025 -6.55518,-16.17329 -20.59236,-41.45983 -5.95371,-10.725 -13.1549,-25.3338 -16.00265,-32.46399 l -5.177716,-12.96399 -1.330173,-30.03601 c -0.731596,-16.51981 -2.057116,-46.23601 -2.945601,-66.03601 -1.227608,-27.35741 -1.518645,-51.24457 -1.212288,-99.5 0.37803,-59.54506 0.530576,-64.06054 2.449249,-72.5 5.504779,-24.21326 10.959219,-35.18595 25.839619,-51.98159 13.23773,-14.94153 16.2186,-20.84237 21.03971,-41.64959 1.95855,-8.45285 4.00016,-17.14543 4.5369,-19.31684 1.48863,-6.02228 7.40346,-16.588931 13.26092,-23.690211 13.76515,-16.68813 61.26512,-49.057333 82.86222,-56.467064 17.24218,-5.915608 21.83337,-6.474233 53.21302,-6.474594 22.71075,-2.6e-4 30.56645,-0.341681 36.04068,-1.566381 7.10067,-1.588569 19.5,-6.818426 19.5,-8.224814 0,-1.901596 7.40959,-9.148431 11.25267,-11.005512 9.37887,-4.532115 39.41747,-6.662678 51.08602,-3.623405 3.16739,0.825 9.23624,1.5 13.48633,1.5 19.93017,0 43.55744,5.584138 80.67498,19.066962 15.77276,5.729403 35.84952,15.277445 50,23.778848 23.35834,14.03334 46.35525,37.42992 72.396,73.654191 10.00413,13.91634 29.3922,48.84078 37.97378,68.40356 7.07923,16.13795 26.78886,75.55378 28.6961,86.50605 0.29599,1.69971 1.12325,4.89039 1.83836,7.09039 0.71511,2.2 2.2402,7.6 3.38909,12 7.89203,30.22465 10.33822,39.7661 13.71509,53.49614 2.09619,8.52288 3.94716,16.6635 4.11328,18.09026 0.16613,1.42677 1.43077,8.17851 2.81033,15.00386 4.5789,22.65411 5.35021,32.89924 5.03739,66.90974 -0.15935,17.325 -0.78751,35.325 -1.3959,40 -0.6084,4.675 -2.18766,16.375 -3.50948,26 -8.45929,61.59746 -10.36463,78.68039 -11.14156,99.89306 -1.05201,28.72321 -2.61574,32.73144 -38.66458,99.10694 -1.64289,3.025 -5.1181,9.1 -7.72268,13.5 -2.60458,4.4 -7.12621,12.275 -10.04806,17.5 -16.72479,29.90812 -21.56848,35.81384 -64.87278,79.0969 -38.10394,38.08524 -43.41377,42.47949 -65.72989,54.3959 -4.88647,2.60929 -13.09357,7.24394 -18.238,10.29922 -8.27754,4.91604 -11.32596,6.06005 -26.5,9.94493 -18.21163,4.66257 -20.28045,5.08569 -25.39649,5.19415 -4.43962,0.0941 -4.07752,1.60874 1,4.18283 2.3375,1.18502 8.3,6.08665 13.25,10.89251 l 9,8.73792 18.5,0.66993 c 18.06695,0.65425 18.64045,0.7418 24.5,3.73984 3.3,1.68845 6.4275,3.4695 6.95,3.95789 0.5539,0.51774 -38.74321,0.88798 -94.25,0.88798 -52.36,0 -95.2,-0.21852 -95.2,-0.4856 z m 107,-45.56174 c 6.22886,-0.98918 18.78668,-3.7264 37,-8.06487 6.28527,-1.49718 10.45417,-3.27565 16,-6.82571 4.125,-2.64053 11.59299,-6.85433 16.59553,-9.36398 21.83041,-10.9518 38.53499,-24.63956 72.40447,-59.32837 29.87296,-30.5956 43.1929,-46.99839 51.86563,-63.86973 2.26182,-4.4 5.28882,-10.025 6.72667,-12.5 27.79407,-47.8426 43.40543,-77.53407 47.58363,-90.5 1.31994,-4.09609 2.22315,-11.07711 2.84639,-22 0.50211,-8.8 1.82158,-23.65 2.93216,-33 1.11057,-9.35 2.02514,-18.82524 2.03237,-21.05609 0.007,-2.23085 1.76974,-15.73085 3.91668,-30 2.14694,-14.26915 3.90675,-27.06891 3.91068,-28.44391 0.004,-1.375 1.01711,-10.825 2.25149,-21 3.45289,-28.46223 3.00971,-63.9424 -1.08047,-86.5 -0.49863,-2.75 -1.15039,-7.418 -1.44834,-10.37333 -0.5261,-5.21834 -3.02248,-16.85131 -6.04738,-28.18045 -0.81558,-3.05459 -1.63989,-6.90231 -1.83179,-8.55051 -0.35649,-3.06171 -5.22444,-22.15552 -11.27778,-44.2353 -1.86064,-6.78678 -3.59864,-13.56369 -3.86222,-15.05981 -0.26357,-1.49611 -2.11066,-8.0933 -4.10462,-14.66041 -1.99397,-6.5671 -3.82929,-13.06519 -4.07849,-14.44019 -0.2492,-1.375 -2.02842,-7.1185 -3.95383,-12.76334 -1.92542,-5.64484 -3.66201,-11.04484 -3.8591,-12 -0.67761,-3.28391 -10.36712,-29.97976 -14.88626,-41.01357 C 603.75139,151.51753 575.30593,108.31071 547.03911,80.030439 522.19996,55.179459 499.17924,41.857749 455,26.768928 440.12326,21.687979 417.22051,15.166419 412.5,14.66705 c -16.47218,-1.742543 -18.60001,-1.771547 -21.77165,-0.296758 -4.85327,2.256728 -51.32496,8.158233 -59.72235,7.584226 -2.43603,-0.166516 -5.18451,0.731554 -9.006,2.942721 -14.5562,8.422415 -24.51149,10.407315 -52,10.36784 -19.31834,-0.02774 -37.20397,0.897457 -45.5,2.353653 -11.38767,1.998867 -24.47171,8.160317 -43.99919,20.719797 -32.19525,20.70699 -49.04437,36.49928 -54.34156,50.933051 -2.21154,6.02598 -4.97183,16.97604 -5.7435,22.78441 -1.17319,8.83065 -6.85814,23.8882 -11.66629,30.90013 -1.74252,2.54119 -7.39663,9.57035 -12.56469,15.62035 -15.13842,17.72182 -20.55249,30.91976 -23.38259,57 -2.63787,24.30883 -1.6281,106.35696 2.64603,215 l 1.33759,34 3.2142,7.93406 c 3.59313,8.86941 9.13351,20.15787 17.2104,35.06594 13.65764,25.20885 15.86191,29.53028 19.17461,37.59147 1.94183,4.72531 3.76691,9.90031 4.05572,11.5 0.28882,1.59969 1.66861,7.85853 3.06621,13.90853 1.3976,6.05 3.17764,13.93549 3.95564,17.5233 0.778,3.58782 1.94726,7.86282 2.59835,9.5 0.6511,1.63719 2.68011,7.7017 4.50892,13.4767 1.82881,5.775 5.61486,16.8 8.41345,24.5 4.87586,13.41536 7.22936,20.0804 17.30247,49 9.3085,26.72444 15.15703,40.28079 20.27026,46.98457 2.34202,3.07054 8.07282,6.40559 20.44397,11.89738 3.80835,1.6906 13.71734,12.03009 21.69308,22.63555 7.42209,9.86927 37.62471,42.50672 47.92195,51.78527 7.17421,6.46447 21.36775,15.03282 34.27331,20.69011 19.53257,8.56229 22.11909,9.59285 35.22989,14.03675 12.27175,4.1595 37.15838,10.7504 44.38177,11.75392 6.06755,0.84295 19.1797,0.6728 25.5,-0.33089 z m -21.5,-84.53726 c -14.0889,-1.94219 -28.07242,-2.27749 -27.75,-0.6654 0.78987,3.94936 -9.33764,-1.3847 -24.49539,-12.90148 -9.87322,-7.50162 -11.86356,-9.49396 -8.37984,-8.38827 2.86629,0.90973 2.68157,0.03 -0.9588,-4.56635 -4.33182,-5.46936 -1.80361,-4.84662 4.49051,1.1061 7.46868,7.06357 11.04063,6.91158 8.06424,-0.34314 -0.69586,-1.69612 -0.41468,-1.66892 3.52526,0.34109 2.35478,1.20132 6.43319,4.33598 9.06312,6.96591 4.07907,4.07907 5.78522,5.01751 11.61129,6.38659 12.14972,2.85509 19.64709,3.89204 28.82961,3.98739 7.9015,0.082 10.0756,-0.31334 17.81237,-3.23933 12.97948,-4.90877 17.05258,-8.09525 23.10874,-18.0785 2.82932,-4.664 6.35795,-9.16124 7.84138,-9.99386 2.43404,-1.3662 2.96738,-1.35073 5.46733,0.15849 3.70025,2.23386 3.88836,4.66193 0.8289,10.69948 -1.4073,2.77717 -2.55872,5.34172 -2.55872,5.699 0,0.35728 1.8013,-0.97776 4.00288,-2.96676 4.00921,-3.62207 5.99712,-4.48934 5.99712,-2.61636 0,0.55 0.675,1 1.5,1 0.825,0 1.5,0.39269 1.5,0.87264 0,1.62496 -8.97105,9.15362 -17.34243,14.55408 -20.60372,13.29163 -28.88968,15.1962 -52.15757,11.98868 z M 235.30327,728.14438 C 233.00713,726.0052 230,717.08667 230,712.41596 c 0,-1.56898 0.4423,-4.39492 0.9829,-6.27986 1.15684,-4.03368 0.85888,-4.58051 -1.73843,-3.19047 -3.20909,1.71746 -8.6878,-2.77542 -11.10144,-9.10384 -4.11003,-10.77626 -0.56258,-35.24357 7.04271,-48.57465 1.66591,-2.92013 2.79924,-5.53902 2.5185,-5.81976 -0.28074,-0.28074 -2.33611,0.42096 -4.5675,1.55933 -5.00878,2.55529 -6.91905,2.71731 -5.01703,0.42551 1.21305,-1.46163 1.11559,-1.56521 -0.87755,-0.93261 -1.23319,0.3914 -2.24216,0.49648 -2.24216,0.23351 0,-0.26297 2.7076,-3.7808 6.0169,-7.81739 6.84593,-8.3505 9.35818,-13.01421 11.54664,-21.43506 0.84393,-3.24731 4.36159,-11.0792 7.81703,-17.4042 3.45544,-6.325 7.77651,-15.45969 9.60239,-20.29932 3.88045,-10.28545 5.9129,-12.32301 10.12129,-10.14677 3.3275,1.72072 4.3644,5.5646 4.30151,15.94609 -0.0729,12.04011 -1.11822,15.90254 -6.46855,23.90194 -2.71546,4.05996 -4.93721,7.61329 -4.93721,7.89628 0,0.283 0.9,0.27919 2,-0.008 1.11819,-0.29241 2,-0.0307 2,0.59362 0,0.61415 0.71324,1.11663 1.58499,1.11663 1.10277,0 0.41824,1.3271 -2.25,4.3621 -2.82621,3.21466 -4.68679,6.9671 -7.07319,14.26533 -7.4048,22.64575 -9.60291,40.72514 -9.10025,74.8494 0.29451,19.99396 0.14002,23.01627 -1.19007,23.28067 -0.84068,0.16711 -2.49138,-0.5932 -3.66821,-1.68959 z m -8.93356,-35.31791 c 0.33164,-1.2375 0.60913,-3.31064 0.61664,-4.60699 0.01,-1.73579 0.43054,-2.19701 1.59544,-1.75 0.86998,0.33385 1.7917,0.60699 2.04827,0.60699 0.25657,0 1.09309,1.4625 1.85894,3.25 1.24524,2.90639 1.37789,1.08264 1.25467,-17.25 -0.13398,-19.93332 -0.0529,-20.81789 2.93192,-32 2.79218,-10.46026 3.22161,-13.23053 1.83613,-11.84505 -0.26856,0.26855 -2.74476,9.13885 -5.50268,19.71176 -2.75792,10.57292 -5.98088,21.11569 -7.16213,23.42839 -2.82462,5.53018 -4.03477,22.7049 -1.5998,22.7049 0.8358,0 1.79097,-1.0125 2.1226,-2.25 z M 256,588.01745 c 0,-0.58246 -0.45,-0.7809 -1,-0.44098 -0.55,0.33992 -1,0.81648 -1,1.05902 0,0.24254 0.45,0.44098 1,0.44098 0.55,0 1,-0.47656 1,-1.05902 z m -4,130.45203 c 0,-1.01903 -0.54992,-1.39596 -1.50304,-1.03022 -1.30082,0.49917 -1.41602,-0.75103 -0.85627,-9.29242 0.59789,-9.12343 0.47584,-10.14576 -1.61526,-13.52923 -1.79993,-2.91234 -2.12917,-4.49092 -1.61166,-7.72724 0.73589,-4.60203 4.38123,-11.33323 7.95666,-14.69218 l 2.40218,-2.25673 3.5906,3.69713 c 3.02998,3.11987 4.05662,3.60391 6.5753,3.10018 3.43318,-0.68664 13.07566,-5.41845 24.44037,-11.99352 4.33338,-2.50708 10.18338,-5.0545 13,-5.66092 5.1396,-1.10657 58.09327,-2.80178 96.86091,-3.10083 l 20.73979,-0.15998 3.44349,2.62648 c 3.07168,2.34288 4.34146,2.62887 11.76021,2.64871 6.65073,0.0178 8.81752,0.4076 10.81672,1.946 3.96896,3.05415 1.43725,4.37753 -9.25396,4.83725 -8.02,0.34486 -10.23052,0.0526 -16.67037,-2.20396 -4.08338,-1.43084 -8.44432,-2.60153 -9.69098,-2.60153 -3.1211,0 -4.08558,2.00857 -1.78747,3.72247 1.81508,1.35366 1.71842,1.57785 -2.09722,4.8643 -2.42931,2.09239 -4.72189,3.27031 -5.8384,2.99974 -1.01113,-0.24503 -5.37646,0.44919 -9.70073,1.54271 -7.40752,1.8732 -9.7061,1.94143 -39.7361,1.1795 l -31.87377,-0.80872 -4.4255,-2.95424 c -3.93983,-2.63004 -5.30344,-2.96337 -12.4255,-3.0374 -7.90927,-0.0822 -8.04648,-0.0403 -12.09853,3.69199 -4.96698,4.57505 -8.33945,6.02812 -19.40147,8.35937 -4.675,0.98522 -8.83061,2.27483 -9.23469,2.8658 -1.37612,2.01258 -0.76981,4.23411 1.48469,5.4399 1.98799,1.06324 2.23344,1.92176 2.10778,7.37249 -0.11601,5.03223 -0.54457,6.49492 -2.32552,7.93705 -1.96137,1.58822 -2.1126,2.35534 -1.48775,7.54649 l 0.69555,5.77855 -2.92475,-2.75 c -3.72353,-3.50106 -4.89784,-3.45798 -6.81531,0.25 -1.73506,3.35523 -2.5,3.78146 -2.5,1.39301 z m 80.5,-47.39301 c 0,-1.01075 -1.39621,-1.68634 -4.28069,-2.07131 -2.81929,-0.37626 -4.80166,-1.31509 -5.8067,-2.75 C 320.54974,663.59555 317,663.33243 317,665.85396 c 0,2.87276 2.81008,6.05791 5.76092,6.52984 5.34707,0.85516 9.73908,0.2656 9.73908,-1.30733 z m 22.10959,-3.18102 c 1.15704,-1.15703 1.24402,-2.07382 0.40591,-4.27821 -1.01217,-2.66222 -1.30249,-2.77328 -5.68066,-2.17319 -2.53769,0.34783 -6.80118,0.63242 -9.47441,0.63242 -4.71562,0 -4.86043,0.0879 -4.86043,2.95031 0,1.72996 0.72386,3.39896 1.75,4.03495 2.51494,1.55875 16.01624,0.67708 17.85959,-1.16628 z m 36.92935,-2.88199 c 0.36134,-0.58466 -0.1746,-1.99126 -1.19098,-3.12577 -1.7292,-1.93019 -2.55374,-2.02049 -12.82979,-1.40516 -11.62596,0.69617 -14.37344,1.7283 -11.07704,4.16126 2.3776,1.75483 24.0445,2.07396 25.09781,0.36967 z M 480,703.37767 c -1.94817,-0.70252 -9.31524,-7.73986 -13.25029,-12.65724 l -3.08574,-3.85603 4.12818,2.10603 c 2.2705,1.15832 4.74887,2.10604 5.5075,2.10604 1.9549,0 3.52298,-3.97369 4.78964,-12.13754 1.0511,-6.77449 0.98729,-7.26027 -1.60376,-12.20883 -5.16022,-9.85536 -7.72408,-20.17234 -7.74197,-31.15363 -0.0161,-9.89979 1.48972,-18.5 3.23922,-18.5 2.22565,0 6.24029,5.16667 10.10136,13 2.30432,4.675 6.9004,13.43675 10.21351,19.47056 9.76998,17.79299 12.90062,27.47718 14.29753,44.22734 0.54572,6.54357 0.3863,8.07258 -0.958,9.18825 -1.39312,1.15619 -2.09076,0.86027 -5.12491,-2.17388 -2.22378,-2.22378 -3.56225,-4.55781 -3.6485,-6.36227 -0.37478,-7.84062 -1.09954,-11.34069 -4.98329,-24.0654 -4.56563,-14.95884 -7.61609,-22.88233 -8.47773,-22.02068 -0.30084,0.30084 0.92188,5.20203 2.71715,10.89153 2.84883,9.02838 3.26721,11.74412 3.28828,21.34455 0.0261,11.9038 -1.2077,17.83431 -4.42993,21.29297 -2.13841,2.29532 -2.49553,2.40351 -4.97825,1.50823 z m -15.75,-26.94894 c -1.42613,-1.01173 -2.25,-2.63114 -2.25,-4.42261 0,-1.55452 -1.15291,-6.47602 -2.56203,-10.93667 -3.26804,-10.34516 -2.95982,-12.67164 1.11192,-8.39288 3.68187,3.86906 12.3049,19.13603 12.67482,22.4406 0.24198,2.1617 -0.14824,2.48643 -3.22471,2.68354 -1.9385,0.12419 -4.50382,-0.4879 -5.75,-1.37198 z M 319.22251,654.51977 c -2.17712,-1.52492 -2.82929,-4.69849 -1.61552,-7.86151 0.8734,-2.27605 5.99615,-1.97865 8.46631,0.49151 l 2.0733,2.0733 8.00162,-4.1629 c 8.92184,-4.64165 11.36894,-4.68676 15.44857,-0.28477 2.20249,2.37653 2.28435,2.77493 0.88739,4.31855 -3.78818,4.18589 -18.32799,5.88485 -22.3968,2.61705 -1.06695,-0.8569 -1.51703,-0.82428 -1.83929,0.13333 -1.37072,4.07317 -5.34717,5.2519 -9.02558,2.67544 z m 66.33636,-2.91397 c -1.06762,-0.84113 -3.79202,-1.52933 -6.05422,-1.52933 -4.53844,0 -13.50465,-4.88004 -13.50465,-7.35017 0,-2.09123 6.70758,-2.79854 19.88182,-2.09652 12.94597,0.68985 20.38745,2.56534 22.57594,5.68985 2.13493,3.04804 1.10051,3.72873 -4.63431,3.04952 -4.20398,-0.4979 -5.35302,-0.28893 -6.41772,1.16712 -1.77042,2.42121 -9.27166,3.09841 -11.84686,1.06953 z m 81.79568,-38.30157 C 463.1587,609.92525 454.88207,599.5983 453.04951,595.45549 450.3904,589.44414 446,587.4435 446,592.24314 c 0,2.44904 -1.19349,2.31012 -4.21562,-0.4907 -3.79823,-3.52008 -5.52026,-6.7147 -6.29383,-11.67597 -0.38591,-2.475 -1.62713,-5.50668 -2.75826,-6.73707 -1.52006,-1.65343 -2.21238,-4.14134 -2.65364,-9.53612 -0.44335,-5.42036 -1.17378,-8.03229 -2.83783,-10.14779 C 426.00837,552.08868 425,550.26741 425,549.60822 c 0,-1.63109 6.90601,-9.35427 6.95837,-7.78175 0.0229,0.6875 0.71663,1.25 1.54163,1.25 1.19115,0 1.5,1.44814 1.5,7.03324 0,5.51986 0.53794,8.09482 2.5,11.96676 1.375,2.71343 2.5,5.80395 2.5,6.86781 0,1.11994 2.52608,4.12268 6,7.13219 3.89716,3.37617 6,5.95931 6,7.37044 0,1.43316 2.55251,4.48436 7.5,8.96528 5.9068,5.34976 7.5,7.38343 7.5,9.57351 0,1.52944 0.9,3.59528 2,4.59077 1.24067,1.12279 2,3.07997 2,5.15499 0,3.78087 -0.58835,4.03471 -3.64545,1.57277 z M 317,574.86652 c -2.475,-1.2146 -8.11267,-5.82674 -12.52816,-10.24921 -6.51787,-6.52815 -8.99611,-9.94987 -13.17338,-18.18847 -2.82987,-5.5812 -5.44371,-12.13819 -5.80855,-14.5711 -0.80618,-5.37597 0.80131,-11.85609 3.79434,-15.29582 l 2.21575,-2.54644 3.75,2.56655 c 4.6642,3.19223 4.726,5.32046 0.24317,8.37334 -4.26877,2.9071 -4.3435,4.6447 -0.49317,11.46711 1.65,2.92363 3,6.4493 3,7.83481 0,3.44784 3.99719,8.55368 15.89251,20.30042 12.43827,12.28291 13.35985,15.34014 3.10749,10.30881 z m -23.40486,-3.29005 c -2.62951,-1.78443 -5.03083,-2.5028 -8.38955,-2.50977 -5.93953,-0.0123 -13.55437,-3.53555 -18.20559,-8.42331 -3.08764,-3.24467 -3.49767,-4.29001 -3.48018,-8.87246 0.0293,-7.67379 1.07047,-10.34213 6.15776,-15.78085 4.55173,-4.86617 7.07205,-6.3095 5.96079,-3.41361 -0.69111,1.801 0.49589,1.96574 2.16163,0.3 1.76705,-1.76705 1.46629,-0.2423 -0.84639,4.29093 -1.54966,3.03759 -1.97445,5.5069 -1.75,10.17286 0.28638,5.95342 0.39775,6.18254 3.29639,6.78161 6.82342,1.41021 31.5,16.54592 31.5,19.32095 0,0.34851 -2.8622,0.63365 -6.36045,0.63365 -5.13543,0 -7.06999,-0.4815 -10.04441,-2.5 z m 83.58352,-2 c -2.3773,-3.02224 -3.17866,-3.1483 -3.17866,-0.5 0,2.67839 -0.62383,2.53746 -4.73112,-1.06878 -3.02345,-2.65462 -4.00445,-2.98274 -7.26888,-2.43122 -3.24767,0.54869 -4.24707,0.22197 -7.16932,-2.3438 -1.86757,-1.63976 -4.6856,-3.13321 -6.26227,-3.31879 -4.24612,-0.49977 -5.35718,-2.96013 -3.29223,-7.29038 2.46283,-5.16459 6.94827,-7.53876 14.25131,-7.54329 7.37208,-0.005 10.00637,1.61894 10.90671,6.7218 1.03176,5.84762 2.62292,10.27446 3.69301,10.27446 1.46842,0 -0.1033,-12.3024 -1.73881,-13.61024 -1.57686,-1.26095 -1.89234,-7.96028 -0.41777,-8.87161 1.45871,-0.90153 7.19406,2.39563 7.72963,4.44363 0.25751,0.98473 1.5553,2.37221 2.88397,3.0833 2.86248,1.53195 3.37242,6.37384 0.7762,7.37011 -1.40141,0.53777 -1.56275,1.86068 -1.11066,9.10698 0.48164,7.72022 0.36656,8.47783 -1.28785,8.47783 -0.99922,0 -2.70168,-1.125 -3.78326,-2.5 z M 204.40004,524.23323 c -2.14502,-1.56378 -6.91677,-5.58684 -10.6039,-8.94012 C 186.84024,508.967 183,506.34527 183,507.9226 c 0,0.50407 1.4625,2.03347 3.25,3.39867 5.19747,3.96956 11.75,10.86943 11.75,12.37285 0,2.33351 -4.47468,1.54924 -8.59996,-1.5073 -5.1911,-3.84624 -17.5711,-16.63683 -20.80974,-21.4999 -1.42466,-2.13925 -2.58862,-5.06425 -2.58656,-6.5 0.005,-3.34215 3.49772,-9.11045 5.51674,-9.11045 2.64216,0 6.31857,3.01085 10.213,8.36407 7.22189,9.9271 12.48246,14.72218 20.6646,18.83608 9.98746,5.0216 15.60192,8.72012 15.60192,10.27775 0,2.11799 -3.55063,4.5221 -6.6787,4.5221 -1.73877,0 -4.67672,-1.2069 -6.92126,-2.84324 z M 366.5,523.88251 c -3.51008,-1.87684 -8.61419,-7.18756 -10.58763,-11.0162 -1.89491,-3.67628 -2.67902,-13.20626 -1.16237,-14.12724 1.57914,-0.95893 9.46349,3.76757 12.86426,7.71185 3.39304,3.93531 3.5394,4.41362 3.17418,10.37277 -0.43518,7.10074 -1.36076,8.62425 -4.28844,7.05882 z m -66.9652,-7.90963 c -4.31455,-3.78823 -4.46074,-6.10089 -0.56119,-8.87762 2.31314,-1.6471 3.40435,-1.88688 4.91285,-1.07955 1.06658,0.57081 2.13771,1.6055 2.38029,2.2993 0.32162,0.91988 1.01126,0.7555 2.54686,-0.60706 2.32,-2.05858 7.18639,-1.59012 7.18639,0.69179 0,0.70684 -1.34009,3.39827 -2.97798,5.98095 -2.61749,4.12735 -3.4001,4.69578 -6.4652,4.69578 -2.47461,0 -4.51366,-0.90122 -7.02202,-3.10359 z m 120.20411,-4.23785 c -1.37667,-1.0907 -1.48581,-1.60504 -0.5,-2.35628 1.67325,-1.27511 11.33693,-5.30228 12.72346,-5.30228 0.60039,0 5.19708,-2.475 10.21488,-5.5 7.37923,-4.4486 9.96348,-5.5 13.51847,-5.5 4.4476,0 7.50163,-1.95642 9.98717,-6.39783 1.31892,-2.35678 4.76101,-1.38052 6.95876,1.97367 1.4516,2.21542 1.45107,2.6337 -0.006,4.85758 -3.17707,4.84883 -17.14212,13.77516 -25.24758,16.13803 -6.84419,1.99519 -7.56783,2.11369 -17.388,2.84734 -6.52103,0.48718 -8.91002,0.31018 -10.26109,-0.76023 z M 292.67353,482.64971 c -4.06034,-3.76299 -3.49234,-6.38396 2.53997,-11.72048 5.24129,-4.63674 5.25317,-4.66086 5.25317,-10.66791 0,-5.28994 -0.39243,-6.509 -3.23334,-10.04412 -3.7849,-4.70981 -4.00976,-6.68535 -1.11203,-9.76985 1.95464,-2.08062 2.30153,-2.13994 4.41521,-0.755 3.79859,2.48893 5.46412,8.33403 5.45791,19.15436 -0.003,5.35137 -0.47108,11.40589 -1.04003,13.4545 -1.04741,3.77141 -6.55403,11.82216 -8.53086,12.47224 -0.59206,0.1947 -2.27956,-0.76098 -3.75,-2.12374 z M 395,483.03035 c -2.714,-1.20755 -7.95317,-5.4654 -13.20059,-10.72804 -4.78533,-4.79921 -10.52548,-10.36963 -12.75589,-12.3787 -2.66706,-2.40239 -3.84926,-4.1898 -3.45341,-5.22135 0.53405,-1.39174 1.02846,-1.35087 4.38727,0.36267 3.56484,1.81865 3.87427,1.83154 5.31098,0.22135 0.83907,-0.9404 2.02934,-3.60206 2.64504,-5.91481 1.04248,-3.91588 3.31115,-7.29995 4.88803,-7.29126 1.64039,0.009 7.64539,4.40727 12.69487,9.29807 5.36277,5.19425 7.2352,9.69819 4.03184,9.69819 -1.50539,0 -8.54814,-6.68854 -8.54814,-8.11822 0,-1.44415 -4.14264,-3.13914 -5.16748,-2.1143 -1.28261,1.28261 11.37456,14.18141 16.93597,17.25927 4.66971,2.58437 5.01829,4.30186 0.97079,4.78327 -4.07761,0.48499 -8.01236,-2.15784 -15.31849,-10.28889 -3.71592,-4.13547 -6.92765,-7.34761 -7.13717,-7.13808 -1.4214,1.4214 2.21476,6.96369 10.31804,15.72689 5.16909,5.59005 9.39834,11.00215 9.39834,12.02689 0,2.31236 -0.42053,2.29954 -6,-0.18295 z m -15.5,-28.95388 c -0.33992,-0.55 -0.81648,-1 -1.05902,-1 -0.24254,0 -0.44098,0.45 -0.44098,1 0,0.55 0.47656,1 1.05902,1 0.58246,0 0.7809,-0.45 0.44098,-1 z m 92.59816,28.73526 c -3.35391,-1.7249 -4.50859,-3.96383 -3.7019,-7.17797 0.57039,-2.27261 1.09659,-2.65041 3.01936,-2.16782 2.03905,0.51176 2.58626,-0.0356 4.40106,-4.40252 1.97734,-4.75801 2.24718,-4.98549 5.8779,-4.95515 2.09298,0.0175 4.57253,0.6147 5.51012,1.32712 1.57157,1.19416 1.47215,1.57743 -1.27307,4.90786 -1.63778,1.98691 -3.65564,5.53383 -4.48415,7.88207 -2.11098,5.98317 -4.42563,7.11864 -9.34932,4.58641 z M 216,476.03805 c 0,-1.84792 -0.24375,-2.00418 -1.5,-0.96158 -2.83859,2.35582 -1.65323,-0.98211 3,-8.44791 2.475,-3.97098 4.5,-7.71917 4.5,-8.32932 0,-0.61015 -1.00013,-1.80988 -2.22251,-2.66607 -1.22237,-0.85618 -1.82237,-1.5567 -1.33333,-1.5567 0.48905,0 0.64193,-0.24724 0.33975,-0.54943 -0.30219,-0.30218 -2.24317,0.59998 -4.31329,2.00481 -4.30401,2.92077 -12.39437,5.55954 -16.90212,5.51282 -2.84634,-0.0295 -6.5685,-1.89522 -6.5685,-3.29244 0,-0.33206 5.0625,-3.12747 11.25,-6.21203 12.16507,-6.06445 17.75,-9.80414 17.75,-11.88546 0,-0.86919 -2.02173,-1.54867 -5.92035,-1.98975 -8.36542,-0.94644 -17.07936,-7.33232 -27.19348,-19.92832 -4.78664,-5.96123 -5.05899,-7.85695 -0.9599,-6.68135 4.81511,1.38096 5.73584,2.20564 11.98041,10.73064 6.60773,9.02077 9.12169,11.0963 14.49677,11.96855 5.76325,0.93525 11.54284,-1.91085 18.41646,-9.06901 6.45965,-6.72706 7.50727,-9.00264 6.99968,-15.20435 -0.28971,-3.53958 -0.60536,-3.93263 -3.37585,-4.20359 -1.68094,-0.1644 -4.31735,0.18056 -5.85869,0.76657 -2.21783,0.84322 -2.56555,1.35091 -1.66687,2.43375 1.81733,2.18975 2.61764,14.1494 1.0132,15.141 -0.73239,0.45264 -5.99426,0.76036 -11.69305,0.68381 -11.8032,-0.15854 -16.79052,-2.139 -17.77598,-7.05882 -0.29386,-1.46707 -1.2265,-4.77209 -2.07253,-7.34448 -1.87427,-5.69879 -0.87164,-8.2132 3.8525,-9.6614 3.6515,-1.11937 15.11309,-2.07642 27.50197,-2.29643 12.77624,-0.22688 12.64448,-1.67851 -1.06736,-11.75921 -4.25863,-3.13086 -6.3614,-5.53364 -7.82678,-8.94344 l -2.00371,-4.66244 -7.70351,8 c -5.11907,5.31609 -9.23816,10.84167 -12.27789,16.47022 -2.5159,4.65863 -5.741,9.34124 -7.16687,10.40581 -2.36565,1.76621 -2.91587,1.81251 -6.28793,0.52909 -2.03248,-0.77357 -4.57785,-2.5884 -5.65637,-4.03297 -1.87284,-2.50846 -1.88352,-2.74464 -0.23776,-5.2564 2.47207,-3.77284 30.22246,-28.69806 34.21988,-30.73606 4.02283,-2.05096 7.73502,-1.28329 12.9206,2.67195 5.43852,4.14816 13.90118,15.03564 17.76476,22.85491 l 3.53612,7.15656 -0.81004,22.96845 c -0.73758,20.91374 -1.01021,23.35715 -3.04765,27.31368 -2.31238,4.49044 -15.72056,19.10233 -22.33825,24.34364 C 216.11614,478.15255 216,478.1764 216,476.03805 z M 416.38273,462.23622 C 413.69723,460.08676 405.425,453.10868 398,446.7294 c -7.425,-6.37929 -14.07662,-11.61091 -14.78138,-11.62582 -1.32682,-0.0281 -1.63755,0.58339 -2.65415,5.22289 -0.33142,1.5125 -0.99533,2.75 -1.47537,2.75 -1.46211,0 -11.0891,-9.09617 -11.0891,-10.47766 0,-0.71078 1.10917,-2.01907 2.46482,-2.90733 5.44658,-3.56874 5.1506,-5.03619 -2.20614,-10.93796 -10.3258,-8.28362 -13.82342,-16.20987 -3.80983,-8.63379 3.38016,2.55736 4.14997,2.78649 5.34545,1.59101 1.14625,-1.14625 1.20023,-2.66229 0.30116,-8.45699 -1.71788,-11.07197 -1.41119,-19.14721 0.86924,-22.88726 5.97236,-9.79507 24.49885,-13.0104 32.23872,-5.59513 l 2.79658,2.67929 0,-4.62807 c 0,-2.54544 0.4407,-4.90044 0.97933,-5.23334 3.05943,-1.89083 11.7795,6.59053 18.55555,18.04759 5.86718,9.92033 8.11493,12.49188 16.71512,19.12302 3.1625,2.43843 5.78553,4.96971 5.82895,5.62507 0.057,0.86011 0.21924,0.84385 0.58333,-0.0584 0.78243,-1.93906 2.76759,-1.48577 5.3004,1.21028 1.90392,2.02663 2.21349,3.18964 1.75629,6.59829 -0.30526,2.27591 -1.5465,5.19339 -2.7583,6.4833 -2.09011,2.22481 -2.33014,2.26215 -4.67317,0.72694 -3.1514,-2.06488 -4.74547,-6.01207 -3.18655,-7.89045 0.94088,-1.13369 0.40336,-1.37836 -3.02817,-1.37836 -5.82723,0 -9.3691,2.11401 -18.59644,11.09953 -9.479,9.23058 -13.78153,11.43392 -19.38236,9.92578 C 398.90248,435.70385 395,432.46871 395,429.56291 c 0,-3.60528 1.73251,-3.9536 7.11812,-1.43112 4.608,2.15827 5.11234,2.2052 8.14698,0.758 1.7792,-0.84849 6.3229,-4.34123 10.09713,-7.76165 3.77422,-3.42043 8.83672,-7.06533 11.25,-8.09978 7.04338,-3.01914 5.61914,-5.31567 -7.33371,-11.82523 -9.99623,-5.02369 -11.46762,-3.99938 -7.66857,5.33848 4.83405,11.88183 2.39246,15.94391 -10.21565,16.99579 -11.24476,0.93814 -13.27759,1.45248 -14.45802,3.65812 -1.67813,3.13563 -0.38281,5.21446 9.39131,15.07196 11.15192,11.24704 21.14654,22.66819 20.44809,23.36665 -0.28062,0.28062 -2.70745,-1.24844 -5.39295,-3.39791 z m -0.0798,-69.77201 c 3.36557,-0.58995 3.76812,-0.96425 3.5,-3.25449 -0.23466,-2.0044 -1.22867,-2.93119 -4.4087,-4.11056 -2.25816,-0.83748 -4.81554,-2.1153 -5.68308,-2.83959 -1.31138,-1.09486 -1.968,-1.06518 -3.89427,0.17602 -2.72573,1.75635 -6.62004,2.46981 -16.70782,3.06098 -7.75725,0.4546 -10.9015,2.07255 -9.76801,5.02638 0.33802,0.88086 1.63705,2.04635 2.88674,2.58997 2.36388,1.02829 27.20607,0.55535 34.07514,-0.64871 z m -247.00042,42.99732 c -1.24391,-0.88263 -3.10295,-4.28027 -4.28422,-7.82997 -1.14772,-3.44892 -3.16387,-7.28264 -4.48032,-8.51938 -1.31645,-1.23674 -2.1529,-2.87571 -1.85879,-3.64216 0.29524,-0.76937 -0.073,-1.39383 -0.82223,-1.39418 -0.74635,-3.4e-4 -3.89599,-1.99386 -6.99921,-4.43003 -8.19973,-6.43716 -11.18292,-12.97582 -11.69096,-25.62466 -0.35724,-8.89412 -0.1776,-10.04857 2.37474,-15.26113 3.54804,-7.24603 14.96138,-18.3964 22.95844,-22.42947 7.70767,-3.88713 10.90745,-4.75063 28.61695,-7.72267 8.03932,-1.34918 15.78197,-2.98386 17.20587,-3.63264 1.43477,-0.65372 3.45901,-3.03061 4.54063,-5.33166 1.54656,-3.29015 3.09956,-4.71412 7.48118,-6.85959 6.79269,-3.32606 7.15071,-3.32982 11.35991,-0.11931 5.99762,4.57461 6.29359,3.76294 6.31077,-17.30683 0.009,-11.60431 0.42069,-19.35459 1.07613,-20.28138 0.79831,-1.12881 1.18633,-1.19068 1.56802,-0.25 0.27897,0.6875 1.05096,1.25 1.71556,1.25 0.66459,0 2.50065,2.5875 4.08013,5.75 2.40585,4.81709 2.91575,7.18704 3.14277,14.60724 0.29891,9.76965 -1.55355,23.10374 -4.00879,28.85553 -3.62803,8.49922 -10.89534,13.38233 -32.01629,21.51266 -11.87734,4.57208 -30.1057,10.2725 -32.88016,10.28237 -1.20597,0.004 -5.71117,0.84979 -10.01154,1.87889 -5.5806,1.33545 -8.66844,2.68502 -10.78667,4.71441 -6.25222,5.99001 -8.33695,23.72013 -3.93397,33.45744 1.35327,2.9928 2.5677,5.60588 2.69872,5.80684 0.13102,0.20096 1.27379,-0.81123 2.5395,-2.24933 1.72898,-1.96446 2.88202,-2.45598 4.63651,-1.97646 1.98483,0.54248 2.25144,1.10506 1.77681,3.74933 -2.07321,11.55026 -2.18473,10.89951 2.83668,16.55334 2.56095,2.8835 4.48545,5.76361 4.27666,6.40023 -0.5795,1.76698 -4.95718,1.79208 -7.42283,0.0426 z m 6.40005,-13.16118 c -2.13413,-2.35824 -3.44085,-10.22388 -1.69845,-10.22388 1.66652,0 7.99589,6.75693 7.99589,8.53602 0,0.76649 -0.87042,1.85945 -1.93426,2.4288 -2.50101,1.3385 -2.47768,1.34246 -4.36314,-0.74094 z m 287.1186,-25.48465 c -1.82666,-1.79342 -8.15489,-8.90597 -14.06272,-15.80567 -15.23984,-17.79843 -16.28632,-18.41143 -34.14023,-19.9983 -13.48402,-1.19847 -27.51805,-4.69374 -43.00599,-10.71091 -12.64795,-4.91382 -17.93675,-8.68473 -19.19134,-13.68342 -0.61352,-2.44443 -0.23045,-3.25719 2.68166,-5.68962 l 3.39742,-2.83781 -5,-4.62643 c -2.75,-2.54454 -6.9125,-6.35635 -9.25,-8.47067 -3.74958,-3.39159 -4.2482,-4.3489 -4.23469,-8.13032 0.0394,-11.03644 5.06495,-8.4339 13.30476,6.89006 3.20104,5.95312 6.62905,11.65187 7.6178,12.66388 1.74162,1.7826 1.87059,1.73578 4.13175,-1.5 2.60971,-3.73454 3.8604,-4.80225 5.65157,-4.82471 0.67165,-0.008 5.62165,3.0066 11,6.70005 8.17213,5.61202 12.07904,7.50097 23.77881,11.49686 11.99979,4.09836 15.11295,4.78195 21.78984,4.78464 8.97352,0.004 13.28638,1.73632 20.90399,8.39821 8.30614,7.26404 13.37671,14.81091 16.7459,24.92403 2.88235,8.65179 5.3242,22.08364 4.21614,23.1917 -1.17159,1.17158 -3.24034,0.26646 -6.33467,-2.77157 z m -355.3096,-22.09723 c -6.92607,-6.92607 -8.16016,-11.01315 -6.78121,-22.45816 0.55109,-4.57389 1.4891,-8.80329 2.08447,-9.39866 1.9765,-1.9765 6.23687,2.05218 9.28927,8.78412 3.46104,7.63316 3.47579,7.87839 0.77654,12.9146 l -2.11936,3.95427 4.68622,4.06542 c 4.54759,3.94515 4.63015,4.11618 2.79063,5.78092 -3.02692,2.73932 -5.02232,2.06172 -10.72656,-3.64251 z M 477,357.14979 c 0,-0.50967 -0.77251,-1.07544 -1.71668,-1.25727 -1.39074,-0.26784 -0.97781,-1.14845 2.17485,-4.63807 4.53407,-5.01867 7.73474,-6.86538 13.49549,-7.78656 6.22843,-0.99597 7.94365,-2.9284 9.11403,-10.26822 1.4414,-9.03946 0.39812,-14.37643 -3.79032,-19.38967 -1.91425,-2.29121 -2.98677,-4.3304 -2.38337,-4.53153 1.92814,-0.64271 10.82612,2.81263 14.96656,5.81195 3.1384,2.27344 4.19481,3.82994 4.88239,7.19361 l 0.87744,4.29244 1.67184,-3.16561 c 0.94109,-1.78193 1.59701,-5.06015 1.50064,-7.5 -0.17018,-4.30827 5.15176,-18.5005 5.99212,-15.97943 0.20992,0.62977 1.0106,1.14504 1.77929,1.14504 2.16572,0 2.7725,4.37623 2.06208,14.87199 -0.53661,7.92771 -1.00675,9.92453 -2.66219,11.30706 -1.65485,1.38203 -1.89506,2.40093 -1.35794,5.75989 0.60094,3.75807 0.37074,4.34663 -2.91046,7.44119 -3.58586,3.38191 -17.28076,13.27862 -21.42274,15.4813 C 496.5643,357.37839 493,355.60872 493,352.82335 c 0,-1.52967 -0.95394,-1.29163 -6.97504,1.74055 C 478.78682,358.20897 477,358.72094 477,357.14979 z m -146.44175,-47.0261 c -4.18557,-2.75851 -12.93638,-11.51672 -14.58514,-14.59747 -1.81904,-3.3989 -0.0771,-6.72729 5.61409,-10.72723 3.60572,-2.5342 4.34215,-2.71183 6.73075,-1.62351 2.99038,1.3625 3.30341,3.19005 1.18205,6.90099 -2.47817,4.3351 -1.83093,7.27096 2.54495,11.54389 3.18928,3.11425 3.98255,4.56879 3.75,6.87594 -0.37283,3.69874 -1.54233,4.06218 -5.2367,1.62739 z M 259,297.95574 c -3.70721,-1.47392 -7.82021,-5.78421 -8.50812,-8.91622 -0.61333,-2.79249 1.70629,-9.98248 3.20709,-9.94081 2.22743,0.0618 5.54612,4.18446 8.32657,10.34367 4.04796,8.96696 3.31349,11.03365 -3.02554,8.51336 z m -4,-32.53659 c -5.26283,-0.31092 -16.84639,-1.32851 -38.5,-3.38216 -9.83215,-0.93249 -20.13478,-2.83198 -30,-5.53108 -2.75,-0.75239 -6.42458,-1.60655 -8.16573,-1.89813 C 171.58632,253.47775 159,246.58889 159,244.02558 c 0,-1.41532 6.02473,-1.14696 11.54441,0.51422 2.67425,0.80483 4.99446,1.33114 5.15602,1.16957 0.16156,-0.16156 -1.96923,-1.35368 -4.73511,-2.64914 -7.48924,-3.50778 -8.35075,-5.16996 -1.77591,-3.42642 8.31753,2.20569 21.39182,4.22247 32.31059,4.98409 10.01337,0.69847 12.69952,-0.0145 4.40958,-1.17046 C 197.48161,242.27226 193,239.48602 193,235.42148 c 0,-3.66899 4.01911,-3.00686 15.96068,2.62945 11.62727,5.48797 18.66367,6.97249 33.20591,7.00573 8.29258,0.019 8.75662,-0.0989 10.75255,-2.73019 1.33699,-1.76261 1.84318,-2.05933 1.4098,-0.82639 -0.53271,1.51552 -0.32111,1.78736 0.99745,1.28138 1.09662,-0.42081 1.67361,-0.13591 1.67361,0.82639 0,1.24701 3.28205,1.46601 21.75,1.45129 25.28144,-0.0201 39.78989,-1.2563 42.39289,-3.61198 2.34444,-2.12169 6.65043,-1.04449 7.7883,1.94834 1.66884,4.38937 2.63745,4.74734 26.06881,9.63442 19.85775,4.14172 40.81234,7.03467 51,7.04096 16.70785,0.0103 33.35862,-4.79651 49.24342,-14.21583 7.55223,-4.4783 10.56409,-4.52819 13.38578,-0.22174 2.75064,4.19801 0.64698,6.92191 -8.87847,11.4962 -4.5379,2.17919 -9.82573,4.97124 -11.75073,6.20456 -3.42166,2.19221 -4.14911,2.24205 -32.5,2.22698 -32.6945,-0.0174 -39.82425,-0.89115 -55.08197,-6.75032 -10.08605,-3.87319 -20.10351,-6.94729 -28.91803,-8.87422 -8.20289,-1.79321 -48.23107,-1.72006 -85,0.15534 -15.95,0.81353 -32.9379,1.48038 -37.75088,1.48188 -4.81299,0.002 -8.75049,0.28099 -8.75,0.62107 0.002,1.21832 8.90164,1.84653 34.50088,2.43529 27.79006,0.63915 35.10454,1.47979 38.71876,4.44987 2.28005,1.8737 2.2802,1.87569 0.28124,3.8291 -2.18741,2.13757 -9.04834,3.06846 -18.5,2.51009 z m 115.45323,-26.267 c 0.31419,-0.50837 -0.18898,-1.07087 -1.11816,-1.25 -1.21082,-0.23342 -0.50606,-1.10875 2.48776,-3.08987 4.31013,-2.85217 5.50042,-5.69287 2.42717,-5.7926 -55.85772,-1.81276 -54.46308,-1.71728 -63.75,-4.36467 -18.44896,-5.25918 -17.89966,-5.20118 -23.67538,-2.50002 -8.53282,3.99059 -12.82391,3.27791 -32.47034,-5.39277 -21.40674,-9.44758 -35.21934,-13.75345 -46.31201,-14.4371 -10.62776,-0.655 -12.84255,-2.2894 -6.42407,-4.74064 2.74671,-1.04898 4.95289,-2.66732 5.61389,-4.11805 0.59892,-1.31448 1.65544,-2.38996 2.34784,-2.38996 0.69239,0 3.74825,2.27513 6.79079,5.05584 7.14769,6.53258 9.60035,7.1771 22.6153,5.94288 14.29116,-1.35524 20.14342,-1.21536 22.46023,0.53683 3.05434,2.30998 0.53266,3.76151 -6.36478,3.66371 -7.13649,-0.10118 -8.89264,1.33131 -2.83572,2.31309 2.33984,0.37928 8.87141,2.4801 14.51461,4.6685 5.64319,2.1884 10.80596,3.79704 11.47281,3.57476 0.70454,-0.23485 -0.97545,-2.71753 -4.01036,-5.9265 -8.11942,-8.58509 -7.37586,-8.75836 8.12978,-1.89451 13.81646,6.11611 23.25185,8.74246 36.14741,10.06166 5.5,0.56265 15.4,1.68329 22,2.49031 33.0268,4.03838 44.83679,3.91697 61.78918,-0.63521 5.95104,-1.59801 9.52762,-3.36117 15.15592,-7.47148 4.05172,-2.95893 8.10643,-5.37988 9.01049,-5.37988 3.03133,0 7.54441,2.99258 7.54441,5.00263 0,3.1647 -6.41805,6.31501 -29.5,14.4801 -7.15,2.52927 -15.27277,5.65705 -18.05061,6.95062 -5.47584,2.54997 -13.8991,5.56665 -15.54335,5.56665 -0.56324,0 -0.76701,-0.41594 -0.45281,-0.92432 z M 328.5,201.53149 c -3.85,-0.76006 -9.925,-2.06024 -13.5,-2.88929 -3.575,-0.82905 -10.775,-2.22241 -16,-3.09636 -5.225,-0.87396 -11.78327,-2.24599 -14.57394,-3.04897 C 276.78515,190.29831 259,178.89364 259,176.1925 c 0,-0.44333 0.90437,-1.6245 2.00972,-2.62482 1.75279,-1.58626 2.32807,-1.64839 4.5,-0.48601 1.36965,0.73302 2.49028,1.93172 2.49028,2.66378 0,3.04934 3.73432,5.06962 10.61953,5.7452 12.51123,1.22761 17.73577,2.67012 24.67499,6.81279 8.62957,5.15181 15.32567,6.68749 29.70548,6.81264 10.30787,0.0897 12.82471,-0.26997 24.27894,-3.46976 14.62843,-4.08652 21.33177,-4.52721 24.86028,-1.63436 4.03547,3.30847 0.95782,4.94772 -13.4158,7.14564 -6.89801,1.0548 -15.39519,2.81224 -18.88263,3.90544 -7.32491,2.29612 -11.60685,2.39011 -21.34079,0.46845 z"
         id="path2832" />
    </g>
  </g>
</svg>
