<?xml version="1.0" encoding="utf-8"?>
<!-- Generator: Adobe Illustrator 16.0.0, SVG Export Plug-In . SVG Version: 6.00 Build 0)  -->
<!DOCTYPE svg PUBLIC "-//W3C//DTD SVG 1.1//EN" "http://www.w3.org/Graphics/SVG/1.1/DTD/svg11.dtd">
<svg version="1.1" id="Capa_1" xmlns="http://www.w3.org/2000/svg" xmlns:xlink="http://www.w3.org/1999/xlink" x="0px" y="0px"
	 width="1200px" height="1200px" viewBox="0 0 1200 1200" enable-background="new 0 0 1200 1200" xml:space="preserve">
<g>
	<path fill="#FFFCF8" d="M1020.835,275.78c-1.263-8.586-1.827-17.274-2.726-25.913c-0.335-3.183-1.855-5.295-5.286-4.019
		c-4.124,1.53-5.097-1.004-4.887-3.87c0.453-5.993-2.748-8.356-7.907-9.611c-3.807-0.927-6.26-3.092-6.979-7.471
		c-0.38-2.305-2.185-5.003-4.147-6.303c-4.277-2.841-9.234-4.64-13.583-7.384c-2.164-1.363-4.333-3.601-5.2-5.923
		c-1.214-3.252-3.336-4.448-6.266-4.849c-1.982-0.275-4.025,0-6.027-0.178c-3.601-0.321-4.992-1.875-3.566-5.707
		c4.33-11.591,3.946-11.915-8.572-10.622c-1.558,0.16-3.771-0.684-4.738-1.848c-0.696-0.847-0.065-3.067,0.419-4.528
		c0.395-1.213,1.431-2.221,2.203-3.309c3.727-5.268,2.409-8.684-3.897-9.063c-4.671-0.283-5.943-1.883-4.291-6.313
		c1.66-4.435,0.164-6.17-4.675-5.822c-1.485,0.108-2.925,0.718-4.409,0.857c-3.438,0.317-5.756-0.45-4.464-4.766
		c1.35-4.494-0.854-7.052-5.039-8.144c-2.079-0.54-4.258-0.711-6.377-1.119c-3.766-0.739-6.104-2.196-4.85-6.854
		c1.492-5.518,0.129-6.745-5.79-6.239c-4.915,0.415-9.671,0.428-13.609-3.361c-10.728-10.304-25.122-15.789-35.29-26.955
		c-2.461-2.705-6.311-4.472-9.853-5.8c-10.729-4.023-21.45-8.245-32.49-11.236c-14.83-4.023-26.199-14.757-40.865-19.4
		c-11.922-3.772-23.523-5.668-35.826-5.01c-15.848,0.854-31.779,2.168-47.271-2.81c-4.383-1.405-7.533,0.321-11.128,2.549
		c-3.062,1.896-6.938,3.423-10.455,3.434c-6.471,0.007-12.947-1.217-19.418-1.941c-20.114-2.259-40.19-0.767-60.125,1.625
		c-18.177,2.178-36.173,5.839-54.283,8.604c-9.294,1.422-17.532,4.054-24.096,11.616c-2.741,3.148-7.865,5.302-12.146,5.808
		c-7.718,0.91-14.353,3.646-21,7.363c-3.493,1.958-7.837,2.928-11.888,3.27c-13.958,1.182-26.316,5.947-36.611,15.464
		c-12.17,11.243-24.148,22.688-36.113,34.147c-1.402,1.338-2.74,3.148-3.228,4.971c-4.11,15.36-13.522,27.401-23.73,39.063
		c-8.074,9.228-13.606,19.752-14.76,32.25c-0.161,1.743-0.747,3.807-1.879,5.044c-13.429,14.813-16.482,34.359-23.796,51.939
		c-1.231,2.97-0.994,6.554-1.429,9.859c-1.203,9.231-1.715,18.623-3.748,27.673c-3.939,17.531-9.824,34.69-7.432,53.121
		c0.25,1.953-0.565,4.4-1.673,6.104c-14.593,22.514-19.609,47.798-20.091,73.923c-0.522,28.987,0.136,58.012,0.932,86.993
		c0.344,12.794,3.862,25.059,11.633,35.631c4.455,6.066,8.959,12.125,13.833,17.849c6.111,7.185,8.74,15.023,9.105,24.667
		c0.481,12.92,2.556,25.871,5.03,38.605c3.898,19.977,9.242,39.818,8.294,60.303c-0.683,14.598,5.912,25.795,14.045,36.398
		c3.717,4.85,5.965,9.313,5.453,15.412c-2.182,26.506-4.061,53.027-6.366,79.52c-0.592,6.779-2.116,13.51-3.733,20.139
		c-0.4,1.658-3.165,4.232-4.281,3.967c-4.842-1.129-6.491,1.758-7.764,5.195c-2.534,6.854-4.933,13.766-7.224,20.721
		c-3.744,11.361-7.16,22.846-11.141,34.133c-0.952,2.713-3.577,6.879-5.436,6.879c-8.816,0.006-14.073,5.451-18.462,11.428
		c-6.505,8.865-12.414,18.225-17.755,27.842c-5.728,10.295-13.178,18.422-23.706,23.801c-14.122,7.201-28.039,14.834-42.224,21.887
		c-11.922,5.926-18.686,15.463-23.235,26.57c0.216,0.719,0.457,1.43,0.666,2.158c1.464,5.09,1.894,9.852,1.548,14.271
		c54.558,91.529,172.079,88.963,266.563,86.139c76.061-2.275,153.128-3.084,229.15-0.023c31.801,1.285,68.4,5.17,97.747-9.762
		c23.26-11.836,26.228-43.068,47.99-56.789c0.735-0.463,1.308-1.004,1.813-1.574c0.861,0.73,1.736,1.445,2.543,2.209
		c0.49-0.314,0.98-0.629,1.465-0.938c-0.258-2.039-0.163-4.207-0.843-6.105c-3.106-8.604-5.697-17.498-9.872-25.57
		c-4.418-8.529-9.748-16.795-15.901-24.154c-8.308-9.947-15.074-20.195-17.12-33.324c-0.604-3.842-0.189-6.104,3.113-7.771
		c1.934-0.984,3.873-2,5.908-2.715c7.691-2.705,12.881-7.906,16.494-15.166c8.188-16.463,11.414-34.148,12.634-52.193
		c0.814-12.033,2.478-23.357,10.347-33.207c15.67-19.604,30.301-40.074,46.563-59.15c27.034-31.699,51.667-64.902,70.629-102.119
		c7.729-15.164,13.076-30.928,13.574-48.186c0.346-12.041-3.526-22.965-7.92-33.811c-5.226-12.93-9.039-25.959-8.698-40.272
		c0.279-11.968,4.804-20.941,13.903-28.039c6.533-5.104,11.56-10.221,12.616-19.721c0.885-8.032,5.444-16.001,9.663-23.249
		c7.606-13.083,6.505-25.483-0.982-37.824c-3.905-6.425-8.057-12.714-12.544-18.745c-5.158-6.941-5.487-14.188-1.982-21.635
		c0.836-1.778,3.531-3.786,5.365-3.772c4.549,0.035,6.459-1.983,6.934-6.073c0.268-2.318,0.683-4.671,0.564-6.983
		c-0.224-4.309,1.164-7.568,4.246-10.741c1.583-1.635,1.799-4.926,1.955-7.499c0.115-1.904-0.659-3.95-1.384-5.791
		c-1.753-4.448-1.362-8.109,1.956-11.992c1.572-1.841,1.831-5.512,1.409-8.15c-0.453-2.824-2.079-5.651-3.776-8.053
		c-4.801-6.753,3.173-13.01,0.484-19.588c-0.031-0.073,0.172-0.338,0.296-0.373c4.185-1.203,5.426-4.469,6.059-8.304
		c0.103-0.6,1.099-1.322,1.813-1.513c5.798-1.59,5.75-5.644,4.56-10.312c-2.085-8.168-1.474-9.165,6.822-11.546
		c1.12-0.328,2.242-0.645,3.347-1.022c5.358-1.823,6.38-4.159,5.94-9.852c-0.509-6.575-2.13-13.927,0.103-19.633
		C1021.208,290.153,1021.943,283.38,1020.835,275.78z"/>
	<path fill="#131313" d="M873.57,780.303c-9.367,9.84-19.982,18.629-28.453,29.158c-19.773,24.594-30.326,53.637-37.668,83.959
		c-0.432,1.781-0.049,3.766-0.049,7.119c2.542-1.883,4.413-2.607,5.191-3.973c2.397-4.164,4.904-8.4,6.428-12.928
		c9.534-28.246,21.346-55.381,40.932-78.195c9.056-10.541,19.797-19.611,29.638-29.484c7.896-7.914,14.328-16.84,17.867-27.609
		c6.027-18.328,5.393-35.936-5.909-52.254c-1.563-2.25-3.839-4.139-6.126-5.689c-0.896-0.604-3.179-0.275-4.02,0.502
		c-0.787,0.732-1.056,2.857-0.582,3.945c1.193,2.73,2.996,5.188,4.438,7.82c2.632,4.807,6.279,9.389,7.547,14.543
		c3.413,13.844,0.788,27.258-7.534,38.693C888.898,764.674,881.079,772.42,873.57,780.303z M628.51,886.926
		c0.959,0.896,3.022,0.596,4.574,0.844c0.121-1.701,0.805-3.625,0.244-5.055c-1.021-2.615-2.5-5.174-4.303-7.326
		c-3.674-4.361-7.578-8.551-11.604-12.602c-8.974-9.039-14.792-19.857-18.201-32.002c-8.144-29.057-8.13-58.779-6.568-88.514
		c0.669-12.676,2.762-25.295,4.599-37.887c0.958-6.584,2.778-13.051,4.455-20.725c-0.621-0.883-1.743-3.58-2.701-3.525
		c-1.733,0.105-3.859,1.514-4.909,3.01c-1.182,1.68-1.639,4.025-1.914,6.146c-1.813,13.938-3.608,27.875-5.188,41.84
		c-3.099,27.414-1.492,54.715,3.228,81.773c3.598,20.578,9.409,40.625,22.016,57.744
		C616.733,876.768,622.894,881.695,628.51,886.926z M355.826,468.556c4.005-1.074,7.938-2.461,11.783-4.009
		c5.25-2.119,7.561-1.004,8.457,4.536c0.457,2.81,0.282,5.812,1.216,8.43c1.43,4.012,3.382,7.875,5.516,11.574
		c0.523,0.889,2.709,1.367,3.918,1.098c0.725-0.153,1.286-2.109,1.467-3.319c0.164-1.102-0.198-2.311-0.484-3.44
		c-2.192-8.733-4.253-17.504-6.774-26.149c-0.627-2.141-2.761-3.835-4.117-5.62c-9.367,3.221-17.532,5.78-23.685,12.163
		c-0.801,0.826-0.85,2.375-1.248,3.587C353.2,467.827,354.7,468.863,355.826,468.556z M394.867,505.087
		c0.463-1.743-0.024-3.737-0.094-5.62c-1.694,0.366-3.632,0.317-5.034,1.157c-5.612,3.378-8.565,8.813-10.552,14.833
		c-3.65,11.079-3.751,22.398-2.012,35.105c-0.272,0.554-0.687,2.712-1.928,3.44c-0.914,0.523-3.183-0.492-4.371-1.422
		c-2.639-2.071-4.797-4.759-7.471-6.75c-2.639-1.97-5.571-3.692-8.611-4.926c-1.374-0.558-3.326,0.338-5.02,0.575
		c0.306,1.53,0.125,3.448,1,4.525c7.397,9.103,16.179,16.57,27.136,21.049c5.138,2.092,8.275-0.146,8.175-5.738
		c-0.07-3.66-0.471-7.429-1.479-10.933c-4.19-14.624-3.046-28.133,7.334-40.066C393.235,508.827,394.361,506.962,394.867,505.087z
		 M439.903,891.969c-10.583-19.744-27.223-34.281-43.444-49.123c-0.568-0.518-1.36-0.805-3.182-1.85
		c3.987,11.602,10.008,20.227,18.03,27.299c9.35,8.248,16.371,17.986,21.502,29.316c2.256,4.988,5.376,9.607,8.402,14.201
		c0.777,1.178,2.677,1.607,4.062,2.381c0.405-1.67,1.53-3.572,1.084-4.971C444.498,903.365,442.784,897.336,439.903,891.969z
		 M769.844,382.302c-8.262,0.833-14.17,6.519-20.407,11.271c-6.069,4.619-12.417,8.768-20.213,9.238
		c-6.864,0.418-13.878,0.788-20.645-0.157c-15.147-2.112-29.392,1.042-43.189,6.481c-12.931,5.097-25.847,10.511-33.993,22.974
		c-0.857,1.314-3.364,2.008-5.18,2.161c-7.015,0.589-13.551,2.392-18.934,7.049c-1.308,1.137-1.691,3.34-2.493,5.055
		c1.688,0.345,3.619,1.395,5.014,0.903c5.313-1.844,10.644-3.828,15.589-6.463c3.459-1.833,4.902-1.579,6.213,2.214
		c1.518,4.378,3.361,8.719,5.68,12.724c2.437,4.211,6.428,5.972,11.204,3.929c4.724-2.029,9.272-4.483,13.951-6.631
		c4.375-2.001,8.75-5.215,13.265-5.483c11.477-0.69,23.127-0.878,34.551,0.289c18.623,1.904,36.329,1.057,52.843-9.099
		c6.358-3.912,13.404-6.809,20.377-9.576c12.017-4.755,24.527-1.952,36.872-1.468c3.684-0.188,7.376-0.355,11.063-0.575
		c8.383-0.484,10.489-3.671,7.326-11.236C826.236,386.018,798.012,379.454,769.844,382.302z M851.154,452.582
		c-0.568,2.531-0.101,5.296-0.104,7.949c2.242-1.729,4.608-3.333,6.688-5.24c0.926-0.854,1.54-2.256,1.851-3.524
		c1.889-7.708,3.643-15.443,5.452-23.172c-0.484-0.101-0.97-0.206-1.444-0.313c0-2.688,0.451-5.47-0.093-8.042
		c-1.119-5.334-2.427-10.692-4.407-15.754c-0.541-1.394-3.712-1.756-5.688-2.6c-0.342,2.063-0.978,4.135-0.935,6.191
		c0.023,1.196,1.018,2.451,1.753,3.553c3.032,4.521,4.456,9.563,3.336,14.802C855.7,435.208,853.131,443.836,851.154,452.582z
		 M837.604,363.128c-1.432-1.893-2.485-4.466-4.375-5.578c-12.083-7.077-25.595-9.499-39.254-10.939
		c-3.004-0.32-7.395-0.006-7.893,4.211c-0.107,0.931,4.529,2.782,7.176,3.601c8.195,2.548,16.482,4.814,24.736,7.182
		c-0.114,0.683-0.237,1.37-0.355,2.06c-0.934,0.248-1.938,0.349-2.785,0.774c-1.559,0.764-3.021,1.719-4.531,2.594
		c1.209,1.475,2.346,3.03,3.66,4.393c0.547,0.558,1.461,0.886,2.262,1.042c11.345,2.21,21.188,7.92,31.396,12.94
		c8.545,4.201,18.037,5.118,27.478,4.18c2.165-0.213,4.1-2.699,6.143-4.138c-2.103-0.91-4.18-2.535-6.307-2.604
		c-16.869-0.509-31.267-7.889-45.505-15.799c-0.197-0.111-0.188-0.586-0.371-1.22c0.793-0.157,1.57-0.23,2.285-0.471
		C833.463,364.648,835.526,363.881,837.604,363.128z M590.093,844.004c-9.722-30.504-19.023-61.16-29.482-91.416
		c-6.021-17.438-8.405-34.576-4.027-52.648c3.664-15.076,6.83-30.27,9.856-45.49c0.373-1.885-1.447-4.211-2.242-6.33
		c-1.802,1.408-3.81,2.648-5.327,4.32c-0.792,0.871-0.809,2.494-1.053,3.799c-2.15,11.486-4.229,22.98-6.421,34.457
		c-4.557,23.762-4.459,47.178,3.761,70.318c9.827,27.639,20.007,55.141,26.777,83.799c2.433,10.299,6.878,20.168,10.911,30.025
		c1.36,3.303,4.302,5.955,6.522,8.898c0.621-0.314,1.238-0.643,1.859-0.971c-0.256-1.771-0.273-3.604-0.786-5.299
		C597.055,866.291,593.645,855.125,590.093,844.004z M895.631,378.669c8.621,4.406,17.542,8.203,26.307,12.32
		c6.873,3.238,12.31,7.871,15.332,15.157c1.126,2.709,3.005,5.282,5.103,7.345c2.743,2.706,5.477,1.593,5.948-2.189
		c0.822-6.526-0.143-12.086-6.746-15.803c-7.422-4.18-14.216-9.5-21.649-13.655c-8.421-4.707-17.204-8.813-25.967-12.878
		c-2.403-1.116-5.313-1.144-9.173-1.911C886.661,374.12,891.339,376.473,895.631,378.669z M598.739,477.31
		c1.289,1.105,2.49,3.054,3.863,3.186c15.384,1.523,28.464,9.618,42.6,14.67c0.607,0.219,1.047,0.889,1.563,1.338
		c-3.34,0.589-6.223-0.01-9.135-0.401c-6.281-0.847-12.563-1.886-18.877-2.158c-1.75-0.077-3.59,2.249-5.393,3.476
		c1.693,1.095,3.264,2.768,5.114,3.169c6.034,1.314,12.17,2.123,18.261,3.19c7.571,1.332,15.111,2.89,22.719,3.946
		c1.604,0.227,3.443-1.293,5.184-2.011c-0.613-1.458-0.833-3.772-1.872-4.239c-6.09-2.719-5.135-7.523-4.197-13.55
		c3.782,1.677,7.278,3.033,10.583,4.741c5.205,2.691,10.226,5.181,16.466,5.337c10.187,0.269,20.61,0.453,30.454,2.733
		c12.262,2.842,24.02,7.851,36.072,11.707c1.871,0.603,4.552,0.764,5.995-0.192c0.987-0.645,0.882-3.678,0.506-5.48
		c-0.806-3.824-2.092-7.544-3.538-12.536c2.883,1.631,4.514,2.789,6.334,3.486c1.252,0.481,3.305,0.906,4.006,0.261
		c0.784-0.718,1.011-2.907,0.512-4.03c-1.464-3.33-2.998-6.774-5.229-9.598c-6.931-8.743-16.933-9.189-26.973-9.301
		c-15.601-0.164-30.538,3.619-45.211,8.228c-8.736,2.744-16.557,2.437-24.463-2.162c-11.859-6.902-23.848-13.603-35.848-20.269
		c-2.643-1.46-5.578-2.395-8.384-3.576c-0.384,0.592-0.774,1.185-1.157,1.774c5.695,12.567,19.969,15.938,29.803,25.083
		c-8.354,0.718-19.098-1.869-25.752-6.6c-6.136-4.354-12.928-4.284-19.773-3.754C601.482,473.896,600.15,476.076,598.739,477.31z
		 M1022.135,274.772c-1.266-8.614-1.833-17.326-2.733-25.992c-0.338-3.19-1.858-5.313-5.306-4.03
		c-4.131,1.526-5.114-1.011-4.901-3.884c0.456-6.014-2.754-8.377-7.931-9.639c-3.82-0.934-6.282-3.113-6.996-7.496
		c-0.385-2.314-2.193-5.02-4.166-6.331c-4.296-2.841-9.264-4.644-13.628-7.397c-2.172-1.367-4.348-3.608-5.218-5.947
		c-1.21-3.259-3.344-4.455-6.275-4.856c-1.994-0.275-4.045,0-6.053-0.185c-3.611-0.321-5.01-1.875-3.573-5.724
		c4.34-11.623,3.953-11.951-8.6-10.657c-1.565,0.164-3.787-0.683-4.752-1.851c-0.7-0.844-0.065-3.072,0.414-4.536
		c0.401-1.224,1.437-2.231,2.214-3.326c3.742-5.278,2.413-8.708-3.911-9.089c-4.678-0.286-5.961-1.886-4.301-6.337
		c1.665-4.445,0.16-6.188-4.693-5.839c-1.489,0.108-2.936,0.725-4.423,0.861c-3.449,0.321-5.771-0.447-4.477-4.776
		c1.352-4.511-0.854-7.076-5.055-8.168c-2.088-0.543-4.274-0.715-6.396-1.129c-3.773-0.739-6.127-2.2-4.86-6.871
		c1.495-5.54,0.13-6.763-5.815-6.261c-4.923,0.411-9.701,0.432-13.648-3.371c-10.766-10.336-25.2-15.834-35.398-27.039
		c-2.464-2.712-6.33-4.483-9.883-5.818c-10.762-4.037-21.516-8.266-32.588-11.267c-14.885-4.044-26.285-14.806-40.997-19.463
		c-11.96-3.779-23.594-5.686-35.935-5.02c-15.9,0.854-31.877,2.168-47.418-2.824c-4.403-1.412-7.562,0.321-11.166,2.556
		c-3.064,1.9-6.959,3.434-10.486,3.441c-6.492,0.006-12.986-1.21-19.478-1.942c-20.177-2.269-40.317-0.767-60.306,1.628
		c-18.243,2.189-36.291,5.856-54.46,8.632c-9.318,1.426-17.584,4.068-24.169,11.65c-2.75,3.162-7.882,5.32-12.181,5.822
		c-7.735,0.917-14.397,3.661-21.063,7.394c-3.503,1.963-7.861,2.936-11.922,3.277c-14.003,1.182-26.4,5.968-36.733,15.509
		c-12.205,11.274-24.218,22.765-36.225,34.251c-1.401,1.342-2.743,3.162-3.231,4.989c-4.128,15.408-13.565,27.491-23.811,39.184
		c-8.094,9.256-13.642,19.815-14.802,32.354c-0.16,1.743-0.75,3.811-1.882,5.062c-13.47,14.848-16.535,34.46-23.87,52.097
		c-1.237,2.981-1,6.575-1.436,9.883c-1.203,9.263-1.726,18.686-3.758,27.76c-3.95,17.588-9.858,34.802-7.457,53.289
		c0.254,1.956-0.568,4.414-1.68,6.122c-14.638,22.586-19.669,47.948-20.147,74.153c-0.53,29.078,0.129,58.19,0.928,87.261
		c0.345,12.835,3.873,25.135,11.664,35.747c4.473,6.083,8.992,12.16,13.886,17.901c6.128,7.207,8.761,15.067,9.13,24.745
		c0.485,12.961,2.559,25.955,5.044,38.725c3.912,20.037,9.273,39.943,8.325,60.49c-0.687,14.641,5.93,25.873,14.084,36.51
		c3.729,4.867,5.985,9.336,5.473,15.457c-2.196,26.59-4.075,53.199-6.394,79.766c-0.585,6.803-2.119,13.555-3.737,20.203
		c-0.404,1.666-3.179,4.246-4.298,3.984c-4.856-1.135-6.509,1.764-7.785,5.205c-2.542,6.875-4.95,13.814-7.245,20.783
		c-3.758,11.404-7.181,22.922-11.172,34.246c-0.962,2.715-3.591,6.902-5.459,6.902c-8.837,0.002-14.119,5.465-18.515,11.459
		c-6.529,8.889-12.456,18.281-17.814,27.926c-5.745,10.334-13.216,18.484-23.776,23.877c-14.167,7.227-28.122,14.873-42.359,21.955
		c-15.681,7.795-22.496,21.803-27.018,37.449c-0.585,2.012,0.607,4.539,0.976,6.824c1.875-1.471,4.351-2.592,5.512-4.51
		c2.231-3.686,3.883-7.76,5.487-11.793c3.114-7.82,8.171-13.576,15.939-17.205c28.806-13.453,51.793-34.648,73.752-56.922
		c8.078-8.195,14.472-18.051,21.688-27.104c1.436-1.799,3.127-3.398,4.703-5.086c0.46,0.281,0.92,0.557,1.377,0.836
		c-0.655,3.039-0.909,6.24-2.036,9.092c-7.893,20.018-16.026,39.939-23.908,59.947c-0.99,2.514-1.464,5.418-1.419,8.131
		c0.081,4.918,1.388,13.182,1.032,18.033c-1.819,25.004-0.373,55.543,8.719,76.543h8.074c-2.876-14-5.268-29.486-8.74-42.336
		c-5.584-20.701-4.814-41.646,9.025-59.282c5.857-7.453,8.363-17.126,7.827-26.728c-0.084-1.488,0.112-3.453,0.499-4.896
		c4.682-17.387,9.099-35.065,14.244-52.321c3.671-12.295,8.162-24.456,12.697-36.476c0.826-2.189,3.866-5.358,5.477-5.136
		c4.644,0.645,6.24-1.793,7.23-5.189c1.586-5.447,3.047-10.959,4.18-16.516c5.847-28.674,8.587-57.685,9.005-86.933
		c0.408-29.082,0.82-58.199-3.095-87.07c-2.995-22.004-7.217-43.838-11.016-65.73c-1.29-7.383,0.541-9.119,7.903-6.879
		c5.578,1.701,11.065,3.832,16.747,5.045c5.142,1.105,6.771,3.834,6.815,8.793c0.102,11.744,0.718,23.475,0.837,35.209
		c0.027,2.922-0.889,5.871-1.579,8.76c-1.384,5.826-3.901,11.57-4.18,17.432c-0.649,13.596-0.137,27.236-0.286,40.857
		c-0.15,14.281-0.491,28.564-0.802,42.844c-0.307,14.088-1.119,28.195,2.97,41.986c2.503,8.412,8.339,13.186,17.508,16.695
		c-1.688-3.537-2.747-5.918-3.943-8.238c-1.84-3.559-3.984-6.98-5.637-10.625c-7.843-17.379-6.351-35.773-5.449-54.02
		c0.778-15.592,2.057-31.148,3.441-46.697c0.223-2.486,2.158-4.824,3.322-7.223c0.917-1.893,2.618-3.756,2.67-5.672
		c0.209-8.068-0.059-16.135-0.178-24.205c-0.289-18.947-0.687-37.895-0.812-56.844c-0.032-4.672-1.367-6.986-6.01-7.594
		c-1.823-0.234-3.692-0.139-5.539-0.143c-16.88-0.059-31.354-6.111-43.695-17.497c-13.575-12.529-22.116-28.517-30.559-44.563
		c-4.295-8.161-6.101-16.824-6-26.107c0.245-22.008-0.122-44.026,0.224-66.034c0.083-5.191,1.694-10.452,3.169-15.507
		c1.61-5.591,3.723-11.065,5.894-16.472c3.846-9.573,7.433-19.306,12.045-28.502c2.921-5.826,8.478-9.103,15.203-10.462
		c17.438-3.528,30.853,2.493,41.432,16.284c4.08,5.323,8.472,10.423,12.962,15.398c1.067,1.186,3.123,1.471,4.724,2.176
		c0.021-1.852,0.666-3.992-0.035-5.508c-8.461-18.435-20.564-32.822-42.338-34.927c-11.344-1.098-22.887-1.949-32.585,6.404
		c-1.869,1.604-4.519,2.276-6.815,3.382c-0.387-0.412-0.774-0.823-1.165-1.231c1.144-2.099,1.869-4.637,3.514-6.216
		c4.563-4.396,9.05-9.155,14.391-12.407c19.373-11.791,44.772-8.524,57.524,7.704c5.097,6.484,8.639,14.29,12.295,21.785
		c2.796,5.745,6.649,10.243,11.49,14.349c9.214,7.819,18.309,15.82,26.882,24.326c9.768,9.716,16.186,21.67,20.809,34.621
		c1.339,3.755,2.657,7.914,7.906,7.788c10.759-0.254,21.517-0.415,32.261-0.906c5.48-0.247,6.893-2.196,7.209-7.568
		c0.551-9.207,1.032-18.428,2.001-27.593c2.866-26.989,14.147-50.259,31.609-70.81c12.421-14.596,27.244-26.365,42.869-37.228
		c4.932-3.427,8.586-7.694,9.12-13.756c0.631-7.011,1.143-14.091,0.878-21.112c-0.369-9.887-1.464-19.749-2.301-29.618
		c-0.889-10.42,1.987-14.269,12.379-15.426c11.574-1.29,22.277-4.497,31.16-12.438c3.258-2.912,6.532-5.801,9.886-8.604
		c8.475-7.073,17.299-14.067,29.203-12.08c7.663,1.279,15.388,3.462,22.5,6.585c23.688,10.392,47.78,17.814,74.167,16.716
		c16.636-0.69,31.289,5.456,44.029,16.657c5.813,5.118,12.659,9.831,19.861,12.473c21.365,7.826,43.176,14.143,66.467,12.784
		c4.881-0.282,10.183,0.429,14.77,2.113c27.639,10.148,42.534,31.427,49.431,58.933c2.83,11.281,3.447,23.126,6.396,34.366
		c4.832,18.4,5.407,36.706,1.639,55.22c-1.649,8.095-4.976,9.458-11.25,4.138c-11.532-9.771-22.586-20.098-34.01-30.005
		c-9.817-8.52-21.37-13.69-33.993-16.433c-5.126-1.116-7.29,1.457-5.774,6.54c1.331,4.469,3.131,8.841,4.069,13.387
		c0.68,3.27,2.053,7.631-1.876,9.619c-10.326,5.201-12.613,14.973-14.869,24.779c-0.369,1.614,0.681,3.56,1.078,5.345
		c1.645-0.977,3.966-1.565,4.817-3.012c2.769-4.741,4.996-9.796,7.442-14.729c1.051-2.105,2.127-4.194,3.19-6.296l-0.502,1.774
		c5.045,4.169,10.507,7.921,15.028,12.595c7.587,7.837,14.688,16.166,21.758,24.483c3.576,4.208,2.735,6.756-2.451,8.569
		c-5.658,1.983-11.435,3.636-17.116,5.585c-16.658,5.717-32.215,13.243-44.345,26.599c-7.794,8.586-11.054,18.285-8.16,29.706
		c1.104,4.375,2.663,8.635,3.559,13.045c0.3,1.464-0.338,4.002-1.387,4.619c-1.22,0.714-3.835,0.46-4.985-0.457
		c-1.387-1.091-2.493-3.287-2.615-5.076c-0.327-4.838-0.624-9.795,0.061-14.568c2.343-16.252,8.128-31.406,15.265-46.135
		c0.987-2.029,0.906-6.39-0.394-7.349c-2.872-2.123-5.787,0.115-7.384,2.959c-2.535,4.504-5.257,8.998-7.004,13.826
		c-8.866,24.497-6.982,49.524-2.479,74.443c3.877,21.44,11.372,41.837,20.045,61.774c2.566,5.895,2.664,11.602,0.472,17.51
		c-0.813,2.188-1.766,4.387-2.11,6.666c-0.208,1.447,0.582,3.037,0.925,4.566c1.499-0.52,3.444-0.627,4.398-1.658
		c1.671-1.793,2.625-4.215,4.056-6.258c0.714-1.033,2.046-2.682,2.67-2.514c1.206,0.338,2.514,1.572,3.085,2.771
		c3.023,6.357-0.893,17.398-7.191,20.623c-2.778,1.434-4.833,1.363-5.191-2.52c-0.271-2.838-0.599-6.689-4.319-6.186
		c-4.675,0.643-9.572,2.023-13.604,4.396c-4.997,2.939-4.147,8.158,1.312,10.189c9.883,3.693,19.805,3.434,29.155-1.551
		c2.765-1.471,6.181-4.35,6.651-7.053c1.893-10.939,4.518-22.275-4.832-31.754c-2.678-2.709-4.729-6.107-6.742-9.389
		c-10.762-17.561-14.896-37.414-19.386-57.113c-0.377-1.618,0.198-3.444,0.327-5.173c1.753,0.662,4.064,0.83,5.163,2.067
		c9.284,10.441,21.327,18.7,26.059,32.784c0.739,2.189,2.231,4.105,3.288,6.191c9.405,18.496,18.569,37.068,21.32,58.029
		c0.346,2.625,0.854,5.338,1.896,7.746c0.617,1.412,2.437,2.301,3.717,3.43c0.619-1.426,1.317-2.826,1.844-4.287
		c0.212-0.596,0.056-1.332,0.041-2.004c-0.229-20.928-6.236-40.475-16.754-58.152c-9.308-15.648-20.795-30.005-31.287-44.961
		c-1.451-2.071-2.672-4.309-4-6.47c0.419-0.534,0.838-1.06,1.255-1.59c3.923,1.509,7.893,2.914,11.753,4.566
		c15.823,6.749,31.72,12.927,49.514,9.591c8.293-1.562,11.709,0.627,14.689,9.601c-2.551-0.429-4.754-1.025-6.976-1.084
		c-1.861-0.056-3.737,0.52-5.603,0.819c0.685,1.886,0.824,4.477,2.169,5.515c3.546,2.747,7.547,4.95,11.505,7.104
		c3.914,2.135,6.257,5.035,7.429,9.518c2.789,10.654,5.915,21.238,9.27,31.73c4.765,14.941,8.175,30.02,1.373,45.055
		c-6.268,13.855-13.163,27.451-20.316,40.867c-17.954,33.639-39.307,64.766-66.429,91.898
		c-18.051,18.059-35.098,37.168-47.959,59.467c-1.997,3.461-3.221,7.77-3.434,11.766c-0.488,8.885-0.152,17.82-0.063,26.729
		c0.144,15.133-5.201,28.303-14.848,39.633c-14.638,17.188-34.418,26.25-55.091,33.703c-1.495,0.549-3.378,0.607-4.954,0.275
		c-15.356-3.242-30.922-5.814-45.972-10.127c-23.694-6.783-45.194-17.758-61.432-37.186c-4.09-4.898-8.429-9.594-12.875-14.18
		c-1.433-1.48-3.565-2.279-5.382-3.395c-0.548,0.488-1.095,0.977-1.646,1.463c1.685,3.467,3.054,7.131,5.104,10.369
		c8.997,14.203,21.366,24.965,35.754,33.369c19.257,11.25,40.269,17.738,62.05,22.043c3.039,0.596,5.817,2.531,8.718,3.846
		c-1.771,2.693-3.507,5.41-5.313,8.076c-0.365,0.545-0.996,0.896-1.477,1.367c-5.418,5.268-11.027,10.361-16.121,15.922
		c-1.578,1.715-1.738,4.713-2.544,7.129c2.385-0.625,5.334-0.568,7.069-1.988c8.318-6.787,16.189-14.125,24.466-20.959
		c3.413-2.822,7.279-5.264,11.274-7.174c5.494-2.611,11.267-4.652,16.99-6.75c2.64-0.969,5.45-1.477,8.18-2.199
		c-0.471,2.668-0.437,5.555-1.496,7.959c-11.257,25.408-22.723,50.723-37.984,74.078c-0.983,1.508-1.335,3.418-2.102,5.438
		c5.375-0.207,10.088-3.189,14.313-8.453c7.878-9.824,11.888-21.58,16.858-32.91c4.354-9.904,9.398-19.557,14.852-28.902
		c3.137-5.369,6.578-5.146,10.211-0.295c11.151,14.936,21.767,30.193,29.572,47.242c2.576,5.613,5.578,11.064,8.834,16.307
		c1.44,2.32,3.994,3.951,6.045,5.893c0.492-0.311,0.982-0.631,1.471-0.936c-0.258-2.049-0.164-4.225-0.847-6.127
		c-3.12-8.629-5.718-17.561-9.903-25.652c-4.432-8.551-9.779-16.84-15.946-24.232c-8.333-9.973-15.122-20.258-17.177-33.424
		c-0.609-3.852-0.188-6.121,3.125-7.799c1.934-0.986,3.882-2.008,5.922-2.721c7.719-2.709,12.926-7.934,16.545-15.207
		c8.217-16.518,11.453-34.26,12.676-52.359c0.816-12.072,2.482-23.426,10.383-33.309c15.715-19.662,30.391-40.195,46.706-59.334
		c27.118-31.797,51.825-65.104,70.849-102.434c7.749-15.217,13.111-31.025,13.609-48.334c0.346-12.084-3.538-23.037-7.938-33.924
		c-5.247-12.965-9.07-26.035-8.73-40.398c0.279-11.995,4.822-21,13.946-28.123c6.554-5.121,11.594-10.256,12.654-19.78
		c0.896-8.06,5.466-16.05,9.694-23.322c7.631-13.125,6.526-25.564-0.983-37.943c-3.919-6.443-8.088-12.752-12.581-18.797
		c-5.177-6.973-5.512-14.237-1.99-21.708c0.836-1.785,3.545-3.793,5.379-3.775c4.566,0.035,6.48-1.998,6.955-6.094
		c0.271-2.328,0.689-4.688,0.571-7.01c-0.227-4.319,1.162-7.589,4.257-10.772c1.583-1.635,1.805-4.937,1.96-7.526
		c0.118-1.904-0.659-3.96-1.389-5.805c-1.757-4.458-1.366-8.133,1.966-12.031c1.573-1.844,1.842-5.529,1.412-8.171
		c-0.46-2.831-2.087-5.665-3.797-8.081c-4.803-6.77,3.187-13.052,0.492-19.647c-0.028-0.073,0.175-0.338,0.301-0.373
		c4.193-1.207,5.441-4.49,6.075-8.332c0.108-0.6,1.102-1.321,1.82-1.517c5.818-1.596,5.762-5.661,4.57-10.343
		c-2.088-8.193-1.472-9.193,6.847-11.588c1.119-0.324,2.248-0.645,3.357-1.018c5.375-1.834,6.396-4.173,5.958-9.883
		c-0.509-6.596-2.135-13.969,0.101-19.693C1022.508,289.185,1023.246,282.393,1022.135,274.772z M929.338,575.329
		c-18.814,7.404-36.476,3.995-53.156-6.334c-7.088-4.393-12.86-10.232-16.549-17.863c-2.82-5.818-1.258-8.816,5.107-9.89
		c2.314-0.391,4.63-0.788,6.957-0.997c1.834-0.157,3.697-0.032,5.54-0.032c16.615-0.23,30.375,6.882,42.978,16.852
		c3.684,2.915,7.258,5.985,10.741,9.137C935.518,570.323,935.101,573.066,929.338,575.329z M947.1,581.89
		c-1.024,1.063-3.305,1.635-4.765,1.307c-0.925-0.202-2.239-2.761-1.907-3.779c1.285-3.88,3.165-7.562,5.072-11.898
		C948.955,571.375,949.76,579.135,947.1,581.89z M959.769,564.508c-4.051,2.9-6.167-0.174-8.499-3.106
		c-5.194-6.519-9.957-13.614-16.147-19.038c-12.899-11.305-28.789-16.566-45.509-19.306c-6.254-1.028-12.627-1.408-18.884-2.44
		c-2.103-0.349-4.019-1.799-6.027-2.744c1.376-1.753,2.43-3.984,4.193-5.18c12.002-8.168,25.125-13.864,39.344-16.907
		c4.393-0.941,8.845-1.625,14.991-2.748c2.547,1.272,6.471,2.59,9.607,4.947c6.414,4.825,12.867,9.758,18.474,15.454
		c9.475,9.639,15.749,21.318,17.054,34.903C969.01,555.025,965.242,560.593,959.769,564.508z M974.587,419.921
		c-2.681-7.328-2.852-14.15-0.683-20.983c0.363-1.133,2.037-2.154,3.313-2.556c0.578-0.178,1.927,1.133,2.488,2.033
		C982.833,403.459,980.225,415.612,974.587,419.921z M332.995,532.77c-4.239-11.901-9.238-22.241-11.421-33.139
		c-2.165-10.838-1.506-22.238-2.161-34.795c-2.95,3.688-5.205,6.519-7.987,9.991c-0.564-4.351-1.014-7.798-1.457-11.253
		c-0.638-0.143-1.272-0.29-1.911-0.439c-1.513,2.807-3.49,5.453-4.462,8.437c-4.769,14.684-3.796,29.464,0.837,43.901
		c1.523,4.755,4.842,8.997,7.725,13.212c0.684,0.99,2.942,0.896,4.473,1.3c0.266-1.534,0.893-3.116,0.701-4.58
		c-0.324-2.396-1.178-4.717-1.813-7.063C320.706,523.525,323.812,530.633,332.995,532.77z M802.931,515.583
		c0.241,1.66,0.977,3.249,1.499,4.874c1.549-1.102,3.676-1.875,4.543-3.378c3.758-6.481,3.229-13.491,1.447-20.404
		c-0.377-1.46-2.105-2.573-3.205-3.842c-1.02,1.412-2.656,2.706-2.956,4.26c-0.817,4.25-1.087,8.614-1.574,12.926
		c0.065,0.011,0.124,0.024,0.19,0.042C802.875,511.906,802.677,513.774,802.931,515.583z M855.784,742.16
		c-10.984-8.719-23.294-15.408-36.758-19.152c-14.307-3.98-28.997-6.596-43.499-9.852c-24.515-5.504-48.782-12.533-72.52-11.504
		c-5.818,0-9.862-0.156-13.892,0.027c-20.22,0.93-39.33,6.059-56.74,16.42c-15.653,9.314-16.755,19.57-14.526,34.324
		c2.196,14.59,7.806,28.297,14.652,41.367c7.771,14.832,16.461,28.906,32.337,36.689c37.231,18.262,76.366,28.006,117.97,25.395
		c18.113-1.145,32.857-8.717,40.551-26.6c4.027-9.367,10.438-16.971,17.82-24.082c4.024-3.865,6.994-9.406,8.863-14.74
		c1.446-4.113,3.183-7.066,6.748-9.367c4.738-3.047,8.503-6.904,9.884-12.752C869.376,756.896,864.115,748.764,855.784,742.16z
		 M661.621,734.773c1.656-4.127,4.846-5.633,8.838-4.734c2.119,0.488,3.83,2.568,5.937,3.41c1.593,0.637,3.984,1.232,5.212,0.49
		c10.022-6.023,12.455-5.602,19.075,4.086c0.555,0.816,1.276,1.514,2.612,3.066c1.934-2.979,3.318-5.402,4.978-7.643
		c3.339-4.508,6.603-4.895,10.309-0.656c2.936,3.357,5.173,7.34,7.617,11.107c0.966,1.484,1.659,3.152,3.063,5.885
		c1.967-3.051,3.389-5.182,4.734-7.365c3.811-6.199,8.019-6.416,11.679-0.092c2.563,4.43,4.218,9.385,6.715,15.098
		c1.377-2.404,2.443-4.123,3.382-5.912c1.687-3.211,2.688-7.551,7.254-7.324c4.65,0.23,8.91,2.332,10.98,6.854
		c1.364,2.984,1.922,6.348,2.854,9.535c0.316,1.076,0.654,2.146,1.477,4.797c2.1-3.678,3.553-6.178,4.961-8.697
		c1.873-3.365,4.65-5.516,8.538-5.039c4.135,0.516,4.881,3.842,5.313,7.424c0.369,3.066,1.299,6.064,1.989,9.094
		c0.754,0.498,1.518,0.994,2.276,1.5c1.179-1.955,2.099-4.152,3.605-5.818c3.055-3.387,5.021-3.068,6.394,1.111
		c1.063,3.238,2.169,5.068,6.003,3.393c0.693-0.307,3.553,2.252,3.424,2.514c-2.137,4.393-4.09,9.049-7.227,12.676
		c-1.287,1.488-5.352,1.107-8.019,0.715c-2.517-0.367-4.87-1.877-7.799-3.082c-9.416,5.207-14.757,4.473-24.019-3.211
		c-1.308-1.082-3.877-0.953-5.832-0.852c-2.295,0.115-4.551,1.033-6.844,1.195c-4.933,0.367-7.973-1.809-8.636-6.961
		c-0.16-1.248-0.854-2.426-1.457-4.043c-4.901,3.666-10.226,5.02-14.437,0.787c-3.5-3.508-5.525-8.467-8.412-13.133
		c-2.701,1.945-5.326,4.281-8.332,5.92c-6.316,3.443-9.938,2.018-12.688-4.502c-3.72-8.867-3.72-8.867-12.223-3.887
		c-6.704,3.926-8.021,3.805-12.132-2.594c-2.621-4.092-4.577-2.271-7.16-0.135c-3.106,2.576-6.533,2.375-9.699-0.049
		C661.601,746.389,659.745,739.432,661.621,734.773z M743.022,819.934c-1.792-0.354-4.417-2.881-4.428-4.436
		c-0.021-2.27,1.523-5.068,3.284-6.652c1.126-1.01,3.894-0.453,5.863-0.195c2.444,0.318,4.836,1.029,7.237,1.633
		c1.559,0.391,3.228,0.662,4.608,1.414c2.162,1.189,4.187,2.646,6.146,4.164c0.822,0.648,1.286,1.729,1.924,2.604
		c-0.882,0.586-1.693,1.475-2.66,1.697c-2.899,0.666-5.859,1.07-8.791,1.58c0.003-0.311,0.01-0.629,0.018-0.938
		C751.814,820.578,747.32,820.777,743.022,819.934z M734.004,813.779c-0.973,1.145-3.476,1.973-4.86,1.547
		c-2.782-0.85-5.215-2.746-7.896-4.029c-1.51-0.725-3.553-1.914-4.73-1.418c-3.87,1.631-6.213-0.426-9.103-2.313
		c-2.8-1.822-6.108-2.887-9.26-4.141c-4.162-1.664-8.59-2.793-12.483-4.934c-1.597-0.881-3.312-4.166-2.845-5.695
		c1.112-3.553,4.603-4.518,7.837-2.848c2.785,1.432,4.926,4.064,7.652,5.654c1.844,1.076,4.413,2.156,6.307,1.721
		c9.691-2.252,9.648-2.422,15.586,4.48c3.047-0.822,5.619-2.172,8.115-2.029C732.725,800.031,736.896,810.412,734.004,813.779z
		 M646.725,732.002c0.202-0.59,3.113-1.049,3.368-0.658c1.732,2.674,3.092,5.588,4.999,9.254c-1.974,2.396-3.598,4.365-5.223,6.336
		c-1.875-1.766-5.1-3.365-5.33-5.32C644.17,738.518,645.63,735.123,646.725,732.002z M832.436,799.633
		c-7.109,14.369-15.375,27.969-27.534,38.717c-10.79,9.531-24.006,12.592-37.853,12.08c-34.381-1.266-67.377-8.211-97.615-25.564
		c-15.883-9.119-25.107-23.197-30.438-40.219c-0.571-1.82-0.38-3.881-0.684-7.453c2.995,1.725,5.055,2.549,6.662,3.908
		c14.852,12.455,30.824,23.078,48.893,30.307c18.916,7.572,38.512,12.191,58.892,13.484c7.021,0.439,14.038,1.178,21.001,2.211
		c14.52,2.154,26.19-3.248,36.43-12.979c4.623-4.396,9.259-8.807,14.063-12.998c2.312-2.014,5.042-3.557,7.58-5.314
		c0.385,0.355,0.78,0.711,1.178,1.066C832.828,797.793,832.836,798.814,832.436,799.633z M857.492,767.049
		c-0.938,1.16-2.653,1.697-4.013,2.531c-0.659-1.395-1.693-2.744-1.9-4.201c-0.327-2.309-0.069-4.693-0.093-7.047
		c-0.05-4.283-1.842-6.898-6.44-7.383c-25.866-2.75-50.749-9.514-75.271-18.01c-16.368-5.672-32.99-10.635-49.58-15.643
		c-6.377-1.926-13-3.047-19.488-4.623c-1.697-0.414-3.311-1.184-4.964-1.787c0.024-0.656,0.06-1.307,0.091-1.963
		c5.672-0.25,11.361-0.813,17.029-0.693c24.483,0.498,48.047,6.6,71.65,12.279c19.035,4.58,37.943,9.777,54.924,19.842
		c6.114,3.629,11.521,8.631,16.695,13.596C860.531,758.168,860.731,763.025,857.492,767.049z M737.1,621.213
		c5.383-0.898,11.124,0.453,16.701,0.492c2.256,0.02,4.501-0.777,6.75-1.207c-1.514-2-2.943-4.068-4.585-5.961
		c-0.46-0.533-1.534-0.768-2.315-0.752c-7.641,0.18-15.352-0.164-22.883,0.84c-7.906,1.059-10.353,4.297-11.465,12.232
		c-0.54,3.811-0.813,7.656-1.196,11.477c-1.666,13.756,7.796,19.982,18.696,25.637c1.852,0.963,4.535,0.574,6.819,0.443
		c10.336-0.631,20.801-2.77,30.949-1.744c11.184,1.123,22.743,3.984,26.646,17.508c0.965,3.344,3.587,3.043,5.943,1.021
		c3.971-3.416,3.755-8.297-0.865-12.568c-8.09-7.488-17.873-11.557-28.609-13.498c-10.379-1.875-20.604-3.182-29.734,4.273
		c-0.944,0.775-3.744,0.105-5.197-0.742c-3.444-1.996-6.498-4.674-9.897-6.773c-6.791-4.197-9.761-9.465-8.426-16.715
		C725.748,628.031,729.827,622.443,737.1,621.213z M747.471,530.971c-11.243,5.362-22.834,5.348-34.119,1.039
		c-10.549-4.027-20.609-9.322-30.929-13.962c-2.259-1.015-4.703-1.614-7.06-2.402c-0.387,0.544-0.771,1.091-1.16,1.642
		c1.578,2.162,2.852,4.661,4.789,6.439c11.31,10.375,25.09,15.607,39.899,18.449c9.673,1.858,19.058,0.847,27.62-4.204
		c2.649-1.559,4.64-4.219,6.927-6.37l-1.388-1.872C750.521,530.135,748.875,530.298,747.471,530.971z M636.574,651.73
		c-21.709,27.408-34.83,58.174-35.193,93.654c0,1.514-0.307,3.107,0.066,4.521c0.823,3.166,1.99,6.252,3.016,9.363
		c1.621-3.057,4.229-5.982,4.675-9.203c1.478-10.611,1.757-21.393,3.273-31.988c1.837-12.779,4.87-25.268,12.17-36.328
		c12.881-19.533,28.684-36.381,46.776-51.107c8.2-6.662,16.64-13.148,27.111-15.902c4.023-1.057,8.392-0.848,12.359-2.037
		c2.15-0.641,3.796-2.984,5.672-4.563c-1.984-0.785-4.027-2.371-5.958-2.246c-12.92,0.873-24.839,5.07-35.941,11.662
		C659.666,626.428,647.271,638.232,636.574,651.73z"/>
</g>
</svg>
