<?xml version="1.0" standalone="no"?><!-- Generator: Gravit.io --><svg xmlns="http://www.w3.org/2000/svg" xmlns:xlink="http://www.w3.org/1999/xlink" style="isolation:isolate" viewBox="-23 285.8 200 200" width="200" height="200"><defs><clipPath id="_clipPath_lY2zB35mqQDdpUwsbk3HOsq5Yr239ZZr"><rect x="-23" y="285.8" width="200" height="200"/></clipPath></defs><g clip-path="url(#_clipPath_lY2zB35mqQDdpUwsbk3HOsq5Yr239ZZr)"><g><g><g><path d=" M 175.596 299.809 C 158.211 281.394 125.532 281.394 94.537 298.276 C 93.415 314.367 99.11 331.585 111.458 344.664 C 121.157 354.933 133.265 360.836 145.381 362.35 C 168.964 332.201 181.367 305.917 175.596 299.809 Z  M 142.837 311.432 C 140.167 314.26 135.843 314.26 133.176 311.441 C 130.502 308.612 130.502 304.027 133.176 301.199 C 135.843 298.37 140.167 298.37 142.842 301.199 C 145.504 304.027 145.504 308.612 142.837 311.432 Z " fill="rgb(0,0,0)"/><path d=" M 83.298 305.202 C 81.011 306.784 78.746 308.46 76.506 310.23 L 71.19 307.262 C 66.554 304.693 60.854 305.582 57.15 309.501 L 19.763 349.101 C 17.068 351.957 15.848 356.014 16.422 360.004 C 17 363.986 19.341 367.458 22.712 369.33 L 31.192 374.036 C 22.695 395.02 18.084 415.58 16.827 428.601 L -20.087 442.051 C -21.754 442.654 -22.901 444.263 -22.994 446.122 C -23.087 447.985 -22.112 449.724 -20.522 450.51 L -4.423 458.54 C -1.271 460.113 1.256 462.794 2.741 466.128 L 10.322 483.175 C 11.068 484.855 12.71 485.892 14.46 485.794 C 16.22 485.695 17.738 484.471 18.312 482.719 L 31.023 443.557 C 48.354 440.532 78.417 426.501 104.527 405.369 L 107.45 414.932 C 107.978 416.661 109.302 417.957 110.973 418.381 C 112.644 418.81 114.386 418.27 115.605 416.987 L 118.731 413.672 C 121.136 411.12 122.617 407.742 122.853 404.14 L 123.958 387.33 C 128.519 382.463 132.843 377.593 136.927 372.762 C 124.882 369.804 113.213 363.204 103.582 353.002 C 90.828 339.489 84.007 322.196 83.298 305.202 Z " fill="rgb(0,0,0)"/></g></g></g></g></svg>