<?xml version="1.0" standalone="no"?><!-- Generator: Gravit.io --><svg xmlns="http://www.w3.org/2000/svg" xmlns:xlink="http://www.w3.org/1999/xlink" style="isolation:isolate" viewBox="-124 142 200 200" width="200" height="200"><defs><clipPath id="_clipPath_I8MWehEJ516S4MOjyIvp5ZrY9M86xO21"><rect x="-124" y="142" width="200" height="200"/></clipPath></defs><g clip-path="url(#_clipPath_I8MWehEJ516S4MOjyIvp5ZrY9M86xO21)"><g><g><g><path d=" M 67.909 212.775 C 64.476 209.811 61.052 206.833 57.472 204.022 C 54.023 201.315 50.525 198.62 46.777 196.283 C 43.676 194.348 40.175 192.95 36.859 191.3 C 35.171 190.461 33.467 189.64 31.826 188.729 C 29.971 187.698 28.404 186.409 27.182 184.695 C 24.345 180.718 20.501 177.659 16.041 175.29 C 13.13 173.746 10.076 172.43 7.103 170.983 C 6.384 170.633 5.731 170.171 5.113 169.646 C 7.561 169.199 9.727 169.682 11.747 170.964 C 10.807 168.523 8.437 167.335 6.372 165.885 C 6.403 165.783 6.435 165.681 6.467 165.579 C 8.239 165.899 10.013 166.221 11.733 166.53 C 11.505 165.765 10.844 164.937 9.245 163.95 C 3.489 160.394 -2.817 158.498 -9.824 159 C -12.303 159.178 -14.808 159.4 -17.221 159.915 C -22.27 160.993 -27.28 162.242 -32.277 163.516 C -33.318 163.781 -34.282 164.394 -35.195 164.964 C -40.125 168.044 -45.102 171.07 -49.92 174.293 C -54.275 177.206 -57.496 181.099 -60.455 185.194 C -64.611 190.948 -65.847 197.267 -65.147 204.025 C -64.889 206.511 -64.813 209.012 -64.601 211.503 C -64.226 215.889 -66.413 219.06 -70.403 221.137 C -74.416 223.225 -78.656 223.318 -82.792 221.302 C -85.281 220.088 -86.842 218.069 -87.889 215.727 C -90.101 210.783 -90.397 205.726 -88.229 200.754 C -86.119 195.917 -83.678 191.201 -81.366 186.438 C -78.532 180.6 -75.592 174.806 -73.435 168.709 C -71.536 163.34 -71.453 158.059 -73.745 152.764 C -75.566 148.56 -78.652 145.606 -83.346 144.078 C -89.608 142.039 -95.996 141.554 -102.579 142.389 C -107.048 142.956 -110.279 145.023 -112.567 148.46 C -113.584 149.987 -114.606 151.53 -115.41 153.153 C -116.963 156.285 -118.891 159.207 -120.918 162.087 C -121.465 162.865 -121.919 163.7 -122.485 164.467 C -124.243 166.845 -124.4 169.406 -123.322 171.992 C -122.026 175.102 -120.663 178.201 -119.085 181.197 C -118.205 182.869 -116.862 184.344 -115.655 185.862 C -115.371 186.22 -114.8 186.386 -114.362 186.641 C -114.09 186.211 -113.619 185.793 -113.585 185.347 C -113.476 183.936 -113.345 182.489 -113.557 181.1 C -114.325 176.039 -112.738 171.548 -110.037 167.22 C -109.012 165.576 -107.764 164.376 -105.838 163.706 C -104.327 163.179 -102.887 162.472 -101.363 161.983 C -98.37 161.022 -96.175 159.163 -94.257 156.955 C -93.607 156.207 -92.968 155.449 -92.323 154.697 C -91.542 153.787 -90.493 153.364 -89.252 153.301 C -86.981 153.184 -84.915 153.819 -82.979 154.822 C -81.533 155.57 -81.097 156.89 -81.04 158.295 C -80.92 161.24 -81.157 164.142 -82.237 166.968 C -83.997 171.576 -86.072 176.046 -88.391 180.446 C -92.332 187.919 -95.966 195.525 -98.826 203.417 C -100.424 207.818 -100.264 212.317 -99.362 216.791 C -98.913 219.021 -98.311 221.277 -97.352 223.358 C -95.442 227.507 -91.846 230.274 -87.442 232.057 C -78.957 235.493 -70.445 235.223 -62.059 231.707 C -57.962 229.989 -54.81 227.143 -51.839 224.117 C -49.831 222.072 -47.625 220.215 -44.568 219.662 C -42.795 219.342 -40.956 219.273 -39.143 219.215 C -37.944 219.177 -36.94 219.823 -36.388 220.726 C -35.31 222.493 -34.223 224.289 -33.478 226.184 C -31.897 230.216 -31.203 234.447 -30.833 238.698 C -30.348 244.267 -29.898 249.844 -29.688 255.425 C -29.569 258.56 -29.832 261.72 -30.161 264.849 C -30.431 267.426 -30.096 269.939 -29.443 272.38 C -28.081 277.468 -27.945 282.633 -27.787 287.816 C -27.609 293.71 -27.371 299.603 -27.137 305.494 C -26.843 312.932 -26.519 320.367 -26.231 327.803 C -26.19 328.878 -26.236 329.959 -26.321 331.033 C -26.383 331.823 -26.903 332.121 -27.804 332.223 C -32.456 332.744 -37.102 333.315 -41.739 333.935 C -42.114 333.986 -42.436 334.084 -42.723 334.214 C -45.053 334.298 -47.384 334.383 -49.714 334.467 C -51.368 334.526 -52.752 335.687 -52.752 337.247 C -52.752 338.218 -52.147 339.142 -51.262 339.642 C -50.906 340.642 -49.984 341.454 -48.491 341.459 C -44.089 341.473 -39.685 341.487 -35.283 341.502 C -33.913 341.86 -32.406 342.12 -31.04 341.943 C -28.76 341.648 -26.443 341.142 -24.33 340.32 C -19.932 338.611 -18.652 332.982 -21.669 329.596 C -22.023 329.198 -22.265 328.602 -22.291 328.088 C -22.469 324.389 -22.531 320.686 -22.72 316.987 C -23.116 309.278 -23.65 301.574 -23.968 293.864 C -24.178 288.777 -24.183 283.678 -24.126 278.587 C -24.11 277.136 -23.483 275.699 -23.274 274.237 C -22.958 272.013 -22.659 269.78 -22.539 267.541 C -22.305 263.131 -23.037 258.83 -24.156 254.531 C -24.292 254.011 -24.403 253.487 -24.503 252.961 C -23.537 254.146 -22.475 255.27 -21.315 256.328 C -20.514 257.057 -19.351 257.29 -18.32 257.024 C -17.956 256.976 -17.591 256.865 -17.237 256.675 C -15.889 255.954 -15.205 254.12 -16.147 252.871 C -17.337 251.292 -18.132 249.375 -18.256 247.848 C -18.304 247.273 -18.33 246.697 -18.296 246.121 C -18.28 245.849 -18.263 245.577 -18.23 245.306 C -18.221 245.263 -18.214 245.211 -18.201 245.144 C -18.007 244.195 -17.716 243.283 -17.313 242.39 C -17.153 242.037 -17.116 241.666 -17.175 241.306 C -15.902 240.987 -14.616 240.701 -13.35 240.39 C -10.617 239.72 -7.886 239.049 -5.155 238.379 C 5.031 235.878 15.217 233.377 25.404 230.876 C 25.924 231.017 26.487 231.034 27.034 230.888 C 28.56 230.482 30.084 230.075 31.611 229.668 C 32.084 229.932 32.631 230.078 33.19 230.078 L 33.494 230.078 C 34.297 230.078 35.075 229.783 35.643 229.263 C 36.21 228.744 36.533 228.032 36.533 227.297 C 36.533 227.091 36.505 226.889 36.457 226.691 C 36.454 225.96 36.255 225.225 35.782 224.634 C 35.371 224.12 34.919 223.595 34.269 223.311 C 33.505 222.977 33.129 222.881 32.281 222.818 C 32.168 222.809 32.052 222.813 31.935 222.824 C 29.509 221.516 27.083 220.207 24.658 218.899 C 26.707 218.232 28.765 217.606 30.85 217.075 C 45.936 213.23 60.377 214.777 73.967 222.083 C 74.564 222.404 75.137 222.763 75.722 223.104 C 75.815 223.049 75.907 222.994 76 222.939 C 75.49 221.889 75.072 220.79 74.452 219.798 C 72.752 217.087 70.362 214.894 67.909 212.775 Z  M -11.067 234.069 C -14.152 234.826 -17.272 235.509 -20.328 236.358 C -22.348 236.92 -24.586 237.677 -26.254 238.971 C -26.591 236.289 -26.926 233.606 -27.254 230.923 C -27.415 229.604 -27.567 228.28 -27.61 226.956 C -27.657 225.487 -27.045 224.907 -25.435 224.908 C -23.448 224.911 -21.455 225.125 -19.472 225.059 C -15.065 224.91 -10.66 224.684 -6.26 224.409 C -2.895 224.199 0.46 223.859 3.822 223.603 C 4.173 223.577 16.202 222.405 15.159 222.081 C 15.87 221.85 16.579 221.616 17.285 221.379 C 19.717 222.69 22.15 224.002 24.583 225.314 C 12.7 228.234 0.816 231.151 -11.067 234.069 Z " fill="rgb(0,0,0)"/></g></g></g></g></svg>